<svg width="1680px" height="420px" xmlns="http://www.w3.org/2000/svg"><rect x="0" y="0" width="200" height="50" style="fill: #5a8aa5;"></rect><text x="0" y="20" font-size="25px" style="fill: black;">Air Force Blue</text><text x="0" y="45" font-size="25px" style="fill: white;">Air Force Blue</text><rect x="210" y="0" width="200" height="50" style="fill: #eff7ff;"></rect><text x="210" y="20" font-size="25px" style="fill: black;">Alice Blue</text><text x="210" y="45" font-size="25px" style="fill: white;">Alice Blue</text><rect x="420" y="0" width="200" height="50" style="fill: #6bb2ef;"></rect><text x="420" y="20" font-size="25px" style="fill: black;">Argentinian Blue</text><text x="420" y="45" font-size="25px" style="fill: white;">Argentinian Blue</text><rect x="630" y="0" width="200" height="50" style="fill: #0082ff;"></rect><text x="630" y="20" font-size="25px" style="fill: black;">Azure</text><text x="630" y="45" font-size="25px" style="fill: white;">Azure</text><rect x="840" y="0" width="200" height="50" style="fill: #efffff;"></rect><text x="840" y="20" font-size="25px" style="fill: black;">Azure (X11/web color)</text><text x="840" y="45" font-size="25px" style="fill: white;">Azure (X11/web color)</text><rect x="1050" y="0" width="200" height="50" style="fill: #8cceef;"></rect><text x="1050" y="20" font-size="25px" style="fill: black;">Baby Blue</text><text x="1050" y="45" font-size="25px" style="fill: white;">Baby Blue</text><rect x="1260" y="0" width="200" height="50" style="fill: #003163;"></rect><text x="1260" y="20" font-size="25px" style="fill: black;">Berkeley Blue</text><text x="1260" y="45" font-size="25px" style="fill: white;">Berkeley Blue</text><rect x="1470" y="0" width="200" height="50" style="fill: #318ee6;"></rect><text x="1470" y="20" font-size="25px" style="fill: black;">Bleu de France</text><text x="1470" y="45" font-size="25px" style="fill: white;">Bleu de France</text><rect x="0" y="60" width="200" height="50" style="fill: #2175ff;"></rect><text x="0" y="80" font-size="25px" style="fill: black;">Blue (Crayola)</text><text x="0" y="105" font-size="25px" style="fill: white;">Blue (Crayola)</text><rect x="210" y="60" width="200" height="50" style="fill: #0092ad;"></rect><text x="210" y="80" font-size="25px" style="fill: black;">Blue (Munsell)</text><text x="210" y="105" font-size="25px" style="fill: white;">Blue (Munsell)</text><rect x="420" y="60" width="200" height="50" style="fill: #0086bd;"></rect><text x="420" y="80" font-size="25px" style="fill: black;">Blue (NCS)</text><text x="420" y="105" font-size="25px" style="fill: white;">Blue (NCS)</text><rect x="630" y="60" width="200" height="50" style="fill: #0071ff;"></rect><text x="630" y="80" font-size="25px" style="fill: black;">Brandeis Blue</text><text x="630" y="105" font-size="25px" style="fill: white;">Brandeis Blue</text><rect x="840" y="60" width="200" height="50" style="fill: #4a96ce;"></rect><text x="840" y="80" font-size="25px" style="fill: black;">Celestial Blue</text><text x="840" y="105" font-size="25px" style="fill: white;">Celestial Blue</text><rect x="1050" y="60" width="200" height="50" style="fill: #2169ce;"></rect><text x="1050" y="80" font-size="25px" style="fill: black;">Celtic Blue</text><text x="1050" y="105" font-size="25px" style="fill: white;">Celtic Blue</text><rect x="1260" y="60" width="200" height="50" style="fill: #0079a5;"></rect><text x="1260" y="80" font-size="25px" style="fill: black;">Cerulean</text><text x="1260" y="105" font-size="25px" style="fill: white;">Cerulean</text><rect x="1470" y="60" width="200" height="50" style="fill: #4a8ee6;"></rect><text x="1470" y="80" font-size="25px" style="fill: black;">Chefchaouen Blue</text><text x="1470" y="105" font-size="25px" style="fill: white;">Chefchaouen Blue</text><rect x="0" y="120" width="200" height="50" style="fill: #b5dbef;"></rect><text x="0" y="140" font-size="25px" style="fill: black;">Columbia Blue</text><text x="0" y="165" font-size="25px" style="fill: white;">Columbia Blue</text><rect x="210" y="120" width="200" height="50" style="fill: #6396ef;"></rect><text x="210" y="140" font-size="25px" style="fill: black;">Cornflower Blue</text><text x="210" y="165" font-size="25px" style="fill: white;">Cornflower Blue</text><rect x="420" y="120" width="200" height="50" style="fill: #00beff;"></rect><text x="420" y="140" font-size="25px" style="fill: black;">Deep Sky Blue</text><text x="420" y="165" font-size="25px" style="fill: white;">Deep Sky Blue</text><rect x="630" y="120" width="200" height="50" style="fill: #21315a;"></rect><text x="630" y="140" font-size="25px" style="fill: black;">Delft Blue</text><text x="630" y="165" font-size="25px" style="fill: white;">Delft Blue</text><rect x="840" y="120" width="200" height="50" style="fill: #2192ff;"></rect><text x="840" y="140" font-size="25px" style="fill: black;">Dodger Blue</text><text x="840" y="165" font-size="25px" style="fill: white;">Dodger Blue</text><rect x="1050" y="120" width="200" height="50" style="fill: #0071bd;"></rect><text x="1050" y="140" font-size="25px" style="fill: black;">French Blue</text><text x="1050" y="165" font-size="25px" style="fill: white;">French Blue</text><rect x="1260" y="120" width="200" height="50" style="fill: #1065b5;"></rect><text x="1260" y="140" font-size="25px" style="fill: black;">Green-blue</text><text x="1260" y="165" font-size="25px" style="fill: white;">Green-blue</text><rect x="1470" y="120" width="200" height="50" style="fill: #0075b5;"></rect><text x="1470" y="140" font-size="25px" style="fill: black;">Honolulu Blue</text><text x="1470" y="165" font-size="25px" style="fill: white;">Honolulu Blue</text><rect x="0" y="180" width="200" height="50" style="fill: #8cbaef;"></rect><text x="0" y="200" font-size="25px" style="fill: black;">Jordy Blue</text><text x="0" y="225" font-size="25px" style="fill: white;">Jordy Blue</text><rect x="210" y="180" width="200" height="50" style="fill: #29619c;"></rect><text x="210" y="200" font-size="25px" style="fill: black;">Lapis Lazuli</text><text x="210" y="225" font-size="25px" style="fill: white;">Lapis Lazuli</text><rect x="420" y="180" width="200" height="50" style="fill: #add7e6;"></rect><text x="420" y="200" font-size="25px" style="fill: black;">Light blue</text><text x="420" y="225" font-size="25px" style="fill: white;">Light blue</text><rect x="630" y="180" width="200" height="50" style="fill: #84cef7;"></rect><text x="630" y="200" font-size="25px" style="fill: black;">Light Sky Blue</text><text x="630" y="225" font-size="25px" style="fill: white;">Light Sky Blue</text><rect x="840" y="180" width="200" height="50" style="fill: #73c2ff;"></rect><text x="840" y="200" font-size="25px" style="fill: black;">Maya Blue</text><text x="840" y="225" font-size="25px" style="fill: white;">Maya Blue</text><rect x="1050" y="180" width="200" height="50" style="fill: #84d2f7;"></rect><text x="1050" y="200" font-size="25px" style="fill: black;">Pale azure</text><text x="1050" y="225" font-size="25px" style="fill: white;">Pale azure</text><rect x="1260" y="180" width="200" height="50" style="fill: #42b2e6;"></rect><text x="1260" y="200" font-size="25px" style="fill: black;">Picton Blue</text><text x="1260" y="225" font-size="25px" style="fill: white;">Picton Blue</text><rect x="1470" y="180" width="200" height="50" style="fill: #214d94;"></rect><text x="1470" y="200" font-size="25px" style="fill: black;">Polynesian Blue</text><text x="1470" y="225" font-size="25px" style="fill: white;">Polynesian Blue</text><rect x="0" y="240" width="200" height="50" style="fill: #002484;"></rect><text x="0" y="260" font-size="25px" style="fill: black;">Resolution Blue</text><text x="0" y="285" font-size="25px" style="fill: white;">Resolution Blue</text><rect x="210" y="240" width="200" height="50" style="fill: #002463;"></rect><text x="210" y="260" font-size="25px" style="fill: black;">Royal blue (traditional)</text><text x="210" y="285" font-size="25px" style="fill: white;">Royal blue (traditional)</text><rect x="420" y="240" width="200" height="50" style="fill: #4269de;"></rect><text x="420" y="260" font-size="25px" style="fill: black;">Royal Blue (web color)</text><text x="420" y="285" font-size="25px" style="fill: white;">Royal Blue (web color)</text><rect x="630" y="240" width="200" height="50" style="fill: #73aade;"></rect><text x="630" y="260" font-size="25px" style="fill: black;">Ruddy Blue</text><text x="630" y="285" font-size="25px" style="fill: white;">Ruddy Blue</text><rect x="840" y="240" width="200" height="50" style="fill: #08246b;"></rect><text x="840" y="260" font-size="25px" style="fill: black;">Sapphire</text><text x="840" y="285" font-size="25px" style="fill: white;">Sapphire</text><rect x="1050" y="240" width="200" height="50" style="fill: #5a8abd;"></rect><text x="1050" y="260" font-size="25px" style="fill: black;">Silver Lake Blue</text><text x="1050" y="285" font-size="25px" style="fill: white;">Silver Lake Blue</text><rect x="1260" y="240" width="200" height="50" style="fill: #84ceef;"></rect><text x="1260" y="260" font-size="25px" style="fill: black;">Sky Blue</text><text x="1260" y="285" font-size="25px" style="fill: white;">Sky Blue</text><rect x="1470" y="240" width="200" height="50" style="fill: #0071bd;"></rect><text x="1470" y="260" font-size="25px" style="fill: black;">Spanish Blue</text><text x="1470" y="285" font-size="25px" style="fill: white;">Spanish Blue</text><rect x="0" y="300" width="200" height="50" style="fill: #4a82b5;"></rect><text x="0" y="320" font-size="25px" style="fill: black;">Steel Blue</text><text x="0" y="345" font-size="25px" style="fill: white;">Steel Blue</text><rect x="210" y="300" width="200" height="50" style="fill: #0059ce;"></rect><text x="210" y="320" font-size="25px" style="fill: black;">Tang Blue</text><text x="210" y="345" font-size="25px" style="fill: white;">Tang Blue</text><rect x="420" y="300" width="200" height="50" style="fill: #2969c5;"></rect><text x="420" y="320" font-size="25px" style="fill: black;">True Blue</text><text x="420" y="345" font-size="25px" style="fill: white;">True Blue</text><rect x="630" y="300" width="200" height="50" style="fill: #428ede;"></rect><text x="630" y="320" font-size="25px" style="fill: black;">Tufts Blue</text><text x="630" y="345" font-size="25px" style="fill: white;">Tufts Blue</text><rect x="840" y="300" width="200" height="50" style="fill: #4a92de;"></rect><text x="840" y="320" font-size="25px" style="fill: black;">United Nations Blue</text><text x="840" y="345" font-size="25px" style="fill: white;">United Nations Blue</text><rect x="1050" y="300" width="200" height="50" style="fill: #00205a;"></rect><text x="1050" y="320" font-size="25px" style="fill: black;">University of Pennsylvania Blue</text><text x="1050" y="345" font-size="25px" style="fill: white;">University of Pennsylvania Blue</text><rect x="1260" y="300" width="200" height="50" style="fill: #addbf7;"></rect><text x="1260" y="320" font-size="25px" style="fill: black;">Uranian Blue</text><text x="1260" y="345" font-size="25px" style="fill: white;">Uranian Blue</text><rect x="1470" y="300" width="200" height="50" style="fill: #7b9ed6;"></rect><text x="1470" y="320" font-size="25px" style="fill: black;">Vista Blue</text><text x="1470" y="345" font-size="25px" style="fill: white;">Vista Blue</text><rect x="0" y="360" width="200" height="50" style="fill: #00356b;"></rect><text x="0" y="380" font-size="25px" style="fill: black;">Yale "Blue Site" Blue</text><text x="0" y="405" font-size="25px" style="fill: white;">Yale "Blue Site" Blue</text></svg>