<svg width="840px" height="2730px" xmlns="http://www.w3.org/2000/svg"><rect x="0" y="0" width="200" height="200" rx="20px" ry="20px" style="fill: #5a8aa5;"></rect><text x="0" y="40" font-size="20px" style="fill: black;">Air Force Blue</text><text x="0" y="60" font-size="20px" style="fill: white;">Air Force Blue</text><text x="0" y="80" font-size="20px" style="fill: black;">#5a8aa5</text><text x="0" y="100" font-size="20px" style="fill: white;">#5a8aa5</text><text x="0" y="120" font-size="20px" style="fill: black;">0x5c54</text><text x="0" y="140" font-size="20px" style="fill: white;">0x5c54</text><rect x="210" y="0" width="200" height="200" rx="20px" ry="20px" style="fill: #eff7ff;"></rect><text x="210" y="40" font-size="20px" style="fill: black;">Alice Blue</text><text x="210" y="60" font-size="20px" style="fill: white;">Alice Blue</text><text x="210" y="80" font-size="20px" style="fill: black;">#eff7ff</text><text x="210" y="100" font-size="20px" style="fill: white;">#eff7ff</text><text x="210" y="120" font-size="20px" style="fill: black;">0xefbf</text><text x="210" y="140" font-size="20px" style="fill: white;">0xefbf</text><rect x="420" y="0" width="200" height="200" rx="20px" ry="20px" style="fill: #6bb2ef;"></rect><text x="420" y="40" font-size="20px" style="fill: black;">Argentinian Blue</text><text x="420" y="60" font-size="20px" style="fill: white;">Argentinian Blue</text><text x="420" y="80" font-size="20px" style="fill: black;">#6bb2ef</text><text x="420" y="100" font-size="20px" style="fill: white;">#6bb2ef</text><text x="420" y="120" font-size="20px" style="fill: black;">0x6d9d</text><text x="420" y="140" font-size="20px" style="fill: white;">0x6d9d</text><rect x="630" y="0" width="200" height="200" rx="20px" ry="20px" style="fill: #0082ff;"></rect><text x="630" y="40" font-size="20px" style="fill: black;">Azure</text><text x="630" y="60" font-size="20px" style="fill: white;">Azure</text><text x="630" y="80" font-size="20px" style="fill: black;">#0082ff</text><text x="630" y="100" font-size="20px" style="fill: white;">#0082ff</text><text x="630" y="120" font-size="20px" style="fill: black;">0x41f</text><text x="630" y="140" font-size="20px" style="fill: white;">0x41f</text><rect x="0" y="210" width="200" height="200" rx="20px" ry="20px" style="fill: #efffff;"></rect><text x="0" y="250" font-size="20px" style="fill: black;">Azure (X11/web color)</text><text x="0" y="270" font-size="20px" style="fill: white;">Azure (X11/web color)</text><text x="0" y="290" font-size="20px" style="fill: black;">#efffff</text><text x="0" y="310" font-size="20px" style="fill: white;">#efffff</text><text x="0" y="330" font-size="20px" style="fill: black;">0xefff</text><text x="0" y="350" font-size="20px" style="fill: white;">0xefff</text><rect x="210" y="210" width="200" height="200" rx="20px" ry="20px" style="fill: #8cceef;"></rect><text x="210" y="250" font-size="20px" style="fill: black;">Baby Blue</text><text x="210" y="270" font-size="20px" style="fill: white;">Baby Blue</text><text x="210" y="290" font-size="20px" style="fill: black;">#8cceef</text><text x="210" y="310" font-size="20px" style="fill: white;">#8cceef</text><text x="210" y="330" font-size="20px" style="fill: black;">0x8e7d</text><text x="210" y="350" font-size="20px" style="fill: white;">0x8e7d</text><rect x="420" y="210" width="200" height="200" rx="20px" ry="20px" style="fill: #003163;"></rect><text x="420" y="250" font-size="20px" style="fill: black;">Berkeley Blue</text><text x="420" y="270" font-size="20px" style="fill: white;">Berkeley Blue</text><text x="420" y="290" font-size="20px" style="fill: black;">#003163</text><text x="420" y="310" font-size="20px" style="fill: white;">#003163</text><text x="420" y="330" font-size="20px" style="fill: black;">0x18c</text><text x="420" y="350" font-size="20px" style="fill: white;">0x18c</text><rect x="630" y="210" width="200" height="200" rx="20px" ry="20px" style="fill: #318ee6;"></rect><text x="630" y="250" font-size="20px" style="fill: black;">Bleu de France</text><text x="630" y="270" font-size="20px" style="fill: white;">Bleu de France</text><text x="630" y="290" font-size="20px" style="fill: black;">#318ee6</text><text x="630" y="310" font-size="20px" style="fill: white;">#318ee6</text><text x="630" y="330" font-size="20px" style="fill: black;">0x347c</text><text x="630" y="350" font-size="20px" style="fill: white;">0x347c</text><rect x="0" y="420" width="200" height="200" rx="20px" ry="20px" style="fill: #2175ff;"></rect><text x="0" y="460" font-size="20px" style="fill: black;">Blue (Crayola)</text><text x="0" y="480" font-size="20px" style="fill: white;">Blue (Crayola)</text><text x="0" y="500" font-size="20px" style="fill: black;">#2175ff</text><text x="0" y="520" font-size="20px" style="fill: white;">#2175ff</text><text x="0" y="540" font-size="20px" style="fill: black;">0x23bf</text><text x="0" y="560" font-size="20px" style="fill: white;">0x23bf</text><rect x="210" y="420" width="200" height="200" rx="20px" ry="20px" style="fill: #0092ad;"></rect><text x="210" y="460" font-size="20px" style="fill: black;">Blue (Munsell)</text><text x="210" y="480" font-size="20px" style="fill: white;">Blue (Munsell)</text><text x="210" y="500" font-size="20px" style="fill: black;">#0092ad</text><text x="210" y="520" font-size="20px" style="fill: white;">#0092ad</text><text x="210" y="540" font-size="20px" style="fill: black;">0x495</text><text x="210" y="560" font-size="20px" style="fill: white;">0x495</text><rect x="420" y="420" width="200" height="200" rx="20px" ry="20px" style="fill: #0086bd;"></rect><text x="420" y="460" font-size="20px" style="fill: black;">Blue (NCS)</text><text x="420" y="480" font-size="20px" style="fill: white;">Blue (NCS)</text><text x="420" y="500" font-size="20px" style="fill: black;">#0086bd</text><text x="420" y="520" font-size="20px" style="fill: white;">#0086bd</text><text x="420" y="540" font-size="20px" style="fill: black;">0x437</text><text x="420" y="560" font-size="20px" style="fill: white;">0x437</text><rect x="630" y="420" width="200" height="200" rx="20px" ry="20px" style="fill: #0071ff;"></rect><text x="630" y="460" font-size="20px" style="fill: black;">Brandeis Blue</text><text x="630" y="480" font-size="20px" style="fill: white;">Brandeis Blue</text><text x="630" y="500" font-size="20px" style="fill: black;">#0071ff</text><text x="630" y="520" font-size="20px" style="fill: white;">#0071ff</text><text x="630" y="540" font-size="20px" style="fill: black;">0x39f</text><text x="630" y="560" font-size="20px" style="fill: white;">0x39f</text><rect x="0" y="630" width="200" height="200" rx="20px" ry="20px" style="fill: #4a96ce;"></rect><text x="0" y="670" font-size="20px" style="fill: black;">Celestial Blue</text><text x="0" y="690" font-size="20px" style="fill: white;">Celestial Blue</text><text x="0" y="710" font-size="20px" style="fill: black;">#4a96ce</text><text x="0" y="730" font-size="20px" style="fill: white;">#4a96ce</text><text x="0" y="750" font-size="20px" style="fill: black;">0x4cb9</text><text x="0" y="770" font-size="20px" style="fill: white;">0x4cb9</text><rect x="210" y="630" width="200" height="200" rx="20px" ry="20px" style="fill: #2169ce;"></rect><text x="210" y="670" font-size="20px" style="fill: black;">Celtic Blue</text><text x="210" y="690" font-size="20px" style="fill: white;">Celtic Blue</text><text x="210" y="710" font-size="20px" style="fill: black;">#2169ce</text><text x="210" y="730" font-size="20px" style="fill: white;">#2169ce</text><text x="210" y="750" font-size="20px" style="fill: black;">0x2359</text><text x="210" y="770" font-size="20px" style="fill: white;">0x2359</text><rect x="420" y="630" width="200" height="200" rx="20px" ry="20px" style="fill: #0079a5;"></rect><text x="420" y="670" font-size="20px" style="fill: black;">Cerulean</text><text x="420" y="690" font-size="20px" style="fill: white;">Cerulean</text><text x="420" y="710" font-size="20px" style="fill: black;">#0079a5</text><text x="420" y="730" font-size="20px" style="fill: white;">#0079a5</text><text x="420" y="750" font-size="20px" style="fill: black;">0x3d4</text><text x="420" y="770" font-size="20px" style="fill: white;">0x3d4</text><rect x="630" y="630" width="200" height="200" rx="20px" ry="20px" style="fill: #4a8ee6;"></rect><text x="630" y="670" font-size="20px" style="fill: black;">Chefchaouen Blue</text><text x="630" y="690" font-size="20px" style="fill: white;">Chefchaouen Blue</text><text x="630" y="710" font-size="20px" style="fill: black;">#4a8ee6</text><text x="630" y="730" font-size="20px" style="fill: white;">#4a8ee6</text><text x="630" y="750" font-size="20px" style="fill: black;">0x4c7c</text><text x="630" y="770" font-size="20px" style="fill: white;">0x4c7c</text><rect x="0" y="840" width="200" height="200" rx="20px" ry="20px" style="fill: #b5dbef;"></rect><text x="0" y="880" font-size="20px" style="fill: black;">Columbia Blue</text><text x="0" y="900" font-size="20px" style="fill: white;">Columbia Blue</text><text x="0" y="920" font-size="20px" style="fill: black;">#b5dbef</text><text x="0" y="940" font-size="20px" style="fill: white;">#b5dbef</text><text x="0" y="960" font-size="20px" style="fill: black;">0xb6dd</text><text x="0" y="980" font-size="20px" style="fill: white;">0xb6dd</text><rect x="210" y="840" width="200" height="200" rx="20px" ry="20px" style="fill: #6396ef;"></rect><text x="210" y="880" font-size="20px" style="fill: black;">Cornflower Blue</text><text x="210" y="900" font-size="20px" style="fill: white;">Cornflower Blue</text><text x="210" y="920" font-size="20px" style="fill: black;">#6396ef</text><text x="210" y="940" font-size="20px" style="fill: white;">#6396ef</text><text x="210" y="960" font-size="20px" style="fill: black;">0x64bd</text><text x="210" y="980" font-size="20px" style="fill: white;">0x64bd</text><rect x="420" y="840" width="200" height="200" rx="20px" ry="20px" style="fill: #00beff;"></rect><text x="420" y="880" font-size="20px" style="fill: black;">Deep Sky Blue</text><text x="420" y="900" font-size="20px" style="fill: white;">Deep Sky Blue</text><text x="420" y="920" font-size="20px" style="fill: black;">#00beff</text><text x="420" y="940" font-size="20px" style="fill: white;">#00beff</text><text x="420" y="960" font-size="20px" style="fill: black;">0x5ff</text><text x="420" y="980" font-size="20px" style="fill: white;">0x5ff</text><rect x="630" y="840" width="200" height="200" rx="20px" ry="20px" style="fill: #21315a;"></rect><text x="630" y="880" font-size="20px" style="fill: black;">Delft Blue</text><text x="630" y="900" font-size="20px" style="fill: white;">Delft Blue</text><text x="630" y="920" font-size="20px" style="fill: black;">#21315a</text><text x="630" y="940" font-size="20px" style="fill: white;">#21315a</text><text x="630" y="960" font-size="20px" style="fill: black;">0x218b</text><text x="630" y="980" font-size="20px" style="fill: white;">0x218b</text><rect x="0" y="1050" width="200" height="200" rx="20px" ry="20px" style="fill: #2192ff;"></rect><text x="0" y="1090" font-size="20px" style="fill: black;">Dodger Blue</text><text x="0" y="1110" font-size="20px" style="fill: white;">Dodger Blue</text><text x="0" y="1130" font-size="20px" style="fill: black;">#2192ff</text><text x="0" y="1150" font-size="20px" style="fill: white;">#2192ff</text><text x="0" y="1170" font-size="20px" style="fill: black;">0x249f</text><text x="0" y="1190" font-size="20px" style="fill: white;">0x249f</text><rect x="210" y="1050" width="200" height="200" rx="20px" ry="20px" style="fill: #0071bd;"></rect><text x="210" y="1090" font-size="20px" style="fill: black;">French Blue</text><text x="210" y="1110" font-size="20px" style="fill: white;">French Blue</text><text x="210" y="1130" font-size="20px" style="fill: black;">#0071bd</text><text x="210" y="1150" font-size="20px" style="fill: white;">#0071bd</text><text x="210" y="1170" font-size="20px" style="fill: black;">0x397</text><text x="210" y="1190" font-size="20px" style="fill: white;">0x397</text><rect x="420" y="1050" width="200" height="200" rx="20px" ry="20px" style="fill: #1065b5;"></rect><text x="420" y="1090" font-size="20px" style="fill: black;">Green-blue</text><text x="420" y="1110" font-size="20px" style="fill: white;">Green-blue</text><text x="420" y="1130" font-size="20px" style="fill: black;">#1065b5</text><text x="420" y="1150" font-size="20px" style="fill: white;">#1065b5</text><text x="420" y="1170" font-size="20px" style="fill: black;">0x1336</text><text x="420" y="1190" font-size="20px" style="fill: white;">0x1336</text><rect x="630" y="1050" width="200" height="200" rx="20px" ry="20px" style="fill: #0075b5;"></rect><text x="630" y="1090" font-size="20px" style="fill: black;">Honolulu Blue</text><text x="630" y="1110" font-size="20px" style="fill: white;">Honolulu Blue</text><text x="630" y="1130" font-size="20px" style="fill: black;">#0075b5</text><text x="630" y="1150" font-size="20px" style="fill: white;">#0075b5</text><text x="630" y="1170" font-size="20px" style="fill: black;">0x3b6</text><text x="630" y="1190" font-size="20px" style="fill: white;">0x3b6</text><rect x="0" y="1260" width="200" height="200" rx="20px" ry="20px" style="fill: #8cbaef;"></rect><text x="0" y="1300" font-size="20px" style="fill: black;">Jordy Blue</text><text x="0" y="1320" font-size="20px" style="fill: white;">Jordy Blue</text><text x="0" y="1340" font-size="20px" style="fill: black;">#8cbaef</text><text x="0" y="1360" font-size="20px" style="fill: white;">#8cbaef</text><text x="0" y="1380" font-size="20px" style="fill: black;">0x8ddd</text><text x="0" y="1400" font-size="20px" style="fill: white;">0x8ddd</text><rect x="210" y="1260" width="200" height="200" rx="20px" ry="20px" style="fill: #29619c;"></rect><text x="210" y="1300" font-size="20px" style="fill: black;">Lapis Lazuli</text><text x="210" y="1320" font-size="20px" style="fill: white;">Lapis Lazuli</text><text x="210" y="1340" font-size="20px" style="fill: black;">#29619c</text><text x="210" y="1360" font-size="20px" style="fill: white;">#29619c</text><text x="210" y="1380" font-size="20px" style="fill: black;">0x2b13</text><text x="210" y="1400" font-size="20px" style="fill: white;">0x2b13</text><rect x="420" y="1260" width="200" height="200" rx="20px" ry="20px" style="fill: #add7e6;"></rect><text x="420" y="1300" font-size="20px" style="fill: black;">Light blue</text><text x="420" y="1320" font-size="20px" style="fill: white;">Light blue</text><text x="420" y="1340" font-size="20px" style="fill: black;">#add7e6</text><text x="420" y="1360" font-size="20px" style="fill: white;">#add7e6</text><text x="420" y="1380" font-size="20px" style="fill: black;">0xaebc</text><text x="420" y="1400" font-size="20px" style="fill: white;">0xaebc</text><rect x="630" y="1260" width="200" height="200" rx="20px" ry="20px" style="fill: #84cef7;"></rect><text x="630" y="1300" font-size="20px" style="fill: black;">Light Sky Blue</text><text x="630" y="1320" font-size="20px" style="fill: white;">Light Sky Blue</text><text x="630" y="1340" font-size="20px" style="fill: black;">#84cef7</text><text x="630" y="1360" font-size="20px" style="fill: white;">#84cef7</text><text x="630" y="1380" font-size="20px" style="fill: black;">0x867e</text><text x="630" y="1400" font-size="20px" style="fill: white;">0x867e</text><rect x="0" y="1470" width="200" height="200" rx="20px" ry="20px" style="fill: #73c2ff;"></rect><text x="0" y="1510" font-size="20px" style="fill: black;">Maya Blue</text><text x="0" y="1530" font-size="20px" style="fill: white;">Maya Blue</text><text x="0" y="1550" font-size="20px" style="fill: black;">#73c2ff</text><text x="0" y="1570" font-size="20px" style="fill: white;">#73c2ff</text><text x="0" y="1590" font-size="20px" style="fill: black;">0x761f</text><text x="0" y="1610" font-size="20px" style="fill: white;">0x761f</text><rect x="210" y="1470" width="200" height="200" rx="20px" ry="20px" style="fill: #84d2f7;"></rect><text x="210" y="1510" font-size="20px" style="fill: black;">Pale azure</text><text x="210" y="1530" font-size="20px" style="fill: white;">Pale azure</text><text x="210" y="1550" font-size="20px" style="fill: black;">#84d2f7</text><text x="210" y="1570" font-size="20px" style="fill: white;">#84d2f7</text><text x="210" y="1590" font-size="20px" style="fill: black;">0x869e</text><text x="210" y="1610" font-size="20px" style="fill: white;">0x869e</text><rect x="420" y="1470" width="200" height="200" rx="20px" ry="20px" style="fill: #42b2e6;"></rect><text x="420" y="1510" font-size="20px" style="fill: black;">Picton Blue</text><text x="420" y="1530" font-size="20px" style="fill: white;">Picton Blue</text><text x="420" y="1550" font-size="20px" style="fill: black;">#42b2e6</text><text x="420" y="1570" font-size="20px" style="fill: white;">#42b2e6</text><text x="420" y="1590" font-size="20px" style="fill: black;">0x459c</text><text x="420" y="1610" font-size="20px" style="fill: white;">0x459c</text><rect x="630" y="1470" width="200" height="200" rx="20px" ry="20px" style="fill: #214d94;"></rect><text x="630" y="1510" font-size="20px" style="fill: black;">Polynesian Blue</text><text x="630" y="1530" font-size="20px" style="fill: white;">Polynesian Blue</text><text x="630" y="1550" font-size="20px" style="fill: black;">#214d94</text><text x="630" y="1570" font-size="20px" style="fill: white;">#214d94</text><text x="630" y="1590" font-size="20px" style="fill: black;">0x2272</text><text x="630" y="1610" font-size="20px" style="fill: white;">0x2272</text><rect x="0" y="1680" width="200" height="200" rx="20px" ry="20px" style="fill: #002484;"></rect><text x="0" y="1720" font-size="20px" style="fill: black;">Resolution Blue</text><text x="0" y="1740" font-size="20px" style="fill: white;">Resolution Blue</text><text x="0" y="1760" font-size="20px" style="fill: black;">#002484</text><text x="0" y="1780" font-size="20px" style="fill: white;">#002484</text><text x="0" y="1800" font-size="20px" style="fill: black;">0x130</text><text x="0" y="1820" font-size="20px" style="fill: white;">0x130</text><rect x="210" y="1680" width="200" height="200" rx="20px" ry="20px" style="fill: #002463;"></rect><text x="210" y="1720" font-size="20px" style="fill: black;">Royal blue (traditional)</text><text x="210" y="1740" font-size="20px" style="fill: white;">Royal blue (traditional)</text><text x="210" y="1760" font-size="20px" style="fill: black;">#002463</text><text x="210" y="1780" font-size="20px" style="fill: white;">#002463</text><text x="210" y="1800" font-size="20px" style="fill: black;">0x12c</text><text x="210" y="1820" font-size="20px" style="fill: white;">0x12c</text><rect x="420" y="1680" width="200" height="200" rx="20px" ry="20px" style="fill: #4269de;"></rect><text x="420" y="1720" font-size="20px" style="fill: black;">Royal Blue (web color)</text><text x="420" y="1740" font-size="20px" style="fill: white;">Royal Blue (web color)</text><text x="420" y="1760" font-size="20px" style="fill: black;">#4269de</text><text x="420" y="1780" font-size="20px" style="fill: white;">#4269de</text><text x="420" y="1800" font-size="20px" style="fill: black;">0x435b</text><text x="420" y="1820" font-size="20px" style="fill: white;">0x435b</text><rect x="630" y="1680" width="200" height="200" rx="20px" ry="20px" style="fill: #73aade;"></rect><text x="630" y="1720" font-size="20px" style="fill: black;">Ruddy Blue</text><text x="630" y="1740" font-size="20px" style="fill: white;">Ruddy Blue</text><text x="630" y="1760" font-size="20px" style="fill: black;">#73aade</text><text x="630" y="1780" font-size="20px" style="fill: white;">#73aade</text><text x="630" y="1800" font-size="20px" style="fill: black;">0x755b</text><text x="630" y="1820" font-size="20px" style="fill: white;">0x755b</text><rect x="0" y="1890" width="200" height="200" rx="20px" ry="20px" style="fill: #08246b;"></rect><text x="0" y="1930" font-size="20px" style="fill: black;">Sapphire</text><text x="0" y="1950" font-size="20px" style="fill: white;">Sapphire</text><text x="0" y="1970" font-size="20px" style="fill: black;">#08246b</text><text x="0" y="1990" font-size="20px" style="fill: white;">#08246b</text><text x="0" y="2010" font-size="20px" style="fill: black;">0x92d</text><text x="0" y="2030" font-size="20px" style="fill: white;">0x92d</text><rect x="210" y="1890" width="200" height="200" rx="20px" ry="20px" style="fill: #5a8abd;"></rect><text x="210" y="1930" font-size="20px" style="fill: black;">Silver Lake Blue</text><text x="210" y="1950" font-size="20px" style="fill: white;">Silver Lake Blue</text><text x="210" y="1970" font-size="20px" style="fill: black;">#5a8abd</text><text x="210" y="1990" font-size="20px" style="fill: white;">#5a8abd</text><text x="210" y="2010" font-size="20px" style="fill: black;">0x5c57</text><text x="210" y="2030" font-size="20px" style="fill: white;">0x5c57</text><rect x="420" y="1890" width="200" height="200" rx="20px" ry="20px" style="fill: #84ceef;"></rect><text x="420" y="1930" font-size="20px" style="fill: black;">Sky Blue</text><text x="420" y="1950" font-size="20px" style="fill: white;">Sky Blue</text><text x="420" y="1970" font-size="20px" style="fill: black;">#84ceef</text><text x="420" y="1990" font-size="20px" style="fill: white;">#84ceef</text><text x="420" y="2010" font-size="20px" style="fill: black;">0x867d</text><text x="420" y="2030" font-size="20px" style="fill: white;">0x867d</text><rect x="630" y="1890" width="200" height="200" rx="20px" ry="20px" style="fill: #0071bd;"></rect><text x="630" y="1930" font-size="20px" style="fill: black;">Spanish Blue</text><text x="630" y="1950" font-size="20px" style="fill: white;">Spanish Blue</text><text x="630" y="1970" font-size="20px" style="fill: black;">#0071bd</text><text x="630" y="1990" font-size="20px" style="fill: white;">#0071bd</text><text x="630" y="2010" font-size="20px" style="fill: black;">0x397</text><text x="630" y="2030" font-size="20px" style="fill: white;">0x397</text><rect x="0" y="2100" width="200" height="200" rx="20px" ry="20px" style="fill: #4a82b5;"></rect><text x="0" y="2140" font-size="20px" style="fill: black;">Steel Blue</text><text x="0" y="2160" font-size="20px" style="fill: white;">Steel Blue</text><text x="0" y="2180" font-size="20px" style="fill: black;">#4a82b5</text><text x="0" y="2200" font-size="20px" style="fill: white;">#4a82b5</text><text x="0" y="2220" font-size="20px" style="fill: black;">0x4c16</text><text x="0" y="2240" font-size="20px" style="fill: white;">0x4c16</text><rect x="210" y="2100" width="200" height="200" rx="20px" ry="20px" style="fill: #0059ce;"></rect><text x="210" y="2140" font-size="20px" style="fill: black;">Tang Blue</text><text x="210" y="2160" font-size="20px" style="fill: white;">Tang Blue</text><text x="210" y="2180" font-size="20px" style="fill: black;">#0059ce</text><text x="210" y="2200" font-size="20px" style="fill: white;">#0059ce</text><text x="210" y="2220" font-size="20px" style="fill: black;">0x2d9</text><text x="210" y="2240" font-size="20px" style="fill: white;">0x2d9</text><rect x="420" y="2100" width="200" height="200" rx="20px" ry="20px" style="fill: #2969c5;"></rect><text x="420" y="2140" font-size="20px" style="fill: black;">True Blue</text><text x="420" y="2160" font-size="20px" style="fill: white;">True Blue</text><text x="420" y="2180" font-size="20px" style="fill: black;">#2969c5</text><text x="420" y="2200" font-size="20px" style="fill: white;">#2969c5</text><text x="420" y="2220" font-size="20px" style="fill: black;">0x2b58</text><text x="420" y="2240" font-size="20px" style="fill: white;">0x2b58</text><rect x="630" y="2100" width="200" height="200" rx="20px" ry="20px" style="fill: #428ede;"></rect><text x="630" y="2140" font-size="20px" style="fill: black;">Tufts Blue</text><text x="630" y="2160" font-size="20px" style="fill: white;">Tufts Blue</text><text x="630" y="2180" font-size="20px" style="fill: black;">#428ede</text><text x="630" y="2200" font-size="20px" style="fill: white;">#428ede</text><text x="630" y="2220" font-size="20px" style="fill: black;">0x447b</text><text x="630" y="2240" font-size="20px" style="fill: white;">0x447b</text><rect x="0" y="2310" width="200" height="200" rx="20px" ry="20px" style="fill: #4a92de;"></rect><text x="0" y="2350" font-size="20px" style="fill: black;">United Nations Blue</text><text x="0" y="2370" font-size="20px" style="fill: white;">United Nations Blue</text><text x="0" y="2390" font-size="20px" style="fill: black;">#4a92de</text><text x="0" y="2410" font-size="20px" style="fill: white;">#4a92de</text><text x="0" y="2430" font-size="20px" style="fill: black;">0x4c9b</text><text x="0" y="2450" font-size="20px" style="fill: white;">0x4c9b</text><rect x="210" y="2310" width="200" height="200" rx="20px" ry="20px" style="fill: #00205a;"></rect><text x="210" y="2350" font-size="20px" style="fill: black;">University of Pennsylvania Blue</text><text x="210" y="2370" font-size="20px" style="fill: white;">University of Pennsylvania Blue</text><text x="210" y="2390" font-size="20px" style="fill: black;">#00205a</text><text x="210" y="2410" font-size="20px" style="fill: white;">#00205a</text><text x="210" y="2430" font-size="20px" style="fill: black;">0x10b</text><text x="210" y="2450" font-size="20px" style="fill: white;">0x10b</text><rect x="420" y="2310" width="200" height="200" rx="20px" ry="20px" style="fill: #addbf7;"></rect><text x="420" y="2350" font-size="20px" style="fill: black;">Uranian Blue</text><text x="420" y="2370" font-size="20px" style="fill: white;">Uranian Blue</text><text x="420" y="2390" font-size="20px" style="fill: black;">#addbf7</text><text x="420" y="2410" font-size="20px" style="fill: white;">#addbf7</text><text x="420" y="2430" font-size="20px" style="fill: black;">0xaede</text><text x="420" y="2450" font-size="20px" style="fill: white;">0xaede</text><rect x="630" y="2310" width="200" height="200" rx="20px" ry="20px" style="fill: #7b9ed6;"></rect><text x="630" y="2350" font-size="20px" style="fill: black;">Vista Blue</text><text x="630" y="2370" font-size="20px" style="fill: white;">Vista Blue</text><text x="630" y="2390" font-size="20px" style="fill: black;">#7b9ed6</text><text x="630" y="2410" font-size="20px" style="fill: white;">#7b9ed6</text><text x="630" y="2430" font-size="20px" style="fill: black;">0x7cfa</text><text x="630" y="2450" font-size="20px" style="fill: white;">0x7cfa</text><rect x="0" y="2520" width="200" height="200" rx="20px" ry="20px" style="fill: #00356b;"></rect><text x="0" y="2560" font-size="20px" style="fill: black;">Yale "Blue Site" Blue</text><text x="0" y="2580" font-size="20px" style="fill: white;">Yale "Blue Site" Blue</text><text x="0" y="2600" font-size="20px" style="fill: black;">#00356b</text><text x="0" y="2620" font-size="20px" style="fill: white;">#00356b</text><text x="0" y="2640" font-size="20px" style="fill: black;">0x1ad</text><text x="0" y="2660" font-size="20px" style="fill: white;">0x1ad</text></svg>