<svg width="840px" height="1470px" xmlns="http://www.w3.org/2000/svg"><rect x="0" y="0" width="200" height="200" rx="20px" ry="20px" style="fill: #3a0c00;"></rect><text x="0" y="40" font-size="20px" style="fill: black;">Bean</text><text x="0" y="60" font-size="20px" style="fill: white;">Bean</text><text x="0" y="80" font-size="20px" style="fill: black;">#3a0c00</text><text x="0" y="100" font-size="20px" style="fill: white;">#3a0c00</text><text x="0" y="120" font-size="20px" style="fill: black;">0x3860</text><text x="0" y="140" font-size="20px" style="fill: white;">0x3860</text><rect x="210" y="0" width="200" height="200" rx="20px" ry="20px" style="fill: #000000;"></rect><text x="210" y="40" font-size="20px" style="fill: black;">Black</text><text x="210" y="60" font-size="20px" style="fill: white;">Black</text><text x="210" y="80" font-size="20px" style="fill: black;">#000000</text><text x="210" y="100" font-size="20px" style="fill: white;">#000000</text><text x="210" y="120" font-size="20px" style="fill: black;">0x0</text><text x="210" y="140" font-size="20px" style="fill: white;">0x0</text><rect x="420" y="0" width="200" height="200" rx="20px" ry="20px" style="fill: #3a0c00;"></rect><text x="420" y="40" font-size="20px" style="fill: black;">Black bean</text><text x="420" y="60" font-size="20px" style="fill: white;">Black bean</text><text x="420" y="80" font-size="20px" style="fill: black;">#3a0c00</text><text x="420" y="100" font-size="20px" style="fill: white;">#3a0c00</text><text x="420" y="120" font-size="20px" style="fill: black;">0x3860</text><text x="420" y="140" font-size="20px" style="fill: white;">0x3860</text><rect x="630" y="0" width="200" height="200" rx="20px" ry="20px" style="fill: #191810;"></rect><text x="630" y="40" font-size="20px" style="fill: black;">Black chocolate</text><text x="630" y="60" font-size="20px" style="fill: white;">Black chocolate</text><text x="630" y="80" font-size="20px" style="fill: black;">#191810</text><text x="630" y="100" font-size="20px" style="fill: white;">#191810</text><text x="630" y="120" font-size="20px" style="fill: black;">0x18c2</text><text x="630" y="140" font-size="20px" style="fill: white;">0x18c2</text><rect x="0" y="210" width="200" height="200" rx="20px" ry="20px" style="fill: #3a3131;"></rect><text x="0" y="250" font-size="20px" style="fill: black;">Black coffee</text><text x="0" y="270" font-size="20px" style="fill: white;">Black coffee</text><text x="0" y="290" font-size="20px" style="fill: black;">#3a3131</text><text x="0" y="310" font-size="20px" style="fill: white;">#3a3131</text><text x="0" y="330" font-size="20px" style="fill: black;">0x3986</text><text x="0" y="350" font-size="20px" style="fill: white;">0x3986</text><rect x="210" y="210" width="200" height="200" rx="20px" ry="20px" style="fill: #52616b;"></rect><text x="210" y="250" font-size="20px" style="fill: black;">Black coral</text><text x="210" y="270" font-size="20px" style="fill: white;">Black coral</text><text x="210" y="290" font-size="20px" style="fill: black;">#52616b</text><text x="210" y="310" font-size="20px" style="fill: white;">#52616b</text><text x="210" y="330" font-size="20px" style="fill: black;">0x530d</text><text x="210" y="350" font-size="20px" style="fill: white;">0x530d</text><rect x="420" y="210" width="200" height="200" rx="20px" ry="20px" style="fill: #3a3d3a;"></rect><text x="420" y="250" font-size="20px" style="fill: black;">Black olive</text><text x="420" y="270" font-size="20px" style="fill: white;">Black olive</text><text x="420" y="290" font-size="20px" style="fill: black;">#3a3d3a</text><text x="420" y="310" font-size="20px" style="fill: white;">#3a3d3a</text><text x="420" y="330" font-size="20px" style="fill: black;">0x39e7</text><text x="420" y="350" font-size="20px" style="fill: white;">0x39e7</text><rect x="630" y="210" width="200" height="200" rx="20px" ry="20px" style="fill: #bdaeb5;"></rect><text x="630" y="250" font-size="20px" style="fill: black;">Black Shadows</text><text x="630" y="270" font-size="20px" style="fill: white;">Black Shadows</text><text x="630" y="290" font-size="20px" style="fill: black;">#bdaeb5</text><text x="630" y="310" font-size="20px" style="fill: white;">#bdaeb5</text><text x="630" y="330" font-size="20px" style="fill: black;">0xbd76</text><text x="630" y="350" font-size="20px" style="fill: white;">0xbd76</text><rect x="0" y="420" width="200" height="200" rx="20px" ry="20px" style="fill: #3a4552;"></rect><text x="0" y="460" font-size="20px" style="fill: black;">Charcoal</text><text x="0" y="480" font-size="20px" style="fill: white;">Charcoal</text><text x="0" y="500" font-size="20px" style="fill: black;">#3a4552</text><text x="0" y="520" font-size="20px" style="fill: white;">#3a4552</text><text x="0" y="540" font-size="20px" style="fill: black;">0x3a2a</text><text x="0" y="560" font-size="20px" style="fill: white;">0x3a2a</text><rect x="210" y="420" width="200" height="200" rx="20px" ry="20px" style="fill: #212d29;"></rect><text x="210" y="460" font-size="20px" style="fill: black;">Charleston green</text><text x="210" y="480" font-size="20px" style="fill: white;">Charleston green</text><text x="210" y="500" font-size="20px" style="fill: black;">#212d29</text><text x="210" y="520" font-size="20px" style="fill: white;">#212d29</text><text x="210" y="540" font-size="20px" style="fill: black;">0x2165</text><text x="210" y="560" font-size="20px" style="fill: white;">0x2165</text><rect x="420" y="420" width="200" height="200" rx="20px" ry="20px" style="fill: #525552;"></rect><text x="420" y="460" font-size="20px" style="fill: black;">Davy's gray</text><text x="420" y="480" font-size="20px" style="fill: white;">Davy's gray</text><text x="420" y="500" font-size="20px" style="fill: black;">#525552</text><text x="420" y="520" font-size="20px" style="fill: white;">#525552</text><text x="420" y="540" font-size="20px" style="fill: black;">0x52aa</text><text x="420" y="560" font-size="20px" style="fill: white;">0x52aa</text><rect x="630" y="420" width="200" height="200" rx="20px" ry="20px" style="fill: #6b696b;"></rect><text x="630" y="460" font-size="20px" style="fill: black;">Dim gray</text><text x="630" y="480" font-size="20px" style="fill: white;">Dim gray</text><text x="630" y="500" font-size="20px" style="fill: black;">#6b696b</text><text x="630" y="520" font-size="20px" style="fill: white;">#6b696b</text><text x="630" y="540" font-size="20px" style="fill: black;">0x6b4d</text><text x="630" y="560" font-size="20px" style="fill: white;">0x6b4d</text><rect x="0" y="630" width="200" height="200" rx="20px" ry="20px" style="fill: #525d52;"></rect><text x="0" y="670" font-size="20px" style="fill: black;">Ebony</text><text x="0" y="690" font-size="20px" style="fill: white;">Ebony</text><text x="0" y="710" font-size="20px" style="fill: black;">#525d52</text><text x="0" y="730" font-size="20px" style="fill: white;">#525d52</text><text x="0" y="750" font-size="20px" style="fill: black;">0x52ea</text><text x="0" y="770" font-size="20px" style="fill: white;">0x52ea</text><rect x="210" y="630" width="200" height="200" rx="20px" ry="20px" style="fill: #191c19;"></rect><text x="210" y="670" font-size="20px" style="fill: black;">Eerie black</text><text x="210" y="690" font-size="20px" style="fill: white;">Eerie black</text><text x="210" y="710" font-size="20px" style="fill: black;">#191c19</text><text x="210" y="730" font-size="20px" style="fill: white;">#191c19</text><text x="210" y="750" font-size="20px" style="fill: black;">0x18e3</text><text x="210" y="770" font-size="20px" style="fill: white;">0x18e3</text><rect x="420" y="630" width="200" height="200" rx="20px" ry="20px" style="fill: #313531;"></rect><text x="420" y="670" font-size="20px" style="fill: black;">Jet</text><text x="420" y="690" font-size="20px" style="fill: white;">Jet</text><text x="420" y="710" font-size="20px" style="fill: black;">#313531</text><text x="420" y="730" font-size="20px" style="fill: white;">#313531</text><text x="420" y="750" font-size="20px" style="fill: black;">0x31a6</text><text x="420" y="770" font-size="20px" style="fill: white;">0x31a6</text><rect x="630" y="630" width="200" height="200" rx="20px" ry="20px" style="fill: #191010;"></rect><text x="630" y="670" font-size="20px" style="fill: black;">Licorice</text><text x="630" y="690" font-size="20px" style="fill: white;">Licorice</text><text x="630" y="710" font-size="20px" style="fill: black;">#191010</text><text x="630" y="730" font-size="20px" style="fill: white;">#191010</text><text x="630" y="750" font-size="20px" style="fill: black;">0x1882</text><text x="630" y="770" font-size="20px" style="fill: white;">0x1882</text><rect x="0" y="840" width="200" height="200" rx="20px" ry="20px" style="fill: #3a3d3a;"></rect><text x="0" y="880" font-size="20px" style="fill: black;">Olive (RAL)</text><text x="0" y="900" font-size="20px" style="fill: white;">Olive (RAL)</text><text x="0" y="920" font-size="20px" style="fill: black;">#3a3d3a</text><text x="0" y="940" font-size="20px" style="fill: white;">#3a3d3a</text><text x="0" y="960" font-size="20px" style="fill: black;">0x39e7</text><text x="0" y="980" font-size="20px" style="fill: white;">0x39e7</text><rect x="210" y="840" width="200" height="200" rx="20px" ry="20px" style="fill: #31393a;"></rect><text x="210" y="880" font-size="20px" style="fill: black;">Onyx</text><text x="210" y="900" font-size="20px" style="fill: white;">Onyx</text><text x="210" y="920" font-size="20px" style="fill: black;">#31393a</text><text x="210" y="940" font-size="20px" style="fill: white;">#31393a</text><text x="210" y="960" font-size="20px" style="fill: black;">0x31c7</text><text x="210" y="980" font-size="20px" style="fill: white;">0x31c7</text><rect x="420" y="840" width="200" height="200" rx="20px" ry="20px" style="fill: #42494a;"></rect><text x="420" y="880" font-size="20px" style="fill: black;">Outer Space</text><text x="420" y="900" font-size="20px" style="fill: white;">Outer Space</text><text x="420" y="920" font-size="20px" style="fill: black;">#42494a</text><text x="420" y="940" font-size="20px" style="fill: white;">#42494a</text><text x="420" y="960" font-size="20px" style="fill: black;">0x4249</text><text x="420" y="980" font-size="20px" style="fill: white;">0x4249</text><rect x="630" y="840" width="200" height="200" rx="20px" ry="20px" style="fill: #212021;"></rect><text x="630" y="880" font-size="20px" style="fill: black;">Raisin Black</text><text x="630" y="900" font-size="20px" style="fill: white;">Raisin Black</text><text x="630" y="920" font-size="20px" style="fill: black;">#212021</text><text x="630" y="940" font-size="20px" style="fill: white;">#212021</text><text x="630" y="960" font-size="20px" style="fill: black;">0x2104</text><text x="630" y="980" font-size="20px" style="fill: white;">0x2104</text><rect x="0" y="1050" width="200" height="200" rx="20px" ry="20px" style="fill: #004142;"></rect><text x="0" y="1090" font-size="20px" style="fill: black;">Rich black</text><text x="0" y="1110" font-size="20px" style="fill: white;">Rich black</text><text x="0" y="1130" font-size="20px" style="fill: black;">#004142</text><text x="0" y="1150" font-size="20px" style="fill: white;">#004142</text><text x="0" y="1170" font-size="20px" style="fill: black;">0x208</text><text x="0" y="1190" font-size="20px" style="fill: white;">0x208</text><rect x="210" y="1050" width="200" height="200" rx="20px" ry="20px" style="fill: #000c10;"></rect><text x="210" y="1090" font-size="20px" style="fill: black;">Rich black (FOGRA29)</text><text x="210" y="1110" font-size="20px" style="fill: white;">Rich black (FOGRA29)</text><text x="210" y="1130" font-size="20px" style="fill: black;">#000c10</text><text x="210" y="1150" font-size="20px" style="fill: white;">#000c10</text><text x="210" y="1170" font-size="20px" style="fill: black;">0x62</text><text x="210" y="1190" font-size="20px" style="fill: white;">0x62</text><rect x="420" y="1050" width="200" height="200" rx="20px" ry="20px" style="fill: #000000;"></rect><text x="420" y="1090" font-size="20px" style="fill: black;">Rich black (FOGRA39)</text><text x="420" y="1110" font-size="20px" style="fill: white;">Rich black (FOGRA39)</text><text x="420" y="1130" font-size="20px" style="fill: black;">#000000</text><text x="420" y="1150" font-size="20px" style="fill: white;">#000000</text><text x="420" y="1170" font-size="20px" style="fill: black;">0x0</text><text x="420" y="1190" font-size="20px" style="fill: white;">0x0</text><rect x="630" y="1050" width="200" height="200" rx="20px" ry="20px" style="fill: #100c08;"></rect><text x="630" y="1090" font-size="20px" style="fill: black;">Smoky black</text><text x="630" y="1110" font-size="20px" style="fill: white;">Smoky black</text><text x="630" y="1130" font-size="20px" style="fill: black;">#100c08</text><text x="630" y="1150" font-size="20px" style="fill: white;">#100c08</text><text x="630" y="1170" font-size="20px" style="fill: black;">0x1061</text><text x="630" y="1190" font-size="20px" style="fill: white;">0x1061</text><rect x="0" y="1260" width="200" height="200" rx="20px" ry="20px" style="fill: #4a3d31;"></rect><text x="0" y="1300" font-size="20px" style="fill: black;">Taupe</text><text x="0" y="1320" font-size="20px" style="fill: white;">Taupe</text><text x="0" y="1340" font-size="20px" style="fill: black;">#4a3d31</text><text x="0" y="1360" font-size="20px" style="fill: white;">#4a3d31</text><text x="0" y="1380" font-size="20px" style="fill: black;">0x49e6</text><text x="0" y="1400" font-size="20px" style="fill: white;">0x49e6</text><rect x="210" y="1260" width="200" height="200" rx="20px" ry="20px" style="fill: #004142;"></rect><text x="210" y="1300" font-size="20px" style="fill: black;">Warm black</text><text x="210" y="1320" font-size="20px" style="fill: white;">Warm black</text><text x="210" y="1340" font-size="20px" style="fill: black;">#004142</text><text x="210" y="1360" font-size="20px" style="fill: white;">#004142</text><text x="210" y="1380" font-size="20px" style="fill: black;">0x208</text><text x="210" y="1400" font-size="20px" style="fill: white;">0x208</text></svg>