<svg width="1680px" height="240px" xmlns="http://www.w3.org/2000/svg"><rect x="0" y="0" width="200" height="50" style="fill: #3a0c00;"></rect><text x="0" y="20" font-size="25px" style="fill: black;">Bean</text><text x="0" y="45" font-size="25px" style="fill: white;">Bean</text><rect x="210" y="0" width="200" height="50" style="fill: #000000;"></rect><text x="210" y="20" font-size="25px" style="fill: black;">Black</text><text x="210" y="45" font-size="25px" style="fill: white;">Black</text><rect x="420" y="0" width="200" height="50" style="fill: #3a0c00;"></rect><text x="420" y="20" font-size="25px" style="fill: black;">Black bean</text><text x="420" y="45" font-size="25px" style="fill: white;">Black bean</text><rect x="630" y="0" width="200" height="50" style="fill: #191810;"></rect><text x="630" y="20" font-size="25px" style="fill: black;">Black chocolate</text><text x="630" y="45" font-size="25px" style="fill: white;">Black chocolate</text><rect x="840" y="0" width="200" height="50" style="fill: #3a3131;"></rect><text x="840" y="20" font-size="25px" style="fill: black;">Black coffee</text><text x="840" y="45" font-size="25px" style="fill: white;">Black coffee</text><rect x="1050" y="0" width="200" height="50" style="fill: #52616b;"></rect><text x="1050" y="20" font-size="25px" style="fill: black;">Black coral</text><text x="1050" y="45" font-size="25px" style="fill: white;">Black coral</text><rect x="1260" y="0" width="200" height="50" style="fill: #3a3d3a;"></rect><text x="1260" y="20" font-size="25px" style="fill: black;">Black olive</text><text x="1260" y="45" font-size="25px" style="fill: white;">Black olive</text><rect x="1470" y="0" width="200" height="50" style="fill: #bdaeb5;"></rect><text x="1470" y="20" font-size="25px" style="fill: black;">Black Shadows</text><text x="1470" y="45" font-size="25px" style="fill: white;">Black Shadows</text><rect x="0" y="60" width="200" height="50" style="fill: #3a4552;"></rect><text x="0" y="80" font-size="25px" style="fill: black;">Charcoal</text><text x="0" y="105" font-size="25px" style="fill: white;">Charcoal</text><rect x="210" y="60" width="200" height="50" style="fill: #212d29;"></rect><text x="210" y="80" font-size="25px" style="fill: black;">Charleston green</text><text x="210" y="105" font-size="25px" style="fill: white;">Charleston green</text><rect x="420" y="60" width="200" height="50" style="fill: #525552;"></rect><text x="420" y="80" font-size="25px" style="fill: black;">Davy's gray</text><text x="420" y="105" font-size="25px" style="fill: white;">Davy's gray</text><rect x="630" y="60" width="200" height="50" style="fill: #6b696b;"></rect><text x="630" y="80" font-size="25px" style="fill: black;">Dim gray</text><text x="630" y="105" font-size="25px" style="fill: white;">Dim gray</text><rect x="840" y="60" width="200" height="50" style="fill: #525d52;"></rect><text x="840" y="80" font-size="25px" style="fill: black;">Ebony</text><text x="840" y="105" font-size="25px" style="fill: white;">Ebony</text><rect x="1050" y="60" width="200" height="50" style="fill: #191c19;"></rect><text x="1050" y="80" font-size="25px" style="fill: black;">Eerie black</text><text x="1050" y="105" font-size="25px" style="fill: white;">Eerie black</text><rect x="1260" y="60" width="200" height="50" style="fill: #313531;"></rect><text x="1260" y="80" font-size="25px" style="fill: black;">Jet</text><text x="1260" y="105" font-size="25px" style="fill: white;">Jet</text><rect x="1470" y="60" width="200" height="50" style="fill: #191010;"></rect><text x="1470" y="80" font-size="25px" style="fill: black;">Licorice</text><text x="1470" y="105" font-size="25px" style="fill: white;">Licorice</text><rect x="0" y="120" width="200" height="50" style="fill: #3a3d3a;"></rect><text x="0" y="140" font-size="25px" style="fill: black;">Olive (RAL)</text><text x="0" y="165" font-size="25px" style="fill: white;">Olive (RAL)</text><rect x="210" y="120" width="200" height="50" style="fill: #31393a;"></rect><text x="210" y="140" font-size="25px" style="fill: black;">Onyx</text><text x="210" y="165" font-size="25px" style="fill: white;">Onyx</text><rect x="420" y="120" width="200" height="50" style="fill: #42494a;"></rect><text x="420" y="140" font-size="25px" style="fill: black;">Outer Space</text><text x="420" y="165" font-size="25px" style="fill: white;">Outer Space</text><rect x="630" y="120" width="200" height="50" style="fill: #212021;"></rect><text x="630" y="140" font-size="25px" style="fill: black;">Raisin Black</text><text x="630" y="165" font-size="25px" style="fill: white;">Raisin Black</text><rect x="840" y="120" width="200" height="50" style="fill: #004142;"></rect><text x="840" y="140" font-size="25px" style="fill: black;">Rich black</text><text x="840" y="165" font-size="25px" style="fill: white;">Rich black</text><rect x="1050" y="120" width="200" height="50" style="fill: #000c10;"></rect><text x="1050" y="140" font-size="25px" style="fill: black;">Rich black (FOGRA29)</text><text x="1050" y="165" font-size="25px" style="fill: white;">Rich black (FOGRA29)</text><rect x="1260" y="120" width="200" height="50" style="fill: #000000;"></rect><text x="1260" y="140" font-size="25px" style="fill: black;">Rich black (FOGRA39)</text><text x="1260" y="165" font-size="25px" style="fill: white;">Rich black (FOGRA39)</text><rect x="1470" y="120" width="200" height="50" style="fill: #100c08;"></rect><text x="1470" y="140" font-size="25px" style="fill: black;">Smoky black</text><text x="1470" y="165" font-size="25px" style="fill: white;">Smoky black</text><rect x="0" y="180" width="200" height="50" style="fill: #4a3d31;"></rect><text x="0" y="200" font-size="25px" style="fill: black;">Taupe</text><text x="0" y="225" font-size="25px" style="fill: white;">Taupe</text><rect x="210" y="180" width="200" height="50" style="fill: #004142;"></rect><text x="210" y="200" font-size="25px" style="fill: black;">Warm black</text><text x="210" y="225" font-size="25px" style="fill: white;">Warm black</text></svg>