<svg width="1680px" height="960px" xmlns="http://www.w3.org/2000/svg"><rect x="0" y="0" width="200" height="50" style="fill: #bde7d6;"></rect><text x="0" y="20" font-size="25px" style="fill: black;">Aero blue</text><text x="0" y="45" font-size="25px" style="fill: white;">Aero blue</text><rect x="210" y="0" width="200" height="50" style="fill: #73a2bd;"></rect><text x="210" y="20" font-size="25px" style="fill: black;">Air superiority blue</text><text x="210" y="45" font-size="25px" style="fill: white;">Air superiority blue</text><rect x="420" y="0" width="200" height="50" style="fill: #6bb2ef;"></rect><text x="420" y="20" font-size="25px" style="fill: black;">Argentinian Blue</text><text x="420" y="45" font-size="25px" style="fill: white;">Argentinian Blue</text><rect x="630" y="0" width="200" height="50" style="fill: #8cceef;"></rect><text x="630" y="20" font-size="25px" style="fill: black;">Baby Blue</text><text x="630" y="45" font-size="25px" style="fill: white;">Baby Blue</text><rect x="840" y="0" width="200" height="50" style="fill: #a5caef;"></rect><text x="840" y="20" font-size="25px" style="fill: black;">Baby blue eyes</text><text x="840" y="45" font-size="25px" style="fill: white;">Baby blue eyes</text><rect x="1050" y="0" width="200" height="50" style="fill: #315994;"></rect><text x="1050" y="20" font-size="25px" style="fill: black;">Bdazzled blue</text><text x="1050" y="45" font-size="25px" style="fill: white;">Bdazzled blue</text><rect x="1260" y="0" width="200" height="50" style="fill: #bdd2e6;"></rect><text x="1260" y="20" font-size="25px" style="fill: black;">Beau blue</text><text x="1260" y="45" font-size="25px" style="fill: white;">Beau blue</text><rect x="1470" y="0" width="200" height="50" style="fill: #003163;"></rect><text x="1470" y="20" font-size="25px" style="fill: black;">Berkeley Blue</text><text x="1470" y="45" font-size="25px" style="fill: white;">Berkeley Blue</text><rect x="0" y="60" width="200" height="50" style="fill: #318ee6;"></rect><text x="0" y="80" font-size="25px" style="fill: black;">Bleu de France</text><text x="0" y="105" font-size="25px" style="fill: white;">Bleu de France</text><rect x="210" y="60" width="200" height="50" style="fill: #ade7ef;"></rect><text x="210" y="80" font-size="25px" style="fill: black;">Blizzard blue</text><text x="210" y="105" font-size="25px" style="fill: white;">Blizzard blue</text><rect x="420" y="60" width="200" height="50" style="fill: #0000ff;"></rect><text x="420" y="80" font-size="25px" style="fill: black;">Blue</text><text x="420" y="105" font-size="25px" style="fill: white;">Blue</text><rect x="630" y="60" width="200" height="50" style="fill: #a5a2ce;"></rect><text x="630" y="80" font-size="25px" style="fill: black;">Blue bell</text><text x="630" y="105" font-size="25px" style="fill: white;">Blue bell</text><rect x="840" y="60" width="200" height="50" style="fill: #31359c;"></rect><text x="840" y="80" font-size="25px" style="fill: black;">Blue (CMYK) (pigment blue)</text><text x="840" y="105" font-size="25px" style="fill: white;">Blue (CMYK) (pigment blue)</text><rect x="1050" y="60" width="200" height="50" style="fill: #0000ff;"></rect><text x="1050" y="80" font-size="25px" style="fill: black;">Blue (Computer web color)</text><text x="1050" y="105" font-size="25px" style="fill: white;">Blue (Computer web color)</text><rect x="1260" y="60" width="200" height="50" style="fill: #2175ff;"></rect><text x="1260" y="80" font-size="25px" style="fill: black;">Blue (Crayola)</text><text x="1260" y="105" font-size="25px" style="fill: white;">Blue (Crayola)</text><rect x="1470" y="60" width="200" height="50" style="fill: #084d42;"></rect><text x="1470" y="80" font-size="25px" style="fill: black;">Blue-green (color wheel)</text><text x="1470" y="105" font-size="25px" style="fill: white;">Blue-green (color wheel)</text><rect x="0" y="120" width="200" height="50" style="fill: #5aaeef;"></rect><text x="0" y="140" font-size="25px" style="fill: black;">Blue jeans</text><text x="0" y="165" font-size="25px" style="fill: white;">Blue jeans</text><rect x="210" y="120" width="200" height="50" style="fill: #0092ad;"></rect><text x="210" y="140" font-size="25px" style="fill: black;">Blue (Munsell)</text><text x="210" y="165" font-size="25px" style="fill: white;">Blue (Munsell)</text><rect x="420" y="120" width="200" height="50" style="fill: #0086bd;"></rect><text x="420" y="140" font-size="25px" style="fill: black;">Blue (NCS)</text><text x="420" y="165" font-size="25px" style="fill: white;">Blue (NCS)</text><rect x="630" y="120" width="200" height="50" style="fill: #0018a5;"></rect><text x="630" y="140" font-size="25px" style="fill: black;">Blue (Pantone)</text><text x="630" y="165" font-size="25px" style="fill: white;">Blue (Pantone)</text><rect x="840" y="120" width="200" height="50" style="fill: #31359c;"></rect><text x="840" y="140" font-size="25px" style="fill: black;">Blue (pigment)</text><text x="840" y="165" font-size="25px" style="fill: white;">Blue (pigment)</text><rect x="1050" y="120" width="200" height="50" style="fill: #0049ff;"></rect><text x="1050" y="140" font-size="25px" style="fill: black;">Blue (RYB)</text><text x="1050" y="165" font-size="25px" style="fill: white;">Blue (RYB)</text><rect x="1260" y="120" width="200" height="50" style="fill: #106184;"></rect><text x="1260" y="140" font-size="25px" style="fill: black;">Blue sapphire</text><text x="1260" y="165" font-size="25px" style="fill: white;">Blue sapphire</text><rect x="1470" y="120" width="200" height="50" style="fill: #8c2dde;"></rect><text x="1470" y="140" font-size="25px" style="fill: black;">Blue-violet</text><text x="1470" y="165" font-size="25px" style="fill: white;">Blue-violet</text><rect x="0" y="180" width="200" height="50" style="fill: #4a187b;"></rect><text x="0" y="200" font-size="25px" style="fill: black;">Blue-violet (color wheel)</text><text x="0" y="225" font-size="25px" style="fill: white;">Blue-violet (color wheel)</text><rect x="210" y="180" width="200" height="50" style="fill: #7365bd;"></rect><text x="210" y="200" font-size="25px" style="fill: black;">Blue-violet (Crayola)</text><text x="210" y="225" font-size="25px" style="fill: white;">Blue-violet (Crayola)</text><rect x="420" y="180" width="200" height="50" style="fill: #5271a5;"></rect><text x="420" y="200" font-size="25px" style="fill: black;">Blue yonder</text><text x="420" y="225" font-size="25px" style="fill: white;">Blue yonder</text><rect x="630" y="180" width="200" height="50" style="fill: #3a69e6;"></rect><text x="630" y="200" font-size="25px" style="fill: black;">Bluetiful</text><text x="630" y="225" font-size="25px" style="fill: white;">Bluetiful</text><rect x="840" y="180" width="200" height="50" style="fill: #1975d6;"></rect><text x="840" y="200" font-size="25px" style="fill: black;">Bright navy blue</text><text x="840" y="225" font-size="25px" style="fill: white;">Bright navy blue</text><rect x="1050" y="180" width="200" height="50" style="fill: #639e9c;"></rect><text x="1050" y="200" font-size="25px" style="fill: black;">Cadet blue</text><text x="1050" y="225" font-size="25px" style="fill: white;">Cadet blue</text><rect x="1260" y="180" width="200" height="50" style="fill: #adb2c5;"></rect><text x="1260" y="200" font-size="25px" style="fill: black;">Cadet blue (Crayola)</text><text x="1260" y="225" font-size="25px" style="fill: white;">Cadet blue (Crayola)</text><rect x="1470" y="180" width="200" height="50" style="fill: #a5c2ad;"></rect><text x="1470" y="200" font-size="25px" style="fill: black;">Cambridge blue</text><text x="1470" y="225" font-size="25px" style="fill: white;">Cambridge blue</text><rect x="0" y="240" width="200" height="50" style="fill: #52a2d6;"></rect><text x="0" y="260" font-size="25px" style="fill: black;">Carolina blue</text><text x="0" y="285" font-size="25px" style="fill: white;">Carolina blue</text><rect x="210" y="240" width="200" height="50" style="fill: #0079a5;"></rect><text x="210" y="260" font-size="25px" style="fill: black;">Celadon blue</text><text x="210" y="285" font-size="25px" style="fill: white;">Celadon blue</text><rect x="420" y="240" width="200" height="50" style="fill: #2169ce;"></rect><text x="420" y="260" font-size="25px" style="fill: black;">Celtic Blue</text><text x="420" y="285" font-size="25px" style="fill: white;">Celtic Blue</text><rect x="630" y="240" width="200" height="50" style="fill: #2951bd;"></rect><text x="630" y="260" font-size="25px" style="fill: black;">Cerulean blue</text><text x="630" y="285" font-size="25px" style="fill: white;">Cerulean blue</text><rect x="840" y="240" width="200" height="50" style="fill: #0079a5;"></rect><text x="840" y="260" font-size="25px" style="fill: black;">CG blue</text><text x="840" y="285" font-size="25px" style="fill: white;">CG blue</text><rect x="1050" y="240" width="200" height="50" style="fill: #4a8ee6;"></rect><text x="1050" y="260" font-size="25px" style="fill: black;">Chefchaouen Blue</text><text x="1050" y="285" font-size="25px" style="fill: white;">Chefchaouen Blue</text><rect x="1260" y="240" width="200" height="50" style="fill: #0049ad;"></rect><text x="1260" y="260" font-size="25px" style="fill: black;">Cobalt blue</text><text x="1260" y="285" font-size="25px" style="fill: white;">Cobalt blue</text><rect x="1470" y="240" width="200" height="50" style="fill: #00008c;"></rect><text x="1470" y="260" font-size="25px" style="fill: black;">Dark Blue</text><text x="1470" y="285" font-size="25px" style="fill: white;">Dark Blue</text><rect x="0" y="300" width="200" height="50" style="fill: #63659c;"></rect><text x="0" y="320" font-size="25px" style="fill: black;">Dark blue-gray</text><text x="0" y="345" font-size="25px" style="fill: white;">Dark blue-gray</text><rect x="210" y="300" width="200" height="50" style="fill: #29418c;"></rect><text x="210" y="320" font-size="25px" style="fill: black;">Dark cornflower blue</text><text x="210" y="345" font-size="25px" style="fill: white;">Dark cornflower blue</text><rect x="420" y="300" width="200" height="50" style="fill: #52697b;"></rect><text x="420" y="320" font-size="25px" style="fill: black;">Dark electric blue</text><text x="420" y="345" font-size="25px" style="fill: white;">Dark electric blue</text><rect x="630" y="300" width="200" height="50" style="fill: #8cbed6;"></rect><text x="630" y="320" font-size="25px" style="fill: black;">Dark sky blue</text><text x="630" y="345" font-size="25px" style="fill: white;">Dark sky blue</text><rect x="840" y="300" width="200" height="50" style="fill: #4a3d8c;"></rect><text x="840" y="320" font-size="25px" style="fill: black;">Dark slate blue</text><text x="840" y="345" font-size="25px" style="fill: white;">Dark slate blue</text><rect x="1050" y="300" width="200" height="50" style="fill: #21315a;"></rect><text x="1050" y="320" font-size="25px" style="fill: black;">Delft Blue</text><text x="1050" y="345" font-size="25px" style="fill: white;">Delft Blue</text><rect x="1260" y="300" width="200" height="50" style="fill: #2145b5;"></rect><text x="1260" y="320" font-size="25px" style="fill: black;">Denim blue</text><text x="1260" y="345" font-size="25px" style="fill: white;">Denim blue</text><rect x="1470" y="300" width="200" height="50" style="fill: #007594;"></rect><text x="1470" y="320" font-size="25px" style="fill: black;">Duck Blue</text><text x="1470" y="345" font-size="25px" style="fill: white;">Duck Blue</text><rect x="0" y="360" width="200" height="50" style="fill: #00009c;"></rect><text x="0" y="380" font-size="25px" style="fill: black;">Duke blue</text><text x="0" y="405" font-size="25px" style="fill: white;">Duke blue</text><rect x="210" y="360" width="200" height="50" style="fill: #1035a5;"></rect><text x="210" y="380" font-size="25px" style="fill: black;">Egyptian Blue</text><text x="210" y="405" font-size="25px" style="fill: white;">Egyptian Blue</text><rect x="420" y="360" width="200" height="50" style="fill: #94c6a5;"></rect><text x="420" y="380" font-size="25px" style="fill: black;">Eton blue</text><text x="420" y="405" font-size="25px" style="fill: white;">Eton blue</text><rect x="630" y="360" width="200" height="50" style="fill: #19f3ef;"></rect><text x="630" y="380" font-size="25px" style="fill: black;">Fluorescent blue</text><text x="630" y="405" font-size="25px" style="fill: white;">Fluorescent blue</text><rect x="840" y="360" width="200" height="50" style="fill: #73b6ff;"></rect><text x="840" y="380" font-size="25px" style="fill: black;">French sky blue</text><text x="840" y="405" font-size="25px" style="fill: white;">French sky blue</text><rect x="1050" y="360" width="200" height="50" style="fill: #2986c5;"></rect><text x="1050" y="380" font-size="25px" style="fill: black;">Green-blue (Crayola)</text><text x="1050" y="405" font-size="25px" style="fill: white;">Green-blue (Crayola)</text><rect x="1260" y="360" width="200" height="50" style="fill: #426dce;"></rect><text x="1260" y="380" font-size="25px" style="fill: black;">Han blue</text><text x="1260" y="405" font-size="25px" style="fill: white;">Han blue</text><rect x="1470" y="360" width="200" height="50" style="fill: #9cffff;"></rect><text x="1470" y="380" font-size="25px" style="fill: black;">Ice Blue</text><text x="1470" y="405" font-size="25px" style="fill: white;">Ice Blue</text><rect x="0" y="420" width="200" height="50" style="fill: #4a516b;"></rect><text x="0" y="440" font-size="25px" style="fill: black;">Independence</text><text x="0" y="465" font-size="25px" style="fill: white;">Independence</text><rect x="210" y="420" width="200" height="50" style="fill: #10088c;"></rect><text x="210" y="440" font-size="25px" style="fill: black;">International Klein Blue</text><text x="210" y="465" font-size="25px" style="fill: white;">International Klein Blue</text><rect x="420" y="420" width="200" height="50" style="fill: #b5ffff;"></rect><text x="420" y="440" font-size="25px" style="fill: black;">Italian sky blue</text><text x="420" y="465" font-size="25px" style="fill: white;">Italian sky blue</text><rect x="630" y="420" width="200" height="50" style="fill: #cecaff;"></rect><text x="630" y="440" font-size="25px" style="fill: black;">Lavender blue</text><text x="630" y="465" font-size="25px" style="fill: white;">Lavender blue</text><rect x="840" y="420" width="200" height="50" style="fill: #5259a5;"></rect><text x="840" y="440" font-size="25px" style="fill: black;">Liberty</text><text x="840" y="465" font-size="25px" style="fill: white;">Liberty</text><rect x="1050" y="420" width="200" height="50" style="fill: #add7e6;"></rect><text x="1050" y="440" font-size="25px" style="fill: black;">Light blue</text><text x="1050" y="465" font-size="25px" style="fill: white;">Light blue</text><rect x="1260" y="420" width="200" height="50" style="fill: #94cae6;"></rect><text x="1260" y="440" font-size="25px" style="fill: black;">Light cornflower blue</text><text x="1260" y="465" font-size="25px" style="fill: white;">Light cornflower blue</text><rect x="1470" y="420" width="200" height="50" style="fill: #adc2de;"></rect><text x="1470" y="440" font-size="25px" style="fill: black;">Light steel blue</text><text x="1470" y="465" font-size="25px" style="fill: white;">Light steel blue</text><rect x="0" y="480" width="200" height="50" style="fill: #6ba2de;"></rect><text x="0" y="500" font-size="25px" style="fill: black;">Little boy blue</text><text x="0" y="525" font-size="25px" style="fill: white;">Little boy blue</text><rect x="210" y="480" width="200" height="50" style="fill: #6351de;"></rect><text x="210" y="500" font-size="25px" style="fill: black;">Majorelle blue</text><text x="210" y="525" font-size="25px" style="fill: white;">Majorelle blue</text><rect x="420" y="480" width="200" height="50" style="fill: #4aaace;"></rect><text x="420" y="500" font-size="25px" style="fill: black;">Maximum blue</text><text x="420" y="525" font-size="25px" style="fill: white;">Maximum blue</text><rect x="630" y="480" width="200" height="50" style="fill: #31bebd;"></rect><text x="630" y="500" font-size="25px" style="fill: black;">Maximum blue green</text><text x="630" y="525" font-size="25px" style="fill: white;">Maximum blue green</text><rect x="840" y="480" width="200" height="50" style="fill: #adaae6;"></rect><text x="840" y="500" font-size="25px" style="fill: black;">Maximum blue purple</text><text x="840" y="525" font-size="25px" style="fill: white;">Maximum blue purple</text><rect x="1050" y="480" width="200" height="50" style="fill: #0000ce;"></rect><text x="1050" y="500" font-size="25px" style="fill: black;">Medium Blue</text><text x="1050" y="525" font-size="25px" style="fill: white;">Medium Blue</text><rect x="1260" y="480" width="200" height="50" style="fill: #7b69ef;"></rect><text x="1260" y="500" font-size="25px" style="fill: black;">Medium slate blue</text><text x="1260" y="525" font-size="25px" style="fill: white;">Medium slate blue</text><rect x="1470" y="480" width="200" height="50" style="fill: #7bd2e6;"></rect><text x="1470" y="500" font-size="25px" style="fill: black;">Middle blue</text><text x="1470" y="525" font-size="25px" style="fill: white;">Middle blue</text><rect x="0" y="540" width="200" height="50" style="fill: #8cdbce;"></rect><text x="0" y="560" font-size="25px" style="fill: black;">Middle blue green</text><text x="0" y="585" font-size="25px" style="fill: white;">Middle blue green</text><rect x="210" y="540" width="200" height="50" style="fill: #8c71bd;"></rect><text x="210" y="560" font-size="25px" style="fill: black;">Middle blue purple</text><text x="210" y="585" font-size="25px" style="fill: white;">Middle blue purple</text><rect x="420" y="540" width="200" height="50" style="fill: #191873;"></rect><text x="420" y="560" font-size="25px" style="fill: black;">Midnight Blue</text><text x="420" y="585" font-size="25px" style="fill: white;">Midnight Blue</text><rect x="630" y="540" width="200" height="50" style="fill: #8ca29c;"></rect><text x="630" y="560" font-size="25px" style="fill: black;">Morning blue</text><text x="630" y="585" font-size="25px" style="fill: white;">Morning blue</text><rect x="840" y="540" width="200" height="50" style="fill: #000084;"></rect><text x="840" y="560" font-size="25px" style="fill: black;">Navy Blue</text><text x="840" y="585" font-size="25px" style="fill: white;">Navy Blue</text><rect x="1050" y="540" width="200" height="50" style="fill: #1975d6;"></rect><text x="1050" y="560" font-size="25px" style="fill: black;">Navy blue (Crayola)</text><text x="1050" y="585" font-size="25px" style="fill: white;">Navy blue (Crayola)</text><rect x="1260" y="540" width="200" height="50" style="fill: #4a4dff;"></rect><text x="1260" y="560" font-size="25px" style="fill: black;">Neon Blue</text><text x="1260" y="585" font-size="25px" style="fill: white;">Neon Blue</text><rect x="1470" y="540" width="200" height="50" style="fill: #a5dfef;"></rect><text x="1470" y="560" font-size="25px" style="fill: black;">Non-photo blue</text><text x="1470" y="585" font-size="25px" style="fill: white;">Non-photo blue</text><rect x="0" y="600" width="200" height="50" style="fill: #5241b5;"></rect><text x="0" y="620" font-size="25px" style="fill: black;">Ocean Blue</text><text x="0" y="645" font-size="25px" style="fill: white;">Ocean Blue</text><rect x="210" y="600" width="200" height="50" style="fill: #00204a;"></rect><text x="210" y="620" font-size="25px" style="fill: black;">Oxford blue</text><text x="210" y="645" font-size="25px" style="fill: white;">Oxford blue</text><rect x="420" y="600" width="200" height="50" style="fill: #19aac5;"></rect><text x="420" y="620" font-size="25px" style="fill: black;">Pacific blue</text><text x="420" y="645" font-size="25px" style="fill: white;">Pacific blue</text><rect x="630" y="600" width="200" height="50" style="fill: #cecaff;"></rect><text x="630" y="620" font-size="25px" style="fill: black;">Periwinkle</text><text x="630" y="645" font-size="25px" style="fill: white;">Periwinkle</text><rect x="840" y="600" width="200" height="50" style="fill: #1939bd;"></rect><text x="840" y="620" font-size="25px" style="fill: black;">Persian blue</text><text x="840" y="645" font-size="25px" style="fill: white;">Persian blue</text><rect x="1050" y="600" width="200" height="50" style="fill: #8caab5;"></rect><text x="1050" y="620" font-size="25px" style="fill: black;">Pewter Blue</text><text x="1050" y="645" font-size="25px" style="fill: white;">Pewter Blue</text><rect x="1260" y="600" width="200" height="50" style="fill: #00108c;"></rect><text x="1260" y="620" font-size="25px" style="fill: black;">Phthalo blue</text><text x="1260" y="645" font-size="25px" style="fill: white;">Phthalo blue</text><rect x="1470" y="600" width="200" height="50" style="fill: #312884;"></rect><text x="1470" y="620" font-size="25px" style="fill: black;">Picotee Blue</text><text x="1470" y="645" font-size="25px" style="fill: white;">Picotee Blue</text><rect x="0" y="660" width="200" height="50" style="fill: #214d94;"></rect><text x="0" y="680" font-size="25px" style="fill: black;">Polynesian Blue</text><text x="0" y="705" font-size="25px" style="fill: white;">Polynesian Blue</text><rect x="210" y="660" width="200" height="50" style="fill: #addfe6;"></rect><text x="210" y="680" font-size="25px" style="fill: black;">Powder Blue</text><text x="210" y="705" font-size="25px" style="fill: white;">Powder Blue</text><rect x="420" y="660" width="200" height="50" style="fill: #003152;"></rect><text x="420" y="680" font-size="25px" style="fill: black;">Prussian blue</text><text x="420" y="705" font-size="25px" style="fill: white;">Prussian blue</text><rect x="630" y="660" width="200" height="50" style="fill: #426994;"></rect><text x="630" y="680" font-size="25px" style="fill: black;">Queen blue</text><text x="630" y="705" font-size="25px" style="fill: white;">Queen blue</text><rect x="840" y="660" width="200" height="50" style="fill: #002484;"></rect><text x="840" y="680" font-size="25px" style="fill: black;">Resolution Blue</text><text x="840" y="705" font-size="25px" style="fill: white;">Resolution Blue</text><rect x="1050" y="660" width="200" height="50" style="fill: #002463;"></rect><text x="1050" y="680" font-size="25px" style="fill: black;">Royal blue (dark)</text><text x="1050" y="705" font-size="25px" style="fill: white;">Royal blue (dark)</text><rect x="1260" y="660" width="200" height="50" style="fill: #4269de;"></rect><text x="1260" y="680" font-size="25px" style="fill: black;">Royal blue (light)</text><text x="1260" y="705" font-size="25px" style="fill: white;">Royal blue (light)</text><rect x="1470" y="660" width="200" height="50" style="fill: #73aade;"></rect><text x="1470" y="680" font-size="25px" style="fill: black;">Ruddy Blue</text><text x="1470" y="705" font-size="25px" style="fill: white;">Ruddy Blue</text><rect x="0" y="720" width="200" height="50" style="fill: #08246b;"></rect><text x="0" y="740" font-size="25px" style="fill: black;">Sapphire</text><text x="0" y="765" font-size="25px" style="fill: white;">Sapphire</text><rect x="210" y="720" width="200" height="50" style="fill: #0065a5;"></rect><text x="210" y="740" font-size="25px" style="fill: black;">Sapphire blue</text><text x="210" y="765" font-size="25px" style="fill: white;">Sapphire blue</text><rect x="420" y="720" width="200" height="50" style="fill: #4a61ce;"></rect><text x="420" y="740" font-size="25px" style="fill: black;">Savoy blue</text><text x="420" y="765" font-size="25px" style="fill: white;">Savoy blue</text><rect x="630" y="720" width="200" height="50" style="fill: #738aa5;"></rect><text x="630" y="740" font-size="25px" style="fill: black;">Shadow blue</text><text x="630" y="765" font-size="25px" style="fill: white;">Shadow blue</text><rect x="840" y="720" width="200" height="50" style="fill: #6b59ce;"></rect><text x="840" y="740" font-size="25px" style="fill: black;">Slate blue</text><text x="840" y="765" font-size="25px" style="fill: white;">Slate blue</text><rect x="1050" y="720" width="200" height="50" style="fill: #212852;"></rect><text x="1050" y="740" font-size="25px" style="fill: black;">Space Cadet</text><text x="1050" y="765" font-size="25px" style="fill: white;">Space Cadet</text><rect x="1260" y="720" width="200" height="50" style="fill: #0071bd;"></rect><text x="1260" y="740" font-size="25px" style="fill: black;">Spanish Blue</text><text x="1260" y="765" font-size="25px" style="fill: white;">Spanish Blue</text><rect x="1470" y="720" width="200" height="50" style="fill: #00ffff;"></rect><text x="1470" y="740" font-size="25px" style="fill: black;">Spanish sky blue</text><text x="1470" y="765" font-size="25px" style="fill: white;">Spanish sky blue</text><rect x="0" y="780" width="200" height="50" style="fill: #21287b;"></rect><text x="0" y="800" font-size="25px" style="fill: black;">St. Patricks blue</text><text x="0" y="825" font-size="25px" style="fill: white;">St. Patricks blue</text><rect x="210" y="780" width="200" height="50" style="fill: #0079b5;"></rect><text x="210" y="800" font-size="25px" style="fill: black;">Star command blue</text><text x="210" y="825" font-size="25px" style="fill: white;">Star command blue</text><rect x="420" y="780" width="200" height="50" style="fill: #008284;"></rect><text x="420" y="800" font-size="25px" style="fill: black;">Teal</text><text x="420" y="825" font-size="25px" style="fill: white;">Teal</text><rect x="630" y="780" width="200" height="50" style="fill: #3a758c;"></rect><text x="630" y="800" font-size="25px" style="fill: black;">Teal blue</text><text x="630" y="825" font-size="25px" style="fill: white;">Teal blue</text><rect x="840" y="780" width="200" height="50" style="fill: #1904b5;"></rect><text x="840" y="800" font-size="25px" style="fill: black;">Trypan Blue</text><text x="840" y="825" font-size="25px" style="fill: white;">Trypan Blue</text><rect x="1050" y="780" width="200" height="50" style="fill: #00ffef;"></rect><text x="1050" y="800" font-size="25px" style="fill: black;">Turquoise blue</text><text x="1050" y="825" font-size="25px" style="fill: white;">Turquoise blue</text><rect x="1260" y="780" width="200" height="50" style="fill: #0035ad;"></rect><text x="1260" y="800" font-size="25px" style="fill: black;">UA blue</text><text x="1260" y="825" font-size="25px" style="fill: white;">UA blue</text><rect x="1470" y="780" width="200" height="50" style="fill: #4200ff;"></rect><text x="1470" y="800" font-size="25px" style="fill: black;">Ultramarine</text><text x="1470" y="825" font-size="25px" style="fill: white;">Ultramarine</text><rect x="0" y="840" width="200" height="50" style="fill: #4265f7;"></rect><text x="0" y="860" font-size="25px" style="fill: black;">Ultramarine blue</text><text x="0" y="885" font-size="25px" style="fill: white;">Ultramarine blue</text><rect x="210" y="840" width="200" height="50" style="fill: #00205a;"></rect><text x="210" y="860" font-size="25px" style="fill: black;">University of Pennsylvania Blue</text><text x="210" y="885" font-size="25px" style="fill: white;">University of Pennsylvania Blue</text><rect x="420" y="840" width="200" height="50" style="fill: #addbf7;"></rect><text x="420" y="860" font-size="25px" style="fill: black;">Uranian Blue</text><text x="420" y="885" font-size="25px" style="fill: white;">Uranian Blue</text><rect x="630" y="840" width="200" height="50" style="fill: #005194;"></rect><text x="630" y="860" font-size="25px" style="fill: black;">USAFA blue</text><text x="630" y="885" font-size="25px" style="fill: white;">USAFA blue</text><rect x="840" y="840" width="200" height="50" style="fill: #3149b5;"></rect><text x="840" y="860" font-size="25px" style="fill: black;">Violet-blue</text><text x="840" y="885" font-size="25px" style="fill: white;">Violet-blue</text><rect x="1050" y="840" width="200" height="50" style="fill: #736dc5;"></rect><text x="1050" y="860" font-size="25px" style="fill: black;">Violet-blue (Crayola)</text><text x="1050" y="885" font-size="25px" style="fill: white;">Violet-blue (Crayola)</text><rect x="1260" y="840" width="200" height="50" style="fill: #00caff;"></rect><text x="1260" y="860" font-size="25px" style="fill: black;">Vivid sky blue</text><text x="1260" y="885" font-size="25px" style="fill: white;">Vivid sky blue</text><rect x="1470" y="840" width="200" height="50" style="fill: #a5aece;"></rect><text x="1470" y="860" font-size="25px" style="fill: black;">Wild blue yonder</text><text x="1470" y="885" font-size="25px" style="fill: white;">Wild blue yonder</text><rect x="0" y="900" width="200" height="50" style="fill: #00356b;"></rect><text x="0" y="920" font-size="25px" style="fill: black;">Yale Blue</text><text x="0" y="945" font-size="25px" style="fill: white;">Yale Blue</text><rect x="210" y="900" width="200" height="50" style="fill: #00356b;"></rect><text x="210" y="920" font-size="25px" style="fill: black;">Yale "Blue Site" Blue</text><text x="210" y="945" font-size="25px" style="fill: white;">Yale "Blue Site" Blue</text><rect x="420" y="900" width="200" height="50" style="fill: #315194;"></rect><text x="420" y="920" font-size="25px" style="fill: black;">YInMn Blue</text><text x="420" y="945" font-size="25px" style="fill: white;">YInMn Blue</text></svg>