<svg width="840px" height="1890px" xmlns="http://www.w3.org/2000/svg"><rect x="0" y="0" width="200" height="200" rx="20px" ry="20px" style="fill: #9c8273;"></rect><text x="0" y="40" font-size="20px" style="fill: black;">Beaver</text><text x="0" y="60" font-size="20px" style="fill: white;">Beaver</text><text x="0" y="80" font-size="20px" style="fill: black;">#9c8273</text><text x="0" y="100" font-size="20px" style="fill: white;">#9c8273</text><text x="0" y="120" font-size="20px" style="fill: black;">0x9c0e</text><text x="0" y="140" font-size="20px" style="fill: white;">0x9c0e</text><rect x="210" y="0" width="200" height="200" rx="20px" ry="20px" style="fill: #f7f7de;"></rect><text x="210" y="40" font-size="20px" style="fill: black;">Beige</text><text x="210" y="60" font-size="20px" style="fill: white;">Beige</text><text x="210" y="80" font-size="20px" style="fill: black;">#f7f7de</text><text x="210" y="100" font-size="20px" style="fill: white;">#f7f7de</text><text x="210" y="120" font-size="20px" style="fill: black;">0xf7bb</text><text x="210" y="140" font-size="20px" style="fill: white;">0xf7bb</text><rect x="420" y="0" width="200" height="200" rx="20px" ry="20px" style="fill: #947119;"></rect><text x="420" y="40" font-size="20px" style="fill: black;">Bistre brown</text><text x="420" y="60" font-size="20px" style="fill: white;">Bistre brown</text><text x="420" y="80" font-size="20px" style="fill: black;">#947119</text><text x="420" y="100" font-size="20px" style="fill: white;">#947119</text><text x="420" y="120" font-size="20px" style="fill: black;">0x9383</text><text x="420" y="140" font-size="20px" style="fill: white;">0x9383</text><rect x="630" y="0" width="200" height="200" rx="20px" ry="20px" style="fill: #944d00;"></rect><text x="630" y="40" font-size="20px" style="fill: black;">Brown</text><text x="630" y="60" font-size="20px" style="fill: white;">Brown</text><text x="630" y="80" font-size="20px" style="fill: black;">#944d00</text><text x="630" y="100" font-size="20px" style="fill: white;">#944d00</text><text x="630" y="120" font-size="20px" style="fill: black;">0x9260</text><text x="630" y="140" font-size="20px" style="fill: white;">0x9260</text><rect x="0" y="210" width="200" height="200" rx="20px" ry="20px" style="fill: #ad6d4a;"></rect><text x="0" y="250" font-size="20px" style="fill: black;">Brown sugar</text><text x="0" y="270" font-size="20px" style="fill: white;">Brown sugar</text><text x="0" y="290" font-size="20px" style="fill: black;">#ad6d4a</text><text x="0" y="310" font-size="20px" style="fill: white;">#ad6d4a</text><text x="0" y="330" font-size="20px" style="fill: black;">0xab69</text><text x="0" y="350" font-size="20px" style="fill: white;">0xab69</text><rect x="210" y="210" width="200" height="200" rx="20px" ry="20px" style="fill: #dea26b;"></rect><text x="210" y="250" font-size="20px" style="fill: black;">Buff</text><text x="210" y="270" font-size="20px" style="fill: white;">Buff</text><text x="210" y="290" font-size="20px" style="fill: black;">#dea26b</text><text x="210" y="310" font-size="20px" style="fill: white;">#dea26b</text><text x="210" y="330" font-size="20px" style="fill: black;">0xdd0d</text><text x="210" y="350" font-size="20px" style="fill: white;">0xdd0d</text><rect x="420" y="210" width="200" height="200" rx="20px" ry="20px" style="fill: #a57973;"></rect><text x="420" y="250" font-size="20px" style="fill: black;">Burnished brown</text><text x="420" y="270" font-size="20px" style="fill: white;">Burnished brown</text><text x="420" y="290" font-size="20px" style="fill: black;">#a57973</text><text x="420" y="310" font-size="20px" style="fill: white;">#a57973</text><text x="420" y="330" font-size="20px" style="fill: black;">0xa3ce</text><text x="420" y="350" font-size="20px" style="fill: white;">0xa3ce</text><rect x="630" y="210" width="200" height="200" rx="20px" ry="20px" style="fill: #8c3521;"></rect><text x="630" y="250" font-size="20px" style="fill: black;">Burnt umber</text><text x="630" y="270" font-size="20px" style="fill: white;">Burnt umber</text><text x="630" y="290" font-size="20px" style="fill: black;">#8c3521</text><text x="630" y="310" font-size="20px" style="fill: white;">#8c3521</text><text x="630" y="330" font-size="20px" style="fill: black;">0x89a4</text><text x="630" y="350" font-size="20px" style="fill: white;">0x89a4</text><rect x="0" y="420" width="200" height="200" rx="20px" ry="20px" style="fill: #944531;"></rect><text x="0" y="460" font-size="20px" style="fill: black;">Chestnut</text><text x="0" y="480" font-size="20px" style="fill: white;">Chestnut</text><text x="0" y="500" font-size="20px" style="fill: black;">#944531</text><text x="0" y="520" font-size="20px" style="fill: white;">#944531</text><text x="0" y="540" font-size="20px" style="fill: black;">0x9226</text><text x="0" y="560" font-size="20px" style="fill: white;">0x9226</text><rect x="210" y="420" width="200" height="200" rx="20px" ry="20px" style="fill: #7b4100;"></rect><text x="210" y="460" font-size="20px" style="fill: black;">Chocolate</text><text x="210" y="480" font-size="20px" style="fill: white;">Chocolate</text><text x="210" y="500" font-size="20px" style="fill: black;">#7b4100</text><text x="210" y="520" font-size="20px" style="fill: white;">#7b4100</text><text x="210" y="540" font-size="20px" style="fill: black;">0x7a00</text><text x="210" y="560" font-size="20px" style="fill: white;">0x7a00</text><rect x="420" y="420" width="200" height="200" rx="20px" ry="20px" style="fill: #d66921;"></rect><text x="420" y="460" font-size="20px" style="fill: black;">Cocoa Brown</text><text x="420" y="480" font-size="20px" style="fill: white;">Cocoa Brown</text><text x="420" y="500" font-size="20px" style="fill: black;">#d66921</text><text x="420" y="520" font-size="20px" style="fill: white;">#d66921</text><text x="420" y="540" font-size="20px" style="fill: black;">0xd344</text><text x="420" y="560" font-size="20px" style="fill: white;">0xd344</text><rect x="630" y="420" width="200" height="200" rx="20px" ry="20px" style="fill: #84613a;"></rect><text x="630" y="460" font-size="20px" style="fill: black;">Coyote brown</text><text x="630" y="480" font-size="20px" style="fill: white;">Coyote brown</text><text x="630" y="500" font-size="20px" style="fill: black;">#84613a</text><text x="630" y="520" font-size="20px" style="fill: white;">#84613a</text><text x="630" y="540" font-size="20px" style="fill: black;">0x8307</text><text x="630" y="560" font-size="20px" style="fill: white;">0x8307</text><rect x="0" y="630" width="200" height="200" rx="20px" ry="20px" style="fill: #5a4131;"></rect><text x="0" y="670" font-size="20px" style="fill: black;">Dark Brown</text><text x="0" y="690" font-size="20px" style="fill: white;">Dark Brown</text><text x="0" y="710" font-size="20px" style="fill: black;">#5a4131</text><text x="0" y="730" font-size="20px" style="fill: white;">#5a4131</text><text x="0" y="750" font-size="20px" style="fill: black;">0x5a06</text><text x="0" y="770" font-size="20px" style="fill: white;">0x5a06</text><rect x="210" y="630" width="200" height="200" rx="20px" ry="20px" style="fill: #efcaad;"></rect><text x="210" y="670" font-size="20px" style="fill: black;">Desert Sand</text><text x="210" y="690" font-size="20px" style="fill: white;">Desert Sand</text><text x="210" y="710" font-size="20px" style="fill: black;">#efcaad</text><text x="210" y="730" font-size="20px" style="fill: white;">#efcaad</text><text x="210" y="750" font-size="20px" style="fill: black;">0xee55</text><text x="210" y="770" font-size="20px" style="fill: white;">0xee55</text><rect x="420" y="630" width="200" height="200" rx="20px" ry="20px" style="fill: #9c6519;"></rect><text x="420" y="670" font-size="20px" style="fill: black;">Golden brown</text><text x="420" y="690" font-size="20px" style="fill: white;">Golden brown</text><text x="420" y="710" font-size="20px" style="fill: black;">#9c6519</text><text x="420" y="730" font-size="20px" style="fill: white;">#9c6519</text><text x="420" y="750" font-size="20px" style="fill: black;">0x9b23</text><text x="420" y="770" font-size="20px" style="fill: white;">0x9b23</text><rect x="630" y="630" width="200" height="200" rx="20px" ry="20px" style="fill: #c5ae94;"></rect><text x="630" y="670" font-size="20px" style="fill: black;">Khaki</text><text x="630" y="690" font-size="20px" style="fill: white;">Khaki</text><text x="630" y="710" font-size="20px" style="fill: black;">#c5ae94</text><text x="630" y="730" font-size="20px" style="fill: white;">#c5ae94</text><text x="630" y="750" font-size="20px" style="fill: black;">0xc572</text><text x="630" y="770" font-size="20px" style="fill: white;">0xc572</text><rect x="0" y="840" width="200" height="200" rx="20px" ry="20px" style="fill: #6b4521;"></rect><text x="0" y="880" font-size="20px" style="fill: black;">Kobicha</text><text x="0" y="900" font-size="20px" style="fill: white;">Kobicha</text><text x="0" y="920" font-size="20px" style="fill: black;">#6b4521</text><text x="0" y="940" font-size="20px" style="fill: white;">#6b4521</text><text x="0" y="960" font-size="20px" style="fill: black;">0x6a24</text><text x="0" y="980" font-size="20px" style="fill: white;">0x6a24</text><rect x="210" y="840" width="200" height="200" rx="20px" ry="20px" style="fill: #ce8642;"></rect><text x="210" y="880" font-size="20px" style="fill: black;">Peru</text><text x="210" y="900" font-size="20px" style="fill: white;">Peru</text><text x="210" y="920" font-size="20px" style="fill: black;">#ce8642</text><text x="210" y="940" font-size="20px" style="fill: white;">#ce8642</text><text x="210" y="960" font-size="20px" style="fill: black;">0xcc28</text><text x="210" y="980" font-size="20px" style="fill: white;">0xcc28</text><rect x="420" y="840" width="200" height="200" rx="20px" ry="20px" style="fill: #634119;"></rect><text x="420" y="880" font-size="20px" style="fill: black;">Pullman Brown (UPS Brown)</text><text x="420" y="900" font-size="20px" style="fill: white;">Pullman Brown (UPS Brown)</text><text x="420" y="920" font-size="20px" style="fill: black;">#634119</text><text x="420" y="940" font-size="20px" style="fill: white;">#634119</text><text x="420" y="960" font-size="20px" style="fill: black;">0x6203</text><text x="420" y="980" font-size="20px" style="fill: white;">0x6203</text><rect x="630" y="840" width="200" height="200" rx="20px" ry="20px" style="fill: #846542;"></rect><text x="630" y="880" font-size="20px" style="fill: black;">Raw Umber</text><text x="630" y="900" font-size="20px" style="fill: white;">Raw Umber</text><text x="630" y="920" font-size="20px" style="fill: black;">#846542</text><text x="630" y="940" font-size="20px" style="fill: white;">#846542</text><text x="630" y="960" font-size="20px" style="fill: black;">0x8328</text><text x="630" y="980" font-size="20px" style="fill: white;">0x8328</text><rect x="0" y="1050" width="200" height="200" rx="20px" ry="20px" style="fill: #a52829;"></rect><text x="0" y="1090" font-size="20px" style="fill: black;">Red-Brown</text><text x="0" y="1110" font-size="20px" style="fill: white;">Red-Brown</text><text x="0" y="1130" font-size="20px" style="fill: black;">#a52829</text><text x="0" y="1150" font-size="20px" style="fill: white;">#a52829</text><text x="0" y="1170" font-size="20px" style="fill: black;">0xa145</text><text x="0" y="1190" font-size="20px" style="fill: white;">0xa145</text><rect x="210" y="1050" width="200" height="200" rx="20px" ry="20px" style="fill: #bd8e8c;"></rect><text x="210" y="1090" font-size="20px" style="fill: black;">Rosy Brown</text><text x="210" y="1110" font-size="20px" style="fill: white;">Rosy Brown</text><text x="210" y="1130" font-size="20px" style="fill: black;">#bd8e8c</text><text x="210" y="1150" font-size="20px" style="fill: white;">#bd8e8c</text><text x="210" y="1170" font-size="20px" style="fill: black;">0xbc71</text><text x="210" y="1190" font-size="20px" style="fill: white;">0xbc71</text><rect x="420" y="1050" width="200" height="200" rx="20px" ry="20px" style="fill: #844519;"></rect><text x="420" y="1090" font-size="20px" style="fill: black;">Russet</text><text x="420" y="1110" font-size="20px" style="fill: white;">Russet</text><text x="420" y="1130" font-size="20px" style="fill: black;">#844519</text><text x="420" y="1150" font-size="20px" style="fill: white;">#844519</text><text x="420" y="1170" font-size="20px" style="fill: black;">0x8223</text><text x="420" y="1190" font-size="20px" style="fill: white;">0x8223</text><rect x="630" y="1050" width="200" height="200" rx="20px" ry="20px" style="fill: #8c4510;"></rect><text x="630" y="1090" font-size="20px" style="fill: black;">Saddle brown</text><text x="630" y="1110" font-size="20px" style="fill: white;">Saddle brown</text><text x="630" y="1130" font-size="20px" style="fill: black;">#8c4510</text><text x="630" y="1150" font-size="20px" style="fill: white;">#8c4510</text><text x="630" y="1170" font-size="20px" style="fill: black;">0x8a22</text><text x="630" y="1190" font-size="20px" style="fill: white;">0x8a22</text><rect x="0" y="1260" width="200" height="200" rx="20px" ry="20px" style="fill: #f7a663;"></rect><text x="0" y="1300" font-size="20px" style="fill: black;">Sandy Brown</text><text x="0" y="1320" font-size="20px" style="fill: white;">Sandy Brown</text><text x="0" y="1340" font-size="20px" style="fill: black;">#f7a663</text><text x="0" y="1360" font-size="20px" style="fill: white;">#f7a663</text><text x="0" y="1380" font-size="20px" style="fill: black;">0xf52c</text><text x="0" y="1400" font-size="20px" style="fill: white;">0xf52c</text><rect x="210" y="1260" width="200" height="200" rx="20px" ry="20px" style="fill: #5a2408;"></rect><text x="210" y="1300" font-size="20px" style="fill: black;">Seal brown</text><text x="210" y="1320" font-size="20px" style="fill: white;">Seal brown</text><text x="210" y="1340" font-size="20px" style="fill: black;">#5a2408</text><text x="210" y="1360" font-size="20px" style="fill: white;">#5a2408</text><text x="210" y="1380" font-size="20px" style="fill: black;">0x5921</text><text x="210" y="1400" font-size="20px" style="fill: white;">0x5921</text><rect x="420" y="1260" width="200" height="200" rx="20px" ry="20px" style="fill: #842810;"></rect><text x="420" y="1300" font-size="20px" style="fill: black;">Smokey Topaz</text><text x="420" y="1320" font-size="20px" style="fill: white;">Smokey Topaz</text><text x="420" y="1340" font-size="20px" style="fill: black;">#842810</text><text x="420" y="1360" font-size="20px" style="fill: white;">#842810</text><text x="420" y="1380" font-size="20px" style="fill: black;">0x8142</text><text x="420" y="1400" font-size="20px" style="fill: white;">0x8142</text><rect x="630" y="1260" width="200" height="200" rx="20px" ry="20px" style="fill: #a53931;"></rect><text x="630" y="1300" font-size="20px" style="fill: black;">Sweet Brown</text><text x="630" y="1320" font-size="20px" style="fill: white;">Sweet Brown</text><text x="630" y="1340" font-size="20px" style="fill: black;">#a53931</text><text x="630" y="1360" font-size="20px" style="fill: white;">#a53931</text><text x="630" y="1380" font-size="20px" style="fill: black;">0xa1c6</text><text x="630" y="1400" font-size="20px" style="fill: white;">0xa1c6</text><rect x="0" y="1470" width="200" height="200" rx="20px" ry="20px" style="fill: #d6b28c;"></rect><text x="0" y="1510" font-size="20px" style="fill: black;">Tan</text><text x="0" y="1530" font-size="20px" style="fill: white;">Tan</text><text x="0" y="1550" font-size="20px" style="fill: black;">#d6b28c</text><text x="0" y="1570" font-size="20px" style="fill: white;">#d6b28c</text><text x="0" y="1590" font-size="20px" style="fill: black;">0xd591</text><text x="0" y="1610" font-size="20px" style="fill: white;">0xd591</text><rect x="210" y="1470" width="200" height="200" rx="20px" ry="20px" style="fill: #4a3d31;"></rect><text x="210" y="1510" font-size="20px" style="fill: black;">Taupe</text><text x="210" y="1530" font-size="20px" style="fill: white;">Taupe</text><text x="210" y="1550" font-size="20px" style="fill: black;">#4a3d31</text><text x="210" y="1570" font-size="20px" style="fill: white;">#4a3d31</text><text x="210" y="1590" font-size="20px" style="fill: black;">0x49e6</text><text x="210" y="1610" font-size="20px" style="fill: white;">0x49e6</text><rect x="420" y="1470" width="200" height="200" rx="20px" ry="20px" style="fill: #6b4d3a;"></rect><text x="420" y="1510" font-size="20px" style="fill: black;">Tuscan brown</text><text x="420" y="1530" font-size="20px" style="fill: white;">Tuscan brown</text><text x="420" y="1550" font-size="20px" style="fill: black;">#6b4d3a</text><text x="420" y="1570" font-size="20px" style="fill: white;">#6b4d3a</text><text x="420" y="1590" font-size="20px" style="fill: black;">0x6a67</text><text x="420" y="1610" font-size="20px" style="fill: white;">0x6a67</text><rect x="630" y="1470" width="200" height="200" rx="20px" ry="20px" style="fill: #634129;"></rect><text x="630" y="1510" font-size="20px" style="fill: black;">Van Dyke brown</text><text x="630" y="1530" font-size="20px" style="fill: white;">Van Dyke brown</text><text x="630" y="1550" font-size="20px" style="fill: black;">#634129</text><text x="630" y="1570" font-size="20px" style="fill: white;">#634129</text><text x="630" y="1590" font-size="20px" style="fill: black;">0x6205</text><text x="630" y="1610" font-size="20px" style="fill: white;">0x6205</text><rect x="0" y="1680" width="200" height="200" rx="20px" ry="20px" style="fill: #5a514a;"></rect><text x="0" y="1720" font-size="20px" style="fill: black;">Walnut Brown</text><text x="0" y="1740" font-size="20px" style="fill: white;">Walnut Brown</text><text x="0" y="1760" font-size="20px" style="fill: black;">#5a514a</text><text x="0" y="1780" font-size="20px" style="fill: white;">#5a514a</text><text x="0" y="1800" font-size="20px" style="fill: black;">0x5a89</text><text x="0" y="1820" font-size="20px" style="fill: white;">0x5a89</text><rect x="210" y="1680" width="200" height="200" rx="20px" ry="20px" style="fill: #635552;"></rect><text x="210" y="1720" font-size="20px" style="fill: black;">Wenge</text><text x="210" y="1740" font-size="20px" style="fill: white;">Wenge</text><text x="210" y="1760" font-size="20px" style="fill: black;">#635552</text><text x="210" y="1780" font-size="20px" style="fill: white;">#635552</text><text x="210" y="1800" font-size="20px" style="fill: black;">0x62aa</text><text x="210" y="1820" font-size="20px" style="fill: white;">0x62aa</text><rect x="420" y="1680" width="200" height="200" rx="20px" ry="20px" style="fill: #bd9a6b;"></rect><text x="420" y="1720" font-size="20px" style="fill: black;">Wood Brown</text><text x="420" y="1740" font-size="20px" style="fill: white;">Wood Brown</text><text x="420" y="1760" font-size="20px" style="fill: black;">#bd9a6b</text><text x="420" y="1780" font-size="20px" style="fill: white;">#bd9a6b</text><text x="420" y="1800" font-size="20px" style="fill: black;">0xbccd</text><text x="420" y="1820" font-size="20px" style="fill: white;">0xbccd</text></svg>