<svg width="1680px" height="300px" xmlns="http://www.w3.org/2000/svg"><rect x="0" y="0" width="200" height="50" style="fill: #9c8273;"></rect><text x="0" y="20" font-size="25px" style="fill: black;">Beaver</text><text x="0" y="45" font-size="25px" style="fill: white;">Beaver</text><rect x="210" y="0" width="200" height="50" style="fill: #f7f7de;"></rect><text x="210" y="20" font-size="25px" style="fill: black;">Beige</text><text x="210" y="45" font-size="25px" style="fill: white;">Beige</text><rect x="420" y="0" width="200" height="50" style="fill: #947119;"></rect><text x="420" y="20" font-size="25px" style="fill: black;">Bistre brown</text><text x="420" y="45" font-size="25px" style="fill: white;">Bistre brown</text><rect x="630" y="0" width="200" height="50" style="fill: #944d00;"></rect><text x="630" y="20" font-size="25px" style="fill: black;">Brown</text><text x="630" y="45" font-size="25px" style="fill: white;">Brown</text><rect x="840" y="0" width="200" height="50" style="fill: #ad6d4a;"></rect><text x="840" y="20" font-size="25px" style="fill: black;">Brown sugar</text><text x="840" y="45" font-size="25px" style="fill: white;">Brown sugar</text><rect x="1050" y="0" width="200" height="50" style="fill: #dea26b;"></rect><text x="1050" y="20" font-size="25px" style="fill: black;">Buff</text><text x="1050" y="45" font-size="25px" style="fill: white;">Buff</text><rect x="1260" y="0" width="200" height="50" style="fill: #a57973;"></rect><text x="1260" y="20" font-size="25px" style="fill: black;">Burnished brown</text><text x="1260" y="45" font-size="25px" style="fill: white;">Burnished brown</text><rect x="1470" y="0" width="200" height="50" style="fill: #8c3521;"></rect><text x="1470" y="20" font-size="25px" style="fill: black;">Burnt umber</text><text x="1470" y="45" font-size="25px" style="fill: white;">Burnt umber</text><rect x="0" y="60" width="200" height="50" style="fill: #944531;"></rect><text x="0" y="80" font-size="25px" style="fill: black;">Chestnut</text><text x="0" y="105" font-size="25px" style="fill: white;">Chestnut</text><rect x="210" y="60" width="200" height="50" style="fill: #7b4100;"></rect><text x="210" y="80" font-size="25px" style="fill: black;">Chocolate</text><text x="210" y="105" font-size="25px" style="fill: white;">Chocolate</text><rect x="420" y="60" width="200" height="50" style="fill: #d66921;"></rect><text x="420" y="80" font-size="25px" style="fill: black;">Cocoa Brown</text><text x="420" y="105" font-size="25px" style="fill: white;">Cocoa Brown</text><rect x="630" y="60" width="200" height="50" style="fill: #84613a;"></rect><text x="630" y="80" font-size="25px" style="fill: black;">Coyote brown</text><text x="630" y="105" font-size="25px" style="fill: white;">Coyote brown</text><rect x="840" y="60" width="200" height="50" style="fill: #5a4131;"></rect><text x="840" y="80" font-size="25px" style="fill: black;">Dark Brown</text><text x="840" y="105" font-size="25px" style="fill: white;">Dark Brown</text><rect x="1050" y="60" width="200" height="50" style="fill: #efcaad;"></rect><text x="1050" y="80" font-size="25px" style="fill: black;">Desert Sand</text><text x="1050" y="105" font-size="25px" style="fill: white;">Desert Sand</text><rect x="1260" y="60" width="200" height="50" style="fill: #9c6519;"></rect><text x="1260" y="80" font-size="25px" style="fill: black;">Golden brown</text><text x="1260" y="105" font-size="25px" style="fill: white;">Golden brown</text><rect x="1470" y="60" width="200" height="50" style="fill: #c5ae94;"></rect><text x="1470" y="80" font-size="25px" style="fill: black;">Khaki</text><text x="1470" y="105" font-size="25px" style="fill: white;">Khaki</text><rect x="0" y="120" width="200" height="50" style="fill: #6b4521;"></rect><text x="0" y="140" font-size="25px" style="fill: black;">Kobicha</text><text x="0" y="165" font-size="25px" style="fill: white;">Kobicha</text><rect x="210" y="120" width="200" height="50" style="fill: #ce8642;"></rect><text x="210" y="140" font-size="25px" style="fill: black;">Peru</text><text x="210" y="165" font-size="25px" style="fill: white;">Peru</text><rect x="420" y="120" width="200" height="50" style="fill: #634119;"></rect><text x="420" y="140" font-size="25px" style="fill: black;">Pullman Brown (UPS Brown)</text><text x="420" y="165" font-size="25px" style="fill: white;">Pullman Brown (UPS Brown)</text><rect x="630" y="120" width="200" height="50" style="fill: #846542;"></rect><text x="630" y="140" font-size="25px" style="fill: black;">Raw Umber</text><text x="630" y="165" font-size="25px" style="fill: white;">Raw Umber</text><rect x="840" y="120" width="200" height="50" style="fill: #a52829;"></rect><text x="840" y="140" font-size="25px" style="fill: black;">Red-Brown</text><text x="840" y="165" font-size="25px" style="fill: white;">Red-Brown</text><rect x="1050" y="120" width="200" height="50" style="fill: #bd8e8c;"></rect><text x="1050" y="140" font-size="25px" style="fill: black;">Rosy Brown</text><text x="1050" y="165" font-size="25px" style="fill: white;">Rosy Brown</text><rect x="1260" y="120" width="200" height="50" style="fill: #844519;"></rect><text x="1260" y="140" font-size="25px" style="fill: black;">Russet</text><text x="1260" y="165" font-size="25px" style="fill: white;">Russet</text><rect x="1470" y="120" width="200" height="50" style="fill: #8c4510;"></rect><text x="1470" y="140" font-size="25px" style="fill: black;">Saddle brown</text><text x="1470" y="165" font-size="25px" style="fill: white;">Saddle brown</text><rect x="0" y="180" width="200" height="50" style="fill: #f7a663;"></rect><text x="0" y="200" font-size="25px" style="fill: black;">Sandy Brown</text><text x="0" y="225" font-size="25px" style="fill: white;">Sandy Brown</text><rect x="210" y="180" width="200" height="50" style="fill: #5a2408;"></rect><text x="210" y="200" font-size="25px" style="fill: black;">Seal brown</text><text x="210" y="225" font-size="25px" style="fill: white;">Seal brown</text><rect x="420" y="180" width="200" height="50" style="fill: #842810;"></rect><text x="420" y="200" font-size="25px" style="fill: black;">Smokey Topaz</text><text x="420" y="225" font-size="25px" style="fill: white;">Smokey Topaz</text><rect x="630" y="180" width="200" height="50" style="fill: #a53931;"></rect><text x="630" y="200" font-size="25px" style="fill: black;">Sweet Brown</text><text x="630" y="225" font-size="25px" style="fill: white;">Sweet Brown</text><rect x="840" y="180" width="200" height="50" style="fill: #d6b28c;"></rect><text x="840" y="200" font-size="25px" style="fill: black;">Tan</text><text x="840" y="225" font-size="25px" style="fill: white;">Tan</text><rect x="1050" y="180" width="200" height="50" style="fill: #4a3d31;"></rect><text x="1050" y="200" font-size="25px" style="fill: black;">Taupe</text><text x="1050" y="225" font-size="25px" style="fill: white;">Taupe</text><rect x="1260" y="180" width="200" height="50" style="fill: #6b4d3a;"></rect><text x="1260" y="200" font-size="25px" style="fill: black;">Tuscan brown</text><text x="1260" y="225" font-size="25px" style="fill: white;">Tuscan brown</text><rect x="1470" y="180" width="200" height="50" style="fill: #634129;"></rect><text x="1470" y="200" font-size="25px" style="fill: black;">Van Dyke brown</text><text x="1470" y="225" font-size="25px" style="fill: white;">Van Dyke brown</text><rect x="0" y="240" width="200" height="50" style="fill: #5a514a;"></rect><text x="0" y="260" font-size="25px" style="fill: black;">Walnut Brown</text><text x="0" y="285" font-size="25px" style="fill: white;">Walnut Brown</text><rect x="210" y="240" width="200" height="50" style="fill: #635552;"></rect><text x="210" y="260" font-size="25px" style="fill: black;">Wenge</text><text x="210" y="285" font-size="25px" style="fill: white;">Wenge</text><rect x="420" y="240" width="200" height="50" style="fill: #bd9a6b;"></rect><text x="420" y="260" font-size="25px" style="fill: black;">Wood Brown</text><text x="420" y="285" font-size="25px" style="fill: white;">Wood Brown</text></svg>