<svg width="840px" height="1470px" xmlns="http://www.w3.org/2000/svg"><rect x="0" y="0" width="200" height="200" rx="20px" ry="20px" style="fill: #efffff;"></rect><text x="0" y="40" font-size="20px" style="fill: black;">Azure (web)</text><text x="0" y="60" font-size="20px" style="fill: white;">Azure (web)</text><text x="0" y="80" font-size="20px" style="fill: black;">#efffff</text><text x="0" y="100" font-size="20px" style="fill: white;">#efffff</text><text x="0" y="120" font-size="20px" style="fill: black;">0xefff</text><text x="0" y="140" font-size="20px" style="fill: white;">0xefff</text><rect x="210" y="0" width="200" height="200" rx="20px" ry="20px" style="fill: #109abd;"></rect><text x="210" y="40" font-size="20px" style="fill: black;">Blue-green</text><text x="210" y="60" font-size="20px" style="fill: white;">Blue-green</text><text x="210" y="80" font-size="20px" style="fill: black;">#109abd</text><text x="210" y="100" font-size="20px" style="fill: white;">#109abd</text><text x="210" y="120" font-size="20px" style="fill: black;">0x14d7</text><text x="210" y="140" font-size="20px" style="fill: white;">0x14d7</text><rect x="420" y="0" width="200" height="200" rx="20px" ry="20px" style="fill: #006d6b;"></rect><text x="420" y="40" font-size="20px" style="fill: black;">Caribbean Current</text><text x="420" y="60" font-size="20px" style="fill: white;">Caribbean Current</text><text x="420" y="80" font-size="20px" style="fill: black;">#006d6b</text><text x="420" y="100" font-size="20px" style="fill: white;">#006d6b</text><text x="420" y="120" font-size="20px" style="fill: black;">0x36d</text><text x="420" y="140" font-size="20px" style="fill: white;">0x36d</text><rect x="630" y="0" width="200" height="200" rx="20px" ry="20px" style="fill: #b5ffff;"></rect><text x="630" y="40" font-size="20px" style="fill: black;">Celeste</text><text x="630" y="60" font-size="20px" style="fill: white;">Celeste</text><text x="630" y="80" font-size="20px" style="fill: black;">#b5ffff</text><text x="630" y="100" font-size="20px" style="fill: white;">#b5ffff</text><text x="630" y="120" font-size="20px" style="fill: black;">0xb7ff</text><text x="630" y="140" font-size="20px" style="fill: white;">0xb7ff</text><rect x="0" y="210" width="200" height="200" rx="20px" ry="20px" style="fill: #212d29;"></rect><text x="0" y="250" font-size="20px" style="fill: black;">Charleston green</text><text x="0" y="270" font-size="20px" style="fill: white;">Charleston green</text><text x="0" y="290" font-size="20px" style="fill: black;">#212d29</text><text x="0" y="310" font-size="20px" style="fill: white;">#212d29</text><text x="0" y="330" font-size="20px" style="fill: black;">0x2165</text><text x="0" y="350" font-size="20px" style="fill: white;">0x2165</text><rect x="210" y="210" width="200" height="200" rx="20px" ry="20px" style="fill: #00ffff;"></rect><text x="210" y="250" font-size="20px" style="fill: black;">Cyan</text><text x="210" y="270" font-size="20px" style="fill: white;">Cyan</text><text x="210" y="290" font-size="20px" style="fill: black;">#00ffff</text><text x="210" y="310" font-size="20px" style="fill: white;">#00ffff</text><text x="210" y="330" font-size="20px" style="fill: black;">0x7ff</text><text x="210" y="350" font-size="20px" style="fill: white;">0x7ff</text><rect x="420" y="210" width="200" height="200" rx="20px" ry="20px" style="fill: #00ffff;"></rect><text x="420" y="250" font-size="20px" style="fill: black;">Cyan (additive secondary)</text><text x="420" y="270" font-size="20px" style="fill: white;">Cyan (additive secondary)</text><text x="420" y="290" font-size="20px" style="fill: black;">#00ffff</text><text x="420" y="310" font-size="20px" style="fill: white;">#00ffff</text><text x="420" y="330" font-size="20px" style="fill: black;">0x7ff</text><text x="420" y="350" font-size="20px" style="fill: white;">0x7ff</text><rect x="630" y="210" width="200" height="200" rx="20px" ry="20px" style="fill: #00b6ef;"></rect><text x="630" y="250" font-size="20px" style="fill: black;">Cyan (process)</text><text x="630" y="270" font-size="20px" style="fill: white;">Cyan (process)</text><text x="630" y="290" font-size="20px" style="fill: black;">#00b6ef</text><text x="630" y="310" font-size="20px" style="fill: white;">#00b6ef</text><text x="630" y="330" font-size="20px" style="fill: black;">0x5bd</text><text x="630" y="350" font-size="20px" style="fill: white;">0x5bd</text><rect x="0" y="420" width="200" height="200" rx="20px" ry="20px" style="fill: #00b6ef;"></rect><text x="0" y="460" font-size="20px" style="fill: black;">Cyan (subtractive primary)</text><text x="0" y="480" font-size="20px" style="fill: white;">Cyan (subtractive primary)</text><text x="0" y="500" font-size="20px" style="fill: black;">#00b6ef</text><text x="0" y="520" font-size="20px" style="fill: white;">#00b6ef</text><text x="0" y="540" font-size="20px" style="fill: black;">0x5bd</text><text x="0" y="560" font-size="20px" style="fill: white;">0x5bd</text><rect x="210" y="420" width="200" height="200" rx="20px" ry="20px" style="fill: #008a8c;"></rect><text x="210" y="460" font-size="20px" style="fill: black;">Dark cyan</text><text x="210" y="480" font-size="20px" style="fill: white;">Dark cyan</text><text x="210" y="500" font-size="20px" style="fill: black;">#008a8c</text><text x="210" y="520" font-size="20px" style="fill: white;">#008a8c</text><text x="210" y="540" font-size="20px" style="fill: black;">0x451</text><text x="210" y="560" font-size="20px" style="fill: white;">0x451</text><rect x="420" y="420" width="200" height="200" rx="20px" ry="20px" style="fill: #7bfbff;"></rect><text x="420" y="460" font-size="20px" style="fill: black;">Electric blue</text><text x="420" y="480" font-size="20px" style="fill: white;">Electric blue</text><text x="420" y="500" font-size="20px" style="fill: black;">#7bfbff</text><text x="420" y="520" font-size="20px" style="fill: white;">#7bfbff</text><text x="420" y="540" font-size="20px" style="fill: black;">0x7fdf</text><text x="420" y="560" font-size="20px" style="fill: white;">0x7fdf</text><rect x="630" y="420" width="200" height="200" rx="20px" ry="20px" style="fill: #009a63;"></rect><text x="630" y="460" font-size="20px" style="fill: black;">Green-cyan</text><text x="630" y="480" font-size="20px" style="fill: white;">Green-cyan</text><text x="630" y="500" font-size="20px" style="fill: black;">#009a63</text><text x="630" y="520" font-size="20px" style="fill: white;">#009a63</text><text x="630" y="540" font-size="20px" style="fill: black;">0x4cc</text><text x="630" y="560" font-size="20px" style="fill: white;">0x4cc</text><rect x="0" y="630" width="200" height="200" rx="20px" ry="20px" style="fill: #3aae9c;"></rect><text x="0" y="670" font-size="20px" style="fill: black;">Keppel</text><text x="0" y="690" font-size="20px" style="fill: white;">Keppel</text><text x="0" y="710" font-size="20px" style="fill: black;">#3aae9c</text><text x="0" y="730" font-size="20px" style="fill: white;">#3aae9c</text><text x="0" y="750" font-size="20px" style="fill: black;">0x3d73</text><text x="0" y="770" font-size="20px" style="fill: white;">0x3d73</text><rect x="210" y="630" width="200" height="200" rx="20px" ry="20px" style="fill: #deffff;"></rect><text x="210" y="670" font-size="20px" style="fill: black;">Light cyan</text><text x="210" y="690" font-size="20px" style="fill: white;">Light cyan</text><text x="210" y="710" font-size="20px" style="fill: black;">#deffff</text><text x="210" y="730" font-size="20px" style="fill: white;">#deffff</text><text x="210" y="750" font-size="20px" style="fill: black;">0xdfff</text><text x="210" y="770" font-size="20px" style="fill: white;">0xdfff</text><rect x="420" y="630" width="200" height="200" rx="20px" ry="20px" style="fill: #21b2ad;"></rect><text x="420" y="670" font-size="20px" style="fill: black;">Light sea green</text><text x="420" y="690" font-size="20px" style="fill: white;">Light sea green</text><text x="420" y="710" font-size="20px" style="fill: black;">#21b2ad</text><text x="420" y="730" font-size="20px" style="fill: white;">#21b2ad</text><text x="420" y="750" font-size="20px" style="fill: black;">0x2595</text><text x="420" y="770" font-size="20px" style="fill: white;">0x2595</text><rect x="630" y="630" width="200" height="200" rx="20px" ry="20px" style="fill: #004d52;"></rect><text x="630" y="670" font-size="20px" style="fill: black;">Midnight green</text><text x="630" y="690" font-size="20px" style="fill: white;">Midnight green</text><text x="630" y="710" font-size="20px" style="fill: black;">#004d52</text><text x="630" y="730" font-size="20px" style="fill: white;">#004d52</text><text x="630" y="750" font-size="20px" style="fill: black;">0x26a</text><text x="630" y="770" font-size="20px" style="fill: white;">0x26a</text><rect x="0" y="840" width="200" height="200" rx="20px" ry="20px" style="fill: #3aaabd;"></rect><text x="0" y="880" font-size="20px" style="fill: black;">Moonstone</text><text x="0" y="900" font-size="20px" style="fill: white;">Moonstone</text><text x="0" y="920" font-size="20px" style="fill: black;">#3aaabd</text><text x="0" y="940" font-size="20px" style="fill: white;">#3aaabd</text><text x="0" y="960" font-size="20px" style="fill: black;">0x3d57</text><text x="0" y="980" font-size="20px" style="fill: white;">0x3d57</text><rect x="210" y="840" width="200" height="200" rx="20px" ry="20px" style="fill: #317973;"></rect><text x="210" y="880" font-size="20px" style="fill: black;">Myrtle green</text><text x="210" y="900" font-size="20px" style="fill: white;">Myrtle green</text><text x="210" y="920" font-size="20px" style="fill: black;">#317973</text><text x="210" y="940" font-size="20px" style="fill: white;">#317973</text><text x="210" y="960" font-size="20px" style="fill: black;">0x33ce</text><text x="210" y="980" font-size="20px" style="fill: white;">0x33ce</text><rect x="420" y="840" width="200" height="200" rx="20px" ry="20px" style="fill: #00796b;"></rect><text x="420" y="880" font-size="20px" style="fill: black;">Pine green</text><text x="420" y="900" font-size="20px" style="fill: white;">Pine green</text><text x="420" y="920" font-size="20px" style="fill: black;">#00796b</text><text x="420" y="940" font-size="20px" style="fill: white;">#00796b</text><text x="420" y="960" font-size="20px" style="fill: black;">0x3cd</text><text x="420" y="980" font-size="20px" style="fill: white;">0x3cd</text><rect x="630" y="840" width="200" height="200" rx="20px" ry="20px" style="fill: #00cace;"></rect><text x="630" y="880" font-size="20px" style="fill: black;">Robin egg blue</text><text x="630" y="900" font-size="20px" style="fill: white;">Robin egg blue</text><text x="630" y="920" font-size="20px" style="fill: black;">#00cace</text><text x="630" y="940" font-size="20px" style="fill: white;">#00cace</text><text x="630" y="960" font-size="20px" style="fill: black;">0x659</text><text x="630" y="980" font-size="20px" style="fill: white;">0x659</text><rect x="0" y="1050" width="200" height="200" rx="20px" ry="20px" style="fill: #007973;"></rect><text x="0" y="1090" font-size="20px" style="fill: black;">Skobeloff</text><text x="0" y="1110" font-size="20px" style="fill: white;">Skobeloff</text><text x="0" y="1130" font-size="20px" style="fill: black;">#007973</text><text x="0" y="1150" font-size="20px" style="fill: white;">#007973</text><text x="0" y="1170" font-size="20px" style="fill: black;">0x3ce</text><text x="0" y="1190" font-size="20px" style="fill: white;">0x3ce</text><rect x="210" y="1050" width="200" height="200" rx="20px" ry="20px" style="fill: #84dbef;"></rect><text x="210" y="1090" font-size="20px" style="fill: black;">Sky blue (Crayola)</text><text x="210" y="1110" font-size="20px" style="fill: white;">Sky blue (Crayola)</text><text x="210" y="1130" font-size="20px" style="fill: black;">#84dbef</text><text x="210" y="1150" font-size="20px" style="fill: white;">#84dbef</text><text x="210" y="1170" font-size="20px" style="fill: black;">0x86dd</text><text x="210" y="1190" font-size="20px" style="fill: white;">0x86dd</text><rect x="420" y="1050" width="200" height="200" rx="20px" ry="20px" style="fill: #008284;"></rect><text x="420" y="1090" font-size="20px" style="fill: black;">Teal</text><text x="420" y="1110" font-size="20px" style="fill: white;">Teal</text><text x="420" y="1130" font-size="20px" style="fill: black;">#008284</text><text x="420" y="1150" font-size="20px" style="fill: white;">#008284</text><text x="420" y="1170" font-size="20px" style="fill: black;">0x410</text><text x="420" y="1190" font-size="20px" style="fill: white;">0x410</text><rect x="630" y="1050" width="200" height="200" rx="20px" ry="20px" style="fill: #84d7ce;"></rect><text x="630" y="1090" font-size="20px" style="fill: black;">Tiffany Blue</text><text x="630" y="1110" font-size="20px" style="fill: white;">Tiffany Blue</text><text x="630" y="1130" font-size="20px" style="fill: black;">#84d7ce</text><text x="630" y="1150" font-size="20px" style="fill: white;">#84d7ce</text><text x="630" y="1170" font-size="20px" style="fill: black;">0x86b9</text><text x="630" y="1190" font-size="20px" style="fill: white;">0x86b9</text><rect x="0" y="1260" width="200" height="200" rx="20px" ry="20px" style="fill: #42dfce;"></rect><text x="0" y="1300" font-size="20px" style="fill: black;">Turquoise</text><text x="0" y="1320" font-size="20px" style="fill: white;">Turquoise</text><text x="0" y="1340" font-size="20px" style="fill: black;">#42dfce</text><text x="0" y="1360" font-size="20px" style="fill: white;">#42dfce</text><text x="0" y="1380" font-size="20px" style="fill: black;">0x46f9</text><text x="0" y="1400" font-size="20px" style="fill: white;">0x46f9</text><rect x="210" y="1260" width="200" height="200" rx="20px" ry="20px" style="fill: #42b2ad;"></rect><text x="210" y="1300" font-size="20px" style="fill: black;">Verdigris</text><text x="210" y="1320" font-size="20px" style="fill: white;">Verdigris</text><text x="210" y="1340" font-size="20px" style="fill: black;">#42b2ad</text><text x="210" y="1360" font-size="20px" style="fill: white;">#42b2ad</text><text x="210" y="1380" font-size="20px" style="fill: black;">0x4595</text><text x="210" y="1400" font-size="20px" style="fill: white;">0x4595</text><rect x="420" y="1260" width="200" height="200" rx="20px" ry="20px" style="fill: #3aa68c;"></rect><text x="420" y="1300" font-size="20px" style="fill: black;">Zomp</text><text x="420" y="1320" font-size="20px" style="fill: white;">Zomp</text><text x="420" y="1340" font-size="20px" style="fill: black;">#3aa68c</text><text x="420" y="1360" font-size="20px" style="fill: white;">#3aa68c</text><text x="420" y="1380" font-size="20px" style="fill: black;">0x3d31</text><text x="420" y="1400" font-size="20px" style="fill: white;">0x3d31</text></svg>