<svg width="1680px" height="240px" xmlns="http://www.w3.org/2000/svg"><rect x="0" y="0" width="200" height="50" style="fill: #efffff;"></rect><text x="0" y="20" font-size="25px" style="fill: black;">Azure (web)</text><text x="0" y="45" font-size="25px" style="fill: white;">Azure (web)</text><rect x="210" y="0" width="200" height="50" style="fill: #109abd;"></rect><text x="210" y="20" font-size="25px" style="fill: black;">Blue-green</text><text x="210" y="45" font-size="25px" style="fill: white;">Blue-green</text><rect x="420" y="0" width="200" height="50" style="fill: #006d6b;"></rect><text x="420" y="20" font-size="25px" style="fill: black;">Caribbean Current</text><text x="420" y="45" font-size="25px" style="fill: white;">Caribbean Current</text><rect x="630" y="0" width="200" height="50" style="fill: #b5ffff;"></rect><text x="630" y="20" font-size="25px" style="fill: black;">Celeste</text><text x="630" y="45" font-size="25px" style="fill: white;">Celeste</text><rect x="840" y="0" width="200" height="50" style="fill: #212d29;"></rect><text x="840" y="20" font-size="25px" style="fill: black;">Charleston green</text><text x="840" y="45" font-size="25px" style="fill: white;">Charleston green</text><rect x="1050" y="0" width="200" height="50" style="fill: #00ffff;"></rect><text x="1050" y="20" font-size="25px" style="fill: black;">Cyan</text><text x="1050" y="45" font-size="25px" style="fill: white;">Cyan</text><rect x="1260" y="0" width="200" height="50" style="fill: #00ffff;"></rect><text x="1260" y="20" font-size="25px" style="fill: black;">Cyan (additive secondary)</text><text x="1260" y="45" font-size="25px" style="fill: white;">Cyan (additive secondary)</text><rect x="1470" y="0" width="200" height="50" style="fill: #00b6ef;"></rect><text x="1470" y="20" font-size="25px" style="fill: black;">Cyan (process)</text><text x="1470" y="45" font-size="25px" style="fill: white;">Cyan (process)</text><rect x="0" y="60" width="200" height="50" style="fill: #00b6ef;"></rect><text x="0" y="80" font-size="25px" style="fill: black;">Cyan (subtractive primary)</text><text x="0" y="105" font-size="25px" style="fill: white;">Cyan (subtractive primary)</text><rect x="210" y="60" width="200" height="50" style="fill: #008a8c;"></rect><text x="210" y="80" font-size="25px" style="fill: black;">Dark cyan</text><text x="210" y="105" font-size="25px" style="fill: white;">Dark cyan</text><rect x="420" y="60" width="200" height="50" style="fill: #7bfbff;"></rect><text x="420" y="80" font-size="25px" style="fill: black;">Electric blue</text><text x="420" y="105" font-size="25px" style="fill: white;">Electric blue</text><rect x="630" y="60" width="200" height="50" style="fill: #009a63;"></rect><text x="630" y="80" font-size="25px" style="fill: black;">Green-cyan</text><text x="630" y="105" font-size="25px" style="fill: white;">Green-cyan</text><rect x="840" y="60" width="200" height="50" style="fill: #3aae9c;"></rect><text x="840" y="80" font-size="25px" style="fill: black;">Keppel</text><text x="840" y="105" font-size="25px" style="fill: white;">Keppel</text><rect x="1050" y="60" width="200" height="50" style="fill: #deffff;"></rect><text x="1050" y="80" font-size="25px" style="fill: black;">Light cyan</text><text x="1050" y="105" font-size="25px" style="fill: white;">Light cyan</text><rect x="1260" y="60" width="200" height="50" style="fill: #21b2ad;"></rect><text x="1260" y="80" font-size="25px" style="fill: black;">Light sea green</text><text x="1260" y="105" font-size="25px" style="fill: white;">Light sea green</text><rect x="1470" y="60" width="200" height="50" style="fill: #004d52;"></rect><text x="1470" y="80" font-size="25px" style="fill: black;">Midnight green</text><text x="1470" y="105" font-size="25px" style="fill: white;">Midnight green</text><rect x="0" y="120" width="200" height="50" style="fill: #3aaabd;"></rect><text x="0" y="140" font-size="25px" style="fill: black;">Moonstone</text><text x="0" y="165" font-size="25px" style="fill: white;">Moonstone</text><rect x="210" y="120" width="200" height="50" style="fill: #317973;"></rect><text x="210" y="140" font-size="25px" style="fill: black;">Myrtle green</text><text x="210" y="165" font-size="25px" style="fill: white;">Myrtle green</text><rect x="420" y="120" width="200" height="50" style="fill: #00796b;"></rect><text x="420" y="140" font-size="25px" style="fill: black;">Pine green</text><text x="420" y="165" font-size="25px" style="fill: white;">Pine green</text><rect x="630" y="120" width="200" height="50" style="fill: #00cace;"></rect><text x="630" y="140" font-size="25px" style="fill: black;">Robin egg blue</text><text x="630" y="165" font-size="25px" style="fill: white;">Robin egg blue</text><rect x="840" y="120" width="200" height="50" style="fill: #007973;"></rect><text x="840" y="140" font-size="25px" style="fill: black;">Skobeloff</text><text x="840" y="165" font-size="25px" style="fill: white;">Skobeloff</text><rect x="1050" y="120" width="200" height="50" style="fill: #84dbef;"></rect><text x="1050" y="140" font-size="25px" style="fill: black;">Sky blue (Crayola)</text><text x="1050" y="165" font-size="25px" style="fill: white;">Sky blue (Crayola)</text><rect x="1260" y="120" width="200" height="50" style="fill: #008284;"></rect><text x="1260" y="140" font-size="25px" style="fill: black;">Teal</text><text x="1260" y="165" font-size="25px" style="fill: white;">Teal</text><rect x="1470" y="120" width="200" height="50" style="fill: #84d7ce;"></rect><text x="1470" y="140" font-size="25px" style="fill: black;">Tiffany Blue</text><text x="1470" y="165" font-size="25px" style="fill: white;">Tiffany Blue</text><rect x="0" y="180" width="200" height="50" style="fill: #42dfce;"></rect><text x="0" y="200" font-size="25px" style="fill: black;">Turquoise</text><text x="0" y="225" font-size="25px" style="fill: white;">Turquoise</text><rect x="210" y="180" width="200" height="50" style="fill: #42b2ad;"></rect><text x="210" y="200" font-size="25px" style="fill: black;">Verdigris</text><text x="210" y="225" font-size="25px" style="fill: white;">Verdigris</text><rect x="420" y="180" width="200" height="50" style="fill: #3aa68c;"></rect><text x="420" y="200" font-size="25px" style="fill: black;">Zomp</text><text x="420" y="225" font-size="25px" style="fill: white;">Zomp</text></svg>