<svg width="1680px" height="300px" xmlns="http://www.w3.org/2000/svg"><rect x="0" y="0" width="200" height="50" style="fill: #b5beb5;"></rect><text x="0" y="20" font-size="25px" style="fill: black;">Ash gray</text><text x="0" y="45" font-size="25px" style="fill: white;">Ash gray</text><rect x="210" y="0" width="200" height="50" style="fill: #848684;"></rect><text x="210" y="20" font-size="25px" style="fill: black;">Battleship gray</text><text x="210" y="45" font-size="25px" style="fill: white;">Battleship gray</text><rect x="420" y="0" width="200" height="50" style="fill: #000000;"></rect><text x="420" y="20" font-size="25px" style="fill: black;">Black</text><text x="420" y="45" font-size="25px" style="fill: white;">Black</text><rect x="630" y="0" width="200" height="50" style="fill: #639ace;"></rect><text x="630" y="20" font-size="25px" style="fill: black;">Blue-gray</text><text x="630" y="45" font-size="25px" style="fill: white;">Blue-gray</text><rect x="840" y="0" width="200" height="50" style="fill: #94a2ad;"></rect><text x="840" y="20" font-size="25px" style="fill: black;">Cadet gray</text><text x="840" y="45" font-size="25px" style="fill: white;">Cadet gray</text><rect x="1050" y="0" width="200" height="50" style="fill: #3a4552;"></rect><text x="1050" y="20" font-size="25px" style="fill: black;">Charcoal</text><text x="1050" y="45" font-size="25px" style="fill: white;">Charcoal</text><rect x="1260" y="0" width="200" height="50" style="fill: #94827b;"></rect><text x="1260" y="20" font-size="25px" style="fill: black;">Cinereous</text><text x="1260" y="45" font-size="25px" style="fill: white;">Cinereous</text><rect x="1470" y="0" width="200" height="50" style="fill: #9492bd;"></rect><text x="1470" y="20" font-size="25px" style="fill: black;">Cool gray</text><text x="1470" y="45" font-size="25px" style="fill: white;">Cool gray</text><rect x="0" y="60" width="200" height="50" style="fill: #63659c;"></rect><text x="0" y="80" font-size="25px" style="fill: black;">Dark blue-gray</text><text x="0" y="105" font-size="25px" style="fill: white;">Dark blue-gray</text><rect x="210" y="60" width="200" height="50" style="fill: #315152;"></rect><text x="210" y="80" font-size="25px" style="fill: black;">Dark slate gray</text><text x="210" y="105" font-size="25px" style="fill: white;">Dark slate gray</text><rect x="420" y="60" width="200" height="50" style="fill: #525552;"></rect><text x="420" y="80" font-size="25px" style="fill: black;">Davy's gray</text><text x="420" y="105" font-size="25px" style="fill: white;">Davy's gray</text><rect x="630" y="60" width="200" height="50" style="fill: #6b696b;"></rect><text x="630" y="80" font-size="25px" style="fill: black;">Dim gray</text><text x="630" y="105" font-size="25px" style="fill: white;">Dim gray</text><rect x="840" y="60" width="200" height="50" style="fill: #dedbde;"></rect><text x="840" y="80" font-size="25px" style="fill: black;">Gainsboro</text><text x="840" y="105" font-size="25px" style="fill: white;">Gainsboro</text><rect x="1050" y="60" width="200" height="50" style="fill: #6382b5;"></rect><text x="1050" y="80" font-size="25px" style="fill: black;">Glaucous</text><text x="1050" y="105" font-size="25px" style="fill: white;">Glaucous</text><rect x="1260" y="60" width="200" height="50" style="fill: #6b656b;"></rect><text x="1260" y="80" font-size="25px" style="fill: black;">Granite gray</text><text x="1260" y="105" font-size="25px" style="fill: white;">Granite gray</text><rect x="1470" y="60" width="200" height="50" style="fill: #5a716b;"></rect><text x="1470" y="80" font-size="25px" style="fill: black;">Gray-green</text><text x="1470" y="105" font-size="25px" style="fill: white;">Gray-green</text><rect x="0" y="120" width="200" height="50" style="fill: #848284;"></rect><text x="0" y="140" font-size="25px" style="fill: black;">Gray (web)</text><text x="0" y="165" font-size="25px" style="fill: white;">Gray (web)</text><rect x="210" y="120" width="200" height="50" style="fill: #bdbebd;"></rect><text x="210" y="140" font-size="25px" style="fill: black;">Gray (X11 gray)</text><text x="210" y="165" font-size="25px" style="fill: white;">Gray (X11 gray)</text><rect x="420" y="120" width="200" height="50" style="fill: #848284;"></rect><text x="420" y="140" font-size="25px" style="fill: black;">Gray/Grey</text><text x="420" y="165" font-size="25px" style="fill: white;">Gray/Grey</text><rect x="630" y="120" width="200" height="50" style="fill: #29353a;"></rect><text x="630" y="140" font-size="25px" style="fill: black;">Gunmetal</text><text x="630" y="165" font-size="25px" style="fill: white;">Gunmetal</text><rect x="840" y="120" width="200" height="50" style="fill: #ad9aad;"></rect><text x="840" y="140" font-size="25px" style="fill: black;">Heliotrope gray</text><text x="840" y="165" font-size="25px" style="fill: white;">Heliotrope gray</text><rect x="1050" y="120" width="200" height="50" style="fill: #313531;"></rect><text x="1050" y="140" font-size="25px" style="fill: black;">Jet</text><text x="1050" y="165" font-size="25px" style="fill: white;">Jet</text><rect x="1260" y="120" width="200" height="50" style="fill: #c5c2ce;"></rect><text x="1260" y="140" font-size="25px" style="fill: black;">Lavender gray</text><text x="1260" y="165" font-size="25px" style="fill: white;">Lavender gray</text><rect x="1470" y="120" width="200" height="50" style="fill: #d6d2d6;"></rect><text x="1470" y="140" font-size="25px" style="fill: black;">Light gray</text><text x="1470" y="165" font-size="25px" style="fill: white;">Light gray</text><rect x="0" y="180" width="200" height="50" style="fill: #738a9c;"></rect><text x="0" y="200" font-size="25px" style="fill: black;">Light slate gray</text><text x="0" y="225" font-size="25px" style="fill: white;">Light slate gray</text><rect x="210" y="180" width="200" height="50" style="fill: #4a5963;"></rect><text x="210" y="200" font-size="25px" style="fill: black;">Marengo</text><text x="210" y="225" font-size="25px" style="fill: white;">Marengo</text><rect x="420" y="180" width="200" height="50" style="fill: #bdbebd;"></rect><text x="420" y="200" font-size="25px" style="fill: black;">Medium Gray</text><text x="420" y="225" font-size="25px" style="fill: white;">Medium Gray</text><rect x="630" y="180" width="200" height="50" style="fill: #737573;"></rect><text x="630" y="200" font-size="25px" style="fill: black;">Nickel</text><text x="630" y="225" font-size="25px" style="fill: white;">Nickel</text><rect x="840" y="180" width="200" height="50" style="fill: #e6e3de;"></rect><text x="840" y="200" font-size="25px" style="fill: black;">Platinum</text><text x="840" y="225" font-size="25px" style="fill: white;">Platinum</text><rect x="1050" y="180" width="200" height="50" style="fill: #ce8a9c;"></rect><text x="1050" y="200" font-size="25px" style="fill: black;">Puce</text><text x="1050" y="225" font-size="25px" style="fill: white;">Puce</text><rect x="1260" y="180" width="200" height="50" style="fill: #8c7d8c;"></rect><text x="1260" y="200" font-size="25px" style="fill: black;">Rocket metallic</text><text x="1260" y="225" font-size="25px" style="fill: white;">Rocket metallic</text><rect x="1470" y="180" width="200" height="50" style="fill: #ad9aad;"></rect><text x="1470" y="200" font-size="25px" style="fill: black;">Rose quartz</text><text x="1470" y="225" font-size="25px" style="fill: white;">Rose quartz</text><rect x="0" y="240" width="200" height="50" style="fill: #bdbebd;"></rect><text x="0" y="260" font-size="25px" style="fill: black;">Silver</text><text x="0" y="285" font-size="25px" style="fill: white;">Silver</text><rect x="210" y="240" width="200" height="50" style="fill: #738294;"></rect><text x="210" y="260" font-size="25px" style="fill: black;">Slate gray</text><text x="210" y="285" font-size="25px" style="fill: white;">Slate gray</text><rect x="420" y="240" width="200" height="50" style="fill: #949a94;"></rect><text x="420" y="260" font-size="25px" style="fill: black;">Spanish Gray</text><text x="420" y="285" font-size="25px" style="fill: white;">Spanish Gray</text><rect x="630" y="240" width="200" height="50" style="fill: #948e84;"></rect><text x="630" y="260" font-size="25px" style="fill: black;">Stone gray</text><text x="630" y="285" font-size="25px" style="fill: white;">Stone gray</text><rect x="840" y="240" width="200" height="50" style="fill: #4a3d31;"></rect><text x="840" y="260" font-size="25px" style="fill: black;">Taupe</text><text x="840" y="285" font-size="25px" style="fill: white;">Taupe</text><rect x="1050" y="240" width="200" height="50" style="fill: #8c868c;"></rect><text x="1050" y="260" font-size="25px" style="fill: black;">Taupe gray</text><text x="1050" y="285" font-size="25px" style="fill: white;">Taupe gray</text><rect x="1260" y="240" width="200" height="50" style="fill: #ffffff;"></rect><text x="1260" y="260" font-size="25px" style="fill: black;">White</text><text x="1260" y="285" font-size="25px" style="fill: white;">White</text><rect x="1470" y="240" width="200" height="50" style="fill: #73867b;"></rect><text x="1470" y="260" font-size="25px" style="fill: black;">Xanadu</text><text x="1470" y="285" font-size="25px" style="fill: white;">Xanadu</text></svg>