<svg width="840px" height="2100px" xmlns="http://www.w3.org/2000/svg"><rect x="0" y="0" width="200" height="200" rx="20px" ry="20px" style="fill: #b5beb5;"></rect><text x="0" y="40" font-size="20px" style="fill: black;">Ash gray</text><text x="0" y="60" font-size="20px" style="fill: white;">Ash gray</text><text x="0" y="80" font-size="20px" style="fill: black;">#b5beb5</text><text x="0" y="100" font-size="20px" style="fill: white;">#b5beb5</text><text x="0" y="120" font-size="20px" style="fill: black;">0xb5f6</text><text x="0" y="140" font-size="20px" style="fill: white;">0xb5f6</text><rect x="210" y="0" width="200" height="200" rx="20px" ry="20px" style="fill: #848684;"></rect><text x="210" y="40" font-size="20px" style="fill: black;">Battleship gray</text><text x="210" y="60" font-size="20px" style="fill: white;">Battleship gray</text><text x="210" y="80" font-size="20px" style="fill: black;">#848684</text><text x="210" y="100" font-size="20px" style="fill: white;">#848684</text><text x="210" y="120" font-size="20px" style="fill: black;">0x8430</text><text x="210" y="140" font-size="20px" style="fill: white;">0x8430</text><rect x="420" y="0" width="200" height="200" rx="20px" ry="20px" style="fill: #000000;"></rect><text x="420" y="40" font-size="20px" style="fill: black;">Black</text><text x="420" y="60" font-size="20px" style="fill: white;">Black</text><text x="420" y="80" font-size="20px" style="fill: black;">#000000</text><text x="420" y="100" font-size="20px" style="fill: white;">#000000</text><text x="420" y="120" font-size="20px" style="fill: black;">0x0</text><text x="420" y="140" font-size="20px" style="fill: white;">0x0</text><rect x="630" y="0" width="200" height="200" rx="20px" ry="20px" style="fill: #639ace;"></rect><text x="630" y="40" font-size="20px" style="fill: black;">Blue-gray</text><text x="630" y="60" font-size="20px" style="fill: white;">Blue-gray</text><text x="630" y="80" font-size="20px" style="fill: black;">#639ace</text><text x="630" y="100" font-size="20px" style="fill: white;">#639ace</text><text x="630" y="120" font-size="20px" style="fill: black;">0x64d9</text><text x="630" y="140" font-size="20px" style="fill: white;">0x64d9</text><rect x="0" y="210" width="200" height="200" rx="20px" ry="20px" style="fill: #94a2ad;"></rect><text x="0" y="250" font-size="20px" style="fill: black;">Cadet gray</text><text x="0" y="270" font-size="20px" style="fill: white;">Cadet gray</text><text x="0" y="290" font-size="20px" style="fill: black;">#94a2ad</text><text x="0" y="310" font-size="20px" style="fill: white;">#94a2ad</text><text x="0" y="330" font-size="20px" style="fill: black;">0x9515</text><text x="0" y="350" font-size="20px" style="fill: white;">0x9515</text><rect x="210" y="210" width="200" height="200" rx="20px" ry="20px" style="fill: #3a4552;"></rect><text x="210" y="250" font-size="20px" style="fill: black;">Charcoal</text><text x="210" y="270" font-size="20px" style="fill: white;">Charcoal</text><text x="210" y="290" font-size="20px" style="fill: black;">#3a4552</text><text x="210" y="310" font-size="20px" style="fill: white;">#3a4552</text><text x="210" y="330" font-size="20px" style="fill: black;">0x3a2a</text><text x="210" y="350" font-size="20px" style="fill: white;">0x3a2a</text><rect x="420" y="210" width="200" height="200" rx="20px" ry="20px" style="fill: #94827b;"></rect><text x="420" y="250" font-size="20px" style="fill: black;">Cinereous</text><text x="420" y="270" font-size="20px" style="fill: white;">Cinereous</text><text x="420" y="290" font-size="20px" style="fill: black;">#94827b</text><text x="420" y="310" font-size="20px" style="fill: white;">#94827b</text><text x="420" y="330" font-size="20px" style="fill: black;">0x940f</text><text x="420" y="350" font-size="20px" style="fill: white;">0x940f</text><rect x="630" y="210" width="200" height="200" rx="20px" ry="20px" style="fill: #9492bd;"></rect><text x="630" y="250" font-size="20px" style="fill: black;">Cool gray</text><text x="630" y="270" font-size="20px" style="fill: white;">Cool gray</text><text x="630" y="290" font-size="20px" style="fill: black;">#9492bd</text><text x="630" y="310" font-size="20px" style="fill: white;">#9492bd</text><text x="630" y="330" font-size="20px" style="fill: black;">0x9497</text><text x="630" y="350" font-size="20px" style="fill: white;">0x9497</text><rect x="0" y="420" width="200" height="200" rx="20px" ry="20px" style="fill: #63659c;"></rect><text x="0" y="460" font-size="20px" style="fill: black;">Dark blue-gray</text><text x="0" y="480" font-size="20px" style="fill: white;">Dark blue-gray</text><text x="0" y="500" font-size="20px" style="fill: black;">#63659c</text><text x="0" y="520" font-size="20px" style="fill: white;">#63659c</text><text x="0" y="540" font-size="20px" style="fill: black;">0x6333</text><text x="0" y="560" font-size="20px" style="fill: white;">0x6333</text><rect x="210" y="420" width="200" height="200" rx="20px" ry="20px" style="fill: #315152;"></rect><text x="210" y="460" font-size="20px" style="fill: black;">Dark slate gray</text><text x="210" y="480" font-size="20px" style="fill: white;">Dark slate gray</text><text x="210" y="500" font-size="20px" style="fill: black;">#315152</text><text x="210" y="520" font-size="20px" style="fill: white;">#315152</text><text x="210" y="540" font-size="20px" style="fill: black;">0x328a</text><text x="210" y="560" font-size="20px" style="fill: white;">0x328a</text><rect x="420" y="420" width="200" height="200" rx="20px" ry="20px" style="fill: #525552;"></rect><text x="420" y="460" font-size="20px" style="fill: black;">Davy's gray</text><text x="420" y="480" font-size="20px" style="fill: white;">Davy's gray</text><text x="420" y="500" font-size="20px" style="fill: black;">#525552</text><text x="420" y="520" font-size="20px" style="fill: white;">#525552</text><text x="420" y="540" font-size="20px" style="fill: black;">0x52aa</text><text x="420" y="560" font-size="20px" style="fill: white;">0x52aa</text><rect x="630" y="420" width="200" height="200" rx="20px" ry="20px" style="fill: #6b696b;"></rect><text x="630" y="460" font-size="20px" style="fill: black;">Dim gray</text><text x="630" y="480" font-size="20px" style="fill: white;">Dim gray</text><text x="630" y="500" font-size="20px" style="fill: black;">#6b696b</text><text x="630" y="520" font-size="20px" style="fill: white;">#6b696b</text><text x="630" y="540" font-size="20px" style="fill: black;">0x6b4d</text><text x="630" y="560" font-size="20px" style="fill: white;">0x6b4d</text><rect x="0" y="630" width="200" height="200" rx="20px" ry="20px" style="fill: #dedbde;"></rect><text x="0" y="670" font-size="20px" style="fill: black;">Gainsboro</text><text x="0" y="690" font-size="20px" style="fill: white;">Gainsboro</text><text x="0" y="710" font-size="20px" style="fill: black;">#dedbde</text><text x="0" y="730" font-size="20px" style="fill: white;">#dedbde</text><text x="0" y="750" font-size="20px" style="fill: black;">0xdedb</text><text x="0" y="770" font-size="20px" style="fill: white;">0xdedb</text><rect x="210" y="630" width="200" height="200" rx="20px" ry="20px" style="fill: #6382b5;"></rect><text x="210" y="670" font-size="20px" style="fill: black;">Glaucous</text><text x="210" y="690" font-size="20px" style="fill: white;">Glaucous</text><text x="210" y="710" font-size="20px" style="fill: black;">#6382b5</text><text x="210" y="730" font-size="20px" style="fill: white;">#6382b5</text><text x="210" y="750" font-size="20px" style="fill: black;">0x6416</text><text x="210" y="770" font-size="20px" style="fill: white;">0x6416</text><rect x="420" y="630" width="200" height="200" rx="20px" ry="20px" style="fill: #6b656b;"></rect><text x="420" y="670" font-size="20px" style="fill: black;">Granite gray</text><text x="420" y="690" font-size="20px" style="fill: white;">Granite gray</text><text x="420" y="710" font-size="20px" style="fill: black;">#6b656b</text><text x="420" y="730" font-size="20px" style="fill: white;">#6b656b</text><text x="420" y="750" font-size="20px" style="fill: black;">0x6b2d</text><text x="420" y="770" font-size="20px" style="fill: white;">0x6b2d</text><rect x="630" y="630" width="200" height="200" rx="20px" ry="20px" style="fill: #5a716b;"></rect><text x="630" y="670" font-size="20px" style="fill: black;">Gray-green</text><text x="630" y="690" font-size="20px" style="fill: white;">Gray-green</text><text x="630" y="710" font-size="20px" style="fill: black;">#5a716b</text><text x="630" y="730" font-size="20px" style="fill: white;">#5a716b</text><text x="630" y="750" font-size="20px" style="fill: black;">0x5b8d</text><text x="630" y="770" font-size="20px" style="fill: white;">0x5b8d</text><rect x="0" y="840" width="200" height="200" rx="20px" ry="20px" style="fill: #848284;"></rect><text x="0" y="880" font-size="20px" style="fill: black;">Gray (web)</text><text x="0" y="900" font-size="20px" style="fill: white;">Gray (web)</text><text x="0" y="920" font-size="20px" style="fill: black;">#848284</text><text x="0" y="940" font-size="20px" style="fill: white;">#848284</text><text x="0" y="960" font-size="20px" style="fill: black;">0x8410</text><text x="0" y="980" font-size="20px" style="fill: white;">0x8410</text><rect x="210" y="840" width="200" height="200" rx="20px" ry="20px" style="fill: #bdbebd;"></rect><text x="210" y="880" font-size="20px" style="fill: black;">Gray (X11 gray)</text><text x="210" y="900" font-size="20px" style="fill: white;">Gray (X11 gray)</text><text x="210" y="920" font-size="20px" style="fill: black;">#bdbebd</text><text x="210" y="940" font-size="20px" style="fill: white;">#bdbebd</text><text x="210" y="960" font-size="20px" style="fill: black;">0xbdf7</text><text x="210" y="980" font-size="20px" style="fill: white;">0xbdf7</text><rect x="420" y="840" width="200" height="200" rx="20px" ry="20px" style="fill: #848284;"></rect><text x="420" y="880" font-size="20px" style="fill: black;">Gray/Grey</text><text x="420" y="900" font-size="20px" style="fill: white;">Gray/Grey</text><text x="420" y="920" font-size="20px" style="fill: black;">#848284</text><text x="420" y="940" font-size="20px" style="fill: white;">#848284</text><text x="420" y="960" font-size="20px" style="fill: black;">0x8410</text><text x="420" y="980" font-size="20px" style="fill: white;">0x8410</text><rect x="630" y="840" width="200" height="200" rx="20px" ry="20px" style="fill: #29353a;"></rect><text x="630" y="880" font-size="20px" style="fill: black;">Gunmetal</text><text x="630" y="900" font-size="20px" style="fill: white;">Gunmetal</text><text x="630" y="920" font-size="20px" style="fill: black;">#29353a</text><text x="630" y="940" font-size="20px" style="fill: white;">#29353a</text><text x="630" y="960" font-size="20px" style="fill: black;">0x29a7</text><text x="630" y="980" font-size="20px" style="fill: white;">0x29a7</text><rect x="0" y="1050" width="200" height="200" rx="20px" ry="20px" style="fill: #ad9aad;"></rect><text x="0" y="1090" font-size="20px" style="fill: black;">Heliotrope gray</text><text x="0" y="1110" font-size="20px" style="fill: white;">Heliotrope gray</text><text x="0" y="1130" font-size="20px" style="fill: black;">#ad9aad</text><text x="0" y="1150" font-size="20px" style="fill: white;">#ad9aad</text><text x="0" y="1170" font-size="20px" style="fill: black;">0xacd5</text><text x="0" y="1190" font-size="20px" style="fill: white;">0xacd5</text><rect x="210" y="1050" width="200" height="200" rx="20px" ry="20px" style="fill: #313531;"></rect><text x="210" y="1090" font-size="20px" style="fill: black;">Jet</text><text x="210" y="1110" font-size="20px" style="fill: white;">Jet</text><text x="210" y="1130" font-size="20px" style="fill: black;">#313531</text><text x="210" y="1150" font-size="20px" style="fill: white;">#313531</text><text x="210" y="1170" font-size="20px" style="fill: black;">0x31a6</text><text x="210" y="1190" font-size="20px" style="fill: white;">0x31a6</text><rect x="420" y="1050" width="200" height="200" rx="20px" ry="20px" style="fill: #c5c2ce;"></rect><text x="420" y="1090" font-size="20px" style="fill: black;">Lavender gray</text><text x="420" y="1110" font-size="20px" style="fill: white;">Lavender gray</text><text x="420" y="1130" font-size="20px" style="fill: black;">#c5c2ce</text><text x="420" y="1150" font-size="20px" style="fill: white;">#c5c2ce</text><text x="420" y="1170" font-size="20px" style="fill: black;">0xc619</text><text x="420" y="1190" font-size="20px" style="fill: white;">0xc619</text><rect x="630" y="1050" width="200" height="200" rx="20px" ry="20px" style="fill: #d6d2d6;"></rect><text x="630" y="1090" font-size="20px" style="fill: black;">Light gray</text><text x="630" y="1110" font-size="20px" style="fill: white;">Light gray</text><text x="630" y="1130" font-size="20px" style="fill: black;">#d6d2d6</text><text x="630" y="1150" font-size="20px" style="fill: white;">#d6d2d6</text><text x="630" y="1170" font-size="20px" style="fill: black;">0xd69a</text><text x="630" y="1190" font-size="20px" style="fill: white;">0xd69a</text><rect x="0" y="1260" width="200" height="200" rx="20px" ry="20px" style="fill: #738a9c;"></rect><text x="0" y="1300" font-size="20px" style="fill: black;">Light slate gray</text><text x="0" y="1320" font-size="20px" style="fill: white;">Light slate gray</text><text x="0" y="1340" font-size="20px" style="fill: black;">#738a9c</text><text x="0" y="1360" font-size="20px" style="fill: white;">#738a9c</text><text x="0" y="1380" font-size="20px" style="fill: black;">0x7453</text><text x="0" y="1400" font-size="20px" style="fill: white;">0x7453</text><rect x="210" y="1260" width="200" height="200" rx="20px" ry="20px" style="fill: #4a5963;"></rect><text x="210" y="1300" font-size="20px" style="fill: black;">Marengo</text><text x="210" y="1320" font-size="20px" style="fill: white;">Marengo</text><text x="210" y="1340" font-size="20px" style="fill: black;">#4a5963</text><text x="210" y="1360" font-size="20px" style="fill: white;">#4a5963</text><text x="210" y="1380" font-size="20px" style="fill: black;">0x4acc</text><text x="210" y="1400" font-size="20px" style="fill: white;">0x4acc</text><rect x="420" y="1260" width="200" height="200" rx="20px" ry="20px" style="fill: #bdbebd;"></rect><text x="420" y="1300" font-size="20px" style="fill: black;">Medium Gray</text><text x="420" y="1320" font-size="20px" style="fill: white;">Medium Gray</text><text x="420" y="1340" font-size="20px" style="fill: black;">#bdbebd</text><text x="420" y="1360" font-size="20px" style="fill: white;">#bdbebd</text><text x="420" y="1380" font-size="20px" style="fill: black;">0xbdf7</text><text x="420" y="1400" font-size="20px" style="fill: white;">0xbdf7</text><rect x="630" y="1260" width="200" height="200" rx="20px" ry="20px" style="fill: #737573;"></rect><text x="630" y="1300" font-size="20px" style="fill: black;">Nickel</text><text x="630" y="1320" font-size="20px" style="fill: white;">Nickel</text><text x="630" y="1340" font-size="20px" style="fill: black;">#737573</text><text x="630" y="1360" font-size="20px" style="fill: white;">#737573</text><text x="630" y="1380" font-size="20px" style="fill: black;">0x73ae</text><text x="630" y="1400" font-size="20px" style="fill: white;">0x73ae</text><rect x="0" y="1470" width="200" height="200" rx="20px" ry="20px" style="fill: #e6e3de;"></rect><text x="0" y="1510" font-size="20px" style="fill: black;">Platinum</text><text x="0" y="1530" font-size="20px" style="fill: white;">Platinum</text><text x="0" y="1550" font-size="20px" style="fill: black;">#e6e3de</text><text x="0" y="1570" font-size="20px" style="fill: white;">#e6e3de</text><text x="0" y="1590" font-size="20px" style="fill: black;">0xe71b</text><text x="0" y="1610" font-size="20px" style="fill: white;">0xe71b</text><rect x="210" y="1470" width="200" height="200" rx="20px" ry="20px" style="fill: #ce8a9c;"></rect><text x="210" y="1510" font-size="20px" style="fill: black;">Puce</text><text x="210" y="1530" font-size="20px" style="fill: white;">Puce</text><text x="210" y="1550" font-size="20px" style="fill: black;">#ce8a9c</text><text x="210" y="1570" font-size="20px" style="fill: white;">#ce8a9c</text><text x="210" y="1590" font-size="20px" style="fill: black;">0xcc53</text><text x="210" y="1610" font-size="20px" style="fill: white;">0xcc53</text><rect x="420" y="1470" width="200" height="200" rx="20px" ry="20px" style="fill: #8c7d8c;"></rect><text x="420" y="1510" font-size="20px" style="fill: black;">Rocket metallic</text><text x="420" y="1530" font-size="20px" style="fill: white;">Rocket metallic</text><text x="420" y="1550" font-size="20px" style="fill: black;">#8c7d8c</text><text x="420" y="1570" font-size="20px" style="fill: white;">#8c7d8c</text><text x="420" y="1590" font-size="20px" style="fill: black;">0x8bf1</text><text x="420" y="1610" font-size="20px" style="fill: white;">0x8bf1</text><rect x="630" y="1470" width="200" height="200" rx="20px" ry="20px" style="fill: #ad9aad;"></rect><text x="630" y="1510" font-size="20px" style="fill: black;">Rose quartz</text><text x="630" y="1530" font-size="20px" style="fill: white;">Rose quartz</text><text x="630" y="1550" font-size="20px" style="fill: black;">#ad9aad</text><text x="630" y="1570" font-size="20px" style="fill: white;">#ad9aad</text><text x="630" y="1590" font-size="20px" style="fill: black;">0xacd5</text><text x="630" y="1610" font-size="20px" style="fill: white;">0xacd5</text><rect x="0" y="1680" width="200" height="200" rx="20px" ry="20px" style="fill: #bdbebd;"></rect><text x="0" y="1720" font-size="20px" style="fill: black;">Silver</text><text x="0" y="1740" font-size="20px" style="fill: white;">Silver</text><text x="0" y="1760" font-size="20px" style="fill: black;">#bdbebd</text><text x="0" y="1780" font-size="20px" style="fill: white;">#bdbebd</text><text x="0" y="1800" font-size="20px" style="fill: black;">0xbdf7</text><text x="0" y="1820" font-size="20px" style="fill: white;">0xbdf7</text><rect x="210" y="1680" width="200" height="200" rx="20px" ry="20px" style="fill: #738294;"></rect><text x="210" y="1720" font-size="20px" style="fill: black;">Slate gray</text><text x="210" y="1740" font-size="20px" style="fill: white;">Slate gray</text><text x="210" y="1760" font-size="20px" style="fill: black;">#738294</text><text x="210" y="1780" font-size="20px" style="fill: white;">#738294</text><text x="210" y="1800" font-size="20px" style="fill: black;">0x7412</text><text x="210" y="1820" font-size="20px" style="fill: white;">0x7412</text><rect x="420" y="1680" width="200" height="200" rx="20px" ry="20px" style="fill: #949a94;"></rect><text x="420" y="1720" font-size="20px" style="fill: black;">Spanish Gray</text><text x="420" y="1740" font-size="20px" style="fill: white;">Spanish Gray</text><text x="420" y="1760" font-size="20px" style="fill: black;">#949a94</text><text x="420" y="1780" font-size="20px" style="fill: white;">#949a94</text><text x="420" y="1800" font-size="20px" style="fill: black;">0x94d2</text><text x="420" y="1820" font-size="20px" style="fill: white;">0x94d2</text><rect x="630" y="1680" width="200" height="200" rx="20px" ry="20px" style="fill: #948e84;"></rect><text x="630" y="1720" font-size="20px" style="fill: black;">Stone gray</text><text x="630" y="1740" font-size="20px" style="fill: white;">Stone gray</text><text x="630" y="1760" font-size="20px" style="fill: black;">#948e84</text><text x="630" y="1780" font-size="20px" style="fill: white;">#948e84</text><text x="630" y="1800" font-size="20px" style="fill: black;">0x9470</text><text x="630" y="1820" font-size="20px" style="fill: white;">0x9470</text><rect x="0" y="1890" width="200" height="200" rx="20px" ry="20px" style="fill: #4a3d31;"></rect><text x="0" y="1930" font-size="20px" style="fill: black;">Taupe</text><text x="0" y="1950" font-size="20px" style="fill: white;">Taupe</text><text x="0" y="1970" font-size="20px" style="fill: black;">#4a3d31</text><text x="0" y="1990" font-size="20px" style="fill: white;">#4a3d31</text><text x="0" y="2010" font-size="20px" style="fill: black;">0x49e6</text><text x="0" y="2030" font-size="20px" style="fill: white;">0x49e6</text><rect x="210" y="1890" width="200" height="200" rx="20px" ry="20px" style="fill: #8c868c;"></rect><text x="210" y="1930" font-size="20px" style="fill: black;">Taupe gray</text><text x="210" y="1950" font-size="20px" style="fill: white;">Taupe gray</text><text x="210" y="1970" font-size="20px" style="fill: black;">#8c868c</text><text x="210" y="1990" font-size="20px" style="fill: white;">#8c868c</text><text x="210" y="2010" font-size="20px" style="fill: black;">0x8c31</text><text x="210" y="2030" font-size="20px" style="fill: white;">0x8c31</text><rect x="420" y="1890" width="200" height="200" rx="20px" ry="20px" style="fill: #ffffff;"></rect><text x="420" y="1930" font-size="20px" style="fill: black;">White</text><text x="420" y="1950" font-size="20px" style="fill: white;">White</text><text x="420" y="1970" font-size="20px" style="fill: black;">#ffffff</text><text x="420" y="1990" font-size="20px" style="fill: white;">#ffffff</text><text x="420" y="2010" font-size="20px" style="fill: black;">0xffff</text><text x="420" y="2030" font-size="20px" style="fill: white;">0xffff</text><rect x="630" y="1890" width="200" height="200" rx="20px" ry="20px" style="fill: #73867b;"></rect><text x="630" y="1930" font-size="20px" style="fill: black;">Xanadu</text><text x="630" y="1950" font-size="20px" style="fill: white;">Xanadu</text><text x="630" y="1970" font-size="20px" style="fill: black;">#73867b</text><text x="630" y="1990" font-size="20px" style="fill: white;">#73867b</text><text x="630" y="2010" font-size="20px" style="fill: black;">0x742f</text><text x="630" y="2030" font-size="20px" style="fill: white;">0x742f</text></svg>