<svg width="1680px" height="900px" xmlns="http://www.w3.org/2000/svg"><rect x="0" y="0" width="200" height="50" style="fill: #adbe19;"></rect><text x="0" y="20" font-size="25px" style="fill: black;">Acid green</text><text x="0" y="45" font-size="25px" style="fill: white;">Acid green</text><rect x="210" y="0" width="200" height="50" style="fill: #a5c63a;"></rect><text x="210" y="20" font-size="25px" style="fill: black;">Android green</text><text x="210" y="45" font-size="25px" style="fill: white;">Android green</text><rect x="420" y="0" width="200" height="50" style="fill: #8cb600;"></rect><text x="420" y="20" font-size="25px" style="fill: black;">Apple green</text><text x="420" y="45" font-size="25px" style="fill: white;">Apple green</text><rect x="630" y="0" width="200" height="50" style="fill: #4a6d42;"></rect><text x="630" y="20" font-size="25px" style="fill: black;">Artichoke green (Pantone)</text><text x="630" y="45" font-size="25px" style="fill: white;">Artichoke green (Pantone)</text><rect x="840" y="0" width="200" height="50" style="fill: #084d42;"></rect><text x="840" y="20" font-size="25px" style="fill: black;">Blue-green (color wheel)</text><text x="840" y="45" font-size="25px" style="fill: white;">Blue-green (color wheel)</text><rect x="1050" y="0" width="200" height="50" style="fill: #00694a;"></rect><text x="1050" y="20" font-size="25px" style="fill: black;">Bottle green</text><text x="1050" y="45" font-size="25px" style="fill: white;">Bottle green</text><rect x="1260" y="0" width="200" height="50" style="fill: #63ff00;"></rect><text x="1260" y="20" font-size="25px" style="fill: black;">Bright green</text><text x="1260" y="45" font-size="25px" style="fill: white;">Bright green</text><rect x="1470" y="0" width="200" height="50" style="fill: #004121;"></rect><text x="1470" y="20" font-size="25px" style="fill: black;">British racing green</text><text x="1470" y="45" font-size="25px" style="fill: white;">British racing green</text><rect x="0" y="60" width="200" height="50" style="fill: #194d42;"></rect><text x="0" y="80" font-size="25px" style="fill: black;">Brunswick green</text><text x="0" y="105" font-size="25px" style="fill: white;">Brunswick green</text><rect x="210" y="60" width="200" height="50" style="fill: #7bb663;"></rect><text x="210" y="80" font-size="25px" style="fill: black;">Bud green</text><text x="210" y="105" font-size="25px" style="fill: white;">Bud green</text><rect x="420" y="60" width="200" height="50" style="fill: #00693a;"></rect><text x="420" y="80" font-size="25px" style="fill: black;">Cadmium green</text><text x="420" y="105" font-size="25px" style="fill: white;">Cadmium green</text><rect x="630" y="60" width="200" height="50" style="fill: #00ca9c;"></rect><text x="630" y="80" font-size="25px" style="fill: black;">Caribbean green</text><text x="630" y="105" font-size="25px" style="fill: white;">Caribbean green</text><rect x="840" y="60" width="200" height="50" style="fill: #005542;"></rect><text x="840" y="80" font-size="25px" style="fill: black;">Castleton green</text><text x="840" y="105" font-size="25px" style="fill: white;">Castleton green</text><rect x="1050" y="60" width="200" height="50" style="fill: #ade3ad;"></rect><text x="1050" y="80" font-size="25px" style="fill: black;">Celadon</text><text x="1050" y="105" font-size="25px" style="fill: white;">Celadon</text><rect x="1260" y="60" width="200" height="50" style="fill: #31867b;"></rect><text x="1260" y="80" font-size="25px" style="fill: black;">Celadon green</text><text x="1260" y="105" font-size="25px" style="fill: white;">Celadon green</text><rect x="1470" y="60" width="200" height="50" style="fill: #003121;"></rect><text x="1470" y="80" font-size="25px" style="fill: black;">Dark green</text><text x="1470" y="105" font-size="25px" style="fill: white;">Dark green</text><rect x="0" y="120" width="200" height="50" style="fill: #006500;"></rect><text x="0" y="140" font-size="25px" style="fill: black;">Dark green (X11)</text><text x="0" y="165" font-size="25px" style="fill: white;">Dark green (X11)</text><rect x="210" y="120" width="200" height="50" style="fill: #192421;"></rect><text x="210" y="140" font-size="25px" style="fill: black;">Dark jungle green</text><text x="210" y="165" font-size="25px" style="fill: white;">Dark jungle green</text><rect x="420" y="120" width="200" height="50" style="fill: #4a5d21;"></rect><text x="420" y="140" font-size="25px" style="fill: black;">Dark moss green</text><text x="420" y="165" font-size="25px" style="fill: white;">Dark moss green</text><rect x="630" y="120" width="200" height="50" style="fill: #526931;"></rect><text x="630" y="140" font-size="25px" style="fill: black;">Dark olive green</text><text x="630" y="165" font-size="25px" style="fill: white;">Dark olive green</text><rect x="840" y="120" width="200" height="50" style="fill: #00be3a;"></rect><text x="840" y="140" font-size="25px" style="fill: black;">Dark pastel green</text><text x="840" y="165" font-size="25px" style="fill: white;">Dark pastel green</text><rect x="1050" y="120" width="200" height="50" style="fill: #8cba8c;"></rect><text x="1050" y="140" font-size="25px" style="fill: black;">Dark sea green</text><text x="1050" y="165" font-size="25px" style="fill: white;">Dark sea green</text><rect x="1260" y="120" width="200" height="50" style="fill: #197142;"></rect><text x="1260" y="140" font-size="25px" style="fill: black;">Dark spring green</text><text x="1260" y="165" font-size="25px" style="fill: white;">Dark spring green</text><rect x="1470" y="120" width="200" height="50" style="fill: #00713a;"></rect><text x="1470" y="140" font-size="25px" style="fill: black;">Dartmouth green</text><text x="1470" y="165" font-size="25px" style="fill: white;">Dartmouth green</text><rect x="0" y="180" width="200" height="50" style="fill: #004d4a;"></rect><text x="0" y="200" font-size="25px" style="fill: black;">Deep jungle green</text><text x="0" y="225" font-size="25px" style="fill: white;">Deep jungle green</text><rect x="210" y="180" width="200" height="50" style="fill: #00ff00;"></rect><text x="210" y="200" font-size="25px" style="fill: black;">Electric green</text><text x="210" y="225" font-size="25px" style="fill: white;">Electric green</text><rect x="420" y="180" width="200" height="50" style="fill: #194d42;"></rect><text x="420" y="200" font-size="25px" style="fill: black;">English green</text><text x="420" y="225" font-size="25px" style="fill: white;">English green</text><rect x="630" y="180" width="200" height="50" style="fill: #00ff42;"></rect><text x="630" y="200" font-size="25px" style="fill: black;">Erin</text><text x="630" y="225" font-size="25px" style="fill: white;">Erin</text><rect x="840" y="180" width="200" height="50" style="fill: #73ba7b;"></rect><text x="840" y="200" font-size="25px" style="fill: black;">Fern</text><text x="840" y="225" font-size="25px" style="fill: white;">Fern</text><rect x="1050" y="180" width="200" height="50" style="fill: #527942;"></rect><text x="1050" y="200" font-size="25px" style="fill: black;">Fern green</text><text x="1050" y="225" font-size="25px" style="fill: white;">Fern green</text><rect x="1260" y="180" width="200" height="50" style="fill: #218a21;"></rect><text x="1260" y="200" font-size="25px" style="fill: black;">Forest green</text><text x="1260" y="225" font-size="25px" style="fill: white;">Forest green</text><rect x="1470" y="180" width="200" height="50" style="fill: #63a673;"></rect><text x="1470" y="200" font-size="25px" style="fill: black;">Forest green (Crayola)</text><text x="1470" y="225" font-size="25px" style="fill: white;">Forest green (Crayola)</text><rect x="0" y="240" width="200" height="50" style="fill: #004521;"></rect><text x="0" y="260" font-size="25px" style="fill: black;">Forest green (traditional)</text><text x="0" y="285" font-size="25px" style="fill: white;">Forest green (traditional)</text><rect x="210" y="240" width="200" height="50" style="fill: #218a21;"></rect><text x="210" y="260" font-size="25px" style="fill: black;">Forest green (web)</text><text x="210" y="285" font-size="25px" style="fill: white;">Forest green (web)</text><rect x="420" y="240" width="200" height="50" style="fill: #00aa63;"></rect><text x="420" y="260" font-size="25px" style="fill: black;">GO green</text><text x="420" y="285" font-size="25px" style="fill: white;">GO green</text><rect x="630" y="240" width="200" height="50" style="fill: #00ff00;"></rect><text x="630" y="260" font-size="25px" style="fill: black;">Green</text><text x="630" y="285" font-size="25px" style="fill: white;">Green</text><rect x="840" y="240" width="200" height="50" style="fill: #2986c5;"></rect><text x="840" y="260" font-size="25px" style="fill: black;">Green-blue (Crayola)</text><text x="840" y="285" font-size="25px" style="fill: white;">Green-blue (Crayola)</text><rect x="1050" y="240" width="200" height="50" style="fill: #19aa7b;"></rect><text x="1050" y="260" font-size="25px" style="fill: black;">Green (Crayola)</text><text x="1050" y="285" font-size="25px" style="fill: white;">Green (Crayola)</text><rect x="1260" y="240" width="200" height="50" style="fill: #009a63;"></rect><text x="1260" y="260" font-size="25px" style="fill: black;">Green-cyan</text><text x="1260" y="285" font-size="25px" style="fill: white;">Green-cyan</text><rect x="1470" y="240" width="200" height="50" style="fill: #008200;"></rect><text x="1470" y="260" font-size="25px" style="fill: black;">Green (HTML/CSS color)</text><text x="1470" y="285" font-size="25px" style="fill: white;">Green (HTML/CSS color)</text><rect x="0" y="300" width="200" height="50" style="fill: #a5f331;"></rect><text x="0" y="320" font-size="25px" style="fill: black;">Green Lizard</text><text x="0" y="345" font-size="25px" style="fill: white;">Green Lizard</text><rect x="210" y="300" width="200" height="50" style="fill: #00aa73;"></rect><text x="210" y="320" font-size="25px" style="fill: black;">Green (Munsell)</text><text x="210" y="345" font-size="25px" style="fill: white;">Green (Munsell)</text><rect x="420" y="300" width="200" height="50" style="fill: #009e6b;"></rect><text x="420" y="320" font-size="25px" style="fill: black;">Green (NCS)</text><text x="420" y="345" font-size="25px" style="fill: white;">Green (NCS)</text><rect x="630" y="300" width="200" height="50" style="fill: #00ae42;"></rect><text x="630" y="320" font-size="25px" style="fill: black;">Green (Pantone)</text><text x="630" y="345" font-size="25px" style="fill: white;">Green (Pantone)</text><rect x="840" y="300" width="200" height="50" style="fill: #00a652;"></rect><text x="840" y="320" font-size="25px" style="fill: black;">Green (pigment)</text><text x="840" y="345" font-size="25px" style="fill: white;">Green (pigment)</text><rect x="1050" y="300" width="200" height="50" style="fill: #63ae31;"></rect><text x="1050" y="320" font-size="25px" style="fill: black;">Green (RYB)</text><text x="1050" y="345" font-size="25px" style="fill: white;">Green (RYB)</text><rect x="1260" y="300" width="200" height="50" style="fill: #6baea5;"></rect><text x="1260" y="320" font-size="25px" style="fill: black;">Green Sheen</text><text x="1260" y="345" font-size="25px" style="fill: white;">Green Sheen</text><rect x="1470" y="300" width="200" height="50" style="fill: #008200;"></rect><text x="1470" y="320" font-size="25px" style="fill: black;">Green (web)</text><text x="1470" y="345" font-size="25px" style="fill: white;">Green (web)</text><rect x="0" y="360" width="200" height="50" style="fill: #00ff00;"></rect><text x="0" y="380" font-size="25px" style="fill: black;">Green (X11, color wheel)</text><text x="0" y="405" font-size="25px" style="fill: white;">Green (X11, color wheel)</text><rect x="210" y="360" width="200" height="50" style="fill: #adff31;"></rect><text x="210" y="380" font-size="25px" style="fill: black;">Green-yellow</text><text x="210" y="405" font-size="25px" style="fill: white;">Green-yellow</text><rect x="420" y="360" width="200" height="50" style="fill: #efe794;"></rect><text x="420" y="380" font-size="25px" style="fill: black;">Green-yellow (Crayola)</text><text x="420" y="405" font-size="25px" style="fill: white;">Green-yellow (Crayola)</text><rect x="630" y="360" width="200" height="50" style="fill: #42ff00;"></rect><text x="630" y="380" font-size="25px" style="fill: black;">Harlequin</text><text x="630" y="405" font-size="25px" style="fill: white;">Harlequin</text><rect x="840" y="360" width="200" height="50" style="fill: #efffef;"></rect><text x="840" y="380" font-size="25px" style="fill: black;">Honeydew</text><text x="840" y="405" font-size="25px" style="fill: white;">Honeydew</text><rect x="1050" y="360" width="200" height="50" style="fill: #4a796b;"></rect><text x="1050" y="380" font-size="25px" style="fill: black;">Hookers green</text><text x="1050" y="405" font-size="25px" style="fill: white;">Hookers green</text><rect x="1260" y="360" width="200" height="50" style="fill: #315d3a;"></rect><text x="1260" y="380" font-size="25px" style="fill: black;">Hunter green</text><text x="1260" y="405" font-size="25px" style="fill: white;">Hunter green</text><rect x="1470" y="360" width="200" height="50" style="fill: #108a08;"></rect><text x="1470" y="380" font-size="25px" style="fill: black;">India green</text><text x="1470" y="405" font-size="25px" style="fill: white;">India green</text><rect x="0" y="420" width="200" height="50" style="fill: #009200;"></rect><text x="0" y="440" font-size="25px" style="fill: black;">Islamic green</text><text x="0" y="465" font-size="25px" style="fill: white;">Islamic green</text><rect x="210" y="420" width="200" height="50" style="fill: #29aa84;"></rect><text x="210" y="440" font-size="25px" style="fill: black;">Jungle green</text><text x="210" y="465" font-size="25px" style="fill: white;">Jungle green</text><rect x="420" y="420" width="200" height="50" style="fill: #4aba19;"></rect><text x="420" y="440" font-size="25px" style="fill: black;">Kelly green</text><text x="420" y="465" font-size="25px" style="fill: white;">Kelly green</text><rect x="630" y="420" width="200" height="50" style="fill: #314131;"></rect><text x="630" y="440" font-size="25px" style="fill: black;">Kombu green</text><text x="630" y="465" font-size="25px" style="fill: white;">Kombu green</text><rect x="840" y="420" width="200" height="50" style="fill: #adba9c;"></rect><text x="840" y="440" font-size="25px" style="fill: black;">Laurel green</text><text x="840" y="465" font-size="25px" style="fill: white;">Laurel green</text><rect x="1050" y="420" width="200" height="50" style="fill: #7bfb00;"></rect><text x="1050" y="440" font-size="25px" style="fill: black;">Lawn green</text><text x="1050" y="465" font-size="25px" style="fill: white;">Lawn green</text><rect x="1260" y="420" width="200" height="50" style="fill: #94ef94;"></rect><text x="1260" y="440" font-size="25px" style="fill: black;">Light green</text><text x="1260" y="465" font-size="25px" style="fill: white;">Light green</text><rect x="1470" y="420" width="200" height="50" style="fill: #31ce31;"></rect><text x="1470" y="440" font-size="25px" style="fill: black;">Lime Green</text><text x="1470" y="465" font-size="25px" style="fill: white;">Lime Green</text><rect x="0" y="480" width="200" height="50" style="fill: #00ff00;"></rect><text x="0" y="500" font-size="25px" style="fill: black;">Lime (web) (X11 green)</text><text x="0" y="525" font-size="25px" style="fill: white;">Lime (web) (X11 green)</text><rect x="210" y="480" width="200" height="50" style="fill: #195908;"></rect><text x="210" y="500" font-size="25px" style="fill: black;">Lincoln green</text><text x="210" y="525" font-size="25px" style="fill: white;">Lincoln green</text><rect x="420" y="480" width="200" height="50" style="fill: #73c263;"></rect><text x="420" y="500" font-size="25px" style="fill: black;">Mantis</text><text x="420" y="525" font-size="25px" style="fill: white;">Mantis</text><rect x="630" y="480" width="200" height="50" style="fill: #31bebd;"></rect><text x="630" y="500" font-size="25px" style="fill: black;">Maximum blue green</text><text x="630" y="525" font-size="25px" style="fill: white;">Maximum blue green</text><rect x="840" y="480" width="200" height="50" style="fill: #5a8e31;"></rect><text x="840" y="500" font-size="25px" style="fill: black;">Maximum green</text><text x="840" y="525" font-size="25px" style="fill: white;">Maximum green</text><rect x="1050" y="480" width="200" height="50" style="fill: #d6e752;"></rect><text x="1050" y="500" font-size="25px" style="fill: black;">Maximum green yellow</text><text x="1050" y="525" font-size="25px" style="fill: white;">Maximum green yellow</text><rect x="1260" y="480" width="200" height="50" style="fill: #4a9242;"></rect><text x="1260" y="500" font-size="25px" style="fill: black;">May green</text><text x="1260" y="525" font-size="25px" style="fill: white;">May green</text><rect x="1470" y="480" width="200" height="50" style="fill: #3ab273;"></rect><text x="1470" y="500" font-size="25px" style="fill: black;">Medium sea green</text><text x="1470" y="525" font-size="25px" style="fill: white;">Medium sea green</text><rect x="0" y="540" width="200" height="50" style="fill: #00fb9c;"></rect><text x="0" y="560" font-size="25px" style="fill: black;">Medium spring green</text><text x="0" y="585" font-size="25px" style="fill: white;">Medium spring green</text><rect x="210" y="540" width="200" height="50" style="fill: #8cdbce;"></rect><text x="210" y="560" font-size="25px" style="fill: black;">Middle blue green</text><text x="210" y="585" font-size="25px" style="fill: white;">Middle blue green</text><rect x="420" y="540" width="200" height="50" style="fill: #4a8e5a;"></rect><text x="420" y="560" font-size="25px" style="fill: black;">Middle green</text><text x="420" y="585" font-size="25px" style="fill: white;">Middle green</text><rect x="630" y="540" width="200" height="50" style="fill: #adbe63;"></rect><text x="630" y="560" font-size="25px" style="fill: black;">Middle green yellow</text><text x="630" y="585" font-size="25px" style="fill: white;">Middle green yellow</text><rect x="840" y="540" width="200" height="50" style="fill: #004952;"></rect><text x="840" y="560" font-size="25px" style="fill: black;">Midnight green (eagle green)</text><text x="840" y="585" font-size="25px" style="fill: white;">Midnight green (eagle green)</text><rect x="1050" y="540" width="200" height="50" style="fill: #94fb94;"></rect><text x="1050" y="560" font-size="25px" style="fill: black;">Mint green</text><text x="1050" y="585" font-size="25px" style="fill: white;">Mint green</text><rect x="1260" y="540" width="200" height="50" style="fill: #8c9a5a;"></rect><text x="1260" y="560" font-size="25px" style="fill: black;">Moss green</text><text x="1260" y="585" font-size="25px" style="fill: white;">Moss green</text><rect x="1470" y="540" width="200" height="50" style="fill: #19453a;"></rect><text x="1470" y="560" font-size="25px" style="fill: black;">MSU green</text><text x="1470" y="585" font-size="25px" style="fill: white;">MSU green</text><rect x="0" y="600" width="200" height="50" style="fill: #105d31;"></rect><text x="0" y="620" font-size="25px" style="fill: black;">NDHU green</text><text x="0" y="645" font-size="25px" style="fill: white;">NDHU green</text><rect x="210" y="600" width="200" height="50" style="fill: #3aff10;"></rect><text x="210" y="620" font-size="25px" style="fill: black;">Neon green</text><text x="210" y="645" font-size="25px" style="fill: white;">Neon green</text><rect x="420" y="600" width="200" height="50" style="fill: #4abe94;"></rect><text x="420" y="620" font-size="25px" style="fill: black;">Ocean green</text><text x="420" y="645" font-size="25px" style="fill: white;">Ocean green</text><rect x="630" y="600" width="200" height="50" style="fill: #b5b25a;"></rect><text x="630" y="620" font-size="25px" style="fill: black;">Olive green</text><text x="630" y="645" font-size="25px" style="fill: white;">Olive green</text><rect x="840" y="600" width="200" height="50" style="fill: #006500;"></rect><text x="840" y="620" font-size="25px" style="fill: black;">Pakistan green</text><text x="840" y="645" font-size="25px" style="fill: white;">Pakistan green</text><rect x="1050" y="600" width="200" height="50" style="fill: #94fb94;"></rect><text x="1050" y="620" font-size="25px" style="fill: black;">Pale green</text><text x="1050" y="645" font-size="25px" style="fill: white;">Pale green</text><rect x="1260" y="600" width="200" height="50" style="fill: #009a7b;"></rect><text x="1260" y="620" font-size="25px" style="fill: black;">Paolo Veronese green</text><text x="1260" y="645" font-size="25px" style="fill: white;">Paolo Veronese green</text><rect x="1470" y="600" width="200" height="50" style="fill: #52c67b;"></rect><text x="1470" y="620" font-size="25px" style="fill: black;">Paris Green</text><text x="1470" y="645" font-size="25px" style="fill: white;">Paris Green</text><rect x="0" y="660" width="200" height="50" style="fill: #00a694;"></rect><text x="0" y="680" font-size="25px" style="fill: black;">Persian green</text><text x="0" y="705" font-size="25px" style="fill: white;">Persian green</text><rect x="210" y="660" width="200" height="50" style="fill: #103521;"></rect><text x="210" y="680" font-size="25px" style="fill: black;">Phthalo green</text><text x="210" y="705" font-size="25px" style="fill: white;">Phthalo green</text><rect x="420" y="660" width="200" height="50" style="fill: #424d3a;"></rect><text x="420" y="680" font-size="25px" style="fill: black;">Rifle green</text><text x="420" y="705" font-size="25px" style="fill: white;">Rifle green</text><rect x="630" y="660" width="200" height="50" style="fill: #6b926b;"></rect><text x="630" y="680" font-size="25px" style="fill: black;">Russian green</text><text x="630" y="705" font-size="25px" style="fill: white;">Russian green</text><rect x="840" y="660" width="200" height="50" style="fill: #003929;"></rect><text x="840" y="680" font-size="25px" style="fill: black;">Sacramento State green</text><text x="840" y="705" font-size="25px" style="fill: white;">Sacramento State green</text><rect x="1050" y="660" width="200" height="50" style="fill: #527d29;"></rect><text x="1050" y="680" font-size="25px" style="fill: black;">Sap green</text><text x="1050" y="705" font-size="25px" style="fill: white;">Sap green</text><rect x="1260" y="660" width="200" height="50" style="fill: #63ff63;"></rect><text x="1260" y="680" font-size="25px" style="fill: black;">Screamin Green</text><text x="1260" y="705" font-size="25px" style="fill: white;">Screamin Green</text><rect x="1470" y="660" width="200" height="50" style="fill: #318a5a;"></rect><text x="1470" y="680" font-size="25px" style="fill: black;">Sea green</text><text x="1470" y="705" font-size="25px" style="fill: white;">Sea green</text><rect x="0" y="720" width="200" height="50" style="fill: #00ffce;"></rect><text x="0" y="740" font-size="25px" style="fill: black;">Sea green (Crayola)</text><text x="0" y="765" font-size="25px" style="fill: white;">Sea green (Crayola)</text><rect x="210" y="720" width="200" height="50" style="fill: #52df31;"></rect><text x="210" y="740" font-size="25px" style="fill: black;">SGBUS green</text><text x="210" y="765" font-size="25px" style="fill: white;">SGBUS green</text><rect x="420" y="720" width="200" height="50" style="fill: #009e63;"></rect><text x="420" y="740" font-size="25px" style="fill: black;">Shamrock green</text><text x="420" y="765" font-size="25px" style="fill: white;">Shamrock green</text><rect x="630" y="720" width="200" height="50" style="fill: #8cd200;"></rect><text x="630" y="740" font-size="25px" style="fill: black;">Sheen green</text><text x="630" y="765" font-size="25px" style="fill: white;">Sheen green</text><rect x="840" y="720" width="200" height="50" style="fill: #299619;"></rect><text x="840" y="740" font-size="25px" style="fill: black;">Slimy green</text><text x="840" y="765" font-size="25px" style="fill: white;">Slimy green</text><rect x="1050" y="720" width="200" height="50" style="fill: #009252;"></rect><text x="1050" y="740" font-size="25px" style="fill: black;">Spanish green</text><text x="1050" y="765" font-size="25px" style="fill: white;">Spanish green</text><rect x="1260" y="720" width="200" height="50" style="fill: #00ff7b;"></rect><text x="1260" y="740" font-size="25px" style="fill: black;">Spring green</text><text x="1260" y="765" font-size="25px" style="fill: white;">Spring green</text><rect x="1470" y="720" width="200" height="50" style="fill: #efebbd;"></rect><text x="1470" y="740" font-size="25px" style="fill: black;">Spring green (Crayola)</text><text x="1470" y="765" font-size="25px" style="fill: white;">Spring green (Crayola)</text><rect x="0" y="780" width="200" height="50" style="fill: #ceefbd;"></rect><text x="0" y="800" font-size="25px" style="fill: black;">Tea green</text><text x="0" y="825" font-size="25px" style="fill: white;">Tea green</text><rect x="210" y="780" width="200" height="50" style="fill: #9cd7b5;"></rect><text x="210" y="800" font-size="25px" style="fill: black;">Turquoise green</text><text x="210" y="825" font-size="25px" style="fill: white;">Turquoise green</text><rect x="420" y="780" width="200" height="50" style="fill: #8c9a5a;"></rect><text x="420" y="800" font-size="25px" style="fill: black;">Turtle green</text><text x="420" y="825" font-size="25px" style="fill: white;">Turtle green</text><rect x="630" y="780" width="200" height="50" style="fill: #004521;"></rect><text x="630" y="800" font-size="25px" style="fill: black;">UP Forest green</text><text x="630" y="825" font-size="25px" style="fill: white;">UP Forest green</text><rect x="840" y="780" width="200" height="50" style="fill: #009694;"></rect><text x="840" y="800" font-size="25px" style="fill: black;">Viridian green</text><text x="840" y="825" font-size="25px" style="fill: white;">Viridian green</text><rect x="1050" y="780" width="200" height="50" style="fill: #528a7b;"></rect><text x="1050" y="800" font-size="25px" style="fill: black;">Wintergreen Dream</text><text x="1050" y="825" font-size="25px" style="fill: white;">Wintergreen Dream</text><rect x="1260" y="780" width="200" height="50" style="fill: #9cce31;"></rect><text x="1260" y="800" font-size="25px" style="fill: black;">Yellow-green</text><text x="1260" y="825" font-size="25px" style="fill: white;">Yellow-green</text><rect x="1470" y="780" width="200" height="50" style="fill: #31b219;"></rect><text x="1470" y="800" font-size="25px" style="fill: black;">Yellow-green (Color Wheel)</text><text x="1470" y="825" font-size="25px" style="fill: white;">Yellow-green (Color Wheel)</text><rect x="0" y="840" width="200" height="50" style="fill: #c5e384;"></rect><text x="0" y="860" font-size="25px" style="fill: black;">Yellow-green (Crayola)</text><text x="0" y="885" font-size="25px" style="fill: white;">Yellow-green (Crayola)</text></svg>