<svg width="840px" height="2940px" xmlns="http://www.w3.org/2000/svg"><rect x="0" y="0" width="200" height="200" rx="20px" ry="20px" style="fill: #c56110;"></rect><text x="0" y="40" font-size="20px" style="fill: black;">Alloy orange</text><text x="0" y="60" font-size="20px" style="fill: white;">Alloy orange</text><text x="0" y="80" font-size="20px" style="fill: black;">#c56110</text><text x="0" y="100" font-size="20px" style="fill: white;">#c56110</text><text x="0" y="120" font-size="20px" style="fill: black;">0xc302</text><text x="0" y="140" font-size="20px" style="fill: white;">0xc302</text><rect x="210" y="0" width="200" height="200" rx="20px" ry="20px" style="fill: #ffceb5;"></rect><text x="210" y="40" font-size="20px" style="fill: black;">Apricot</text><text x="210" y="60" font-size="20px" style="fill: white;">Apricot</text><text x="210" y="80" font-size="20px" style="fill: black;">#ffceb5</text><text x="210" y="100" font-size="20px" style="fill: white;">#ffceb5</text><text x="210" y="120" font-size="20px" style="fill: black;">0xfe76</text><text x="210" y="140" font-size="20px" style="fill: white;">0xfe76</text><rect x="420" y="0" width="200" height="200" rx="20px" ry="20px" style="fill: #ff9a63;"></rect><text x="420" y="40" font-size="20px" style="fill: black;">Atomic tangerine</text><text x="420" y="60" font-size="20px" style="fill: white;">Atomic tangerine</text><text x="420" y="80" font-size="20px" style="fill: black;">#ff9a63</text><text x="420" y="100" font-size="20px" style="fill: white;">#ff9a63</text><text x="420" y="120" font-size="20px" style="fill: black;">0xfccc</text><text x="420" y="140" font-size="20px" style="fill: white;">0xfccc</text><rect x="630" y="0" width="200" height="200" rx="20px" ry="20px" style="fill: #944d00;"></rect><text x="630" y="40" font-size="20px" style="fill: black;">Brown</text><text x="630" y="60" font-size="20px" style="fill: white;">Brown</text><text x="630" y="80" font-size="20px" style="fill: black;">#944d00</text><text x="630" y="100" font-size="20px" style="fill: white;">#944d00</text><text x="630" y="120" font-size="20px" style="fill: black;">0x9260</text><text x="630" y="140" font-size="20px" style="fill: white;">0x9260</text><rect x="0" y="210" width="200" height="200" rx="20px" ry="20px" style="fill: #bd5500;"></rect><text x="0" y="250" font-size="20px" style="fill: black;">Burnt orange</text><text x="0" y="270" font-size="20px" style="fill: white;">Burnt orange</text><text x="0" y="290" font-size="20px" style="fill: black;">#bd5500</text><text x="0" y="310" font-size="20px" style="fill: white;">#bd5500</text><text x="0" y="330" font-size="20px" style="fill: black;">0xbaa0</text><text x="0" y="350" font-size="20px" style="fill: white;">0xbaa0</text><rect x="210" y="210" width="200" height="200" rx="20px" ry="20px" style="fill: #de9642;"></rect><text x="210" y="250" font-size="20px" style="fill: black;">Butterscotch</text><text x="210" y="270" font-size="20px" style="fill: white;">Butterscotch</text><text x="210" y="290" font-size="20px" style="fill: black;">#de9642</text><text x="210" y="310" font-size="20px" style="fill: white;">#de9642</text><text x="210" y="330" font-size="20px" style="fill: black;">0xdca8</text><text x="210" y="350" font-size="20px" style="fill: white;">0xdca8</text><rect x="420" y="210" width="200" height="200" rx="20px" ry="20px" style="fill: #ef8629;"></rect><text x="420" y="250" font-size="20px" style="fill: black;">Cadmium orange</text><text x="420" y="270" font-size="20px" style="fill: white;">Cadmium orange</text><text x="420" y="290" font-size="20px" style="fill: black;">#ef8629</text><text x="420" y="310" font-size="20px" style="fill: white;">#ef8629</text><text x="420" y="330" font-size="20px" style="fill: black;">0xec25</text><text x="420" y="350" font-size="20px" style="fill: white;">0xec25</text><rect x="630" y="210" width="200" height="200" rx="20px" ry="20px" style="fill: #ef9221;"></rect><text x="630" y="250" font-size="20px" style="fill: black;">Carrot orange</text><text x="630" y="270" font-size="20px" style="fill: white;">Carrot orange</text><text x="630" y="290" font-size="20px" style="fill: black;">#ef9221</text><text x="630" y="310" font-size="20px" style="fill: white;">#ef9221</text><text x="630" y="330" font-size="20px" style="fill: black;">0xec84</text><text x="630" y="350" font-size="20px" style="fill: white;">0xec84</text><rect x="0" y="420" width="200" height="200" rx="20px" ry="20px" style="fill: #ff7d52;"></rect><text x="0" y="460" font-size="20px" style="fill: black;">Coral</text><text x="0" y="480" font-size="20px" style="fill: white;">Coral</text><text x="0" y="500" font-size="20px" style="fill: black;">#ff7d52</text><text x="0" y="520" font-size="20px" style="fill: white;">#ff7d52</text><text x="0" y="540" font-size="20px" style="fill: black;">0xfbea</text><text x="0" y="560" font-size="20px" style="fill: white;">0xfbea</text><rect x="210" y="420" width="200" height="200" rx="20px" ry="20px" style="fill: #ff8e00;"></rect><text x="210" y="460" font-size="20px" style="fill: black;">Dark orange</text><text x="210" y="480" font-size="20px" style="fill: white;">Dark orange</text><text x="210" y="500" font-size="20px" style="fill: black;">#ff8e00</text><text x="210" y="520" font-size="20px" style="fill: white;">#ff8e00</text><text x="210" y="540" font-size="20px" style="fill: black;">0xfc60</text><text x="210" y="560" font-size="20px" style="fill: white;">0xfc60</text><rect x="420" y="420" width="200" height="200" rx="20px" ry="20px" style="fill: #ff5921;"></rect><text x="420" y="460" font-size="20px" style="fill: black;">Giants orange</text><text x="420" y="480" font-size="20px" style="fill: white;">Giants orange</text><text x="420" y="500" font-size="20px" style="fill: black;">#ff5921</text><text x="420" y="520" font-size="20px" style="fill: white;">#ff5921</text><text x="420" y="540" font-size="20px" style="fill: black;">0xfac4</text><text x="420" y="560" font-size="20px" style="fill: white;">0xfac4</text><rect x="630" y="420" width="200" height="200" rx="20px" ry="20px" style="fill: #dea621;"></rect><text x="630" y="460" font-size="20px" style="fill: black;">Goldenrod</text><text x="630" y="480" font-size="20px" style="fill: white;">Goldenrod</text><text x="630" y="500" font-size="20px" style="fill: black;">#dea621</text><text x="630" y="520" font-size="20px" style="fill: white;">#dea621</text><text x="630" y="540" font-size="20px" style="fill: black;">0xdd24</text><text x="630" y="560" font-size="20px" style="fill: white;">0xdd24</text><rect x="0" y="630" width="200" height="200" rx="20px" ry="20px" style="fill: #e6aa42;"></rect><text x="0" y="670" font-size="20px" style="fill: black;">Hunyadi yellow</text><text x="0" y="690" font-size="20px" style="fill: white;">Hunyadi yellow</text><text x="0" y="710" font-size="20px" style="fill: black;">#e6aa42</text><text x="0" y="730" font-size="20px" style="fill: white;">#e6aa42</text><text x="0" y="750" font-size="20px" style="fill: black;">0xe548</text><text x="0" y="770" font-size="20px" style="fill: white;">0xe548</text><rect x="210" y="630" width="200" height="200" rx="20px" ry="20px" style="fill: #ff5100;"></rect><text x="210" y="670" font-size="20px" style="fill: black;">International Orange</text><text x="210" y="690" font-size="20px" style="fill: white;">International Orange</text><text x="210" y="710" font-size="20px" style="fill: black;">#ff5100</text><text x="210" y="730" font-size="20px" style="fill: white;">#ff5100</text><text x="210" y="750" font-size="20px" style="fill: black;">0xfa80</text><text x="210" y="770" font-size="20px" style="fill: white;">0xfa80</text><rect x="420" y="630" width="200" height="200" rx="20px" ry="20px" style="fill: #ff5100;"></rect><text x="420" y="670" font-size="20px" style="fill: black;">International orange (aerospace)</text><text x="420" y="690" font-size="20px" style="fill: white;">International orange (aerospace)</text><text x="420" y="710" font-size="20px" style="fill: black;">#ff5100</text><text x="420" y="730" font-size="20px" style="fill: white;">#ff5100</text><text x="420" y="750" font-size="20px" style="fill: black;">0xfa80</text><text x="420" y="770" font-size="20px" style="fill: white;">0xfa80</text><rect x="630" y="630" width="200" height="200" rx="20px" ry="20px" style="fill: #bd1408;"></rect><text x="630" y="670" font-size="20px" style="fill: black;">International orange (engineering)</text><text x="630" y="690" font-size="20px" style="fill: white;">International orange (engineering)</text><text x="630" y="710" font-size="20px" style="fill: black;">#bd1408</text><text x="630" y="730" font-size="20px" style="fill: white;">#bd1408</text><text x="630" y="750" font-size="20px" style="fill: black;">0xb8a1</text><text x="630" y="770" font-size="20px" style="fill: white;">0xb8a1</text><rect x="0" y="840" width="200" height="200" rx="20px" ry="20px" style="fill: #bd3529;"></rect><text x="0" y="880" font-size="20px" style="fill: black;">International orange (Golden Gate Bridge)</text><text x="0" y="900" font-size="20px" style="fill: white;">International orange (Golden Gate Bridge)</text><text x="0" y="920" font-size="20px" style="fill: black;">#bd3529</text><text x="0" y="940" font-size="20px" style="fill: white;">#bd3529</text><text x="0" y="960" font-size="20px" style="fill: black;">0xb9a5</text><text x="0" y="980" font-size="20px" style="fill: white;">0xb9a5</text><rect x="210" y="840" width="200" height="200" rx="20px" ry="20px" style="fill: #c5ae94;"></rect><text x="210" y="880" font-size="20px" style="fill: black;">Khaki</text><text x="210" y="900" font-size="20px" style="fill: white;">Khaki</text><text x="210" y="920" font-size="20px" style="fill: black;">#c5ae94</text><text x="210" y="940" font-size="20px" style="fill: white;">#c5ae94</text><text x="210" y="960" font-size="20px" style="fill: black;">0xc572</text><text x="210" y="980" font-size="20px" style="fill: white;">0xc572</text><rect x="420" y="840" width="200" height="200" rx="20px" ry="20px" style="fill: #ffd7b5;"></rect><text x="420" y="880" font-size="20px" style="fill: black;">Light orange</text><text x="420" y="900" font-size="20px" style="fill: white;">Light orange</text><text x="420" y="920" font-size="20px" style="fill: black;">#ffd7b5</text><text x="420" y="940" font-size="20px" style="fill: white;">#ffd7b5</text><text x="420" y="960" font-size="20px" style="fill: black;">0xfeb6</text><text x="420" y="980" font-size="20px" style="fill: white;">0xfeb6</text><rect x="630" y="840" width="200" height="200" rx="20px" ry="20px" style="fill: #ff7d00;"></rect><text x="630" y="880" font-size="20px" style="fill: black;">Orange</text><text x="630" y="900" font-size="20px" style="fill: white;">Orange</text><text x="630" y="920" font-size="20px" style="fill: black;">#ff7d00</text><text x="630" y="940" font-size="20px" style="fill: white;">#ff7d00</text><text x="630" y="960" font-size="20px" style="fill: black;">0xfbe0</text><text x="630" y="980" font-size="20px" style="fill: white;">0xfbe0</text><rect x="0" y="1050" width="200" height="200" rx="20px" ry="20px" style="fill: #ff8200;"></rect><text x="0" y="1090" font-size="20px" style="fill: black;">Orange (color wheel)</text><text x="0" y="1110" font-size="20px" style="fill: white;">Orange (color wheel)</text><text x="0" y="1130" font-size="20px" style="fill: black;">#ff8200</text><text x="0" y="1150" font-size="20px" style="fill: white;">#ff8200</text><text x="0" y="1170" font-size="20px" style="fill: black;">0xfc00</text><text x="0" y="1190" font-size="20px" style="fill: white;">0xfc00</text><rect x="210" y="1050" width="200" height="200" rx="20px" ry="20px" style="fill: #ff753a;"></rect><text x="210" y="1090" font-size="20px" style="fill: black;">Orange (Crayola)</text><text x="210" y="1110" font-size="20px" style="fill: white;">Orange (Crayola)</text><text x="210" y="1130" font-size="20px" style="fill: black;">#ff753a</text><text x="210" y="1150" font-size="20px" style="fill: white;">#ff753a</text><text x="210" y="1170" font-size="20px" style="fill: black;">0xfba7</text><text x="210" y="1190" font-size="20px" style="fill: white;">0xfba7</text><rect x="420" y="1050" width="200" height="200" rx="20px" ry="20px" style="fill: #e66100;"></rect><text x="420" y="1090" font-size="20px" style="fill: black;">Orange (G&amp;S)</text><text x="420" y="1110" font-size="20px" style="fill: white;">Orange (G&amp;S)</text><text x="420" y="1130" font-size="20px" style="fill: black;">#e66100</text><text x="420" y="1150" font-size="20px" style="fill: white;">#e66100</text><text x="420" y="1170" font-size="20px" style="fill: black;">0xe300</text><text x="420" y="1190" font-size="20px" style="fill: white;">0xe300</text><rect x="630" y="1050" width="200" height="200" rx="20px" ry="20px" style="fill: #ff5900;"></rect><text x="630" y="1090" font-size="20px" style="fill: black;">Orange (Pantone)</text><text x="630" y="1110" font-size="20px" style="fill: white;">Orange (Pantone)</text><text x="630" y="1130" font-size="20px" style="fill: black;">#ff5900</text><text x="630" y="1150" font-size="20px" style="fill: white;">#ff5900</text><text x="630" y="1170" font-size="20px" style="fill: black;">0xfac0</text><text x="630" y="1190" font-size="20px" style="fill: white;">0xfac0</text><rect x="0" y="1260" width="200" height="200" rx="20px" ry="20px" style="fill: #ff9e00;"></rect><text x="0" y="1300" font-size="20px" style="fill: black;">Orange peel</text><text x="0" y="1320" font-size="20px" style="fill: white;">Orange peel</text><text x="0" y="1340" font-size="20px" style="fill: black;">#ff9e00</text><text x="0" y="1360" font-size="20px" style="fill: white;">#ff9e00</text><text x="0" y="1380" font-size="20px" style="fill: black;">0xfce0</text><text x="0" y="1400" font-size="20px" style="fill: white;">0xfce0</text><rect x="210" y="1260" width="200" height="200" rx="20px" ry="20px" style="fill: #ff6921;"></rect><text x="210" y="1300" font-size="20px" style="fill: black;">Orange-red</text><text x="210" y="1320" font-size="20px" style="fill: white;">Orange-red</text><text x="210" y="1340" font-size="20px" style="fill: black;">#ff6921</text><text x="210" y="1360" font-size="20px" style="fill: white;">#ff6921</text><text x="210" y="1380" font-size="20px" style="fill: black;">0xfb44</text><text x="210" y="1400" font-size="20px" style="fill: white;">0xfb44</text><rect x="420" y="1260" width="200" height="200" rx="20px" ry="20px" style="fill: #ff554a;"></rect><text x="420" y="1300" font-size="20px" style="fill: black;">Orange-red (Crayola)</text><text x="420" y="1320" font-size="20px" style="fill: white;">Orange-red (Crayola)</text><text x="420" y="1340" font-size="20px" style="fill: black;">#ff554a</text><text x="420" y="1360" font-size="20px" style="fill: white;">#ff554a</text><text x="420" y="1380" font-size="20px" style="fill: black;">0xfaa9</text><text x="420" y="1400" font-size="20px" style="fill: white;">0xfaa9</text><rect x="630" y="1260" width="200" height="200" rx="20px" ry="20px" style="fill: #f7593a;"></rect><text x="630" y="1300" font-size="20px" style="fill: black;">Orange soda</text><text x="630" y="1320" font-size="20px" style="fill: white;">Orange soda</text><text x="630" y="1340" font-size="20px" style="fill: black;">#f7593a</text><text x="630" y="1360" font-size="20px" style="fill: white;">#f7593a</text><text x="630" y="1380" font-size="20px" style="fill: black;">0xf2c7</text><text x="630" y="1400" font-size="20px" style="fill: white;">0xf2c7</text><rect x="0" y="1470" width="200" height="200" rx="20px" ry="20px" style="fill: #ffa600;"></rect><text x="0" y="1510" font-size="20px" style="fill: black;">Orange (web)</text><text x="0" y="1530" font-size="20px" style="fill: white;">Orange (web)</text><text x="0" y="1550" font-size="20px" style="fill: black;">#ffa600</text><text x="0" y="1570" font-size="20px" style="fill: white;">#ffa600</text><text x="0" y="1590" font-size="20px" style="fill: black;">0xfd20</text><text x="0" y="1610" font-size="20px" style="fill: white;">0xfd20</text><rect x="210" y="1470" width="200" height="200" rx="20px" ry="20px" style="fill: #ffa600;"></rect><text x="210" y="1510" font-size="20px" style="fill: black;">Orange (web color)</text><text x="210" y="1530" font-size="20px" style="fill: white;">Orange (web color)</text><text x="210" y="1550" font-size="20px" style="fill: black;">#ffa600</text><text x="210" y="1570" font-size="20px" style="fill: white;">#ffa600</text><text x="210" y="1590" font-size="20px" style="fill: black;">0xfd20</text><text x="210" y="1610" font-size="20px" style="fill: white;">0xfd20</text><rect x="420" y="1470" width="200" height="200" rx="20px" ry="20px" style="fill: #f7be21;"></rect><text x="420" y="1510" font-size="20px" style="fill: black;">Orange-yellow</text><text x="420" y="1530" font-size="20px" style="fill: white;">Orange-yellow</text><text x="420" y="1550" font-size="20px" style="fill: black;">#f7be21</text><text x="420" y="1570" font-size="20px" style="fill: white;">#f7be21</text><text x="420" y="1590" font-size="20px" style="fill: black;">0xf5e4</text><text x="420" y="1610" font-size="20px" style="fill: white;">0xf5e4</text><rect x="630" y="1470" width="200" height="200" rx="20px" ry="20px" style="fill: #f7d76b;"></rect><text x="630" y="1510" font-size="20px" style="fill: black;">Orange-yellow (Crayola)</text><text x="630" y="1530" font-size="20px" style="fill: white;">Orange-yellow (Crayola)</text><text x="630" y="1550" font-size="20px" style="fill: black;">#f7d76b</text><text x="630" y="1570" font-size="20px" style="fill: white;">#f7d76b</text><text x="630" y="1590" font-size="20px" style="fill: black;">0xf6ad</text><text x="630" y="1610" font-size="20px" style="fill: white;">0xf6ad</text><rect x="0" y="1680" width="200" height="200" rx="20px" ry="20px" style="fill: #ff6d4a;"></rect><text x="0" y="1720" font-size="20px" style="fill: black;">Outrageous Orange</text><text x="0" y="1740" font-size="20px" style="fill: white;">Outrageous Orange</text><text x="0" y="1760" font-size="20px" style="fill: black;">#ff6d4a</text><text x="0" y="1780" font-size="20px" style="fill: white;">#ff6d4a</text><text x="0" y="1800" font-size="20px" style="fill: black;">0xfb69</text><text x="0" y="1820" font-size="20px" style="fill: white;">0xfb69</text><rect x="210" y="1680" width="200" height="200" rx="20px" ry="20px" style="fill: #ffefd6;"></rect><text x="210" y="1720" font-size="20px" style="fill: black;">Papaya Whip</text><text x="210" y="1740" font-size="20px" style="fill: white;">Papaya Whip</text><text x="210" y="1760" font-size="20px" style="fill: black;">#ffefd6</text><text x="210" y="1780" font-size="20px" style="fill: white;">#ffefd6</text><text x="210" y="1800" font-size="20px" style="fill: black;">0xff7a</text><text x="210" y="1820" font-size="20px" style="fill: white;">0xff7a</text><rect x="420" y="1680" width="200" height="200" rx="20px" ry="20px" style="fill: #ffe7b5;"></rect><text x="420" y="1720" font-size="20px" style="fill: black;">Peach</text><text x="420" y="1740" font-size="20px" style="fill: white;">Peach</text><text x="420" y="1760" font-size="20px" style="fill: black;">#ffe7b5</text><text x="420" y="1780" font-size="20px" style="fill: white;">#ffe7b5</text><text x="420" y="1800" font-size="20px" style="fill: black;">0xff36</text><text x="420" y="1820" font-size="20px" style="fill: white;">0xff36</text><rect x="630" y="1680" width="200" height="200" rx="20px" ry="20px" style="fill: #d6925a;"></rect><text x="630" y="1720" font-size="20px" style="fill: black;">Persian orange</text><text x="630" y="1740" font-size="20px" style="fill: white;">Persian orange</text><text x="630" y="1760" font-size="20px" style="fill: black;">#d6925a</text><text x="630" y="1780" font-size="20px" style="fill: white;">#d6925a</text><text x="630" y="1800" font-size="20px" style="fill: black;">0xd48b</text><text x="630" y="1820" font-size="20px" style="fill: white;">0xd48b</text><rect x="0" y="1890" width="200" height="200" rx="20px" ry="20px" style="fill: #ef5900;"></rect><text x="0" y="1930" font-size="20px" style="fill: black;">Persimmon</text><text x="0" y="1950" font-size="20px" style="fill: white;">Persimmon</text><text x="0" y="1970" font-size="20px" style="fill: black;">#ef5900</text><text x="0" y="1990" font-size="20px" style="fill: white;">#ef5900</text><text x="0" y="2010" font-size="20px" style="fill: black;">0xeac0</text><text x="0" y="2030" font-size="20px" style="fill: white;">0xeac0</text><rect x="210" y="1890" width="200" height="200" rx="20px" ry="20px" style="fill: #ff593a;"></rect><text x="210" y="1930" font-size="20px" style="fill: black;">Portland Orange</text><text x="210" y="1950" font-size="20px" style="fill: white;">Portland Orange</text><text x="210" y="1970" font-size="20px" style="fill: black;">#ff593a</text><text x="210" y="1990" font-size="20px" style="fill: white;">#ff593a</text><text x="210" y="2010" font-size="20px" style="fill: black;">0xfac7</text><text x="210" y="2030" font-size="20px" style="fill: white;">0xfac7</text><rect x="420" y="1890" width="200" height="200" rx="20px" ry="20px" style="fill: #ef7d29;"></rect><text x="420" y="1930" font-size="20px" style="fill: black;">Princeton orange</text><text x="420" y="1950" font-size="20px" style="fill: white;">Princeton orange</text><text x="420" y="1970" font-size="20px" style="fill: black;">#ef7d29</text><text x="420" y="1990" font-size="20px" style="fill: white;">#ef7d29</text><text x="420" y="2010" font-size="20px" style="fill: black;">0xebe5</text><text x="420" y="2030" font-size="20px" style="fill: white;">0xebe5</text><rect x="630" y="1890" width="200" height="200" rx="20px" ry="20px" style="fill: #ff7519;"></rect><text x="630" y="1930" font-size="20px" style="fill: black;">Pumpkin</text><text x="630" y="1950" font-size="20px" style="fill: white;">Pumpkin</text><text x="630" y="1970" font-size="20px" style="fill: black;">#ff7519</text><text x="630" y="1990" font-size="20px" style="fill: white;">#ff7519</text><text x="630" y="2010" font-size="20px" style="fill: black;">0xfba3</text><text x="630" y="2030" font-size="20px" style="fill: white;">0xfba3</text><rect x="0" y="2100" width="200" height="200" rx="20px" ry="20px" style="fill: #ff554a;"></rect><text x="0" y="2140" font-size="20px" style="fill: black;">Red-orange</text><text x="0" y="2160" font-size="20px" style="fill: white;">Red-orange</text><text x="0" y="2180" font-size="20px" style="fill: black;">#ff554a</text><text x="0" y="2200" font-size="20px" style="fill: white;">#ff554a</text><text x="0" y="2220" font-size="20px" style="fill: black;">0xfaa9</text><text x="0" y="2240" font-size="20px" style="fill: white;">0xfaa9</text><rect x="210" y="2100" width="200" height="200" rx="20px" ry="20px" style="fill: #ff4500;"></rect><text x="210" y="2140" font-size="20px" style="fill: black;">Red-orange (Color wheel)</text><text x="210" y="2160" font-size="20px" style="fill: white;">Red-orange (Color wheel)</text><text x="210" y="2180" font-size="20px" style="fill: black;">#ff4500</text><text x="210" y="2200" font-size="20px" style="fill: white;">#ff4500</text><text x="210" y="2220" font-size="20px" style="fill: black;">0xfa20</text><text x="210" y="2240" font-size="20px" style="fill: white;">0xfa20</text><rect x="420" y="2100" width="200" height="200" rx="20px" ry="20px" style="fill: #ff6921;"></rect><text x="420" y="2140" font-size="20px" style="fill: black;">Red-orange (Crayola)</text><text x="420" y="2160" font-size="20px" style="fill: white;">Red-orange (Crayola)</text><text x="420" y="2180" font-size="20px" style="fill: black;">#ff6921</text><text x="420" y="2200" font-size="20px" style="fill: white;">#ff6921</text><text x="420" y="2220" font-size="20px" style="fill: black;">0xfb44</text><text x="420" y="2240" font-size="20px" style="fill: white;">0xfb44</text><rect x="630" y="2100" width="200" height="200" rx="20px" ry="20px" style="fill: #ff7900;"></rect><text x="630" y="2140" font-size="20px" style="fill: black;">Safety Orange</text><text x="630" y="2160" font-size="20px" style="fill: white;">Safety Orange</text><text x="630" y="2180" font-size="20px" style="fill: black;">#ff7900</text><text x="630" y="2200" font-size="20px" style="fill: white;">#ff7900</text><text x="630" y="2220" font-size="20px" style="fill: black;">0xfbc0</text><text x="630" y="2240" font-size="20px" style="fill: white;">0xfbc0</text><rect x="0" y="2310" width="200" height="200" rx="20px" ry="20px" style="fill: #ff6500;"></rect><text x="0" y="2350" font-size="20px" style="fill: black;">Safety orange (blaze orange)</text><text x="0" y="2370" font-size="20px" style="fill: white;">Safety orange (blaze orange)</text><text x="0" y="2390" font-size="20px" style="fill: black;">#ff6500</text><text x="0" y="2410" font-size="20px" style="fill: white;">#ff6500</text><text x="0" y="2430" font-size="20px" style="fill: black;">0xfb20</text><text x="0" y="2450" font-size="20px" style="fill: white;">0xfb20</text><rect x="210" y="2310" width="200" height="200" rx="20px" ry="20px" style="fill: #f7c231;"></rect><text x="210" y="2350" font-size="20px" style="fill: black;">Saffron</text><text x="210" y="2370" font-size="20px" style="fill: white;">Saffron</text><text x="210" y="2390" font-size="20px" style="fill: black;">#f7c231</text><text x="210" y="2410" font-size="20px" style="fill: white;">#f7c231</text><text x="210" y="2430" font-size="20px" style="fill: black;">0xf606</text><text x="210" y="2450" font-size="20px" style="fill: white;">0xf606</text><rect x="420" y="2310" width="200" height="200" rx="20px" ry="20px" style="fill: #e66100;"></rect><text x="420" y="2350" font-size="20px" style="fill: black;">Spanish orange</text><text x="420" y="2370" font-size="20px" style="fill: white;">Spanish orange</text><text x="420" y="2390" font-size="20px" style="fill: black;">#e66100</text><text x="420" y="2410" font-size="20px" style="fill: white;">#e66100</text><text x="420" y="2430" font-size="20px" style="fill: black;">0xe300</text><text x="420" y="2450" font-size="20px" style="fill: white;">0xe300</text><rect x="630" y="2310" width="200" height="200" rx="20px" ry="20px" style="fill: #ef8600;"></rect><text x="630" y="2350" font-size="20px" style="fill: black;">Tangerine</text><text x="630" y="2370" font-size="20px" style="fill: white;">Tangerine</text><text x="630" y="2390" font-size="20px" style="fill: black;">#ef8600</text><text x="630" y="2410" font-size="20px" style="fill: white;">#ef8600</text><text x="630" y="2430" font-size="20px" style="fill: black;">0xec20</text><text x="630" y="2450" font-size="20px" style="fill: white;">0xec20</text><rect x="0" y="2520" width="200" height="200" rx="20px" ry="20px" style="fill: #ff4d4a;"></rect><text x="0" y="2560" font-size="20px" style="fill: black;">Tart Orange</text><text x="0" y="2580" font-size="20px" style="fill: white;">Tart Orange</text><text x="0" y="2600" font-size="20px" style="fill: black;">#ff4d4a</text><text x="0" y="2620" font-size="20px" style="fill: white;">#ff4d4a</text><text x="0" y="2640" font-size="20px" style="fill: black;">0xfa69</text><text x="0" y="2660" font-size="20px" style="fill: white;">0xfa69</text><rect x="210" y="2520" width="200" height="200" rx="20px" ry="20px" style="fill: #b56919;"></rect><text x="210" y="2560" font-size="20px" style="fill: black;">Tiger’s Eye</text><text x="210" y="2580" font-size="20px" style="fill: white;">Tiger’s Eye</text><text x="210" y="2600" font-size="20px" style="fill: black;">#b56919</text><text x="210" y="2620" font-size="20px" style="fill: white;">#b56919</text><text x="210" y="2640" font-size="20px" style="fill: black;">0xb343</text><text x="210" y="2660" font-size="20px" style="fill: white;">0xb343</text><rect x="420" y="2520" width="200" height="200" rx="20px" ry="20px" style="fill: #ff8200;"></rect><text x="420" y="2560" font-size="20px" style="fill: black;">UT orange</text><text x="420" y="2580" font-size="20px" style="fill: white;">UT orange</text><text x="420" y="2600" font-size="20px" style="fill: black;">#ff8200</text><text x="420" y="2620" font-size="20px" style="fill: white;">#ff8200</text><text x="420" y="2640" font-size="20px" style="fill: black;">0xfc00</text><text x="420" y="2660" font-size="20px" style="fill: white;">0xfc00</text><rect x="630" y="2520" width="200" height="200" rx="20px" ry="20px" style="fill: #efb231;"></rect><text x="630" y="2560" font-size="20px" style="fill: black;">Xanthous</text><text x="630" y="2580" font-size="20px" style="fill: white;">Xanthous</text><text x="630" y="2600" font-size="20px" style="fill: black;">#efb231</text><text x="630" y="2620" font-size="20px" style="fill: white;">#efb231</text><text x="630" y="2640" font-size="20px" style="fill: black;">0xed86</text><text x="630" y="2660" font-size="20px" style="fill: white;">0xed86</text><rect x="0" y="2730" width="200" height="200" rx="20px" ry="20px" style="fill: #ffae42;"></rect><text x="0" y="2770" font-size="20px" style="fill: black;">Yellow Orange</text><text x="0" y="2790" font-size="20px" style="fill: white;">Yellow Orange</text><text x="0" y="2810" font-size="20px" style="fill: black;">#ffae42</text><text x="0" y="2830" font-size="20px" style="fill: white;">#ffae42</text><text x="0" y="2850" font-size="20px" style="fill: black;">0xfd68</text><text x="0" y="2870" font-size="20px" style="fill: white;">0xfd68</text><rect x="210" y="2730" width="200" height="200" rx="20px" ry="20px" style="fill: #ff9608;"></rect><text x="210" y="2770" font-size="20px" style="fill: black;">Yellow Orange (Color Wheel)</text><text x="210" y="2790" font-size="20px" style="fill: white;">Yellow Orange (Color Wheel)</text><text x="210" y="2810" font-size="20px" style="fill: black;">#ff9608</text><text x="210" y="2830" font-size="20px" style="fill: white;">#ff9608</text><text x="210" y="2850" font-size="20px" style="fill: black;">0xfca1</text><text x="210" y="2870" font-size="20px" style="fill: white;">0xfca1</text></svg>