<svg width="1680px" height="420px" xmlns="http://www.w3.org/2000/svg"><rect x="0" y="0" width="200" height="50" style="fill: #c56110;"></rect><text x="0" y="20" font-size="25px" style="fill: black;">Alloy orange</text><text x="0" y="45" font-size="25px" style="fill: white;">Alloy orange</text><rect x="210" y="0" width="200" height="50" style="fill: #ffceb5;"></rect><text x="210" y="20" font-size="25px" style="fill: black;">Apricot</text><text x="210" y="45" font-size="25px" style="fill: white;">Apricot</text><rect x="420" y="0" width="200" height="50" style="fill: #ff9a63;"></rect><text x="420" y="20" font-size="25px" style="fill: black;">Atomic tangerine</text><text x="420" y="45" font-size="25px" style="fill: white;">Atomic tangerine</text><rect x="630" y="0" width="200" height="50" style="fill: #944d00;"></rect><text x="630" y="20" font-size="25px" style="fill: black;">Brown</text><text x="630" y="45" font-size="25px" style="fill: white;">Brown</text><rect x="840" y="0" width="200" height="50" style="fill: #bd5500;"></rect><text x="840" y="20" font-size="25px" style="fill: black;">Burnt orange</text><text x="840" y="45" font-size="25px" style="fill: white;">Burnt orange</text><rect x="1050" y="0" width="200" height="50" style="fill: #de9642;"></rect><text x="1050" y="20" font-size="25px" style="fill: black;">Butterscotch</text><text x="1050" y="45" font-size="25px" style="fill: white;">Butterscotch</text><rect x="1260" y="0" width="200" height="50" style="fill: #ef8629;"></rect><text x="1260" y="20" font-size="25px" style="fill: black;">Cadmium orange</text><text x="1260" y="45" font-size="25px" style="fill: white;">Cadmium orange</text><rect x="1470" y="0" width="200" height="50" style="fill: #ef9221;"></rect><text x="1470" y="20" font-size="25px" style="fill: black;">Carrot orange</text><text x="1470" y="45" font-size="25px" style="fill: white;">Carrot orange</text><rect x="0" y="60" width="200" height="50" style="fill: #ff7d52;"></rect><text x="0" y="80" font-size="25px" style="fill: black;">Coral</text><text x="0" y="105" font-size="25px" style="fill: white;">Coral</text><rect x="210" y="60" width="200" height="50" style="fill: #ff8e00;"></rect><text x="210" y="80" font-size="25px" style="fill: black;">Dark orange</text><text x="210" y="105" font-size="25px" style="fill: white;">Dark orange</text><rect x="420" y="60" width="200" height="50" style="fill: #ff5921;"></rect><text x="420" y="80" font-size="25px" style="fill: black;">Giants orange</text><text x="420" y="105" font-size="25px" style="fill: white;">Giants orange</text><rect x="630" y="60" width="200" height="50" style="fill: #dea621;"></rect><text x="630" y="80" font-size="25px" style="fill: black;">Goldenrod</text><text x="630" y="105" font-size="25px" style="fill: white;">Goldenrod</text><rect x="840" y="60" width="200" height="50" style="fill: #e6aa42;"></rect><text x="840" y="80" font-size="25px" style="fill: black;">Hunyadi yellow</text><text x="840" y="105" font-size="25px" style="fill: white;">Hunyadi yellow</text><rect x="1050" y="60" width="200" height="50" style="fill: #ff5100;"></rect><text x="1050" y="80" font-size="25px" style="fill: black;">International Orange</text><text x="1050" y="105" font-size="25px" style="fill: white;">International Orange</text><rect x="1260" y="60" width="200" height="50" style="fill: #ff5100;"></rect><text x="1260" y="80" font-size="25px" style="fill: black;">International orange (aerospace)</text><text x="1260" y="105" font-size="25px" style="fill: white;">International orange (aerospace)</text><rect x="1470" y="60" width="200" height="50" style="fill: #bd1408;"></rect><text x="1470" y="80" font-size="25px" style="fill: black;">International orange (engineering)</text><text x="1470" y="105" font-size="25px" style="fill: white;">International orange (engineering)</text><rect x="0" y="120" width="200" height="50" style="fill: #bd3529;"></rect><text x="0" y="140" font-size="25px" style="fill: black;">International orange (Golden Gate Bridge)</text><text x="0" y="165" font-size="25px" style="fill: white;">International orange (Golden Gate Bridge)</text><rect x="210" y="120" width="200" height="50" style="fill: #c5ae94;"></rect><text x="210" y="140" font-size="25px" style="fill: black;">Khaki</text><text x="210" y="165" font-size="25px" style="fill: white;">Khaki</text><rect x="420" y="120" width="200" height="50" style="fill: #ffd7b5;"></rect><text x="420" y="140" font-size="25px" style="fill: black;">Light orange</text><text x="420" y="165" font-size="25px" style="fill: white;">Light orange</text><rect x="630" y="120" width="200" height="50" style="fill: #ff7d00;"></rect><text x="630" y="140" font-size="25px" style="fill: black;">Orange</text><text x="630" y="165" font-size="25px" style="fill: white;">Orange</text><rect x="840" y="120" width="200" height="50" style="fill: #ff8200;"></rect><text x="840" y="140" font-size="25px" style="fill: black;">Orange (color wheel)</text><text x="840" y="165" font-size="25px" style="fill: white;">Orange (color wheel)</text><rect x="1050" y="120" width="200" height="50" style="fill: #ff753a;"></rect><text x="1050" y="140" font-size="25px" style="fill: black;">Orange (Crayola)</text><text x="1050" y="165" font-size="25px" style="fill: white;">Orange (Crayola)</text><rect x="1260" y="120" width="200" height="50" style="fill: #e66100;"></rect><text x="1260" y="140" font-size="25px" style="fill: black;">Orange (G&amp;S)</text><text x="1260" y="165" font-size="25px" style="fill: white;">Orange (G&amp;S)</text><rect x="1470" y="120" width="200" height="50" style="fill: #ff5900;"></rect><text x="1470" y="140" font-size="25px" style="fill: black;">Orange (Pantone)</text><text x="1470" y="165" font-size="25px" style="fill: white;">Orange (Pantone)</text><rect x="0" y="180" width="200" height="50" style="fill: #ff9e00;"></rect><text x="0" y="200" font-size="25px" style="fill: black;">Orange peel</text><text x="0" y="225" font-size="25px" style="fill: white;">Orange peel</text><rect x="210" y="180" width="200" height="50" style="fill: #ff6921;"></rect><text x="210" y="200" font-size="25px" style="fill: black;">Orange-red</text><text x="210" y="225" font-size="25px" style="fill: white;">Orange-red</text><rect x="420" y="180" width="200" height="50" style="fill: #ff554a;"></rect><text x="420" y="200" font-size="25px" style="fill: black;">Orange-red (Crayola)</text><text x="420" y="225" font-size="25px" style="fill: white;">Orange-red (Crayola)</text><rect x="630" y="180" width="200" height="50" style="fill: #f7593a;"></rect><text x="630" y="200" font-size="25px" style="fill: black;">Orange soda</text><text x="630" y="225" font-size="25px" style="fill: white;">Orange soda</text><rect x="840" y="180" width="200" height="50" style="fill: #ffa600;"></rect><text x="840" y="200" font-size="25px" style="fill: black;">Orange (web)</text><text x="840" y="225" font-size="25px" style="fill: white;">Orange (web)</text><rect x="1050" y="180" width="200" height="50" style="fill: #ffa600;"></rect><text x="1050" y="200" font-size="25px" style="fill: black;">Orange (web color)</text><text x="1050" y="225" font-size="25px" style="fill: white;">Orange (web color)</text><rect x="1260" y="180" width="200" height="50" style="fill: #f7be21;"></rect><text x="1260" y="200" font-size="25px" style="fill: black;">Orange-yellow</text><text x="1260" y="225" font-size="25px" style="fill: white;">Orange-yellow</text><rect x="1470" y="180" width="200" height="50" style="fill: #f7d76b;"></rect><text x="1470" y="200" font-size="25px" style="fill: black;">Orange-yellow (Crayola)</text><text x="1470" y="225" font-size="25px" style="fill: white;">Orange-yellow (Crayola)</text><rect x="0" y="240" width="200" height="50" style="fill: #ff6d4a;"></rect><text x="0" y="260" font-size="25px" style="fill: black;">Outrageous Orange</text><text x="0" y="285" font-size="25px" style="fill: white;">Outrageous Orange</text><rect x="210" y="240" width="200" height="50" style="fill: #ffefd6;"></rect><text x="210" y="260" font-size="25px" style="fill: black;">Papaya Whip</text><text x="210" y="285" font-size="25px" style="fill: white;">Papaya Whip</text><rect x="420" y="240" width="200" height="50" style="fill: #ffe7b5;"></rect><text x="420" y="260" font-size="25px" style="fill: black;">Peach</text><text x="420" y="285" font-size="25px" style="fill: white;">Peach</text><rect x="630" y="240" width="200" height="50" style="fill: #d6925a;"></rect><text x="630" y="260" font-size="25px" style="fill: black;">Persian orange</text><text x="630" y="285" font-size="25px" style="fill: white;">Persian orange</text><rect x="840" y="240" width="200" height="50" style="fill: #ef5900;"></rect><text x="840" y="260" font-size="25px" style="fill: black;">Persimmon</text><text x="840" y="285" font-size="25px" style="fill: white;">Persimmon</text><rect x="1050" y="240" width="200" height="50" style="fill: #ff593a;"></rect><text x="1050" y="260" font-size="25px" style="fill: black;">Portland Orange</text><text x="1050" y="285" font-size="25px" style="fill: white;">Portland Orange</text><rect x="1260" y="240" width="200" height="50" style="fill: #ef7d29;"></rect><text x="1260" y="260" font-size="25px" style="fill: black;">Princeton orange</text><text x="1260" y="285" font-size="25px" style="fill: white;">Princeton orange</text><rect x="1470" y="240" width="200" height="50" style="fill: #ff7519;"></rect><text x="1470" y="260" font-size="25px" style="fill: black;">Pumpkin</text><text x="1470" y="285" font-size="25px" style="fill: white;">Pumpkin</text><rect x="0" y="300" width="200" height="50" style="fill: #ff554a;"></rect><text x="0" y="320" font-size="25px" style="fill: black;">Red-orange</text><text x="0" y="345" font-size="25px" style="fill: white;">Red-orange</text><rect x="210" y="300" width="200" height="50" style="fill: #ff4500;"></rect><text x="210" y="320" font-size="25px" style="fill: black;">Red-orange (Color wheel)</text><text x="210" y="345" font-size="25px" style="fill: white;">Red-orange (Color wheel)</text><rect x="420" y="300" width="200" height="50" style="fill: #ff6921;"></rect><text x="420" y="320" font-size="25px" style="fill: black;">Red-orange (Crayola)</text><text x="420" y="345" font-size="25px" style="fill: white;">Red-orange (Crayola)</text><rect x="630" y="300" width="200" height="50" style="fill: #ff7900;"></rect><text x="630" y="320" font-size="25px" style="fill: black;">Safety Orange</text><text x="630" y="345" font-size="25px" style="fill: white;">Safety Orange</text><rect x="840" y="300" width="200" height="50" style="fill: #ff6500;"></rect><text x="840" y="320" font-size="25px" style="fill: black;">Safety orange (blaze orange)</text><text x="840" y="345" font-size="25px" style="fill: white;">Safety orange (blaze orange)</text><rect x="1050" y="300" width="200" height="50" style="fill: #f7c231;"></rect><text x="1050" y="320" font-size="25px" style="fill: black;">Saffron</text><text x="1050" y="345" font-size="25px" style="fill: white;">Saffron</text><rect x="1260" y="300" width="200" height="50" style="fill: #e66100;"></rect><text x="1260" y="320" font-size="25px" style="fill: black;">Spanish orange</text><text x="1260" y="345" font-size="25px" style="fill: white;">Spanish orange</text><rect x="1470" y="300" width="200" height="50" style="fill: #ef8600;"></rect><text x="1470" y="320" font-size="25px" style="fill: black;">Tangerine</text><text x="1470" y="345" font-size="25px" style="fill: white;">Tangerine</text><rect x="0" y="360" width="200" height="50" style="fill: #ff4d4a;"></rect><text x="0" y="380" font-size="25px" style="fill: black;">Tart Orange</text><text x="0" y="405" font-size="25px" style="fill: white;">Tart Orange</text><rect x="210" y="360" width="200" height="50" style="fill: #b56919;"></rect><text x="210" y="380" font-size="25px" style="fill: black;">Tiger’s Eye</text><text x="210" y="405" font-size="25px" style="fill: white;">Tiger’s Eye</text><rect x="420" y="360" width="200" height="50" style="fill: #ff8200;"></rect><text x="420" y="380" font-size="25px" style="fill: black;">UT orange</text><text x="420" y="405" font-size="25px" style="fill: white;">UT orange</text><rect x="630" y="360" width="200" height="50" style="fill: #efb231;"></rect><text x="630" y="380" font-size="25px" style="fill: black;">Xanthous</text><text x="630" y="405" font-size="25px" style="fill: white;">Xanthous</text><rect x="840" y="360" width="200" height="50" style="fill: #ffae42;"></rect><text x="840" y="380" font-size="25px" style="fill: black;">Yellow Orange</text><text x="840" y="405" font-size="25px" style="fill: white;">Yellow Orange</text><rect x="1050" y="360" width="200" height="50" style="fill: #ff9608;"></rect><text x="1050" y="380" font-size="25px" style="fill: black;">Yellow Orange (Color Wheel)</text><text x="1050" y="405" font-size="25px" style="fill: white;">Yellow Orange (Color Wheel)</text></svg>