<svg width="1680px" height="480px" xmlns="http://www.w3.org/2000/svg"><rect x="0" y="0" width="200" height="50" style="fill: #ef9ebd;"></rect><text x="0" y="20" font-size="25px" style="fill: black;">Amaranth Pink</text><text x="0" y="45" font-size="25px" style="fill: white;">Amaranth Pink</text><rect x="210" y="0" width="200" height="50" style="fill: #f7c2c5;"></rect><text x="210" y="20" font-size="25px" style="fill: black;">Baby Pink</text><text x="210" y="45" font-size="25px" style="fill: white;">Baby Pink</text><rect x="420" y="0" width="200" height="50" style="fill: #ff92ad;"></rect><text x="420" y="20" font-size="25px" style="fill: black;">Baker-Miller Pink</text><text x="420" y="45" font-size="25px" style="fill: white;">Baker-Miller Pink</text><rect x="630" y="0" width="200" height="50" style="fill: #de1884;"></rect><text x="630" y="20" font-size="25px" style="fill: black;">Barbie pink</text><text x="630" y="45" font-size="25px" style="fill: white;">Barbie pink</text><rect x="840" y="0" width="200" height="50" style="fill: #ff617b;"></rect><text x="840" y="20" font-size="25px" style="fill: black;">Brink Pink</text><text x="840" y="45" font-size="25px" style="fill: white;">Brink Pink</text><rect x="1050" y="0" width="200" height="50" style="fill: #f78294;"></rect><text x="1050" y="20" font-size="25px" style="fill: black;">Bubblegum Pink</text><text x="1050" y="45" font-size="25px" style="fill: white;">Bubblegum Pink</text><rect x="1260" y="0" width="200" height="50" style="fill: #efbace;"></rect><text x="1260" y="20" font-size="25px" style="fill: black;">Cameo Pink</text><text x="1260" y="45" font-size="25px" style="fill: white;">Cameo Pink</text><rect x="1470" y="0" width="200" height="50" style="fill: #e6717b;"></rect><text x="1470" y="20" font-size="25px" style="fill: black;">Candy pink</text><text x="1470" y="45" font-size="25px" style="fill: white;">Candy pink</text><rect x="0" y="60" width="200" height="50" style="fill: #ffa6c5;"></rect><text x="0" y="80" font-size="25px" style="fill: black;">Carnation Pink</text><text x="0" y="105" font-size="25px" style="fill: white;">Carnation Pink</text><rect x="210" y="60" width="200" height="50" style="fill: #efdfce;"></rect><text x="210" y="80" font-size="25px" style="fill: black;">Champagne Pink</text><text x="210" y="105" font-size="25px" style="fill: white;">Champagne Pink</text><rect x="420" y="60" width="200" height="50" style="fill: #e68ead;"></rect><text x="420" y="80" font-size="25px" style="fill: black;">Charm Pink</text><text x="420" y="105" font-size="25px" style="fill: white;">Charm Pink</text><rect x="630" y="60" width="200" height="50" style="fill: #ffb6c5;"></rect><text x="630" y="80" font-size="25px" style="fill: black;">Cherry Blossom Pink</text><text x="630" y="105" font-size="25px" style="fill: white;">Cherry Blossom Pink</text><rect x="840" y="60" width="200" height="50" style="fill: #e6c2bd;"></rect><text x="840" y="80" font-size="25px" style="fill: black;">Chilean Pink</text><text x="840" y="105" font-size="25px" style="fill: white;">Chilean Pink</text><rect x="1050" y="60" width="200" height="50" style="fill: #de6da5;"></rect><text x="1050" y="80" font-size="25px" style="fill: black;">China Pink</text><text x="1050" y="105" font-size="25px" style="fill: white;">China Pink</text><rect x="1260" y="60" width="200" height="50" style="fill: #f7827b;"></rect><text x="1260" y="80" font-size="25px" style="fill: black;">Congo Pink</text><text x="1260" y="105" font-size="25px" style="fill: white;">Congo Pink</text><rect x="1470" y="60" width="200" height="50" style="fill: #f7827b;"></rect><text x="1470" y="80" font-size="25px" style="fill: black;">Coral Pink</text><text x="1470" y="105" font-size="25px" style="fill: white;">Coral Pink</text><rect x="0" y="120" width="200" height="50" style="fill: #ffbad6;"></rect><text x="0" y="140" font-size="25px" style="fill: black;">Cotton Candy</text><text x="0" y="165" font-size="25px" style="fill: white;">Cotton Candy</text><rect x="210" y="120" width="200" height="50" style="fill: #ff1494;"></rect><text x="210" y="140" font-size="25px" style="fill: black;">Deep Pink</text><text x="210" y="165" font-size="25px" style="fill: white;">Deep Pink</text><rect x="420" y="120" width="200" height="50" style="fill: #efc2ce;"></rect><text x="420" y="140" font-size="25px" style="fill: black;">Fairy Tale</text><text x="420" y="165" font-size="25px" style="fill: white;">Fairy Tale</text><rect x="630" y="120" width="200" height="50" style="fill: #de5184;"></rect><text x="630" y="140" font-size="25px" style="fill: black;">Fandango Pink</text><text x="630" y="165" font-size="25px" style="fill: white;">Fandango Pink</text><rect x="840" y="120" width="200" height="50" style="fill: #ff6d9c;"></rect><text x="840" y="140" font-size="25px" style="fill: black;">French Pink</text><text x="840" y="165" font-size="25px" style="fill: white;">French Pink</text><rect x="1050" y="120" width="200" height="50" style="fill: #ff69b5;"></rect><text x="1050" y="140" font-size="25px" style="fill: black;">Hot Pink</text><text x="1050" y="165" font-size="25px" style="fill: white;">Hot Pink</text><rect x="1260" y="120" width="200" height="50" style="fill: #ffaed6;"></rect><text x="1260" y="140" font-size="25px" style="fill: black;">Lavender pink</text><text x="1260" y="165" font-size="25px" style="fill: white;">Lavender pink</text><rect x="1470" y="120" width="200" height="50" style="fill: #ff5dce;"></rect><text x="1470" y="140" font-size="25px" style="fill: black;">Light Deep Pink</text><text x="1470" y="165" font-size="25px" style="fill: white;">Light Deep Pink</text><rect x="0" y="180" width="200" height="50" style="fill: #ffb2de;"></rect><text x="0" y="200" font-size="25px" style="fill: black;">Light Hot Pink</text><text x="0" y="225" font-size="25px" style="fill: white;">Light Hot Pink</text><rect x="210" y="180" width="200" height="50" style="fill: #ffb6bd;"></rect><text x="210" y="200" font-size="25px" style="fill: black;">Light Pink</text><text x="210" y="225" font-size="25px" style="fill: white;">Light Pink</text><rect x="420" y="180" width="200" height="50" style="fill: #e6007b;"></rect><text x="420" y="200" font-size="25px" style="fill: black;">Mexican pink</text><text x="420" y="225" font-size="25px" style="fill: white;">Mexican pink</text><rect x="630" y="180" width="200" height="50" style="fill: #ffdbe6;"></rect><text x="630" y="200" font-size="25px" style="fill: black;">Mimi Pink</text><text x="630" y="225" font-size="25px" style="fill: white;">Mimi Pink</text><rect x="840" y="180" width="200" height="50" style="fill: #9c798c;"></rect><text x="840" y="200" font-size="25px" style="fill: black;">Mountbatten pink</text><text x="840" y="225" font-size="25px" style="fill: white;">Mountbatten pink</text><rect x="1050" y="180" width="200" height="50" style="fill: #f7aec5;"></rect><text x="1050" y="200" font-size="25px" style="fill: black;">Nadeshiko pink</text><text x="1050" y="225" font-size="25px" style="fill: white;">Nadeshiko pink</text><rect x="1260" y="180" width="200" height="50" style="fill: #d6827b;"></rect><text x="1260" y="200" font-size="25px" style="fill: black;">New York Pink</text><text x="1260" y="225" font-size="25px" style="fill: white;">New York Pink</text><rect x="1470" y="180" width="200" height="50" style="fill: #efbece;"></rect><text x="1470" y="200" font-size="25px" style="fill: black;">Orchid Pink</text><text x="1470" y="225" font-size="25px" style="fill: white;">Orchid Pink</text><rect x="0" y="240" width="200" height="50" style="fill: #efcec5;"></rect><text x="0" y="260" font-size="25px" style="fill: black;">Pale Dogwood</text><text x="0" y="285" font-size="25px" style="fill: white;">Pale Dogwood</text><rect x="210" y="240" width="200" height="50" style="fill: #f7cace;"></rect><text x="210" y="260" font-size="25px" style="fill: black;">Pale Pink</text><text x="210" y="285" font-size="25px" style="fill: white;">Pale Pink</text><rect x="420" y="240" width="200" height="50" style="fill: #e63d63;"></rect><text x="420" y="260" font-size="25px" style="fill: black;">Paradise Pink</text><text x="420" y="285" font-size="25px" style="fill: white;">Paradise Pink</text><rect x="630" y="240" width="200" height="50" style="fill: #dea6a5;"></rect><text x="630" y="260" font-size="25px" style="fill: black;">Pastel Pink</text><text x="630" y="285" font-size="25px" style="fill: white;">Pastel Pink</text><rect x="840" y="240" width="200" height="50" style="fill: #f77dbd;"></rect><text x="840" y="260" font-size="25px" style="fill: black;">Persian Pink</text><text x="840" y="285" font-size="25px" style="fill: white;">Persian Pink</text><rect x="1050" y="240" width="200" height="50" style="fill: #ffdfe6;"></rect><text x="1050" y="260" font-size="25px" style="fill: black;">Piggy Pink</text><text x="1050" y="285" font-size="25px" style="fill: white;">Piggy Pink</text><rect x="1260" y="240" width="200" height="50" style="fill: #ffbece;"></rect><text x="1260" y="260" font-size="25px" style="fill: black;">Pink</text><text x="1260" y="285" font-size="25px" style="fill: white;">Pink</text><rect x="1470" y="240" width="200" height="50" style="fill: #ff75ff;"></rect><text x="1470" y="260" font-size="25px" style="fill: black;">Pink flamingo</text><text x="1470" y="285" font-size="25px" style="fill: white;">Pink flamingo</text><rect x="0" y="300" width="200" height="50" style="fill: #f7bebd;"></rect><text x="0" y="320" font-size="25px" style="fill: black;">Pink (G&amp;S)</text><text x="0" y="345" font-size="25px" style="fill: white;">Pink (G&amp;S)</text><rect x="210" y="300" width="200" height="50" style="fill: #ffdff7;"></rect><text x="210" y="320" font-size="25px" style="fill: black;">Pink Lace</text><text x="210" y="345" font-size="25px" style="fill: white;">Pink Lace</text><rect x="420" y="300" width="200" height="50" style="fill: #deb2ce;"></rect><text x="420" y="320" font-size="25px" style="fill: black;">Pink Lavender</text><text x="420" y="345" font-size="25px" style="fill: white;">Pink Lavender</text><rect x="630" y="300" width="200" height="50" style="fill: #d64994;"></rect><text x="630" y="320" font-size="25px" style="fill: black;">Pink (Pantone)</text><text x="630" y="345" font-size="25px" style="fill: white;">Pink (Pantone)</text><rect x="840" y="300" width="200" height="50" style="fill: #f78ea5;"></rect><text x="840" y="320" font-size="25px" style="fill: black;">Pink Sherbet</text><text x="840" y="345" font-size="25px" style="fill: white;">Pink Sherbet</text><rect x="1050" y="300" width="200" height="50" style="fill: #e6cad6;"></rect><text x="1050" y="320" font-size="25px" style="fill: black;">Queen Pink</text><text x="1050" y="345" font-size="25px" style="fill: white;">Queen Pink</text><rect x="1260" y="300" width="200" height="50" style="fill: #ff65ce;"></rect><text x="1260" y="320" font-size="25px" style="fill: black;">Rose pink</text><text x="1260" y="345" font-size="25px" style="fill: white;">Rose pink</text><rect x="1470" y="300" width="200" height="50" style="fill: #ef799c;"></rect><text x="1470" y="320" font-size="25px" style="fill: black;">Rose Pompadour</text><text x="1470" y="345" font-size="25px" style="fill: white;">Rose Pompadour</text><rect x="0" y="360" width="200" height="50" style="fill: #ff92ad;"></rect><text x="0" y="380" font-size="25px" style="fill: black;">Schauss pink</text><text x="0" y="405" font-size="25px" style="fill: white;">Schauss pink</text><rect x="210" y="360" width="200" height="50" style="fill: #ff10bd;"></rect><text x="210" y="380" font-size="25px" style="fill: black;">Shocking Pink</text><text x="210" y="405" font-size="25px" style="fill: white;">Shocking Pink</text><rect x="420" y="360" width="200" height="50" style="fill: #ff6dff;"></rect><text x="420" y="380" font-size="25px" style="fill: black;">Shocking pink (Crayola)</text><text x="420" y="405" font-size="25px" style="fill: white;">Shocking pink (Crayola)</text><rect x="630" y="360" width="200" height="50" style="fill: #c5aead;"></rect><text x="630" y="380" font-size="25px" style="fill: black;">Silver Pink</text><text x="630" y="405" font-size="25px" style="fill: white;">Silver Pink</text><rect x="840" y="360" width="200" height="50" style="fill: #8c3942;"></rect><text x="840" y="380" font-size="25px" style="fill: black;">Solid Pink</text><text x="840" y="405" font-size="25px" style="fill: white;">Solid Pink</text><rect x="1050" y="360" width="200" height="50" style="fill: #f7bebd;"></rect><text x="1050" y="380" font-size="25px" style="fill: black;">Spanish pink</text><text x="1050" y="405" font-size="25px" style="fill: white;">Spanish pink</text><rect x="1260" y="360" width="200" height="50" style="fill: #ce35ce;"></rect><text x="1260" y="380" font-size="25px" style="fill: black;">Steel Pink</text><text x="1260" y="405" font-size="25px" style="fill: white;">Steel Pink</text><rect x="1470" y="360" width="200" height="50" style="fill: #ce69ad;"></rect><text x="1470" y="380" font-size="25px" style="fill: black;">Super Pink</text><text x="1470" y="405" font-size="25px" style="fill: white;">Super Pink</text><rect x="0" y="420" width="200" height="50" style="fill: #e6717b;"></rect><text x="0" y="440" font-size="25px" style="fill: black;">Tango Pink</text><text x="0" y="465" font-size="25px" style="fill: white;">Tango Pink</text><rect x="210" y="420" width="200" height="50" style="fill: #de6da5;"></rect><text x="210" y="440" font-size="25px" style="fill: black;">Thulian pink</text><text x="210" y="465" font-size="25px" style="fill: white;">Thulian pink</text><rect x="420" y="420" width="200" height="50" style="fill: #ff8aad;"></rect><text x="420" y="440" font-size="25px" style="fill: black;">Tickle Me Pink</text><text x="420" y="465" font-size="25px" style="fill: white;">Tickle Me Pink</text><rect x="630" y="420" width="200" height="50" style="fill: #ff6dff;"></rect><text x="630" y="440" font-size="25px" style="fill: black;">Ultra Pink</text><text x="630" y="465" font-size="25px" style="fill: white;">Ultra Pink</text></svg>