<svg width="840px" height="3150px" xmlns="http://www.w3.org/2000/svg"><rect x="0" y="0" width="200" height="200" rx="20px" ry="20px" style="fill: #ef9ebd;"></rect><text x="0" y="40" font-size="20px" style="fill: black;">Amaranth Pink</text><text x="0" y="60" font-size="20px" style="fill: white;">Amaranth Pink</text><text x="0" y="80" font-size="20px" style="fill: black;">#ef9ebd</text><text x="0" y="100" font-size="20px" style="fill: white;">#ef9ebd</text><text x="0" y="120" font-size="20px" style="fill: black;">0xecf7</text><text x="0" y="140" font-size="20px" style="fill: white;">0xecf7</text><rect x="210" y="0" width="200" height="200" rx="20px" ry="20px" style="fill: #f7c2c5;"></rect><text x="210" y="40" font-size="20px" style="fill: black;">Baby Pink</text><text x="210" y="60" font-size="20px" style="fill: white;">Baby Pink</text><text x="210" y="80" font-size="20px" style="fill: black;">#f7c2c5</text><text x="210" y="100" font-size="20px" style="fill: white;">#f7c2c5</text><text x="210" y="120" font-size="20px" style="fill: black;">0xf618</text><text x="210" y="140" font-size="20px" style="fill: white;">0xf618</text><rect x="420" y="0" width="200" height="200" rx="20px" ry="20px" style="fill: #ff92ad;"></rect><text x="420" y="40" font-size="20px" style="fill: black;">Baker-Miller Pink</text><text x="420" y="60" font-size="20px" style="fill: white;">Baker-Miller Pink</text><text x="420" y="80" font-size="20px" style="fill: black;">#ff92ad</text><text x="420" y="100" font-size="20px" style="fill: white;">#ff92ad</text><text x="420" y="120" font-size="20px" style="fill: black;">0xfc95</text><text x="420" y="140" font-size="20px" style="fill: white;">0xfc95</text><rect x="630" y="0" width="200" height="200" rx="20px" ry="20px" style="fill: #de1884;"></rect><text x="630" y="40" font-size="20px" style="fill: black;">Barbie pink</text><text x="630" y="60" font-size="20px" style="fill: white;">Barbie pink</text><text x="630" y="80" font-size="20px" style="fill: black;">#de1884</text><text x="630" y="100" font-size="20px" style="fill: white;">#de1884</text><text x="630" y="120" font-size="20px" style="fill: black;">0xd8d0</text><text x="630" y="140" font-size="20px" style="fill: white;">0xd8d0</text><rect x="0" y="210" width="200" height="200" rx="20px" ry="20px" style="fill: #ff617b;"></rect><text x="0" y="250" font-size="20px" style="fill: black;">Brink Pink</text><text x="0" y="270" font-size="20px" style="fill: white;">Brink Pink</text><text x="0" y="290" font-size="20px" style="fill: black;">#ff617b</text><text x="0" y="310" font-size="20px" style="fill: white;">#ff617b</text><text x="0" y="330" font-size="20px" style="fill: black;">0xfb0f</text><text x="0" y="350" font-size="20px" style="fill: white;">0xfb0f</text><rect x="210" y="210" width="200" height="200" rx="20px" ry="20px" style="fill: #f78294;"></rect><text x="210" y="250" font-size="20px" style="fill: black;">Bubblegum Pink</text><text x="210" y="270" font-size="20px" style="fill: white;">Bubblegum Pink</text><text x="210" y="290" font-size="20px" style="fill: black;">#f78294</text><text x="210" y="310" font-size="20px" style="fill: white;">#f78294</text><text x="210" y="330" font-size="20px" style="fill: black;">0xf412</text><text x="210" y="350" font-size="20px" style="fill: white;">0xf412</text><rect x="420" y="210" width="200" height="200" rx="20px" ry="20px" style="fill: #efbace;"></rect><text x="420" y="250" font-size="20px" style="fill: black;">Cameo Pink</text><text x="420" y="270" font-size="20px" style="fill: white;">Cameo Pink</text><text x="420" y="290" font-size="20px" style="fill: black;">#efbace</text><text x="420" y="310" font-size="20px" style="fill: white;">#efbace</text><text x="420" y="330" font-size="20px" style="fill: black;">0xedd9</text><text x="420" y="350" font-size="20px" style="fill: white;">0xedd9</text><rect x="630" y="210" width="200" height="200" rx="20px" ry="20px" style="fill: #e6717b;"></rect><text x="630" y="250" font-size="20px" style="fill: black;">Candy pink</text><text x="630" y="270" font-size="20px" style="fill: white;">Candy pink</text><text x="630" y="290" font-size="20px" style="fill: black;">#e6717b</text><text x="630" y="310" font-size="20px" style="fill: white;">#e6717b</text><text x="630" y="330" font-size="20px" style="fill: black;">0xe38f</text><text x="630" y="350" font-size="20px" style="fill: white;">0xe38f</text><rect x="0" y="420" width="200" height="200" rx="20px" ry="20px" style="fill: #ffa6c5;"></rect><text x="0" y="460" font-size="20px" style="fill: black;">Carnation Pink</text><text x="0" y="480" font-size="20px" style="fill: white;">Carnation Pink</text><text x="0" y="500" font-size="20px" style="fill: black;">#ffa6c5</text><text x="0" y="520" font-size="20px" style="fill: white;">#ffa6c5</text><text x="0" y="540" font-size="20px" style="fill: black;">0xfd38</text><text x="0" y="560" font-size="20px" style="fill: white;">0xfd38</text><rect x="210" y="420" width="200" height="200" rx="20px" ry="20px" style="fill: #efdfce;"></rect><text x="210" y="460" font-size="20px" style="fill: black;">Champagne Pink</text><text x="210" y="480" font-size="20px" style="fill: white;">Champagne Pink</text><text x="210" y="500" font-size="20px" style="fill: black;">#efdfce</text><text x="210" y="520" font-size="20px" style="fill: white;">#efdfce</text><text x="210" y="540" font-size="20px" style="fill: black;">0xeef9</text><text x="210" y="560" font-size="20px" style="fill: white;">0xeef9</text><rect x="420" y="420" width="200" height="200" rx="20px" ry="20px" style="fill: #e68ead;"></rect><text x="420" y="460" font-size="20px" style="fill: black;">Charm Pink</text><text x="420" y="480" font-size="20px" style="fill: white;">Charm Pink</text><text x="420" y="500" font-size="20px" style="fill: black;">#e68ead</text><text x="420" y="520" font-size="20px" style="fill: white;">#e68ead</text><text x="420" y="540" font-size="20px" style="fill: black;">0xe475</text><text x="420" y="560" font-size="20px" style="fill: white;">0xe475</text><rect x="630" y="420" width="200" height="200" rx="20px" ry="20px" style="fill: #ffb6c5;"></rect><text x="630" y="460" font-size="20px" style="fill: black;">Cherry Blossom Pink</text><text x="630" y="480" font-size="20px" style="fill: white;">Cherry Blossom Pink</text><text x="630" y="500" font-size="20px" style="fill: black;">#ffb6c5</text><text x="630" y="520" font-size="20px" style="fill: white;">#ffb6c5</text><text x="630" y="540" font-size="20px" style="fill: black;">0xfdb8</text><text x="630" y="560" font-size="20px" style="fill: white;">0xfdb8</text><rect x="0" y="630" width="200" height="200" rx="20px" ry="20px" style="fill: #e6c2bd;"></rect><text x="0" y="670" font-size="20px" style="fill: black;">Chilean Pink</text><text x="0" y="690" font-size="20px" style="fill: white;">Chilean Pink</text><text x="0" y="710" font-size="20px" style="fill: black;">#e6c2bd</text><text x="0" y="730" font-size="20px" style="fill: white;">#e6c2bd</text><text x="0" y="750" font-size="20px" style="fill: black;">0xe617</text><text x="0" y="770" font-size="20px" style="fill: white;">0xe617</text><rect x="210" y="630" width="200" height="200" rx="20px" ry="20px" style="fill: #de6da5;"></rect><text x="210" y="670" font-size="20px" style="fill: black;">China Pink</text><text x="210" y="690" font-size="20px" style="fill: white;">China Pink</text><text x="210" y="710" font-size="20px" style="fill: black;">#de6da5</text><text x="210" y="730" font-size="20px" style="fill: white;">#de6da5</text><text x="210" y="750" font-size="20px" style="fill: black;">0xdb74</text><text x="210" y="770" font-size="20px" style="fill: white;">0xdb74</text><rect x="420" y="630" width="200" height="200" rx="20px" ry="20px" style="fill: #f7827b;"></rect><text x="420" y="670" font-size="20px" style="fill: black;">Congo Pink</text><text x="420" y="690" font-size="20px" style="fill: white;">Congo Pink</text><text x="420" y="710" font-size="20px" style="fill: black;">#f7827b</text><text x="420" y="730" font-size="20px" style="fill: white;">#f7827b</text><text x="420" y="750" font-size="20px" style="fill: black;">0xf40f</text><text x="420" y="770" font-size="20px" style="fill: white;">0xf40f</text><rect x="630" y="630" width="200" height="200" rx="20px" ry="20px" style="fill: #f7827b;"></rect><text x="630" y="670" font-size="20px" style="fill: black;">Coral Pink</text><text x="630" y="690" font-size="20px" style="fill: white;">Coral Pink</text><text x="630" y="710" font-size="20px" style="fill: black;">#f7827b</text><text x="630" y="730" font-size="20px" style="fill: white;">#f7827b</text><text x="630" y="750" font-size="20px" style="fill: black;">0xf40f</text><text x="630" y="770" font-size="20px" style="fill: white;">0xf40f</text><rect x="0" y="840" width="200" height="200" rx="20px" ry="20px" style="fill: #ffbad6;"></rect><text x="0" y="880" font-size="20px" style="fill: black;">Cotton Candy</text><text x="0" y="900" font-size="20px" style="fill: white;">Cotton Candy</text><text x="0" y="920" font-size="20px" style="fill: black;">#ffbad6</text><text x="0" y="940" font-size="20px" style="fill: white;">#ffbad6</text><text x="0" y="960" font-size="20px" style="fill: black;">0xfdda</text><text x="0" y="980" font-size="20px" style="fill: white;">0xfdda</text><rect x="210" y="840" width="200" height="200" rx="20px" ry="20px" style="fill: #ff1494;"></rect><text x="210" y="880" font-size="20px" style="fill: black;">Deep Pink</text><text x="210" y="900" font-size="20px" style="fill: white;">Deep Pink</text><text x="210" y="920" font-size="20px" style="fill: black;">#ff1494</text><text x="210" y="940" font-size="20px" style="fill: white;">#ff1494</text><text x="210" y="960" font-size="20px" style="fill: black;">0xf8b2</text><text x="210" y="980" font-size="20px" style="fill: white;">0xf8b2</text><rect x="420" y="840" width="200" height="200" rx="20px" ry="20px" style="fill: #efc2ce;"></rect><text x="420" y="880" font-size="20px" style="fill: black;">Fairy Tale</text><text x="420" y="900" font-size="20px" style="fill: white;">Fairy Tale</text><text x="420" y="920" font-size="20px" style="fill: black;">#efc2ce</text><text x="420" y="940" font-size="20px" style="fill: white;">#efc2ce</text><text x="420" y="960" font-size="20px" style="fill: black;">0xee19</text><text x="420" y="980" font-size="20px" style="fill: white;">0xee19</text><rect x="630" y="840" width="200" height="200" rx="20px" ry="20px" style="fill: #de5184;"></rect><text x="630" y="880" font-size="20px" style="fill: black;">Fandango Pink</text><text x="630" y="900" font-size="20px" style="fill: white;">Fandango Pink</text><text x="630" y="920" font-size="20px" style="fill: black;">#de5184</text><text x="630" y="940" font-size="20px" style="fill: white;">#de5184</text><text x="630" y="960" font-size="20px" style="fill: black;">0xda90</text><text x="630" y="980" font-size="20px" style="fill: white;">0xda90</text><rect x="0" y="1050" width="200" height="200" rx="20px" ry="20px" style="fill: #ff6d9c;"></rect><text x="0" y="1090" font-size="20px" style="fill: black;">French Pink</text><text x="0" y="1110" font-size="20px" style="fill: white;">French Pink</text><text x="0" y="1130" font-size="20px" style="fill: black;">#ff6d9c</text><text x="0" y="1150" font-size="20px" style="fill: white;">#ff6d9c</text><text x="0" y="1170" font-size="20px" style="fill: black;">0xfb73</text><text x="0" y="1190" font-size="20px" style="fill: white;">0xfb73</text><rect x="210" y="1050" width="200" height="200" rx="20px" ry="20px" style="fill: #ff69b5;"></rect><text x="210" y="1090" font-size="20px" style="fill: black;">Hot Pink</text><text x="210" y="1110" font-size="20px" style="fill: white;">Hot Pink</text><text x="210" y="1130" font-size="20px" style="fill: black;">#ff69b5</text><text x="210" y="1150" font-size="20px" style="fill: white;">#ff69b5</text><text x="210" y="1170" font-size="20px" style="fill: black;">0xfb56</text><text x="210" y="1190" font-size="20px" style="fill: white;">0xfb56</text><rect x="420" y="1050" width="200" height="200" rx="20px" ry="20px" style="fill: #ffaed6;"></rect><text x="420" y="1090" font-size="20px" style="fill: black;">Lavender pink</text><text x="420" y="1110" font-size="20px" style="fill: white;">Lavender pink</text><text x="420" y="1130" font-size="20px" style="fill: black;">#ffaed6</text><text x="420" y="1150" font-size="20px" style="fill: white;">#ffaed6</text><text x="420" y="1170" font-size="20px" style="fill: black;">0xfd7a</text><text x="420" y="1190" font-size="20px" style="fill: white;">0xfd7a</text><rect x="630" y="1050" width="200" height="200" rx="20px" ry="20px" style="fill: #ff5dce;"></rect><text x="630" y="1090" font-size="20px" style="fill: black;">Light Deep Pink</text><text x="630" y="1110" font-size="20px" style="fill: white;">Light Deep Pink</text><text x="630" y="1130" font-size="20px" style="fill: black;">#ff5dce</text><text x="630" y="1150" font-size="20px" style="fill: white;">#ff5dce</text><text x="630" y="1170" font-size="20px" style="fill: black;">0xfaf9</text><text x="630" y="1190" font-size="20px" style="fill: white;">0xfaf9</text><rect x="0" y="1260" width="200" height="200" rx="20px" ry="20px" style="fill: #ffb2de;"></rect><text x="0" y="1300" font-size="20px" style="fill: black;">Light Hot Pink</text><text x="0" y="1320" font-size="20px" style="fill: white;">Light Hot Pink</text><text x="0" y="1340" font-size="20px" style="fill: black;">#ffb2de</text><text x="0" y="1360" font-size="20px" style="fill: white;">#ffb2de</text><text x="0" y="1380" font-size="20px" style="fill: black;">0xfd9b</text><text x="0" y="1400" font-size="20px" style="fill: white;">0xfd9b</text><rect x="210" y="1260" width="200" height="200" rx="20px" ry="20px" style="fill: #ffb6bd;"></rect><text x="210" y="1300" font-size="20px" style="fill: black;">Light Pink</text><text x="210" y="1320" font-size="20px" style="fill: white;">Light Pink</text><text x="210" y="1340" font-size="20px" style="fill: black;">#ffb6bd</text><text x="210" y="1360" font-size="20px" style="fill: white;">#ffb6bd</text><text x="210" y="1380" font-size="20px" style="fill: black;">0xfdb7</text><text x="210" y="1400" font-size="20px" style="fill: white;">0xfdb7</text><rect x="420" y="1260" width="200" height="200" rx="20px" ry="20px" style="fill: #e6007b;"></rect><text x="420" y="1300" font-size="20px" style="fill: black;">Mexican pink</text><text x="420" y="1320" font-size="20px" style="fill: white;">Mexican pink</text><text x="420" y="1340" font-size="20px" style="fill: black;">#e6007b</text><text x="420" y="1360" font-size="20px" style="fill: white;">#e6007b</text><text x="420" y="1380" font-size="20px" style="fill: black;">0xe00f</text><text x="420" y="1400" font-size="20px" style="fill: white;">0xe00f</text><rect x="630" y="1260" width="200" height="200" rx="20px" ry="20px" style="fill: #ffdbe6;"></rect><text x="630" y="1300" font-size="20px" style="fill: black;">Mimi Pink</text><text x="630" y="1320" font-size="20px" style="fill: white;">Mimi Pink</text><text x="630" y="1340" font-size="20px" style="fill: black;">#ffdbe6</text><text x="630" y="1360" font-size="20px" style="fill: white;">#ffdbe6</text><text x="630" y="1380" font-size="20px" style="fill: black;">0xfedc</text><text x="630" y="1400" font-size="20px" style="fill: white;">0xfedc</text><rect x="0" y="1470" width="200" height="200" rx="20px" ry="20px" style="fill: #9c798c;"></rect><text x="0" y="1510" font-size="20px" style="fill: black;">Mountbatten pink</text><text x="0" y="1530" font-size="20px" style="fill: white;">Mountbatten pink</text><text x="0" y="1550" font-size="20px" style="fill: black;">#9c798c</text><text x="0" y="1570" font-size="20px" style="fill: white;">#9c798c</text><text x="0" y="1590" font-size="20px" style="fill: black;">0x9bd1</text><text x="0" y="1610" font-size="20px" style="fill: white;">0x9bd1</text><rect x="210" y="1470" width="200" height="200" rx="20px" ry="20px" style="fill: #f7aec5;"></rect><text x="210" y="1510" font-size="20px" style="fill: black;">Nadeshiko pink</text><text x="210" y="1530" font-size="20px" style="fill: white;">Nadeshiko pink</text><text x="210" y="1550" font-size="20px" style="fill: black;">#f7aec5</text><text x="210" y="1570" font-size="20px" style="fill: white;">#f7aec5</text><text x="210" y="1590" font-size="20px" style="fill: black;">0xf578</text><text x="210" y="1610" font-size="20px" style="fill: white;">0xf578</text><rect x="420" y="1470" width="200" height="200" rx="20px" ry="20px" style="fill: #d6827b;"></rect><text x="420" y="1510" font-size="20px" style="fill: black;">New York Pink</text><text x="420" y="1530" font-size="20px" style="fill: white;">New York Pink</text><text x="420" y="1550" font-size="20px" style="fill: black;">#d6827b</text><text x="420" y="1570" font-size="20px" style="fill: white;">#d6827b</text><text x="420" y="1590" font-size="20px" style="fill: black;">0xd40f</text><text x="420" y="1610" font-size="20px" style="fill: white;">0xd40f</text><rect x="630" y="1470" width="200" height="200" rx="20px" ry="20px" style="fill: #efbece;"></rect><text x="630" y="1510" font-size="20px" style="fill: black;">Orchid Pink</text><text x="630" y="1530" font-size="20px" style="fill: white;">Orchid Pink</text><text x="630" y="1550" font-size="20px" style="fill: black;">#efbece</text><text x="630" y="1570" font-size="20px" style="fill: white;">#efbece</text><text x="630" y="1590" font-size="20px" style="fill: black;">0xedf9</text><text x="630" y="1610" font-size="20px" style="fill: white;">0xedf9</text><rect x="0" y="1680" width="200" height="200" rx="20px" ry="20px" style="fill: #efcec5;"></rect><text x="0" y="1720" font-size="20px" style="fill: black;">Pale Dogwood</text><text x="0" y="1740" font-size="20px" style="fill: white;">Pale Dogwood</text><text x="0" y="1760" font-size="20px" style="fill: black;">#efcec5</text><text x="0" y="1780" font-size="20px" style="fill: white;">#efcec5</text><text x="0" y="1800" font-size="20px" style="fill: black;">0xee78</text><text x="0" y="1820" font-size="20px" style="fill: white;">0xee78</text><rect x="210" y="1680" width="200" height="200" rx="20px" ry="20px" style="fill: #f7cace;"></rect><text x="210" y="1720" font-size="20px" style="fill: black;">Pale Pink</text><text x="210" y="1740" font-size="20px" style="fill: white;">Pale Pink</text><text x="210" y="1760" font-size="20px" style="fill: black;">#f7cace</text><text x="210" y="1780" font-size="20px" style="fill: white;">#f7cace</text><text x="210" y="1800" font-size="20px" style="fill: black;">0xf659</text><text x="210" y="1820" font-size="20px" style="fill: white;">0xf659</text><rect x="420" y="1680" width="200" height="200" rx="20px" ry="20px" style="fill: #e63d63;"></rect><text x="420" y="1720" font-size="20px" style="fill: black;">Paradise Pink</text><text x="420" y="1740" font-size="20px" style="fill: white;">Paradise Pink</text><text x="420" y="1760" font-size="20px" style="fill: black;">#e63d63</text><text x="420" y="1780" font-size="20px" style="fill: white;">#e63d63</text><text x="420" y="1800" font-size="20px" style="fill: black;">0xe1ec</text><text x="420" y="1820" font-size="20px" style="fill: white;">0xe1ec</text><rect x="630" y="1680" width="200" height="200" rx="20px" ry="20px" style="fill: #dea6a5;"></rect><text x="630" y="1720" font-size="20px" style="fill: black;">Pastel Pink</text><text x="630" y="1740" font-size="20px" style="fill: white;">Pastel Pink</text><text x="630" y="1760" font-size="20px" style="fill: black;">#dea6a5</text><text x="630" y="1780" font-size="20px" style="fill: white;">#dea6a5</text><text x="630" y="1800" font-size="20px" style="fill: black;">0xdd34</text><text x="630" y="1820" font-size="20px" style="fill: white;">0xdd34</text><rect x="0" y="1890" width="200" height="200" rx="20px" ry="20px" style="fill: #f77dbd;"></rect><text x="0" y="1930" font-size="20px" style="fill: black;">Persian Pink</text><text x="0" y="1950" font-size="20px" style="fill: white;">Persian Pink</text><text x="0" y="1970" font-size="20px" style="fill: black;">#f77dbd</text><text x="0" y="1990" font-size="20px" style="fill: white;">#f77dbd</text><text x="0" y="2010" font-size="20px" style="fill: black;">0xf3f7</text><text x="0" y="2030" font-size="20px" style="fill: white;">0xf3f7</text><rect x="210" y="1890" width="200" height="200" rx="20px" ry="20px" style="fill: #ffdfe6;"></rect><text x="210" y="1930" font-size="20px" style="fill: black;">Piggy Pink</text><text x="210" y="1950" font-size="20px" style="fill: white;">Piggy Pink</text><text x="210" y="1970" font-size="20px" style="fill: black;">#ffdfe6</text><text x="210" y="1990" font-size="20px" style="fill: white;">#ffdfe6</text><text x="210" y="2010" font-size="20px" style="fill: black;">0xfefc</text><text x="210" y="2030" font-size="20px" style="fill: white;">0xfefc</text><rect x="420" y="1890" width="200" height="200" rx="20px" ry="20px" style="fill: #ffbece;"></rect><text x="420" y="1930" font-size="20px" style="fill: black;">Pink</text><text x="420" y="1950" font-size="20px" style="fill: white;">Pink</text><text x="420" y="1970" font-size="20px" style="fill: black;">#ffbece</text><text x="420" y="1990" font-size="20px" style="fill: white;">#ffbece</text><text x="420" y="2010" font-size="20px" style="fill: black;">0xfdf9</text><text x="420" y="2030" font-size="20px" style="fill: white;">0xfdf9</text><rect x="630" y="1890" width="200" height="200" rx="20px" ry="20px" style="fill: #ff75ff;"></rect><text x="630" y="1930" font-size="20px" style="fill: black;">Pink flamingo</text><text x="630" y="1950" font-size="20px" style="fill: white;">Pink flamingo</text><text x="630" y="1970" font-size="20px" style="fill: black;">#ff75ff</text><text x="630" y="1990" font-size="20px" style="fill: white;">#ff75ff</text><text x="630" y="2010" font-size="20px" style="fill: black;">0xfbbf</text><text x="630" y="2030" font-size="20px" style="fill: white;">0xfbbf</text><rect x="0" y="2100" width="200" height="200" rx="20px" ry="20px" style="fill: #f7bebd;"></rect><text x="0" y="2140" font-size="20px" style="fill: black;">Pink (G&amp;S)</text><text x="0" y="2160" font-size="20px" style="fill: white;">Pink (G&amp;S)</text><text x="0" y="2180" font-size="20px" style="fill: black;">#f7bebd</text><text x="0" y="2200" font-size="20px" style="fill: white;">#f7bebd</text><text x="0" y="2220" font-size="20px" style="fill: black;">0xf5f7</text><text x="0" y="2240" font-size="20px" style="fill: white;">0xf5f7</text><rect x="210" y="2100" width="200" height="200" rx="20px" ry="20px" style="fill: #ffdff7;"></rect><text x="210" y="2140" font-size="20px" style="fill: black;">Pink Lace</text><text x="210" y="2160" font-size="20px" style="fill: white;">Pink Lace</text><text x="210" y="2180" font-size="20px" style="fill: black;">#ffdff7</text><text x="210" y="2200" font-size="20px" style="fill: white;">#ffdff7</text><text x="210" y="2220" font-size="20px" style="fill: black;">0xfefe</text><text x="210" y="2240" font-size="20px" style="fill: white;">0xfefe</text><rect x="420" y="2100" width="200" height="200" rx="20px" ry="20px" style="fill: #deb2ce;"></rect><text x="420" y="2140" font-size="20px" style="fill: black;">Pink Lavender</text><text x="420" y="2160" font-size="20px" style="fill: white;">Pink Lavender</text><text x="420" y="2180" font-size="20px" style="fill: black;">#deb2ce</text><text x="420" y="2200" font-size="20px" style="fill: white;">#deb2ce</text><text x="420" y="2220" font-size="20px" style="fill: black;">0xdd99</text><text x="420" y="2240" font-size="20px" style="fill: white;">0xdd99</text><rect x="630" y="2100" width="200" height="200" rx="20px" ry="20px" style="fill: #d64994;"></rect><text x="630" y="2140" font-size="20px" style="fill: black;">Pink (Pantone)</text><text x="630" y="2160" font-size="20px" style="fill: white;">Pink (Pantone)</text><text x="630" y="2180" font-size="20px" style="fill: black;">#d64994</text><text x="630" y="2200" font-size="20px" style="fill: white;">#d64994</text><text x="630" y="2220" font-size="20px" style="fill: black;">0xd252</text><text x="630" y="2240" font-size="20px" style="fill: white;">0xd252</text><rect x="0" y="2310" width="200" height="200" rx="20px" ry="20px" style="fill: #f78ea5;"></rect><text x="0" y="2350" font-size="20px" style="fill: black;">Pink Sherbet</text><text x="0" y="2370" font-size="20px" style="fill: white;">Pink Sherbet</text><text x="0" y="2390" font-size="20px" style="fill: black;">#f78ea5</text><text x="0" y="2410" font-size="20px" style="fill: white;">#f78ea5</text><text x="0" y="2430" font-size="20px" style="fill: black;">0xf474</text><text x="0" y="2450" font-size="20px" style="fill: white;">0xf474</text><rect x="210" y="2310" width="200" height="200" rx="20px" ry="20px" style="fill: #e6cad6;"></rect><text x="210" y="2350" font-size="20px" style="fill: black;">Queen Pink</text><text x="210" y="2370" font-size="20px" style="fill: white;">Queen Pink</text><text x="210" y="2390" font-size="20px" style="fill: black;">#e6cad6</text><text x="210" y="2410" font-size="20px" style="fill: white;">#e6cad6</text><text x="210" y="2430" font-size="20px" style="fill: black;">0xe65a</text><text x="210" y="2450" font-size="20px" style="fill: white;">0xe65a</text><rect x="420" y="2310" width="200" height="200" rx="20px" ry="20px" style="fill: #ff65ce;"></rect><text x="420" y="2350" font-size="20px" style="fill: black;">Rose pink</text><text x="420" y="2370" font-size="20px" style="fill: white;">Rose pink</text><text x="420" y="2390" font-size="20px" style="fill: black;">#ff65ce</text><text x="420" y="2410" font-size="20px" style="fill: white;">#ff65ce</text><text x="420" y="2430" font-size="20px" style="fill: black;">0xfb39</text><text x="420" y="2450" font-size="20px" style="fill: white;">0xfb39</text><rect x="630" y="2310" width="200" height="200" rx="20px" ry="20px" style="fill: #ef799c;"></rect><text x="630" y="2350" font-size="20px" style="fill: black;">Rose Pompadour</text><text x="630" y="2370" font-size="20px" style="fill: white;">Rose Pompadour</text><text x="630" y="2390" font-size="20px" style="fill: black;">#ef799c</text><text x="630" y="2410" font-size="20px" style="fill: white;">#ef799c</text><text x="630" y="2430" font-size="20px" style="fill: black;">0xebd3</text><text x="630" y="2450" font-size="20px" style="fill: white;">0xebd3</text><rect x="0" y="2520" width="200" height="200" rx="20px" ry="20px" style="fill: #ff92ad;"></rect><text x="0" y="2560" font-size="20px" style="fill: black;">Schauss pink</text><text x="0" y="2580" font-size="20px" style="fill: white;">Schauss pink</text><text x="0" y="2600" font-size="20px" style="fill: black;">#ff92ad</text><text x="0" y="2620" font-size="20px" style="fill: white;">#ff92ad</text><text x="0" y="2640" font-size="20px" style="fill: black;">0xfc95</text><text x="0" y="2660" font-size="20px" style="fill: white;">0xfc95</text><rect x="210" y="2520" width="200" height="200" rx="20px" ry="20px" style="fill: #ff10bd;"></rect><text x="210" y="2560" font-size="20px" style="fill: black;">Shocking Pink</text><text x="210" y="2580" font-size="20px" style="fill: white;">Shocking Pink</text><text x="210" y="2600" font-size="20px" style="fill: black;">#ff10bd</text><text x="210" y="2620" font-size="20px" style="fill: white;">#ff10bd</text><text x="210" y="2640" font-size="20px" style="fill: black;">0xf897</text><text x="210" y="2660" font-size="20px" style="fill: white;">0xf897</text><rect x="420" y="2520" width="200" height="200" rx="20px" ry="20px" style="fill: #ff6dff;"></rect><text x="420" y="2560" font-size="20px" style="fill: black;">Shocking pink (Crayola)</text><text x="420" y="2580" font-size="20px" style="fill: white;">Shocking pink (Crayola)</text><text x="420" y="2600" font-size="20px" style="fill: black;">#ff6dff</text><text x="420" y="2620" font-size="20px" style="fill: white;">#ff6dff</text><text x="420" y="2640" font-size="20px" style="fill: black;">0xfb7f</text><text x="420" y="2660" font-size="20px" style="fill: white;">0xfb7f</text><rect x="630" y="2520" width="200" height="200" rx="20px" ry="20px" style="fill: #c5aead;"></rect><text x="630" y="2560" font-size="20px" style="fill: black;">Silver Pink</text><text x="630" y="2580" font-size="20px" style="fill: white;">Silver Pink</text><text x="630" y="2600" font-size="20px" style="fill: black;">#c5aead</text><text x="630" y="2620" font-size="20px" style="fill: white;">#c5aead</text><text x="630" y="2640" font-size="20px" style="fill: black;">0xc575</text><text x="630" y="2660" font-size="20px" style="fill: white;">0xc575</text><rect x="0" y="2730" width="200" height="200" rx="20px" ry="20px" style="fill: #8c3942;"></rect><text x="0" y="2770" font-size="20px" style="fill: black;">Solid Pink</text><text x="0" y="2790" font-size="20px" style="fill: white;">Solid Pink</text><text x="0" y="2810" font-size="20px" style="fill: black;">#8c3942</text><text x="0" y="2830" font-size="20px" style="fill: white;">#8c3942</text><text x="0" y="2850" font-size="20px" style="fill: black;">0x89c8</text><text x="0" y="2870" font-size="20px" style="fill: white;">0x89c8</text><rect x="210" y="2730" width="200" height="200" rx="20px" ry="20px" style="fill: #f7bebd;"></rect><text x="210" y="2770" font-size="20px" style="fill: black;">Spanish pink</text><text x="210" y="2790" font-size="20px" style="fill: white;">Spanish pink</text><text x="210" y="2810" font-size="20px" style="fill: black;">#f7bebd</text><text x="210" y="2830" font-size="20px" style="fill: white;">#f7bebd</text><text x="210" y="2850" font-size="20px" style="fill: black;">0xf5f7</text><text x="210" y="2870" font-size="20px" style="fill: white;">0xf5f7</text><rect x="420" y="2730" width="200" height="200" rx="20px" ry="20px" style="fill: #ce35ce;"></rect><text x="420" y="2770" font-size="20px" style="fill: black;">Steel Pink</text><text x="420" y="2790" font-size="20px" style="fill: white;">Steel Pink</text><text x="420" y="2810" font-size="20px" style="fill: black;">#ce35ce</text><text x="420" y="2830" font-size="20px" style="fill: white;">#ce35ce</text><text x="420" y="2850" font-size="20px" style="fill: black;">0xc9b9</text><text x="420" y="2870" font-size="20px" style="fill: white;">0xc9b9</text><rect x="630" y="2730" width="200" height="200" rx="20px" ry="20px" style="fill: #ce69ad;"></rect><text x="630" y="2770" font-size="20px" style="fill: black;">Super Pink</text><text x="630" y="2790" font-size="20px" style="fill: white;">Super Pink</text><text x="630" y="2810" font-size="20px" style="fill: black;">#ce69ad</text><text x="630" y="2830" font-size="20px" style="fill: white;">#ce69ad</text><text x="630" y="2850" font-size="20px" style="fill: black;">0xcb55</text><text x="630" y="2870" font-size="20px" style="fill: white;">0xcb55</text><rect x="0" y="2940" width="200" height="200" rx="20px" ry="20px" style="fill: #e6717b;"></rect><text x="0" y="2980" font-size="20px" style="fill: black;">Tango Pink</text><text x="0" y="3000" font-size="20px" style="fill: white;">Tango Pink</text><text x="0" y="3020" font-size="20px" style="fill: black;">#e6717b</text><text x="0" y="3040" font-size="20px" style="fill: white;">#e6717b</text><text x="0" y="3060" font-size="20px" style="fill: black;">0xe38f</text><text x="0" y="3080" font-size="20px" style="fill: white;">0xe38f</text><rect x="210" y="2940" width="200" height="200" rx="20px" ry="20px" style="fill: #de6da5;"></rect><text x="210" y="2980" font-size="20px" style="fill: black;">Thulian pink</text><text x="210" y="3000" font-size="20px" style="fill: white;">Thulian pink</text><text x="210" y="3020" font-size="20px" style="fill: black;">#de6da5</text><text x="210" y="3040" font-size="20px" style="fill: white;">#de6da5</text><text x="210" y="3060" font-size="20px" style="fill: black;">0xdb74</text><text x="210" y="3080" font-size="20px" style="fill: white;">0xdb74</text><rect x="420" y="2940" width="200" height="200" rx="20px" ry="20px" style="fill: #ff8aad;"></rect><text x="420" y="2980" font-size="20px" style="fill: black;">Tickle Me Pink</text><text x="420" y="3000" font-size="20px" style="fill: white;">Tickle Me Pink</text><text x="420" y="3020" font-size="20px" style="fill: black;">#ff8aad</text><text x="420" y="3040" font-size="20px" style="fill: white;">#ff8aad</text><text x="420" y="3060" font-size="20px" style="fill: black;">0xfc55</text><text x="420" y="3080" font-size="20px" style="fill: white;">0xfc55</text><rect x="630" y="2940" width="200" height="200" rx="20px" ry="20px" style="fill: #ff6dff;"></rect><text x="630" y="2980" font-size="20px" style="fill: black;">Ultra Pink</text><text x="630" y="3000" font-size="20px" style="fill: white;">Ultra Pink</text><text x="630" y="3020" font-size="20px" style="fill: black;">#ff6dff</text><text x="630" y="3040" font-size="20px" style="fill: white;">#ff6dff</text><text x="630" y="3060" font-size="20px" style="fill: black;">0xfb7f</text><text x="630" y="3080" font-size="20px" style="fill: white;">0xfb7f</text></svg>