<svg width="1680px" height="360px" xmlns="http://www.w3.org/2000/svg"><rect x="0" y="0" width="200" height="50" style="fill: #732863;"></rect><text x="0" y="20" font-size="25px" style="fill: black;">Byzantium</text><text x="0" y="45" font-size="25px" style="fill: white;">Byzantium</text><rect x="210" y="0" width="200" height="50" style="fill: #311831;"></rect><text x="210" y="20" font-size="25px" style="fill: black;">Dark Purple</text><text x="210" y="45" font-size="25px" style="fill: white;">Dark Purple</text><rect x="420" y="0" width="200" height="50" style="fill: #bd00ff;"></rect><text x="420" y="20" font-size="25px" style="fill: black;">Electric Purple</text><text x="420" y="45" font-size="25px" style="fill: white;">Electric Purple</text><rect x="630" y="0" width="200" height="50" style="fill: #6b3184;"></rect><text x="630" y="20" font-size="25px" style="fill: black;">Eminence</text><text x="630" y="45" font-size="25px" style="fill: white;">Eminence</text><rect x="840" y="0" width="200" height="50" style="fill: #ce397b;"></rect><text x="840" y="20" font-size="25px" style="fill: black;">Fuchsia purple</text><text x="840" y="45" font-size="25px" style="fill: white;">Fuchsia purple</text><rect x="1050" y="0" width="200" height="50" style="fill: #5218f7;"></rect><text x="1050" y="20" font-size="25px" style="fill: black;">Han purple</text><text x="1050" y="45" font-size="25px" style="fill: white;">Han purple</text><rect x="1260" y="0" width="200" height="50" style="fill: #de71ff;"></rect><text x="1260" y="20" font-size="25px" style="fill: black;">Heliotrope</text><text x="1260" y="45" font-size="25px" style="fill: white;">Heliotrope</text><rect x="1470" y="0" width="200" height="50" style="fill: #52288c;"></rect><text x="1470" y="20" font-size="25px" style="fill: black;">KSU Purple</text><text x="1470" y="45" font-size="25px" style="fill: white;">KSU Purple</text><rect x="0" y="60" width="200" height="50" style="fill: #de6da5;"></rect><text x="0" y="80" font-size="25px" style="fill: black;">Liseran Purple</text><text x="0" y="105" font-size="25px" style="fill: white;">Liseran Purple</text><rect x="210" y="60" width="200" height="50" style="fill: #8c0084;"></rect><text x="210" y="80" font-size="25px" style="fill: black;">Mardi Gras</text><text x="210" y="105" font-size="25px" style="fill: white;">Mardi Gras</text><rect x="420" y="60" width="200" height="50" style="fill: #deaeff;"></rect><text x="420" y="80" font-size="25px" style="fill: black;">Mauve (Mallow)</text><text x="420" y="105" font-size="25px" style="fill: white;">Mauve (Mallow)</text><rect x="630" y="60" width="200" height="50" style="fill: #adaae6;"></rect><text x="630" y="80" font-size="25px" style="fill: black;">Maximum blue purple</text><text x="630" y="105" font-size="25px" style="fill: white;">Maximum blue purple</text><rect x="840" y="60" width="200" height="50" style="fill: #733584;"></rect><text x="840" y="80" font-size="25px" style="fill: black;">Maximum purple</text><text x="840" y="105" font-size="25px" style="fill: white;">Maximum purple</text><rect x="1050" y="60" width="200" height="50" style="fill: #a5397b;"></rect><text x="1050" y="80" font-size="25px" style="fill: black;">Maximum red purple</text><text x="1050" y="105" font-size="25px" style="fill: white;">Maximum red purple</text><rect x="1260" y="60" width="200" height="50" style="fill: #9471de;"></rect><text x="1260" y="80" font-size="25px" style="fill: black;">Medium Purple</text><text x="1260" y="105" font-size="25px" style="fill: white;">Medium Purple</text><rect x="1470" y="60" width="200" height="50" style="fill: #8c71bd;"></rect><text x="1470" y="80" font-size="25px" style="fill: black;">Middle blue purple</text><text x="1470" y="105" font-size="25px" style="fill: white;">Middle blue purple</text><rect x="0" y="120" width="200" height="50" style="fill: #d682b5;"></rect><text x="0" y="140" font-size="25px" style="fill: black;">Middle purple</text><text x="0" y="165" font-size="25px" style="fill: white;">Middle purple</text><rect x="210" y="120" width="200" height="50" style="fill: #a55552;"></rect><text x="210" y="140" font-size="25px" style="fill: black;">Middle red purple</text><text x="210" y="165" font-size="25px" style="fill: white;">Middle red purple</text><rect x="420" y="120" width="200" height="50" style="fill: #c54d8c;"></rect><text x="420" y="140" font-size="25px" style="fill: black;">Mulberry</text><text x="420" y="165" font-size="25px" style="fill: white;">Mulberry</text><rect x="630" y="120" width="200" height="50" style="fill: #4a2884;"></rect><text x="630" y="140" font-size="25px" style="fill: black;">Northwestern Purple</text><text x="630" y="165" font-size="25px" style="fill: white;">Northwestern Purple</text><rect x="840" y="120" width="200" height="50" style="fill: #de71d6;"></rect><text x="840" y="140" font-size="25px" style="fill: black;">Orchid</text><text x="840" y="165" font-size="25px" style="fill: white;">Orchid</text><rect x="1050" y="120" width="200" height="50" style="fill: #73246b;"></rect><text x="1050" y="140" font-size="25px" style="fill: black;">Palatinate</text><text x="1050" y="165" font-size="25px" style="fill: white;">Palatinate</text><rect x="1260" y="120" width="200" height="50" style="fill: #6b2863;"></rect><text x="1260" y="140" font-size="25px" style="fill: black;">Palatinate purple</text><text x="1260" y="165" font-size="25px" style="fill: white;">Palatinate purple</text><rect x="1470" y="120" width="200" height="50" style="fill: #f7e7f7;"></rect><text x="1470" y="140" font-size="25px" style="fill: black;">Pale Purple</text><text x="1470" y="165" font-size="25px" style="fill: white;">Pale Purple</text><rect x="0" y="180" width="200" height="50" style="fill: #f7e7f7;"></rect><text x="0" y="200" font-size="25px" style="fill: black;">Pale purple (Pantone)</text><text x="0" y="225" font-size="25px" style="fill: white;">Pale purple (Pantone)</text><rect x="210" y="180" width="200" height="50" style="fill: #7b184a;"></rect><text x="210" y="200" font-size="25px" style="fill: black;">Pansy Purple</text><text x="210" y="225" font-size="25px" style="fill: white;">Pansy Purple</text><rect x="420" y="180" width="200" height="50" style="fill: #b569a5;"></rect><text x="420" y="200" font-size="25px" style="fill: black;">Pearly Purple</text><text x="420" y="225" font-size="25px" style="fill: white;">Pearly Purple</text><rect x="630" y="180" width="200" height="50" style="fill: #de00ff;"></rect><text x="630" y="200" font-size="25px" style="fill: black;">Phlox</text><text x="630" y="225" font-size="25px" style="fill: white;">Phlox</text><rect x="840" y="180" width="200" height="50" style="fill: #5a45b5;"></rect><text x="840" y="200" font-size="25px" style="fill: black;">Plump Purple</text><text x="840" y="225" font-size="25px" style="fill: white;">Plump Purple</text><rect x="1050" y="180" width="200" height="50" style="fill: #84618c;"></rect><text x="1050" y="200" font-size="25px" style="fill: black;">Pomp and Power</text><text x="1050" y="225" font-size="25px" style="fill: white;">Pomp and Power</text><rect x="1260" y="180" width="200" height="50" style="fill: #de00ff;"></rect><text x="1260" y="200" font-size="25px" style="fill: black;">Psychedelic purple</text><text x="1260" y="225" font-size="25px" style="fill: white;">Psychedelic purple</text><rect x="1470" y="180" width="200" height="50" style="fill: #840084;"></rect><text x="1470" y="200" font-size="25px" style="fill: black;">Purple</text><text x="1470" y="225" font-size="25px" style="fill: white;">Purple</text><rect x="0" y="240" width="200" height="50" style="fill: #840084;"></rect><text x="0" y="260" font-size="25px" style="fill: black;">Purple (HTML/CSS color)</text><text x="0" y="285" font-size="25px" style="fill: white;">Purple (HTML/CSS color)</text><rect x="210" y="240" width="200" height="50" style="fill: #9479b5;"></rect><text x="210" y="260" font-size="25px" style="fill: black;">Purple mountain majesty</text><text x="210" y="285" font-size="25px" style="fill: white;">Purple mountain majesty</text><rect x="420" y="240" width="200" height="50" style="fill: #9c00c5;"></rect><text x="420" y="260" font-size="25px" style="fill: black;">Purple (Munsell)</text><text x="420" y="285" font-size="25px" style="fill: white;">Purple (Munsell)</text><rect x="630" y="240" width="200" height="50" style="fill: #4a5184;"></rect><text x="630" y="260" font-size="25px" style="fill: black;">Purple navy</text><text x="630" y="285" font-size="25px" style="fill: white;">Purple navy</text><rect x="840" y="240" width="200" height="50" style="fill: #ff4dde;"></rect><text x="840" y="260" font-size="25px" style="fill: black;">Purple Pizzazz</text><text x="840" y="285" font-size="25px" style="fill: white;">Purple Pizzazz</text><rect x="1050" y="240" width="200" height="50" style="fill: #9c51b5;"></rect><text x="1050" y="260" font-size="25px" style="fill: black;">Purple Plum</text><text x="1050" y="285" font-size="25px" style="fill: white;">Purple Plum</text><rect x="1260" y="240" width="200" height="50" style="fill: #840084;"></rect><text x="1260" y="260" font-size="25px" style="fill: black;">Purple (web)</text><text x="1260" y="285" font-size="25px" style="fill: white;">Purple (web)</text><rect x="1470" y="240" width="200" height="50" style="fill: #9c20ef;"></rect><text x="1470" y="260" font-size="25px" style="fill: black;">Purple (X11)</text><text x="1470" y="285" font-size="25px" style="fill: white;">Purple (X11)</text><rect x="0" y="300" width="200" height="50" style="fill: #9c20ef;"></rect><text x="0" y="320" font-size="25px" style="fill: black;">Purple (X11 color)</text><text x="0" y="345" font-size="25px" style="fill: white;">Purple (X11 color)</text><rect x="210" y="300" width="200" height="50" style="fill: #9c4dad;"></rect><text x="210" y="320" font-size="25px" style="fill: black;">Purpureus</text><text x="210" y="345" font-size="25px" style="fill: white;">Purpureus</text><rect x="420" y="300" width="200" height="50" style="fill: #63359c;"></rect><text x="420" y="320" font-size="25px" style="fill: black;">Rebecca purple</text><text x="420" y="345" font-size="25px" style="fill: white;">Rebecca purple</text><rect x="630" y="300" width="200" height="50" style="fill: #e6007b;"></rect><text x="630" y="320" font-size="25px" style="fill: black;">Red-purple</text><text x="630" y="345" font-size="25px" style="fill: white;">Red-purple</text><rect x="840" y="300" width="200" height="50" style="fill: #c51484;"></rect><text x="840" y="320" font-size="25px" style="fill: black;">Red-Violet</text><text x="840" y="345" font-size="25px" style="fill: white;">Red-Violet</text><rect x="1050" y="300" width="200" height="50" style="fill: #7b51ad;"></rect><text x="1050" y="320" font-size="25px" style="fill: black;">Royal Purple</text><text x="1050" y="345" font-size="25px" style="fill: white;">Royal Purple</text><rect x="1260" y="300" width="200" height="50" style="fill: #d6bed6;"></rect><text x="1260" y="320" font-size="25px" style="fill: black;">Thistle</text><text x="1260" y="345" font-size="25px" style="fill: white;">Thistle</text><rect x="1470" y="300" width="200" height="50" style="fill: #63003a;"></rect><text x="1470" y="320" font-size="25px" style="fill: black;">Tyrian Purple</text><text x="1470" y="345" font-size="25px" style="fill: white;">Tyrian Purple</text></svg>