<svg width="840px" height="2520px" xmlns="http://www.w3.org/2000/svg"><rect x="0" y="0" width="200" height="200" rx="20px" ry="20px" style="fill: #732863;"></rect><text x="0" y="40" font-size="20px" style="fill: black;">Byzantium</text><text x="0" y="60" font-size="20px" style="fill: white;">Byzantium</text><text x="0" y="80" font-size="20px" style="fill: black;">#732863</text><text x="0" y="100" font-size="20px" style="fill: white;">#732863</text><text x="0" y="120" font-size="20px" style="fill: black;">0x714c</text><text x="0" y="140" font-size="20px" style="fill: white;">0x714c</text><rect x="210" y="0" width="200" height="200" rx="20px" ry="20px" style="fill: #311831;"></rect><text x="210" y="40" font-size="20px" style="fill: black;">Dark Purple</text><text x="210" y="60" font-size="20px" style="fill: white;">Dark Purple</text><text x="210" y="80" font-size="20px" style="fill: black;">#311831</text><text x="210" y="100" font-size="20px" style="fill: white;">#311831</text><text x="210" y="120" font-size="20px" style="fill: black;">0x30c6</text><text x="210" y="140" font-size="20px" style="fill: white;">0x30c6</text><rect x="420" y="0" width="200" height="200" rx="20px" ry="20px" style="fill: #bd00ff;"></rect><text x="420" y="40" font-size="20px" style="fill: black;">Electric Purple</text><text x="420" y="60" font-size="20px" style="fill: white;">Electric Purple</text><text x="420" y="80" font-size="20px" style="fill: black;">#bd00ff</text><text x="420" y="100" font-size="20px" style="fill: white;">#bd00ff</text><text x="420" y="120" font-size="20px" style="fill: black;">0xb81f</text><text x="420" y="140" font-size="20px" style="fill: white;">0xb81f</text><rect x="630" y="0" width="200" height="200" rx="20px" ry="20px" style="fill: #6b3184;"></rect><text x="630" y="40" font-size="20px" style="fill: black;">Eminence</text><text x="630" y="60" font-size="20px" style="fill: white;">Eminence</text><text x="630" y="80" font-size="20px" style="fill: black;">#6b3184</text><text x="630" y="100" font-size="20px" style="fill: white;">#6b3184</text><text x="630" y="120" font-size="20px" style="fill: black;">0x6990</text><text x="630" y="140" font-size="20px" style="fill: white;">0x6990</text><rect x="0" y="210" width="200" height="200" rx="20px" ry="20px" style="fill: #ce397b;"></rect><text x="0" y="250" font-size="20px" style="fill: black;">Fuchsia purple</text><text x="0" y="270" font-size="20px" style="fill: white;">Fuchsia purple</text><text x="0" y="290" font-size="20px" style="fill: black;">#ce397b</text><text x="0" y="310" font-size="20px" style="fill: white;">#ce397b</text><text x="0" y="330" font-size="20px" style="fill: black;">0xc9cf</text><text x="0" y="350" font-size="20px" style="fill: white;">0xc9cf</text><rect x="210" y="210" width="200" height="200" rx="20px" ry="20px" style="fill: #5218f7;"></rect><text x="210" y="250" font-size="20px" style="fill: black;">Han purple</text><text x="210" y="270" font-size="20px" style="fill: white;">Han purple</text><text x="210" y="290" font-size="20px" style="fill: black;">#5218f7</text><text x="210" y="310" font-size="20px" style="fill: white;">#5218f7</text><text x="210" y="330" font-size="20px" style="fill: black;">0x50de</text><text x="210" y="350" font-size="20px" style="fill: white;">0x50de</text><rect x="420" y="210" width="200" height="200" rx="20px" ry="20px" style="fill: #de71ff;"></rect><text x="420" y="250" font-size="20px" style="fill: black;">Heliotrope</text><text x="420" y="270" font-size="20px" style="fill: white;">Heliotrope</text><text x="420" y="290" font-size="20px" style="fill: black;">#de71ff</text><text x="420" y="310" font-size="20px" style="fill: white;">#de71ff</text><text x="420" y="330" font-size="20px" style="fill: black;">0xdb9f</text><text x="420" y="350" font-size="20px" style="fill: white;">0xdb9f</text><rect x="630" y="210" width="200" height="200" rx="20px" ry="20px" style="fill: #52288c;"></rect><text x="630" y="250" font-size="20px" style="fill: black;">KSU Purple</text><text x="630" y="270" font-size="20px" style="fill: white;">KSU Purple</text><text x="630" y="290" font-size="20px" style="fill: black;">#52288c</text><text x="630" y="310" font-size="20px" style="fill: white;">#52288c</text><text x="630" y="330" font-size="20px" style="fill: black;">0x5151</text><text x="630" y="350" font-size="20px" style="fill: white;">0x5151</text><rect x="0" y="420" width="200" height="200" rx="20px" ry="20px" style="fill: #de6da5;"></rect><text x="0" y="460" font-size="20px" style="fill: black;">Liseran Purple</text><text x="0" y="480" font-size="20px" style="fill: white;">Liseran Purple</text><text x="0" y="500" font-size="20px" style="fill: black;">#de6da5</text><text x="0" y="520" font-size="20px" style="fill: white;">#de6da5</text><text x="0" y="540" font-size="20px" style="fill: black;">0xdb74</text><text x="0" y="560" font-size="20px" style="fill: white;">0xdb74</text><rect x="210" y="420" width="200" height="200" rx="20px" ry="20px" style="fill: #8c0084;"></rect><text x="210" y="460" font-size="20px" style="fill: black;">Mardi Gras</text><text x="210" y="480" font-size="20px" style="fill: white;">Mardi Gras</text><text x="210" y="500" font-size="20px" style="fill: black;">#8c0084</text><text x="210" y="520" font-size="20px" style="fill: white;">#8c0084</text><text x="210" y="540" font-size="20px" style="fill: black;">0x8810</text><text x="210" y="560" font-size="20px" style="fill: white;">0x8810</text><rect x="420" y="420" width="200" height="200" rx="20px" ry="20px" style="fill: #deaeff;"></rect><text x="420" y="460" font-size="20px" style="fill: black;">Mauve (Mallow)</text><text x="420" y="480" font-size="20px" style="fill: white;">Mauve (Mallow)</text><text x="420" y="500" font-size="20px" style="fill: black;">#deaeff</text><text x="420" y="520" font-size="20px" style="fill: white;">#deaeff</text><text x="420" y="540" font-size="20px" style="fill: black;">0xdd7f</text><text x="420" y="560" font-size="20px" style="fill: white;">0xdd7f</text><rect x="630" y="420" width="200" height="200" rx="20px" ry="20px" style="fill: #adaae6;"></rect><text x="630" y="460" font-size="20px" style="fill: black;">Maximum blue purple</text><text x="630" y="480" font-size="20px" style="fill: white;">Maximum blue purple</text><text x="630" y="500" font-size="20px" style="fill: black;">#adaae6</text><text x="630" y="520" font-size="20px" style="fill: white;">#adaae6</text><text x="630" y="540" font-size="20px" style="fill: black;">0xad5c</text><text x="630" y="560" font-size="20px" style="fill: white;">0xad5c</text><rect x="0" y="630" width="200" height="200" rx="20px" ry="20px" style="fill: #733584;"></rect><text x="0" y="670" font-size="20px" style="fill: black;">Maximum purple</text><text x="0" y="690" font-size="20px" style="fill: white;">Maximum purple</text><text x="0" y="710" font-size="20px" style="fill: black;">#733584</text><text x="0" y="730" font-size="20px" style="fill: white;">#733584</text><text x="0" y="750" font-size="20px" style="fill: black;">0x71b0</text><text x="0" y="770" font-size="20px" style="fill: white;">0x71b0</text><rect x="210" y="630" width="200" height="200" rx="20px" ry="20px" style="fill: #a5397b;"></rect><text x="210" y="670" font-size="20px" style="fill: black;">Maximum red purple</text><text x="210" y="690" font-size="20px" style="fill: white;">Maximum red purple</text><text x="210" y="710" font-size="20px" style="fill: black;">#a5397b</text><text x="210" y="730" font-size="20px" style="fill: white;">#a5397b</text><text x="210" y="750" font-size="20px" style="fill: black;">0xa1cf</text><text x="210" y="770" font-size="20px" style="fill: white;">0xa1cf</text><rect x="420" y="630" width="200" height="200" rx="20px" ry="20px" style="fill: #9471de;"></rect><text x="420" y="670" font-size="20px" style="fill: black;">Medium Purple</text><text x="420" y="690" font-size="20px" style="fill: white;">Medium Purple</text><text x="420" y="710" font-size="20px" style="fill: black;">#9471de</text><text x="420" y="730" font-size="20px" style="fill: white;">#9471de</text><text x="420" y="750" font-size="20px" style="fill: black;">0x939b</text><text x="420" y="770" font-size="20px" style="fill: white;">0x939b</text><rect x="630" y="630" width="200" height="200" rx="20px" ry="20px" style="fill: #8c71bd;"></rect><text x="630" y="670" font-size="20px" style="fill: black;">Middle blue purple</text><text x="630" y="690" font-size="20px" style="fill: white;">Middle blue purple</text><text x="630" y="710" font-size="20px" style="fill: black;">#8c71bd</text><text x="630" y="730" font-size="20px" style="fill: white;">#8c71bd</text><text x="630" y="750" font-size="20px" style="fill: black;">0x8b97</text><text x="630" y="770" font-size="20px" style="fill: white;">0x8b97</text><rect x="0" y="840" width="200" height="200" rx="20px" ry="20px" style="fill: #d682b5;"></rect><text x="0" y="880" font-size="20px" style="fill: black;">Middle purple</text><text x="0" y="900" font-size="20px" style="fill: white;">Middle purple</text><text x="0" y="920" font-size="20px" style="fill: black;">#d682b5</text><text x="0" y="940" font-size="20px" style="fill: white;">#d682b5</text><text x="0" y="960" font-size="20px" style="fill: black;">0xd416</text><text x="0" y="980" font-size="20px" style="fill: white;">0xd416</text><rect x="210" y="840" width="200" height="200" rx="20px" ry="20px" style="fill: #a55552;"></rect><text x="210" y="880" font-size="20px" style="fill: black;">Middle red purple</text><text x="210" y="900" font-size="20px" style="fill: white;">Middle red purple</text><text x="210" y="920" font-size="20px" style="fill: black;">#a55552</text><text x="210" y="940" font-size="20px" style="fill: white;">#a55552</text><text x="210" y="960" font-size="20px" style="fill: black;">0xa2aa</text><text x="210" y="980" font-size="20px" style="fill: white;">0xa2aa</text><rect x="420" y="840" width="200" height="200" rx="20px" ry="20px" style="fill: #c54d8c;"></rect><text x="420" y="880" font-size="20px" style="fill: black;">Mulberry</text><text x="420" y="900" font-size="20px" style="fill: white;">Mulberry</text><text x="420" y="920" font-size="20px" style="fill: black;">#c54d8c</text><text x="420" y="940" font-size="20px" style="fill: white;">#c54d8c</text><text x="420" y="960" font-size="20px" style="fill: black;">0xc271</text><text x="420" y="980" font-size="20px" style="fill: white;">0xc271</text><rect x="630" y="840" width="200" height="200" rx="20px" ry="20px" style="fill: #4a2884;"></rect><text x="630" y="880" font-size="20px" style="fill: black;">Northwestern Purple</text><text x="630" y="900" font-size="20px" style="fill: white;">Northwestern Purple</text><text x="630" y="920" font-size="20px" style="fill: black;">#4a2884</text><text x="630" y="940" font-size="20px" style="fill: white;">#4a2884</text><text x="630" y="960" font-size="20px" style="fill: black;">0x4950</text><text x="630" y="980" font-size="20px" style="fill: white;">0x4950</text><rect x="0" y="1050" width="200" height="200" rx="20px" ry="20px" style="fill: #de71d6;"></rect><text x="0" y="1090" font-size="20px" style="fill: black;">Orchid</text><text x="0" y="1110" font-size="20px" style="fill: white;">Orchid</text><text x="0" y="1130" font-size="20px" style="fill: black;">#de71d6</text><text x="0" y="1150" font-size="20px" style="fill: white;">#de71d6</text><text x="0" y="1170" font-size="20px" style="fill: black;">0xdb9a</text><text x="0" y="1190" font-size="20px" style="fill: white;">0xdb9a</text><rect x="210" y="1050" width="200" height="200" rx="20px" ry="20px" style="fill: #73246b;"></rect><text x="210" y="1090" font-size="20px" style="fill: black;">Palatinate</text><text x="210" y="1110" font-size="20px" style="fill: white;">Palatinate</text><text x="210" y="1130" font-size="20px" style="fill: black;">#73246b</text><text x="210" y="1150" font-size="20px" style="fill: white;">#73246b</text><text x="210" y="1170" font-size="20px" style="fill: black;">0x712d</text><text x="210" y="1190" font-size="20px" style="fill: white;">0x712d</text><rect x="420" y="1050" width="200" height="200" rx="20px" ry="20px" style="fill: #6b2863;"></rect><text x="420" y="1090" font-size="20px" style="fill: black;">Palatinate purple</text><text x="420" y="1110" font-size="20px" style="fill: white;">Palatinate purple</text><text x="420" y="1130" font-size="20px" style="fill: black;">#6b2863</text><text x="420" y="1150" font-size="20px" style="fill: white;">#6b2863</text><text x="420" y="1170" font-size="20px" style="fill: black;">0x694c</text><text x="420" y="1190" font-size="20px" style="fill: white;">0x694c</text><rect x="630" y="1050" width="200" height="200" rx="20px" ry="20px" style="fill: #f7e7f7;"></rect><text x="630" y="1090" font-size="20px" style="fill: black;">Pale Purple</text><text x="630" y="1110" font-size="20px" style="fill: white;">Pale Purple</text><text x="630" y="1130" font-size="20px" style="fill: black;">#f7e7f7</text><text x="630" y="1150" font-size="20px" style="fill: white;">#f7e7f7</text><text x="630" y="1170" font-size="20px" style="fill: black;">0xf73e</text><text x="630" y="1190" font-size="20px" style="fill: white;">0xf73e</text><rect x="0" y="1260" width="200" height="200" rx="20px" ry="20px" style="fill: #f7e7f7;"></rect><text x="0" y="1300" font-size="20px" style="fill: black;">Pale purple (Pantone)</text><text x="0" y="1320" font-size="20px" style="fill: white;">Pale purple (Pantone)</text><text x="0" y="1340" font-size="20px" style="fill: black;">#f7e7f7</text><text x="0" y="1360" font-size="20px" style="fill: white;">#f7e7f7</text><text x="0" y="1380" font-size="20px" style="fill: black;">0xf73e</text><text x="0" y="1400" font-size="20px" style="fill: white;">0xf73e</text><rect x="210" y="1260" width="200" height="200" rx="20px" ry="20px" style="fill: #7b184a;"></rect><text x="210" y="1300" font-size="20px" style="fill: black;">Pansy Purple</text><text x="210" y="1320" font-size="20px" style="fill: white;">Pansy Purple</text><text x="210" y="1340" font-size="20px" style="fill: black;">#7b184a</text><text x="210" y="1360" font-size="20px" style="fill: white;">#7b184a</text><text x="210" y="1380" font-size="20px" style="fill: black;">0x78c9</text><text x="210" y="1400" font-size="20px" style="fill: white;">0x78c9</text><rect x="420" y="1260" width="200" height="200" rx="20px" ry="20px" style="fill: #b569a5;"></rect><text x="420" y="1300" font-size="20px" style="fill: black;">Pearly Purple</text><text x="420" y="1320" font-size="20px" style="fill: white;">Pearly Purple</text><text x="420" y="1340" font-size="20px" style="fill: black;">#b569a5</text><text x="420" y="1360" font-size="20px" style="fill: white;">#b569a5</text><text x="420" y="1380" font-size="20px" style="fill: black;">0xb354</text><text x="420" y="1400" font-size="20px" style="fill: white;">0xb354</text><rect x="630" y="1260" width="200" height="200" rx="20px" ry="20px" style="fill: #de00ff;"></rect><text x="630" y="1300" font-size="20px" style="fill: black;">Phlox</text><text x="630" y="1320" font-size="20px" style="fill: white;">Phlox</text><text x="630" y="1340" font-size="20px" style="fill: black;">#de00ff</text><text x="630" y="1360" font-size="20px" style="fill: white;">#de00ff</text><text x="630" y="1380" font-size="20px" style="fill: black;">0xd81f</text><text x="630" y="1400" font-size="20px" style="fill: white;">0xd81f</text><rect x="0" y="1470" width="200" height="200" rx="20px" ry="20px" style="fill: #5a45b5;"></rect><text x="0" y="1510" font-size="20px" style="fill: black;">Plump Purple</text><text x="0" y="1530" font-size="20px" style="fill: white;">Plump Purple</text><text x="0" y="1550" font-size="20px" style="fill: black;">#5a45b5</text><text x="0" y="1570" font-size="20px" style="fill: white;">#5a45b5</text><text x="0" y="1590" font-size="20px" style="fill: black;">0x5a36</text><text x="0" y="1610" font-size="20px" style="fill: white;">0x5a36</text><rect x="210" y="1470" width="200" height="200" rx="20px" ry="20px" style="fill: #84618c;"></rect><text x="210" y="1510" font-size="20px" style="fill: black;">Pomp and Power</text><text x="210" y="1530" font-size="20px" style="fill: white;">Pomp and Power</text><text x="210" y="1550" font-size="20px" style="fill: black;">#84618c</text><text x="210" y="1570" font-size="20px" style="fill: white;">#84618c</text><text x="210" y="1590" font-size="20px" style="fill: black;">0x8311</text><text x="210" y="1610" font-size="20px" style="fill: white;">0x8311</text><rect x="420" y="1470" width="200" height="200" rx="20px" ry="20px" style="fill: #de00ff;"></rect><text x="420" y="1510" font-size="20px" style="fill: black;">Psychedelic purple</text><text x="420" y="1530" font-size="20px" style="fill: white;">Psychedelic purple</text><text x="420" y="1550" font-size="20px" style="fill: black;">#de00ff</text><text x="420" y="1570" font-size="20px" style="fill: white;">#de00ff</text><text x="420" y="1590" font-size="20px" style="fill: black;">0xd81f</text><text x="420" y="1610" font-size="20px" style="fill: white;">0xd81f</text><rect x="630" y="1470" width="200" height="200" rx="20px" ry="20px" style="fill: #840084;"></rect><text x="630" y="1510" font-size="20px" style="fill: black;">Purple</text><text x="630" y="1530" font-size="20px" style="fill: white;">Purple</text><text x="630" y="1550" font-size="20px" style="fill: black;">#840084</text><text x="630" y="1570" font-size="20px" style="fill: white;">#840084</text><text x="630" y="1590" font-size="20px" style="fill: black;">0x8010</text><text x="630" y="1610" font-size="20px" style="fill: white;">0x8010</text><rect x="0" y="1680" width="200" height="200" rx="20px" ry="20px" style="fill: #840084;"></rect><text x="0" y="1720" font-size="20px" style="fill: black;">Purple (HTML/CSS color)</text><text x="0" y="1740" font-size="20px" style="fill: white;">Purple (HTML/CSS color)</text><text x="0" y="1760" font-size="20px" style="fill: black;">#840084</text><text x="0" y="1780" font-size="20px" style="fill: white;">#840084</text><text x="0" y="1800" font-size="20px" style="fill: black;">0x8010</text><text x="0" y="1820" font-size="20px" style="fill: white;">0x8010</text><rect x="210" y="1680" width="200" height="200" rx="20px" ry="20px" style="fill: #9479b5;"></rect><text x="210" y="1720" font-size="20px" style="fill: black;">Purple mountain majesty</text><text x="210" y="1740" font-size="20px" style="fill: white;">Purple mountain majesty</text><text x="210" y="1760" font-size="20px" style="fill: black;">#9479b5</text><text x="210" y="1780" font-size="20px" style="fill: white;">#9479b5</text><text x="210" y="1800" font-size="20px" style="fill: black;">0x93d6</text><text x="210" y="1820" font-size="20px" style="fill: white;">0x93d6</text><rect x="420" y="1680" width="200" height="200" rx="20px" ry="20px" style="fill: #9c00c5;"></rect><text x="420" y="1720" font-size="20px" style="fill: black;">Purple (Munsell)</text><text x="420" y="1740" font-size="20px" style="fill: white;">Purple (Munsell)</text><text x="420" y="1760" font-size="20px" style="fill: black;">#9c00c5</text><text x="420" y="1780" font-size="20px" style="fill: white;">#9c00c5</text><text x="420" y="1800" font-size="20px" style="fill: black;">0x9818</text><text x="420" y="1820" font-size="20px" style="fill: white;">0x9818</text><rect x="630" y="1680" width="200" height="200" rx="20px" ry="20px" style="fill: #4a5184;"></rect><text x="630" y="1720" font-size="20px" style="fill: black;">Purple navy</text><text x="630" y="1740" font-size="20px" style="fill: white;">Purple navy</text><text x="630" y="1760" font-size="20px" style="fill: black;">#4a5184</text><text x="630" y="1780" font-size="20px" style="fill: white;">#4a5184</text><text x="630" y="1800" font-size="20px" style="fill: black;">0x4a90</text><text x="630" y="1820" font-size="20px" style="fill: white;">0x4a90</text><rect x="0" y="1890" width="200" height="200" rx="20px" ry="20px" style="fill: #ff4dde;"></rect><text x="0" y="1930" font-size="20px" style="fill: black;">Purple Pizzazz</text><text x="0" y="1950" font-size="20px" style="fill: white;">Purple Pizzazz</text><text x="0" y="1970" font-size="20px" style="fill: black;">#ff4dde</text><text x="0" y="1990" font-size="20px" style="fill: white;">#ff4dde</text><text x="0" y="2010" font-size="20px" style="fill: black;">0xfa7b</text><text x="0" y="2030" font-size="20px" style="fill: white;">0xfa7b</text><rect x="210" y="1890" width="200" height="200" rx="20px" ry="20px" style="fill: #9c51b5;"></rect><text x="210" y="1930" font-size="20px" style="fill: black;">Purple Plum</text><text x="210" y="1950" font-size="20px" style="fill: white;">Purple Plum</text><text x="210" y="1970" font-size="20px" style="fill: black;">#9c51b5</text><text x="210" y="1990" font-size="20px" style="fill: white;">#9c51b5</text><text x="210" y="2010" font-size="20px" style="fill: black;">0x9a96</text><text x="210" y="2030" font-size="20px" style="fill: white;">0x9a96</text><rect x="420" y="1890" width="200" height="200" rx="20px" ry="20px" style="fill: #840084;"></rect><text x="420" y="1930" font-size="20px" style="fill: black;">Purple (web)</text><text x="420" y="1950" font-size="20px" style="fill: white;">Purple (web)</text><text x="420" y="1970" font-size="20px" style="fill: black;">#840084</text><text x="420" y="1990" font-size="20px" style="fill: white;">#840084</text><text x="420" y="2010" font-size="20px" style="fill: black;">0x8010</text><text x="420" y="2030" font-size="20px" style="fill: white;">0x8010</text><rect x="630" y="1890" width="200" height="200" rx="20px" ry="20px" style="fill: #9c20ef;"></rect><text x="630" y="1930" font-size="20px" style="fill: black;">Purple (X11)</text><text x="630" y="1950" font-size="20px" style="fill: white;">Purple (X11)</text><text x="630" y="1970" font-size="20px" style="fill: black;">#9c20ef</text><text x="630" y="1990" font-size="20px" style="fill: white;">#9c20ef</text><text x="630" y="2010" font-size="20px" style="fill: black;">0x991d</text><text x="630" y="2030" font-size="20px" style="fill: white;">0x991d</text><rect x="0" y="2100" width="200" height="200" rx="20px" ry="20px" style="fill: #9c20ef;"></rect><text x="0" y="2140" font-size="20px" style="fill: black;">Purple (X11 color)</text><text x="0" y="2160" font-size="20px" style="fill: white;">Purple (X11 color)</text><text x="0" y="2180" font-size="20px" style="fill: black;">#9c20ef</text><text x="0" y="2200" font-size="20px" style="fill: white;">#9c20ef</text><text x="0" y="2220" font-size="20px" style="fill: black;">0x991d</text><text x="0" y="2240" font-size="20px" style="fill: white;">0x991d</text><rect x="210" y="2100" width="200" height="200" rx="20px" ry="20px" style="fill: #9c4dad;"></rect><text x="210" y="2140" font-size="20px" style="fill: black;">Purpureus</text><text x="210" y="2160" font-size="20px" style="fill: white;">Purpureus</text><text x="210" y="2180" font-size="20px" style="fill: black;">#9c4dad</text><text x="210" y="2200" font-size="20px" style="fill: white;">#9c4dad</text><text x="210" y="2220" font-size="20px" style="fill: black;">0x9a75</text><text x="210" y="2240" font-size="20px" style="fill: white;">0x9a75</text><rect x="420" y="2100" width="200" height="200" rx="20px" ry="20px" style="fill: #63359c;"></rect><text x="420" y="2140" font-size="20px" style="fill: black;">Rebecca purple</text><text x="420" y="2160" font-size="20px" style="fill: white;">Rebecca purple</text><text x="420" y="2180" font-size="20px" style="fill: black;">#63359c</text><text x="420" y="2200" font-size="20px" style="fill: white;">#63359c</text><text x="420" y="2220" font-size="20px" style="fill: black;">0x61b3</text><text x="420" y="2240" font-size="20px" style="fill: white;">0x61b3</text><rect x="630" y="2100" width="200" height="200" rx="20px" ry="20px" style="fill: #e6007b;"></rect><text x="630" y="2140" font-size="20px" style="fill: black;">Red-purple</text><text x="630" y="2160" font-size="20px" style="fill: white;">Red-purple</text><text x="630" y="2180" font-size="20px" style="fill: black;">#e6007b</text><text x="630" y="2200" font-size="20px" style="fill: white;">#e6007b</text><text x="630" y="2220" font-size="20px" style="fill: black;">0xe00f</text><text x="630" y="2240" font-size="20px" style="fill: white;">0xe00f</text><rect x="0" y="2310" width="200" height="200" rx="20px" ry="20px" style="fill: #c51484;"></rect><text x="0" y="2350" font-size="20px" style="fill: black;">Red-Violet</text><text x="0" y="2370" font-size="20px" style="fill: white;">Red-Violet</text><text x="0" y="2390" font-size="20px" style="fill: black;">#c51484</text><text x="0" y="2410" font-size="20px" style="fill: white;">#c51484</text><text x="0" y="2430" font-size="20px" style="fill: black;">0xc0b0</text><text x="0" y="2450" font-size="20px" style="fill: white;">0xc0b0</text><rect x="210" y="2310" width="200" height="200" rx="20px" ry="20px" style="fill: #7b51ad;"></rect><text x="210" y="2350" font-size="20px" style="fill: black;">Royal Purple</text><text x="210" y="2370" font-size="20px" style="fill: white;">Royal Purple</text><text x="210" y="2390" font-size="20px" style="fill: black;">#7b51ad</text><text x="210" y="2410" font-size="20px" style="fill: white;">#7b51ad</text><text x="210" y="2430" font-size="20px" style="fill: black;">0x7a95</text><text x="210" y="2450" font-size="20px" style="fill: white;">0x7a95</text><rect x="420" y="2310" width="200" height="200" rx="20px" ry="20px" style="fill: #d6bed6;"></rect><text x="420" y="2350" font-size="20px" style="fill: black;">Thistle</text><text x="420" y="2370" font-size="20px" style="fill: white;">Thistle</text><text x="420" y="2390" font-size="20px" style="fill: black;">#d6bed6</text><text x="420" y="2410" font-size="20px" style="fill: white;">#d6bed6</text><text x="420" y="2430" font-size="20px" style="fill: black;">0xd5fa</text><text x="420" y="2450" font-size="20px" style="fill: white;">0xd5fa</text><rect x="630" y="2310" width="200" height="200" rx="20px" ry="20px" style="fill: #63003a;"></rect><text x="630" y="2350" font-size="20px" style="fill: black;">Tyrian Purple</text><text x="630" y="2370" font-size="20px" style="fill: white;">Tyrian Purple</text><text x="630" y="2390" font-size="20px" style="fill: black;">#63003a</text><text x="630" y="2410" font-size="20px" style="fill: white;">#63003a</text><text x="630" y="2430" font-size="20px" style="fill: black;">0x6007</text><text x="630" y="2450" font-size="20px" style="fill: white;">0x6007</text></svg>