<svg width="1680px" height="780px" xmlns="http://www.w3.org/2000/svg"><rect x="0" y="0" width="200" height="50" style="fill: #d62029;"></rect><text x="0" y="20" font-size="25px" style="fill: black;">Amaranth red</text><text x="0" y="45" font-size="25px" style="fill: white;">Amaranth red</text><rect x="210" y="0" width="200" height="50" style="fill: #7b0800;"></rect><text x="210" y="20" font-size="25px" style="fill: black;">Barn Red</text><text x="210" y="45" font-size="25px" style="fill: white;">Barn Red</text><rect x="420" y="0" width="200" height="50" style="fill: #ff6d5a;"></rect><text x="420" y="20" font-size="25px" style="fill: black;">Bittersweet</text><text x="420" y="45" font-size="25px" style="fill: white;">Bittersweet</text><rect x="630" y="0" width="200" height="50" style="fill: #bd5152;"></rect><text x="630" y="20" font-size="25px" style="fill: black;">Bittersweet shimmer</text><text x="630" y="45" font-size="25px" style="fill: white;">Bittersweet shimmer</text><rect x="840" y="0" width="200" height="50" style="fill: #630000;"></rect><text x="840" y="20" font-size="25px" style="fill: black;">Blood red</text><text x="840" y="45" font-size="25px" style="fill: white;">Blood red</text><rect x="1050" y="0" width="200" height="50" style="fill: #ce4152;"></rect><text x="1050" y="20" font-size="25px" style="fill: black;">Brick red</text><text x="1050" y="45" font-size="25px" style="fill: white;">Brick red</text><rect x="1260" y="0" width="200" height="50" style="fill: #ff617b;"></rect><text x="1260" y="20" font-size="25px" style="fill: black;">Brink Pink</text><text x="1260" y="45" font-size="25px" style="fill: white;">Brink Pink</text><rect x="1470" y="0" width="200" height="50" style="fill: #e60021;"></rect><text x="1470" y="20" font-size="25px" style="fill: black;">Cadmium red</text><text x="1470" y="45" font-size="25px" style="fill: white;">Cadmium red</text><rect x="0" y="60" width="200" height="50" style="fill: #ff0800;"></rect><text x="0" y="80" font-size="25px" style="fill: black;">Candy apple red</text><text x="0" y="105" font-size="25px" style="fill: white;">Candy apple red</text><rect x="210" y="60" width="200" height="50" style="fill: #ffbab5;"></rect><text x="210" y="80" font-size="25px" style="fill: black;">Cantaloupe Melon</text><text x="210" y="105" font-size="25px" style="fill: white;">Cantaloupe Melon</text><rect x="420" y="60" width="200" height="50" style="fill: #c51c3a;"></rect><text x="420" y="80" font-size="25px" style="fill: black;">Cardinal</text><text x="420" y="105" font-size="25px" style="fill: white;">Cardinal</text><rect x="630" y="60" width="200" height="50" style="fill: #940019;"></rect><text x="630" y="80" font-size="25px" style="fill: black;">Carmine</text><text x="630" y="105" font-size="25px" style="fill: white;">Carmine</text><rect x="840" y="60" width="200" height="50" style="fill: #de3d31;"></rect><text x="840" y="80" font-size="25px" style="fill: black;"> CG red</text><text x="840" y="105" font-size="25px" style="fill: white;"> CG red</text><rect x="1050" y="60" width="200" height="50" style="fill: #de3d29;"></rect><text x="1050" y="80" font-size="25px" style="fill: black;">Chili red</text><text x="1050" y="105" font-size="25px" style="fill: white;">Chili red</text><rect x="1260" y="60" width="200" height="50" style="fill: #ad3921;"></rect><text x="1260" y="80" font-size="25px" style="fill: black;">Chinese red</text><text x="1260" y="105" font-size="25px" style="fill: white;">Chinese red</text><rect x="1470" y="60" width="200" height="50" style="fill: #5a1019;"></rect><text x="1470" y="80" font-size="25px" style="fill: black;">Chocolate Cosmos</text><text x="1470" y="105" font-size="25px" style="fill: white;">Chocolate Cosmos</text><rect x="0" y="120" width="200" height="50" style="fill: #e64d31;"></rect><text x="0" y="140" font-size="25px" style="fill: black;">Cinnabar</text><text x="0" y="165" font-size="25px" style="fill: white;">Cinnabar</text><rect x="210" y="120" width="200" height="50" style="fill: #ce6d52;"></rect><text x="210" y="140" font-size="25px" style="fill: black;">Copper red</text><text x="210" y="165" font-size="25px" style="fill: white;">Copper red</text><rect x="420" y="120" width="200" height="50" style="fill: #f7827b;"></rect><text x="420" y="140" font-size="25px" style="fill: black;">Coral Pink</text><text x="420" y="165" font-size="25px" style="fill: white;">Coral Pink</text><rect x="630" y="120" width="200" height="50" style="fill: #8c4142;"></rect><text x="630" y="140" font-size="25px" style="fill: black;">Cordovan</text><text x="630" y="165" font-size="25px" style="fill: white;">Cordovan</text><rect x="840" y="120" width="200" height="50" style="fill: #b51c19;"></rect><text x="840" y="140" font-size="25px" style="fill: black;">Cornell red</text><text x="840" y="165" font-size="25px" style="fill: white;">Cornell red</text><rect x="1050" y="120" width="200" height="50" style="fill: #de143a;"></rect><text x="1050" y="140" font-size="25px" style="fill: black;">Crimson</text><text x="1050" y="165" font-size="25px" style="fill: white;">Crimson</text><rect x="1260" y="120" width="200" height="50" style="fill: #f7f7f7;"></rect><text x="1260" y="140" font-size="25px" style="fill: black;">Cultured</text><text x="1260" y="165" font-size="25px" style="fill: white;">Cultured</text><rect x="1470" y="120" width="200" height="50" style="fill: #8c0000;"></rect><text x="1470" y="140" font-size="25px" style="fill: black;">Dark red</text><text x="1470" y="165" font-size="25px" style="fill: white;">Dark red</text><rect x="0" y="180" width="200" height="50" style="fill: #ad4d52;"></rect><text x="0" y="200" font-size="25px" style="fill: black;">English red</text><text x="0" y="225" font-size="25px" style="fill: white;">English red</text><rect x="210" y="180" width="200" height="50" style="fill: #841819;"></rect><text x="210" y="200" font-size="25px" style="fill: black;">Falu red</text><text x="210" y="225" font-size="25px" style="fill: white;">Falu red</text><rect x="420" y="180" width="200" height="50" style="fill: #b52021;"></rect><text x="420" y="200" font-size="25px" style="fill: black;">Fire brick</text><text x="420" y="225" font-size="25px" style="fill: white;">Fire brick</text><rect x="630" y="180" width="200" height="50" style="fill: #ce2029;"></rect><text x="630" y="200" font-size="25px" style="fill: black;">Fire engine red</text><text x="630" y="225" font-size="25px" style="fill: white;">Fire engine red</text><rect x="840" y="180" width="200" height="50" style="fill: #733531;"></rect><text x="840" y="200" font-size="25px" style="fill: black;">Garnet</text><text x="840" y="225" font-size="25px" style="fill: white;">Garnet</text><rect x="1050" y="180" width="200" height="50" style="fill: #ef283a;"></rect><text x="1050" y="200" font-size="25px" style="fill: black;">Imperial Red</text><text x="1050" y="225" font-size="25px" style="fill: white;">Imperial Red</text><rect x="1260" y="180" width="200" height="50" style="fill: #ce5d5a;"></rect><text x="1260" y="200" font-size="25px" style="fill: black;">Indian Red</text><text x="1260" y="225" font-size="25px" style="fill: white;">Indian Red</text><rect x="1470" y="180" width="200" height="50" style="fill: #ce5542;"></rect><text x="1470" y="200" font-size="25px" style="fill: black;">Jasper</text><text x="1470" y="225" font-size="25px" style="fill: white;">Jasper</text><rect x="0" y="240" width="200" height="50" style="fill: #ef8284;"></rect><text x="0" y="260" font-size="25px" style="fill: black;">Light Coral</text><text x="0" y="285" font-size="25px" style="fill: white;">Light Coral</text><rect x="210" y="240" width="200" height="50" style="fill: #ff7d7b;"></rect><text x="210" y="260" font-size="25px" style="fill: black;">Light red</text><text x="210" y="285" font-size="25px" style="fill: white;">Light red</text><rect x="420" y="240" width="200" height="50" style="fill: #e62021;"></rect><text x="420" y="260" font-size="25px" style="fill: black;">Lust</text><text x="420" y="285" font-size="25px" style="fill: white;">Lust</text><rect x="630" y="240" width="200" height="50" style="fill: #a50021;"></rect><text x="630" y="260" font-size="25px" style="fill: black;">Madder</text><text x="630" y="285" font-size="25px" style="fill: white;">Madder</text><rect x="840" y="240" width="200" height="50" style="fill: #840000;"></rect><text x="840" y="260" font-size="25px" style="fill: black;">Maroon</text><text x="840" y="285" font-size="25px" style="fill: white;">Maroon</text><rect x="1050" y="240" width="200" height="50" style="fill: #d62021;"></rect><text x="1050" y="260" font-size="25px" style="fill: black;">Maximum red</text><text x="1050" y="285" font-size="25px" style="fill: white;">Maximum red</text><rect x="1260" y="240" width="200" height="50" style="fill: #a5397b;"></rect><text x="1260" y="260" font-size="25px" style="fill: black;">Maximum red purple</text><text x="1260" y="285" font-size="25px" style="fill: white;">Maximum red purple</text><rect x="1470" y="240" width="200" height="50" style="fill: #efba4a;"></rect><text x="1470" y="260" font-size="25px" style="fill: black;">Maximum yellow red</text><text x="1470" y="285" font-size="25px" style="fill: white;">Maximum yellow red</text><rect x="0" y="300" width="200" height="50" style="fill: #de0429;"></rect><text x="0" y="320" font-size="25px" style="fill: black;">Medium candy apple red</text><text x="0" y="345" font-size="25px" style="fill: white;">Medium candy apple red</text><rect x="210" y="300" width="200" height="50" style="fill: #c51484;"></rect><text x="210" y="320" font-size="25px" style="fill: black;">Medium violet-red</text><text x="210" y="345" font-size="25px" style="fill: white;">Medium violet-red</text><rect x="420" y="300" width="200" height="50" style="fill: #e68e73;"></rect><text x="420" y="320" font-size="25px" style="fill: black;">Middle red</text><text x="420" y="345" font-size="25px" style="fill: white;">Middle red</text><rect x="630" y="300" width="200" height="50" style="fill: #a55552;"></rect><text x="630" y="320" font-size="25px" style="fill: black;">Middle red purple</text><text x="630" y="345" font-size="25px" style="fill: white;">Middle red purple</text><rect x="840" y="300" width="200" height="50" style="fill: #efb273;"></rect><text x="840" y="320" font-size="25px" style="fill: black;">Middle yellow red</text><text x="840" y="345" font-size="25px" style="fill: white;">Middle yellow red</text><rect x="1050" y="300" width="200" height="50" style="fill: #ffe3de;"></rect><text x="1050" y="320" font-size="25px" style="fill: black;">Misty rose</text><text x="1050" y="345" font-size="25px" style="fill: white;">Misty rose</text><rect x="1260" y="300" width="200" height="50" style="fill: #bd8284;"></rect><text x="1260" y="320" font-size="25px" style="fill: black;">Old rose</text><text x="1260" y="345" font-size="25px" style="fill: white;">Old rose</text><rect x="1470" y="300" width="200" height="50" style="fill: #ff6921;"></rect><text x="1470" y="320" font-size="25px" style="fill: black;">Orange-red</text><text x="1470" y="345" font-size="25px" style="fill: white;">Orange-red</text><rect x="0" y="360" width="200" height="50" style="fill: #ff554a;"></rect><text x="0" y="380" font-size="25px" style="fill: black;">Orange-red (Crayola)</text><text x="0" y="405" font-size="25px" style="fill: white;">Orange-red (Crayola)</text><rect x="210" y="360" width="200" height="50" style="fill: #841419;"></rect><text x="210" y="380" font-size="25px" style="fill: black;">OU Crimson red</text><text x="210" y="405" font-size="25px" style="fill: white;">OU Crimson red</text><rect x="420" y="360" width="200" height="50" style="fill: #ce3531;"></rect><text x="420" y="380" font-size="25px" style="fill: black;">Persian red</text><text x="420" y="405" font-size="25px" style="fill: white;">Persian red</text><rect x="630" y="360" width="200" height="50" style="fill: #ffbece;"></rect><text x="630" y="380" font-size="25px" style="fill: black;">Pink</text><text x="630" y="405" font-size="25px" style="fill: white;">Pink</text><rect x="840" y="360" width="200" height="50" style="fill: #ff355a;"></rect><text x="840" y="380" font-size="25px" style="fill: black;">Radical Red</text><text x="840" y="405" font-size="25px" style="fill: white;">Radical Red</text><rect x="1050" y="360" width="200" height="50" style="fill: #ff0000;"></rect><text x="1050" y="380" font-size="25px" style="fill: black;">Red</text><text x="1050" y="405" font-size="25px" style="fill: white;">Red</text><rect x="1260" y="360" width="200" height="50" style="fill: #ef1c21;"></rect><text x="1260" y="380" font-size="25px" style="fill: black;">Red (CMYK) (pigment red)</text><text x="1260" y="405" font-size="25px" style="fill: white;">Red (CMYK) (pigment red)</text><rect x="1470" y="360" width="200" height="50" style="fill: #ef204a;"></rect><text x="1470" y="380" font-size="25px" style="fill: black;">Red (Crayola)</text><text x="1470" y="405" font-size="25px" style="fill: white;">Red (Crayola)</text><rect x="0" y="420" width="200" height="50" style="fill: #ef003a;"></rect><text x="0" y="440" font-size="25px" style="fill: black;">Red (Munsell)</text><text x="0" y="465" font-size="25px" style="fill: white;">Red (Munsell)</text><rect x="210" y="420" width="200" height="50" style="fill: #c50031;"></rect><text x="210" y="440" font-size="25px" style="fill: black;">Red (NCS)</text><text x="210" y="465" font-size="25px" style="fill: white;">Red (NCS)</text><rect x="420" y="420" width="200" height="50" style="fill: #ff554a;"></rect><text x="420" y="440" font-size="25px" style="fill: black;">Red-orange</text><text x="420" y="465" font-size="25px" style="fill: white;">Red-orange</text><rect x="630" y="420" width="200" height="50" style="fill: #ff4500;"></rect><text x="630" y="440" font-size="25px" style="fill: black;">Red-orange (Color wheel)</text><text x="630" y="465" font-size="25px" style="fill: white;">Red-orange (Color wheel)</text><rect x="840" y="420" width="200" height="50" style="fill: #ff6921;"></rect><text x="840" y="440" font-size="25px" style="fill: black;">Red-orange (Crayola)</text><text x="840" y="465" font-size="25px" style="fill: white;">Red-orange (Crayola)</text><rect x="1050" y="420" width="200" height="50" style="fill: #ef283a;"></rect><text x="1050" y="440" font-size="25px" style="fill: black;">Red (Pantone)</text><text x="1050" y="465" font-size="25px" style="fill: white;">Red (Pantone)</text><rect x="1260" y="420" width="200" height="50" style="fill: #ef1c21;"></rect><text x="1260" y="440" font-size="25px" style="fill: black;">Red (pigment)</text><text x="1260" y="465" font-size="25px" style="fill: white;">Red (pigment)</text><rect x="1470" y="420" width="200" height="50" style="fill: #e6007b;"></rect><text x="1470" y="440" font-size="25px" style="fill: black;">Red-purple</text><text x="1470" y="465" font-size="25px" style="fill: white;">Red-purple</text><rect x="0" y="480" width="200" height="50" style="fill: #ff0000;"></rect><text x="0" y="500" font-size="25px" style="fill: black;">Red (RGB)</text><text x="0" y="525" font-size="25px" style="fill: white;">Red (RGB)</text><rect x="210" y="480" width="200" height="50" style="fill: #ff2810;"></rect><text x="210" y="500" font-size="25px" style="fill: black;">Red (RYB)</text><text x="210" y="525" font-size="25px" style="fill: white;">Red (RYB)</text><rect x="420" y="480" width="200" height="50" style="fill: #ff394a;"></rect><text x="420" y="500" font-size="25px" style="fill: black;">Red Salsa</text><text x="420" y="525" font-size="25px" style="fill: white;">Red Salsa</text><rect x="630" y="480" width="200" height="50" style="fill: #942d42;"></rect><text x="630" y="500" font-size="25px" style="fill: black;">Red-violet (Color wheel)</text><text x="630" y="525" font-size="25px" style="fill: white;">Red-violet (Color wheel)</text><rect x="840" y="480" width="200" height="50" style="fill: #bd458c;"></rect><text x="840" y="500" font-size="25px" style="fill: black;">Red-violet (Crayola)</text><text x="840" y="525" font-size="25px" style="fill: white;">Red-violet (Crayola)</text><rect x="1050" y="480" width="200" height="50" style="fill: #a55952;"></rect><text x="1050" y="500" font-size="25px" style="fill: black;">Redwood</text><text x="1050" y="525" font-size="25px" style="fill: white;">Redwood</text><rect x="1260" y="480" width="200" height="50" style="fill: #e60029;"></rect><text x="1260" y="500" font-size="25px" style="fill: black;">Rojo</text><text x="1260" y="525" font-size="25px" style="fill: white;">Rojo</text><rect x="1470" y="480" width="200" height="50" style="fill: #ad1000;"></rect><text x="1470" y="500" font-size="25px" style="fill: black;">Rojo Spanish red</text><text x="1470" y="525" font-size="25px" style="fill: white;">Rojo Spanish red</text><rect x="0" y="540" width="200" height="50" style="fill: #6b494a;"></rect><text x="0" y="560" font-size="25px" style="fill: black;">Rose ebony</text><text x="0" y="585" font-size="25px" style="fill: white;">Rose ebony</text><rect x="210" y="540" width="200" height="50" style="fill: #c51c52;"></rect><text x="210" y="560" font-size="25px" style="fill: black;">Rose red</text><text x="210" y="585" font-size="25px" style="fill: white;">Rose red</text><rect x="420" y="540" width="200" height="50" style="fill: #945d5a;"></rect><text x="420" y="560" font-size="25px" style="fill: black;">Rose taupe</text><text x="420" y="585" font-size="25px" style="fill: white;">Rose taupe</text><rect x="630" y="540" width="200" height="50" style="fill: #ad4d52;"></rect><text x="630" y="560" font-size="25px" style="fill: black;">Rose vale</text><text x="630" y="585" font-size="25px" style="fill: white;">Rose vale</text><rect x="840" y="540" width="200" height="50" style="fill: #630008;"></rect><text x="840" y="560" font-size="25px" style="fill: black;">Rosewood</text><text x="840" y="585" font-size="25px" style="fill: white;">Rosewood</text><rect x="1050" y="540" width="200" height="50" style="fill: #bd8e8c;"></rect><text x="1050" y="560" font-size="25px" style="fill: black;">Rosy Brown</text><text x="1050" y="585" font-size="25px" style="fill: white;">Rosy Brown</text><rect x="1260" y="540" width="200" height="50" style="fill: #ce0052;"></rect><text x="1260" y="560" font-size="25px" style="fill: black;">Rubine red</text><text x="1260" y="585" font-size="25px" style="fill: white;">Rubine red</text><rect x="1470" y="540" width="200" height="50" style="fill: #9c1021;"></rect><text x="1470" y="560" font-size="25px" style="fill: black;">Ruby red</text><text x="1470" y="585" font-size="25px" style="fill: white;">Ruby red</text><rect x="0" y="600" width="200" height="50" style="fill: #de2d42;"></rect><text x="0" y="620" font-size="25px" style="fill: black;">Rusty red</text><text x="0" y="645" font-size="25px" style="fill: white;">Rusty red</text><rect x="210" y="600" width="200" height="50" style="fill: #f78273;"></rect><text x="210" y="620" font-size="25px" style="fill: black;">Salmon</text><text x="210" y="645" font-size="25px" style="fill: white;">Salmon</text><rect x="420" y="600" width="200" height="50" style="fill: #ff92a5;"></rect><text x="420" y="620" font-size="25px" style="fill: black;">Salmon Pink</text><text x="420" y="645" font-size="25px" style="fill: white;">Salmon Pink</text><rect x="630" y="600" width="200" height="50" style="fill: #ff2400;"></rect><text x="630" y="620" font-size="25px" style="fill: black;">Scarlet</text><text x="630" y="645" font-size="25px" style="fill: white;">Scarlet</text><rect x="840" y="600" width="200" height="50" style="fill: #ff3952;"></rect><text x="840" y="620" font-size="25px" style="fill: black;">Sizzling Red</text><text x="840" y="645" font-size="25px" style="fill: white;">Sizzling Red</text><rect x="1050" y="600" width="200" height="50" style="fill: #e60029;"></rect><text x="1050" y="620" font-size="25px" style="fill: black;">Spanish red</text><text x="1050" y="645" font-size="25px" style="fill: white;">Spanish red</text><rect x="1260" y="600" width="200" height="50" style="fill: #d64500;"></rect><text x="1260" y="620" font-size="25px" style="fill: black;">Syracuse Orange</text><text x="1260" y="645" font-size="25px" style="fill: white;">Syracuse Orange</text><rect x="1470" y="600" width="200" height="50" style="fill: #f7c2c5;"></rect><text x="1470" y="620" font-size="25px" style="fill: black;">Tea rose (red)</text><text x="1470" y="645" font-size="25px" style="fill: white;">Tea rose (red)</text><rect x="0" y="660" width="200" height="50" style="fill: #ff614a;"></rect><text x="0" y="680" font-size="25px" style="fill: black;">Tomato</text><text x="0" y="705" font-size="25px" style="fill: white;">Tomato</text><rect x="210" y="660" width="200" height="50" style="fill: #ad1000;"></rect><text x="210" y="680" font-size="25px" style="fill: black;">Turkey red</text><text x="210" y="705" font-size="25px" style="fill: white;">Turkey red</text><rect x="420" y="660" width="200" height="50" style="fill: #7b494a;"></rect><text x="420" y="680" font-size="25px" style="fill: black;">Tuscan red</text><text x="420" y="705" font-size="25px" style="fill: white;">Tuscan red</text><rect x="630" y="660" width="200" height="50" style="fill: #d6004a;"></rect><text x="630" y="680" font-size="25px" style="fill: black;">UA red</text><text x="630" y="705" font-size="25px" style="fill: white;">UA red</text><rect x="840" y="660" width="200" height="50" style="fill: #ff6d84;"></rect><text x="840" y="680" font-size="25px" style="fill: black;">Ultra red</text><text x="840" y="705" font-size="25px" style="fill: white;">Ultra red</text><rect x="1050" y="660" width="200" height="50" style="fill: #9c0000;"></rect><text x="1050" y="680" font-size="25px" style="fill: black;">University of Pennsylvania Red</text><text x="1050" y="705" font-size="25px" style="fill: white;">University of Pennsylvania Red</text><rect x="1260" y="660" width="200" height="50" style="fill: #ad2029;"></rect><text x="1260" y="680" font-size="25px" style="fill: black;">Upsdell red</text><text x="1260" y="705" font-size="25px" style="fill: white;">Upsdell red</text><rect x="1470" y="660" width="200" height="50" style="fill: #c50819;"></rect><text x="1470" y="680" font-size="25px" style="fill: black;">Venetian red</text><text x="1470" y="705" font-size="25px" style="fill: white;">Venetian red</text><rect x="0" y="720" width="200" height="50" style="fill: #e64131;"></rect><text x="0" y="740" font-size="25px" style="fill: black;">Vermilion</text><text x="0" y="765" font-size="25px" style="fill: white;">Vermilion</text><rect x="210" y="720" width="200" height="50" style="fill: #f75594;"></rect><text x="210" y="740" font-size="25px" style="fill: black;">Violet-red</text><text x="210" y="765" font-size="25px" style="fill: white;">Violet-red</text></svg>