<svg width="1680px" height="240px" xmlns="http://www.w3.org/2000/svg"><rect x="0" y="0" width="200" height="50" style="fill: #b586bd;"></rect><text x="0" y="20" font-size="25px" style="fill: black;">African Violet</text><text x="0" y="45" font-size="25px" style="fill: white;">African Violet</text><rect x="210" y="0" width="200" height="50" style="fill: #8c2dde;"></rect><text x="210" y="20" font-size="25px" style="fill: black;">Blue-violet</text><text x="210" y="45" font-size="25px" style="fill: white;">Blue-violet</text><rect x="420" y="0" width="200" height="50" style="fill: #4a187b;"></rect><text x="420" y="20" font-size="25px" style="fill: black;">Blue-violet (color wheel)</text><text x="420" y="45" font-size="25px" style="fill: white;">Blue-violet (color wheel)</text><rect x="630" y="0" width="200" height="50" style="fill: #7365bd;"></rect><text x="630" y="20" font-size="25px" style="fill: black;">Blue-violet (Crayola)</text><text x="630" y="45" font-size="25px" style="fill: white;">Blue-violet (Crayola)</text><rect x="840" y="0" width="200" height="50" style="fill: #84618c;"></rect><text x="840" y="20" font-size="25px" style="fill: black;">Chinese Violet</text><text x="840" y="45" font-size="25px" style="fill: white;">Chinese Violet</text><rect x="1050" y="0" width="200" height="50" style="fill: #9400d6;"></rect><text x="1050" y="20" font-size="25px" style="fill: black;">Dark Violet</text><text x="1050" y="45" font-size="25px" style="fill: white;">Dark Violet</text><rect x="1260" y="0" width="200" height="50" style="fill: #8c00ff;"></rect><text x="1260" y="20" font-size="25px" style="fill: black;">Electric Violet</text><text x="1260" y="45" font-size="25px" style="fill: white;">Electric Violet</text><rect x="1470" y="0" width="200" height="50" style="fill: #523d5a;"></rect><text x="1470" y="20" font-size="25px" style="fill: black;">English Violet</text><text x="1470" y="45" font-size="25px" style="fill: white;">English Violet</text><rect x="0" y="60" width="200" height="50" style="fill: #8c04ce;"></rect><text x="0" y="80" font-size="25px" style="fill: black;">French Violet</text><text x="0" y="105" font-size="25px" style="fill: white;">French Violet</text><rect x="210" y="60" width="200" height="50" style="fill: #6b2da5;"></rect><text x="210" y="80" font-size="25px" style="fill: black;">Grape</text><text x="210" y="105" font-size="25px" style="fill: white;">Grape</text><rect x="420" y="60" width="200" height="50" style="fill: #5a3152;"></rect><text x="420" y="80" font-size="25px" style="fill: black;">Japanese violet</text><text x="420" y="105" font-size="25px" style="fill: white;">Japanese violet</text><rect x="630" y="60" width="200" height="50" style="fill: #b57dde;"></rect><text x="630" y="80" font-size="25px" style="fill: black;">Lavender</text><text x="630" y="105" font-size="25px" style="fill: white;">Lavender</text><rect x="840" y="60" width="200" height="50" style="fill: #deaeff;"></rect><text x="840" y="80" font-size="25px" style="fill: black;">Mauve (Mallow)</text><text x="840" y="105" font-size="25px" style="fill: white;">Mauve (Mallow)</text><rect x="1050" y="60" width="200" height="50" style="fill: #c51484;"></rect><text x="1050" y="80" font-size="25px" style="fill: black;">Medium violet-red</text><text x="1050" y="105" font-size="25px" style="fill: white;">Medium violet-red</text><rect x="1260" y="60" width="200" height="50" style="fill: #942d42;"></rect><text x="1260" y="80" font-size="25px" style="fill: black;">Red-violet (Color wheel)</text><text x="1260" y="105" font-size="25px" style="fill: white;">Red-violet (Color wheel)</text><rect x="1470" y="60" width="200" height="50" style="fill: #bd458c;"></rect><text x="1470" y="80" font-size="25px" style="fill: black;">Red-violet (Crayola)</text><text x="1470" y="105" font-size="25px" style="fill: white;">Red-violet (Crayola)</text><rect x="0" y="120" width="200" height="50" style="fill: #31184a;"></rect><text x="0" y="140" font-size="25px" style="fill: black;">Russian Violet</text><text x="0" y="165" font-size="25px" style="fill: white;">Russian Violet</text><rect x="210" y="120" width="200" height="50" style="fill: #4a2884;"></rect><text x="210" y="140" font-size="25px" style="fill: black;">Spanish violet</text><text x="210" y="165" font-size="25px" style="fill: white;">Spanish violet</text><rect x="420" y="120" width="200" height="50" style="fill: #635594;"></rect><text x="420" y="140" font-size="25px" style="fill: black;">Ultra Violet</text><text x="420" y="165" font-size="25px" style="fill: white;">Ultra Violet</text><rect x="630" y="120" width="200" height="50" style="fill: #7b00ff;"></rect><text x="630" y="140" font-size="25px" style="fill: black;">Violet</text><text x="630" y="165" font-size="25px" style="fill: white;">Violet</text><rect x="840" y="120" width="200" height="50" style="fill: #3149b5;"></rect><text x="840" y="140" font-size="25px" style="fill: black;">Violet-blue</text><text x="840" y="165" font-size="25px" style="fill: white;">Violet-blue</text><rect x="1050" y="120" width="200" height="50" style="fill: #736dc5;"></rect><text x="1050" y="140" font-size="25px" style="fill: black;">Violet-blue (Crayola)</text><text x="1050" y="165" font-size="25px" style="fill: white;">Violet-blue (Crayola)</text><rect x="1260" y="120" width="200" height="50" style="fill: #7b00ff;"></rect><text x="1260" y="140" font-size="25px" style="fill: black;">Violet (color wheel)</text><text x="1260" y="165" font-size="25px" style="fill: white;">Violet (color wheel)</text><rect x="1470" y="120" width="200" height="50" style="fill: #943d7b;"></rect><text x="1470" y="140" font-size="25px" style="fill: black;">Violet (crayola)</text><text x="1470" y="165" font-size="25px" style="fill: white;">Violet (crayola)</text><rect x="0" y="180" width="200" height="50" style="fill: #4a2884;"></rect><text x="0" y="200" font-size="25px" style="fill: black;">Violet (G&amp;S)</text><text x="0" y="225" font-size="25px" style="fill: white;">Violet (G&amp;S)</text><rect x="210" y="180" width="200" height="50" style="fill: #5a3152;"></rect><text x="210" y="200" font-size="25px" style="fill: black;">Violet (JTC)</text><text x="210" y="225" font-size="25px" style="fill: white;">Violet (JTC)</text><rect x="420" y="180" width="200" height="50" style="fill: #f75594;"></rect><text x="420" y="200" font-size="25px" style="fill: black;">Violet-red</text><text x="420" y="225" font-size="25px" style="fill: white;">Violet-red</text><rect x="630" y="180" width="200" height="50" style="fill: #8400ad;"></rect><text x="630" y="200" font-size="25px" style="fill: black;">Violet (RYB)</text><text x="630" y="225" font-size="25px" style="fill: white;">Violet (RYB)</text><rect x="840" y="180" width="200" height="50" style="fill: #ef82ef;"></rect><text x="840" y="200" font-size="25px" style="fill: black;">Violet (web)</text><text x="840" y="225" font-size="25px" style="fill: white;">Violet (web)</text><rect x="1050" y="180" width="200" height="50" style="fill: #ef82ef;"></rect><text x="1050" y="200" font-size="25px" style="fill: black;">Violet (web color)</text><text x="1050" y="225" font-size="25px" style="fill: white;">Violet (web color)</text><rect x="1260" y="180" width="200" height="50" style="fill: #9c00ff;"></rect><text x="1260" y="200" font-size="25px" style="fill: black;">Vivid Violet</text><text x="1260" y="225" font-size="25px" style="fill: white;">Vivid Violet</text><rect x="1470" y="180" width="200" height="50" style="fill: #c5a2de;"></rect><text x="1470" y="200" font-size="25px" style="fill: black;">Wisteria</text><text x="1470" y="225" font-size="25px" style="fill: white;">Wisteria</text></svg>