<svg width="840px" height="1680px" xmlns="http://www.w3.org/2000/svg"><rect x="0" y="0" width="200" height="200" rx="20px" ry="20px" style="fill: #b586bd;"></rect><text x="0" y="40" font-size="20px" style="fill: black;">African Violet</text><text x="0" y="60" font-size="20px" style="fill: white;">African Violet</text><text x="0" y="80" font-size="20px" style="fill: black;">#b586bd</text><text x="0" y="100" font-size="20px" style="fill: white;">#b586bd</text><text x="0" y="120" font-size="20px" style="fill: black;">0xb437</text><text x="0" y="140" font-size="20px" style="fill: white;">0xb437</text><rect x="210" y="0" width="200" height="200" rx="20px" ry="20px" style="fill: #8c2dde;"></rect><text x="210" y="40" font-size="20px" style="fill: black;">Blue-violet</text><text x="210" y="60" font-size="20px" style="fill: white;">Blue-violet</text><text x="210" y="80" font-size="20px" style="fill: black;">#8c2dde</text><text x="210" y="100" font-size="20px" style="fill: white;">#8c2dde</text><text x="210" y="120" font-size="20px" style="fill: black;">0x897b</text><text x="210" y="140" font-size="20px" style="fill: white;">0x897b</text><rect x="420" y="0" width="200" height="200" rx="20px" ry="20px" style="fill: #4a187b;"></rect><text x="420" y="40" font-size="20px" style="fill: black;">Blue-violet (color wheel)</text><text x="420" y="60" font-size="20px" style="fill: white;">Blue-violet (color wheel)</text><text x="420" y="80" font-size="20px" style="fill: black;">#4a187b</text><text x="420" y="100" font-size="20px" style="fill: white;">#4a187b</text><text x="420" y="120" font-size="20px" style="fill: black;">0x48cf</text><text x="420" y="140" font-size="20px" style="fill: white;">0x48cf</text><rect x="630" y="0" width="200" height="200" rx="20px" ry="20px" style="fill: #7365bd;"></rect><text x="630" y="40" font-size="20px" style="fill: black;">Blue-violet (Crayola)</text><text x="630" y="60" font-size="20px" style="fill: white;">Blue-violet (Crayola)</text><text x="630" y="80" font-size="20px" style="fill: black;">#7365bd</text><text x="630" y="100" font-size="20px" style="fill: white;">#7365bd</text><text x="630" y="120" font-size="20px" style="fill: black;">0x7337</text><text x="630" y="140" font-size="20px" style="fill: white;">0x7337</text><rect x="0" y="210" width="200" height="200" rx="20px" ry="20px" style="fill: #84618c;"></rect><text x="0" y="250" font-size="20px" style="fill: black;">Chinese Violet</text><text x="0" y="270" font-size="20px" style="fill: white;">Chinese Violet</text><text x="0" y="290" font-size="20px" style="fill: black;">#84618c</text><text x="0" y="310" font-size="20px" style="fill: white;">#84618c</text><text x="0" y="330" font-size="20px" style="fill: black;">0x8311</text><text x="0" y="350" font-size="20px" style="fill: white;">0x8311</text><rect x="210" y="210" width="200" height="200" rx="20px" ry="20px" style="fill: #9400d6;"></rect><text x="210" y="250" font-size="20px" style="fill: black;">Dark Violet</text><text x="210" y="270" font-size="20px" style="fill: white;">Dark Violet</text><text x="210" y="290" font-size="20px" style="fill: black;">#9400d6</text><text x="210" y="310" font-size="20px" style="fill: white;">#9400d6</text><text x="210" y="330" font-size="20px" style="fill: black;">0x901a</text><text x="210" y="350" font-size="20px" style="fill: white;">0x901a</text><rect x="420" y="210" width="200" height="200" rx="20px" ry="20px" style="fill: #8c00ff;"></rect><text x="420" y="250" font-size="20px" style="fill: black;">Electric Violet</text><text x="420" y="270" font-size="20px" style="fill: white;">Electric Violet</text><text x="420" y="290" font-size="20px" style="fill: black;">#8c00ff</text><text x="420" y="310" font-size="20px" style="fill: white;">#8c00ff</text><text x="420" y="330" font-size="20px" style="fill: black;">0x881f</text><text x="420" y="350" font-size="20px" style="fill: white;">0x881f</text><rect x="630" y="210" width="200" height="200" rx="20px" ry="20px" style="fill: #523d5a;"></rect><text x="630" y="250" font-size="20px" style="fill: black;">English Violet</text><text x="630" y="270" font-size="20px" style="fill: white;">English Violet</text><text x="630" y="290" font-size="20px" style="fill: black;">#523d5a</text><text x="630" y="310" font-size="20px" style="fill: white;">#523d5a</text><text x="630" y="330" font-size="20px" style="fill: black;">0x51eb</text><text x="630" y="350" font-size="20px" style="fill: white;">0x51eb</text><rect x="0" y="420" width="200" height="200" rx="20px" ry="20px" style="fill: #8c04ce;"></rect><text x="0" y="460" font-size="20px" style="fill: black;">French Violet</text><text x="0" y="480" font-size="20px" style="fill: white;">French Violet</text><text x="0" y="500" font-size="20px" style="fill: black;">#8c04ce</text><text x="0" y="520" font-size="20px" style="fill: white;">#8c04ce</text><text x="0" y="540" font-size="20px" style="fill: black;">0x8839</text><text x="0" y="560" font-size="20px" style="fill: white;">0x8839</text><rect x="210" y="420" width="200" height="200" rx="20px" ry="20px" style="fill: #6b2da5;"></rect><text x="210" y="460" font-size="20px" style="fill: black;">Grape</text><text x="210" y="480" font-size="20px" style="fill: white;">Grape</text><text x="210" y="500" font-size="20px" style="fill: black;">#6b2da5</text><text x="210" y="520" font-size="20px" style="fill: white;">#6b2da5</text><text x="210" y="540" font-size="20px" style="fill: black;">0x6974</text><text x="210" y="560" font-size="20px" style="fill: white;">0x6974</text><rect x="420" y="420" width="200" height="200" rx="20px" ry="20px" style="fill: #5a3152;"></rect><text x="420" y="460" font-size="20px" style="fill: black;">Japanese violet</text><text x="420" y="480" font-size="20px" style="fill: white;">Japanese violet</text><text x="420" y="500" font-size="20px" style="fill: black;">#5a3152</text><text x="420" y="520" font-size="20px" style="fill: white;">#5a3152</text><text x="420" y="540" font-size="20px" style="fill: black;">0x598a</text><text x="420" y="560" font-size="20px" style="fill: white;">0x598a</text><rect x="630" y="420" width="200" height="200" rx="20px" ry="20px" style="fill: #b57dde;"></rect><text x="630" y="460" font-size="20px" style="fill: black;">Lavender</text><text x="630" y="480" font-size="20px" style="fill: white;">Lavender</text><text x="630" y="500" font-size="20px" style="fill: black;">#b57dde</text><text x="630" y="520" font-size="20px" style="fill: white;">#b57dde</text><text x="630" y="540" font-size="20px" style="fill: black;">0xb3fb</text><text x="630" y="560" font-size="20px" style="fill: white;">0xb3fb</text><rect x="0" y="630" width="200" height="200" rx="20px" ry="20px" style="fill: #deaeff;"></rect><text x="0" y="670" font-size="20px" style="fill: black;">Mauve (Mallow)</text><text x="0" y="690" font-size="20px" style="fill: white;">Mauve (Mallow)</text><text x="0" y="710" font-size="20px" style="fill: black;">#deaeff</text><text x="0" y="730" font-size="20px" style="fill: white;">#deaeff</text><text x="0" y="750" font-size="20px" style="fill: black;">0xdd7f</text><text x="0" y="770" font-size="20px" style="fill: white;">0xdd7f</text><rect x="210" y="630" width="200" height="200" rx="20px" ry="20px" style="fill: #c51484;"></rect><text x="210" y="670" font-size="20px" style="fill: black;">Medium violet-red</text><text x="210" y="690" font-size="20px" style="fill: white;">Medium violet-red</text><text x="210" y="710" font-size="20px" style="fill: black;">#c51484</text><text x="210" y="730" font-size="20px" style="fill: white;">#c51484</text><text x="210" y="750" font-size="20px" style="fill: black;">0xc0b0</text><text x="210" y="770" font-size="20px" style="fill: white;">0xc0b0</text><rect x="420" y="630" width="200" height="200" rx="20px" ry="20px" style="fill: #942d42;"></rect><text x="420" y="670" font-size="20px" style="fill: black;">Red-violet (Color wheel)</text><text x="420" y="690" font-size="20px" style="fill: white;">Red-violet (Color wheel)</text><text x="420" y="710" font-size="20px" style="fill: black;">#942d42</text><text x="420" y="730" font-size="20px" style="fill: white;">#942d42</text><text x="420" y="750" font-size="20px" style="fill: black;">0x9168</text><text x="420" y="770" font-size="20px" style="fill: white;">0x9168</text><rect x="630" y="630" width="200" height="200" rx="20px" ry="20px" style="fill: #bd458c;"></rect><text x="630" y="670" font-size="20px" style="fill: black;">Red-violet (Crayola)</text><text x="630" y="690" font-size="20px" style="fill: white;">Red-violet (Crayola)</text><text x="630" y="710" font-size="20px" style="fill: black;">#bd458c</text><text x="630" y="730" font-size="20px" style="fill: white;">#bd458c</text><text x="630" y="750" font-size="20px" style="fill: black;">0xba31</text><text x="630" y="770" font-size="20px" style="fill: white;">0xba31</text><rect x="0" y="840" width="200" height="200" rx="20px" ry="20px" style="fill: #31184a;"></rect><text x="0" y="880" font-size="20px" style="fill: black;">Russian Violet</text><text x="0" y="900" font-size="20px" style="fill: white;">Russian Violet</text><text x="0" y="920" font-size="20px" style="fill: black;">#31184a</text><text x="0" y="940" font-size="20px" style="fill: white;">#31184a</text><text x="0" y="960" font-size="20px" style="fill: black;">0x30c9</text><text x="0" y="980" font-size="20px" style="fill: white;">0x30c9</text><rect x="210" y="840" width="200" height="200" rx="20px" ry="20px" style="fill: #4a2884;"></rect><text x="210" y="880" font-size="20px" style="fill: black;">Spanish violet</text><text x="210" y="900" font-size="20px" style="fill: white;">Spanish violet</text><text x="210" y="920" font-size="20px" style="fill: black;">#4a2884</text><text x="210" y="940" font-size="20px" style="fill: white;">#4a2884</text><text x="210" y="960" font-size="20px" style="fill: black;">0x4950</text><text x="210" y="980" font-size="20px" style="fill: white;">0x4950</text><rect x="420" y="840" width="200" height="200" rx="20px" ry="20px" style="fill: #635594;"></rect><text x="420" y="880" font-size="20px" style="fill: black;">Ultra Violet</text><text x="420" y="900" font-size="20px" style="fill: white;">Ultra Violet</text><text x="420" y="920" font-size="20px" style="fill: black;">#635594</text><text x="420" y="940" font-size="20px" style="fill: white;">#635594</text><text x="420" y="960" font-size="20px" style="fill: black;">0x62b2</text><text x="420" y="980" font-size="20px" style="fill: white;">0x62b2</text><rect x="630" y="840" width="200" height="200" rx="20px" ry="20px" style="fill: #7b00ff;"></rect><text x="630" y="880" font-size="20px" style="fill: black;">Violet</text><text x="630" y="900" font-size="20px" style="fill: white;">Violet</text><text x="630" y="920" font-size="20px" style="fill: black;">#7b00ff</text><text x="630" y="940" font-size="20px" style="fill: white;">#7b00ff</text><text x="630" y="960" font-size="20px" style="fill: black;">0x781f</text><text x="630" y="980" font-size="20px" style="fill: white;">0x781f</text><rect x="0" y="1050" width="200" height="200" rx="20px" ry="20px" style="fill: #3149b5;"></rect><text x="0" y="1090" font-size="20px" style="fill: black;">Violet-blue</text><text x="0" y="1110" font-size="20px" style="fill: white;">Violet-blue</text><text x="0" y="1130" font-size="20px" style="fill: black;">#3149b5</text><text x="0" y="1150" font-size="20px" style="fill: white;">#3149b5</text><text x="0" y="1170" font-size="20px" style="fill: black;">0x3256</text><text x="0" y="1190" font-size="20px" style="fill: white;">0x3256</text><rect x="210" y="1050" width="200" height="200" rx="20px" ry="20px" style="fill: #736dc5;"></rect><text x="210" y="1090" font-size="20px" style="fill: black;">Violet-blue (Crayola)</text><text x="210" y="1110" font-size="20px" style="fill: white;">Violet-blue (Crayola)</text><text x="210" y="1130" font-size="20px" style="fill: black;">#736dc5</text><text x="210" y="1150" font-size="20px" style="fill: white;">#736dc5</text><text x="210" y="1170" font-size="20px" style="fill: black;">0x7378</text><text x="210" y="1190" font-size="20px" style="fill: white;">0x7378</text><rect x="420" y="1050" width="200" height="200" rx="20px" ry="20px" style="fill: #7b00ff;"></rect><text x="420" y="1090" font-size="20px" style="fill: black;">Violet (color wheel)</text><text x="420" y="1110" font-size="20px" style="fill: white;">Violet (color wheel)</text><text x="420" y="1130" font-size="20px" style="fill: black;">#7b00ff</text><text x="420" y="1150" font-size="20px" style="fill: white;">#7b00ff</text><text x="420" y="1170" font-size="20px" style="fill: black;">0x781f</text><text x="420" y="1190" font-size="20px" style="fill: white;">0x781f</text><rect x="630" y="1050" width="200" height="200" rx="20px" ry="20px" style="fill: #943d7b;"></rect><text x="630" y="1090" font-size="20px" style="fill: black;">Violet (crayola)</text><text x="630" y="1110" font-size="20px" style="fill: white;">Violet (crayola)</text><text x="630" y="1130" font-size="20px" style="fill: black;">#943d7b</text><text x="630" y="1150" font-size="20px" style="fill: white;">#943d7b</text><text x="630" y="1170" font-size="20px" style="fill: black;">0x91ef</text><text x="630" y="1190" font-size="20px" style="fill: white;">0x91ef</text><rect x="0" y="1260" width="200" height="200" rx="20px" ry="20px" style="fill: #4a2884;"></rect><text x="0" y="1300" font-size="20px" style="fill: black;">Violet (G&amp;S)</text><text x="0" y="1320" font-size="20px" style="fill: white;">Violet (G&amp;S)</text><text x="0" y="1340" font-size="20px" style="fill: black;">#4a2884</text><text x="0" y="1360" font-size="20px" style="fill: white;">#4a2884</text><text x="0" y="1380" font-size="20px" style="fill: black;">0x4950</text><text x="0" y="1400" font-size="20px" style="fill: white;">0x4950</text><rect x="210" y="1260" width="200" height="200" rx="20px" ry="20px" style="fill: #5a3152;"></rect><text x="210" y="1300" font-size="20px" style="fill: black;">Violet (JTC)</text><text x="210" y="1320" font-size="20px" style="fill: white;">Violet (JTC)</text><text x="210" y="1340" font-size="20px" style="fill: black;">#5a3152</text><text x="210" y="1360" font-size="20px" style="fill: white;">#5a3152</text><text x="210" y="1380" font-size="20px" style="fill: black;">0x598a</text><text x="210" y="1400" font-size="20px" style="fill: white;">0x598a</text><rect x="420" y="1260" width="200" height="200" rx="20px" ry="20px" style="fill: #f75594;"></rect><text x="420" y="1300" font-size="20px" style="fill: black;">Violet-red</text><text x="420" y="1320" font-size="20px" style="fill: white;">Violet-red</text><text x="420" y="1340" font-size="20px" style="fill: black;">#f75594</text><text x="420" y="1360" font-size="20px" style="fill: white;">#f75594</text><text x="420" y="1380" font-size="20px" style="fill: black;">0xf2b2</text><text x="420" y="1400" font-size="20px" style="fill: white;">0xf2b2</text><rect x="630" y="1260" width="200" height="200" rx="20px" ry="20px" style="fill: #8400ad;"></rect><text x="630" y="1300" font-size="20px" style="fill: black;">Violet (RYB)</text><text x="630" y="1320" font-size="20px" style="fill: white;">Violet (RYB)</text><text x="630" y="1340" font-size="20px" style="fill: black;">#8400ad</text><text x="630" y="1360" font-size="20px" style="fill: white;">#8400ad</text><text x="630" y="1380" font-size="20px" style="fill: black;">0x8015</text><text x="630" y="1400" font-size="20px" style="fill: white;">0x8015</text><rect x="0" y="1470" width="200" height="200" rx="20px" ry="20px" style="fill: #ef82ef;"></rect><text x="0" y="1510" font-size="20px" style="fill: black;">Violet (web)</text><text x="0" y="1530" font-size="20px" style="fill: white;">Violet (web)</text><text x="0" y="1550" font-size="20px" style="fill: black;">#ef82ef</text><text x="0" y="1570" font-size="20px" style="fill: white;">#ef82ef</text><text x="0" y="1590" font-size="20px" style="fill: black;">0xec1d</text><text x="0" y="1610" font-size="20px" style="fill: white;">0xec1d</text><rect x="210" y="1470" width="200" height="200" rx="20px" ry="20px" style="fill: #ef82ef;"></rect><text x="210" y="1510" font-size="20px" style="fill: black;">Violet (web color)</text><text x="210" y="1530" font-size="20px" style="fill: white;">Violet (web color)</text><text x="210" y="1550" font-size="20px" style="fill: black;">#ef82ef</text><text x="210" y="1570" font-size="20px" style="fill: white;">#ef82ef</text><text x="210" y="1590" font-size="20px" style="fill: black;">0xec1d</text><text x="210" y="1610" font-size="20px" style="fill: white;">0xec1d</text><rect x="420" y="1470" width="200" height="200" rx="20px" ry="20px" style="fill: #9c00ff;"></rect><text x="420" y="1510" font-size="20px" style="fill: black;">Vivid Violet</text><text x="420" y="1530" font-size="20px" style="fill: white;">Vivid Violet</text><text x="420" y="1550" font-size="20px" style="fill: black;">#9c00ff</text><text x="420" y="1570" font-size="20px" style="fill: white;">#9c00ff</text><text x="420" y="1590" font-size="20px" style="fill: black;">0x981f</text><text x="420" y="1610" font-size="20px" style="fill: white;">0x981f</text><rect x="630" y="1470" width="200" height="200" rx="20px" ry="20px" style="fill: #c5a2de;"></rect><text x="630" y="1510" font-size="20px" style="fill: black;">Wisteria</text><text x="630" y="1530" font-size="20px" style="fill: white;">Wisteria</text><text x="630" y="1550" font-size="20px" style="fill: black;">#c5a2de</text><text x="630" y="1570" font-size="20px" style="fill: white;">#c5a2de</text><text x="630" y="1590" font-size="20px" style="fill: black;">0xc51b</text><text x="630" y="1610" font-size="20px" style="fill: white;">0xc51b</text></svg>