<svg width="1680px" height="180px" xmlns="http://www.w3.org/2000/svg"><rect x="0" y="0" width="200" height="50" style="fill: #efebde;"></rect><text x="0" y="20" font-size="25px" style="fill: black;">Alabaster</text><text x="0" y="45" font-size="25px" style="fill: white;">Alabaster</text><rect x="210" y="0" width="200" height="50" style="fill: #f7ebd6;"></rect><text x="210" y="20" font-size="25px" style="fill: black;">Antique white</text><text x="210" y="45" font-size="25px" style="fill: white;">Antique white</text><rect x="420" y="0" width="200" height="50" style="fill: #fffff7;"></rect><text x="420" y="20" font-size="25px" style="fill: black;">Baby powder</text><text x="420" y="45" font-size="25px" style="fill: white;">Baby powder</text><rect x="630" y="0" width="200" height="50" style="fill: #f7f7de;"></rect><text x="630" y="20" font-size="25px" style="fill: black;">Beige</text><text x="630" y="45" font-size="25px" style="fill: white;">Beige</text><rect x="840" y="0" width="200" height="50" style="fill: #e6dbc5;"></rect><text x="840" y="20" font-size="25px" style="fill: black;">Bone</text><text x="840" y="45" font-size="25px" style="fill: white;">Bone</text><rect x="1050" y="0" width="200" height="50" style="fill: #f7e7ce;"></rect><text x="1050" y="20" font-size="25px" style="fill: black;">Champagne</text><text x="1050" y="45" font-size="25px" style="fill: white;">Champagne</text><rect x="1260" y="0" width="200" height="50" style="fill: #fff7de;"></rect><text x="1260" y="20" font-size="25px" style="fill: black;">Cornsilk</text><text x="1260" y="45" font-size="25px" style="fill: white;">Cornsilk</text><rect x="1470" y="0" width="200" height="50" style="fill: #ffffce;"></rect><text x="1470" y="20" font-size="25px" style="fill: black;">Cream</text><text x="1470" y="45" font-size="25px" style="fill: white;">Cream</text><rect x="0" y="60" width="200" height="50" style="fill: #efdfbd;"></rect><text x="0" y="80" font-size="25px" style="fill: black;">Dutch white</text><text x="0" y="105" font-size="25px" style="fill: white;">Dutch white</text><rect x="210" y="60" width="200" height="50" style="fill: #efebd6;"></rect><text x="210" y="80" font-size="25px" style="fill: black;">Eggshell</text><text x="210" y="105" font-size="25px" style="fill: white;">Eggshell</text><rect x="420" y="60" width="200" height="50" style="fill: #efdb84;"></rect><text x="420" y="80" font-size="25px" style="fill: black;">Flax</text><text x="420" y="105" font-size="25px" style="fill: white;">Flax</text><rect x="630" y="60" width="200" height="50" style="fill: #fffbef;"></rect><text x="630" y="80" font-size="25px" style="fill: black;">Floral white</text><text x="630" y="105" font-size="25px" style="fill: white;">Floral white</text><rect x="840" y="60" width="200" height="50" style="fill: #f7f7ff;"></rect><text x="840" y="80" font-size="25px" style="fill: black;">Ghost white</text><text x="840" y="105" font-size="25px" style="fill: white;">Ghost white</text><rect x="1050" y="60" width="200" height="50" style="fill: #ffffef;"></rect><text x="1050" y="80" font-size="25px" style="fill: black;">Ivory</text><text x="1050" y="105" font-size="25px" style="fill: white;">Ivory</text><rect x="1260" y="60" width="200" height="50" style="fill: #ffdfad;"></rect><text x="1260" y="80" font-size="25px" style="fill: black;">Navajo white</text><text x="1260" y="105" font-size="25px" style="fill: white;">Navajo white</text><rect x="1470" y="60" width="200" height="50" style="fill: #fff7e6;"></rect><text x="1470" y="80" font-size="25px" style="fill: black;">Old lace</text><text x="1470" y="105" font-size="25px" style="fill: white;">Old lace</text><rect x="0" y="120" width="200" height="50" style="fill: #efebd6;"></rect><text x="0" y="140" font-size="25px" style="fill: black;">Parchment</text><text x="0" y="165" font-size="25px" style="fill: white;">Parchment</text><rect x="210" y="120" width="200" height="50" style="fill: #fff7ef;"></rect><text x="210" y="140" font-size="25px" style="fill: black;">Seashell</text><text x="210" y="165" font-size="25px" style="fill: white;">Seashell</text><rect x="420" y="120" width="200" height="50" style="fill: #fffbf7;"></rect><text x="420" y="140" font-size="25px" style="fill: black;">Snow</text><text x="420" y="165" font-size="25px" style="fill: white;">Snow</text><rect x="630" y="120" width="200" height="50" style="fill: #f7e7ad;"></rect><text x="630" y="140" font-size="25px" style="fill: black;">Vanilla</text><text x="630" y="165" font-size="25px" style="fill: white;">Vanilla</text><rect x="840" y="120" width="200" height="50" style="fill: #ffffff;"></rect><text x="840" y="140" font-size="25px" style="fill: black;">White</text><text x="840" y="165" font-size="25px" style="fill: white;">White</text><rect x="1050" y="120" width="200" height="50" style="fill: #f7f7f7;"></rect><text x="1050" y="140" font-size="25px" style="fill: black;">White smoke</text><text x="1050" y="165" font-size="25px" style="fill: white;">White smoke</text></svg>