<svg width="840px" height="1260px" xmlns="http://www.w3.org/2000/svg"><rect x="0" y="0" width="200" height="200" rx="20px" ry="20px" style="fill: #efebde;"></rect><text x="0" y="40" font-size="20px" style="fill: black;">Alabaster</text><text x="0" y="60" font-size="20px" style="fill: white;">Alabaster</text><text x="0" y="80" font-size="20px" style="fill: black;">#efebde</text><text x="0" y="100" font-size="20px" style="fill: white;">#efebde</text><text x="0" y="120" font-size="20px" style="fill: black;">0xef5b</text><text x="0" y="140" font-size="20px" style="fill: white;">0xef5b</text><rect x="210" y="0" width="200" height="200" rx="20px" ry="20px" style="fill: #f7ebd6;"></rect><text x="210" y="40" font-size="20px" style="fill: black;">Antique white</text><text x="210" y="60" font-size="20px" style="fill: white;">Antique white</text><text x="210" y="80" font-size="20px" style="fill: black;">#f7ebd6</text><text x="210" y="100" font-size="20px" style="fill: white;">#f7ebd6</text><text x="210" y="120" font-size="20px" style="fill: black;">0xf75a</text><text x="210" y="140" font-size="20px" style="fill: white;">0xf75a</text><rect x="420" y="0" width="200" height="200" rx="20px" ry="20px" style="fill: #fffff7;"></rect><text x="420" y="40" font-size="20px" style="fill: black;">Baby powder</text><text x="420" y="60" font-size="20px" style="fill: white;">Baby powder</text><text x="420" y="80" font-size="20px" style="fill: black;">#fffff7</text><text x="420" y="100" font-size="20px" style="fill: white;">#fffff7</text><text x="420" y="120" font-size="20px" style="fill: black;">0xfffe</text><text x="420" y="140" font-size="20px" style="fill: white;">0xfffe</text><rect x="630" y="0" width="200" height="200" rx="20px" ry="20px" style="fill: #f7f7de;"></rect><text x="630" y="40" font-size="20px" style="fill: black;">Beige</text><text x="630" y="60" font-size="20px" style="fill: white;">Beige</text><text x="630" y="80" font-size="20px" style="fill: black;">#f7f7de</text><text x="630" y="100" font-size="20px" style="fill: white;">#f7f7de</text><text x="630" y="120" font-size="20px" style="fill: black;">0xf7bb</text><text x="630" y="140" font-size="20px" style="fill: white;">0xf7bb</text><rect x="0" y="210" width="200" height="200" rx="20px" ry="20px" style="fill: #e6dbc5;"></rect><text x="0" y="250" font-size="20px" style="fill: black;">Bone</text><text x="0" y="270" font-size="20px" style="fill: white;">Bone</text><text x="0" y="290" font-size="20px" style="fill: black;">#e6dbc5</text><text x="0" y="310" font-size="20px" style="fill: white;">#e6dbc5</text><text x="0" y="330" font-size="20px" style="fill: black;">0xe6d8</text><text x="0" y="350" font-size="20px" style="fill: white;">0xe6d8</text><rect x="210" y="210" width="200" height="200" rx="20px" ry="20px" style="fill: #f7e7ce;"></rect><text x="210" y="250" font-size="20px" style="fill: black;">Champagne</text><text x="210" y="270" font-size="20px" style="fill: white;">Champagne</text><text x="210" y="290" font-size="20px" style="fill: black;">#f7e7ce</text><text x="210" y="310" font-size="20px" style="fill: white;">#f7e7ce</text><text x="210" y="330" font-size="20px" style="fill: black;">0xf739</text><text x="210" y="350" font-size="20px" style="fill: white;">0xf739</text><rect x="420" y="210" width="200" height="200" rx="20px" ry="20px" style="fill: #fff7de;"></rect><text x="420" y="250" font-size="20px" style="fill: black;">Cornsilk</text><text x="420" y="270" font-size="20px" style="fill: white;">Cornsilk</text><text x="420" y="290" font-size="20px" style="fill: black;">#fff7de</text><text x="420" y="310" font-size="20px" style="fill: white;">#fff7de</text><text x="420" y="330" font-size="20px" style="fill: black;">0xffbb</text><text x="420" y="350" font-size="20px" style="fill: white;">0xffbb</text><rect x="630" y="210" width="200" height="200" rx="20px" ry="20px" style="fill: #ffffce;"></rect><text x="630" y="250" font-size="20px" style="fill: black;">Cream</text><text x="630" y="270" font-size="20px" style="fill: white;">Cream</text><text x="630" y="290" font-size="20px" style="fill: black;">#ffffce</text><text x="630" y="310" font-size="20px" style="fill: white;">#ffffce</text><text x="630" y="330" font-size="20px" style="fill: black;">0xfff9</text><text x="630" y="350" font-size="20px" style="fill: white;">0xfff9</text><rect x="0" y="420" width="200" height="200" rx="20px" ry="20px" style="fill: #efdfbd;"></rect><text x="0" y="460" font-size="20px" style="fill: black;">Dutch white</text><text x="0" y="480" font-size="20px" style="fill: white;">Dutch white</text><text x="0" y="500" font-size="20px" style="fill: black;">#efdfbd</text><text x="0" y="520" font-size="20px" style="fill: white;">#efdfbd</text><text x="0" y="540" font-size="20px" style="fill: black;">0xeef7</text><text x="0" y="560" font-size="20px" style="fill: white;">0xeef7</text><rect x="210" y="420" width="200" height="200" rx="20px" ry="20px" style="fill: #efebd6;"></rect><text x="210" y="460" font-size="20px" style="fill: black;">Eggshell</text><text x="210" y="480" font-size="20px" style="fill: white;">Eggshell</text><text x="210" y="500" font-size="20px" style="fill: black;">#efebd6</text><text x="210" y="520" font-size="20px" style="fill: white;">#efebd6</text><text x="210" y="540" font-size="20px" style="fill: black;">0xef5a</text><text x="210" y="560" font-size="20px" style="fill: white;">0xef5a</text><rect x="420" y="420" width="200" height="200" rx="20px" ry="20px" style="fill: #efdb84;"></rect><text x="420" y="460" font-size="20px" style="fill: black;">Flax</text><text x="420" y="480" font-size="20px" style="fill: white;">Flax</text><text x="420" y="500" font-size="20px" style="fill: black;">#efdb84</text><text x="420" y="520" font-size="20px" style="fill: white;">#efdb84</text><text x="420" y="540" font-size="20px" style="fill: black;">0xeed0</text><text x="420" y="560" font-size="20px" style="fill: white;">0xeed0</text><rect x="630" y="420" width="200" height="200" rx="20px" ry="20px" style="fill: #fffbef;"></rect><text x="630" y="460" font-size="20px" style="fill: black;">Floral white</text><text x="630" y="480" font-size="20px" style="fill: white;">Floral white</text><text x="630" y="500" font-size="20px" style="fill: black;">#fffbef</text><text x="630" y="520" font-size="20px" style="fill: white;">#fffbef</text><text x="630" y="540" font-size="20px" style="fill: black;">0xffdd</text><text x="630" y="560" font-size="20px" style="fill: white;">0xffdd</text><rect x="0" y="630" width="200" height="200" rx="20px" ry="20px" style="fill: #f7f7ff;"></rect><text x="0" y="670" font-size="20px" style="fill: black;">Ghost white</text><text x="0" y="690" font-size="20px" style="fill: white;">Ghost white</text><text x="0" y="710" font-size="20px" style="fill: black;">#f7f7ff</text><text x="0" y="730" font-size="20px" style="fill: white;">#f7f7ff</text><text x="0" y="750" font-size="20px" style="fill: black;">0xf7bf</text><text x="0" y="770" font-size="20px" style="fill: white;">0xf7bf</text><rect x="210" y="630" width="200" height="200" rx="20px" ry="20px" style="fill: #ffffef;"></rect><text x="210" y="670" font-size="20px" style="fill: black;">Ivory</text><text x="210" y="690" font-size="20px" style="fill: white;">Ivory</text><text x="210" y="710" font-size="20px" style="fill: black;">#ffffef</text><text x="210" y="730" font-size="20px" style="fill: white;">#ffffef</text><text x="210" y="750" font-size="20px" style="fill: black;">0xfffd</text><text x="210" y="770" font-size="20px" style="fill: white;">0xfffd</text><rect x="420" y="630" width="200" height="200" rx="20px" ry="20px" style="fill: #ffdfad;"></rect><text x="420" y="670" font-size="20px" style="fill: black;">Navajo white</text><text x="420" y="690" font-size="20px" style="fill: white;">Navajo white</text><text x="420" y="710" font-size="20px" style="fill: black;">#ffdfad</text><text x="420" y="730" font-size="20px" style="fill: white;">#ffdfad</text><text x="420" y="750" font-size="20px" style="fill: black;">0xfef5</text><text x="420" y="770" font-size="20px" style="fill: white;">0xfef5</text><rect x="630" y="630" width="200" height="200" rx="20px" ry="20px" style="fill: #fff7e6;"></rect><text x="630" y="670" font-size="20px" style="fill: black;">Old lace</text><text x="630" y="690" font-size="20px" style="fill: white;">Old lace</text><text x="630" y="710" font-size="20px" style="fill: black;">#fff7e6</text><text x="630" y="730" font-size="20px" style="fill: white;">#fff7e6</text><text x="630" y="750" font-size="20px" style="fill: black;">0xffbc</text><text x="630" y="770" font-size="20px" style="fill: white;">0xffbc</text><rect x="0" y="840" width="200" height="200" rx="20px" ry="20px" style="fill: #efebd6;"></rect><text x="0" y="880" font-size="20px" style="fill: black;">Parchment</text><text x="0" y="900" font-size="20px" style="fill: white;">Parchment</text><text x="0" y="920" font-size="20px" style="fill: black;">#efebd6</text><text x="0" y="940" font-size="20px" style="fill: white;">#efebd6</text><text x="0" y="960" font-size="20px" style="fill: black;">0xef5a</text><text x="0" y="980" font-size="20px" style="fill: white;">0xef5a</text><rect x="210" y="840" width="200" height="200" rx="20px" ry="20px" style="fill: #fff7ef;"></rect><text x="210" y="880" font-size="20px" style="fill: black;">Seashell</text><text x="210" y="900" font-size="20px" style="fill: white;">Seashell</text><text x="210" y="920" font-size="20px" style="fill: black;">#fff7ef</text><text x="210" y="940" font-size="20px" style="fill: white;">#fff7ef</text><text x="210" y="960" font-size="20px" style="fill: black;">0xffbd</text><text x="210" y="980" font-size="20px" style="fill: white;">0xffbd</text><rect x="420" y="840" width="200" height="200" rx="20px" ry="20px" style="fill: #fffbf7;"></rect><text x="420" y="880" font-size="20px" style="fill: black;">Snow</text><text x="420" y="900" font-size="20px" style="fill: white;">Snow</text><text x="420" y="920" font-size="20px" style="fill: black;">#fffbf7</text><text x="420" y="940" font-size="20px" style="fill: white;">#fffbf7</text><text x="420" y="960" font-size="20px" style="fill: black;">0xffde</text><text x="420" y="980" font-size="20px" style="fill: white;">0xffde</text><rect x="630" y="840" width="200" height="200" rx="20px" ry="20px" style="fill: #f7e7ad;"></rect><text x="630" y="880" font-size="20px" style="fill: black;">Vanilla</text><text x="630" y="900" font-size="20px" style="fill: white;">Vanilla</text><text x="630" y="920" font-size="20px" style="fill: black;">#f7e7ad</text><text x="630" y="940" font-size="20px" style="fill: white;">#f7e7ad</text><text x="630" y="960" font-size="20px" style="fill: black;">0xf735</text><text x="630" y="980" font-size="20px" style="fill: white;">0xf735</text><rect x="0" y="1050" width="200" height="200" rx="20px" ry="20px" style="fill: #ffffff;"></rect><text x="0" y="1090" font-size="20px" style="fill: black;">White</text><text x="0" y="1110" font-size="20px" style="fill: white;">White</text><text x="0" y="1130" font-size="20px" style="fill: black;">#ffffff</text><text x="0" y="1150" font-size="20px" style="fill: white;">#ffffff</text><text x="0" y="1170" font-size="20px" style="fill: black;">0xffff</text><text x="0" y="1190" font-size="20px" style="fill: white;">0xffff</text><rect x="210" y="1050" width="200" height="200" rx="20px" ry="20px" style="fill: #f7f7f7;"></rect><text x="210" y="1090" font-size="20px" style="fill: black;">White smoke</text><text x="210" y="1110" font-size="20px" style="fill: white;">White smoke</text><text x="210" y="1130" font-size="20px" style="fill: black;">#f7f7f7</text><text x="210" y="1150" font-size="20px" style="fill: white;">#f7f7f7</text><text x="210" y="1170" font-size="20px" style="fill: black;">0xf7be</text><text x="210" y="1190" font-size="20px" style="fill: white;">0xf7be</text></svg>