<svg width="1680px" height="480px" xmlns="http://www.w3.org/2000/svg"><rect x="0" y="0" width="200" height="50" style="fill: #4a5521;"></rect><text x="0" y="20" font-size="25px" style="fill: black;">Army green</text><text x="0" y="45" font-size="25px" style="fill: white;">Army green</text><rect x="210" y="0" width="200" height="50" style="fill: #e6d76b;"></rect><text x="210" y="20" font-size="25px" style="fill: black;">Arylide yellow</text><text x="210" y="45" font-size="25px" style="fill: white;">Arylide yellow</text><rect x="420" y="0" width="200" height="50" style="fill: #ffaa21;"></rect><text x="420" y="20" font-size="25px" style="fill: black;">Bright yellow (Crayola)</text><text x="420" y="45" font-size="25px" style="fill: white;">Bright yellow (Crayola)</text><rect x="630" y="0" width="200" height="50" style="fill: #fff700;"></rect><text x="630" y="20" font-size="25px" style="fill: black;">Cadmium yellow</text><text x="630" y="45" font-size="25px" style="fill: white;">Cadmium yellow</text><rect x="840" y="0" width="200" height="50" style="fill: #ffff9c;"></rect><text x="840" y="20" font-size="25px" style="fill: black;">Canary Yellow</text><text x="840" y="45" font-size="25px" style="fill: white;">Canary Yellow</text><rect x="1050" y="0" width="200" height="50" style="fill: #deff00;"></rect><text x="1050" y="20" font-size="25px" style="fill: black;">Chartreuse (traditional)</text><text x="1050" y="45" font-size="25px" style="fill: white;">Chartreuse (traditional)</text><rect x="1260" y="0" width="200" height="50" style="fill: #ffb200;"></rect><text x="1260" y="20" font-size="25px" style="fill: black;">Chinese yellow</text><text x="1260" y="45" font-size="25px" style="fill: white;">Chinese yellow</text><rect x="1470" y="0" width="200" height="50" style="fill: #ffa600;"></rect><text x="1470" y="20" font-size="25px" style="fill: black;">Chrome yellow</text><text x="1470" y="45" font-size="25px" style="fill: white;">Chrome yellow</text><rect x="0" y="60" width="200" height="50" style="fill: #ffffce;"></rect><text x="0" y="80" font-size="25px" style="fill: black;">Cream</text><text x="0" y="105" font-size="25px" style="fill: white;">Cream</text><rect x="210" y="60" width="200" height="50" style="fill: #ffd200;"></rect><text x="210" y="80" font-size="25px" style="fill: black;">Cyber Yellow</text><text x="210" y="105" font-size="25px" style="fill: white;">Cyber Yellow</text><rect x="420" y="60" width="200" height="50" style="fill: #deaa63;"></rect><text x="420" y="80" font-size="25px" style="fill: black;">Earth yellow</text><text x="420" y="105" font-size="25px" style="fill: white;">Earth yellow</text><rect x="630" y="60" width="200" height="50" style="fill: #4a5d52;"></rect><text x="630" y="80" font-size="25px" style="fill: black;">Feldgrau</text><text x="630" y="105" font-size="25px" style="fill: white;">Feldgrau</text><rect x="840" y="60" width="200" height="50" style="fill: #ffd700;"></rect><text x="840" y="80" font-size="25px" style="fill: black;">Gold (Golden)</text><text x="840" y="105" font-size="25px" style="fill: white;">Gold (Golden)</text><rect x="1050" y="60" width="200" height="50" style="fill: #ffdf00;"></rect><text x="1050" y="80" font-size="25px" style="fill: black;">Golden yellow</text><text x="1050" y="105" font-size="25px" style="fill: white;">Golden yellow</text><rect x="1260" y="60" width="200" height="50" style="fill: #dedf94;"></rect><text x="1260" y="80" font-size="25px" style="fill: black;">Green earth</text><text x="1260" y="105" font-size="25px" style="fill: white;">Green earth</text><rect x="1470" y="60" width="200" height="50" style="fill: #adff31;"></rect><text x="1470" y="80" font-size="25px" style="fill: black;">Green-yellow</text><text x="1470" y="105" font-size="25px" style="fill: white;">Green-yellow</text><rect x="0" y="120" width="200" height="50" style="fill: #efe794;"></rect><text x="0" y="140" font-size="25px" style="fill: black;">Green-yellow (Crayola)</text><text x="0" y="165" font-size="25px" style="fill: white;">Green-yellow (Crayola)</text><rect x="210" y="120" width="200" height="50" style="fill: #efeb63;"></rect><text x="210" y="140" font-size="25px" style="fill: black;">Greenish Yellow</text><text x="210" y="165" font-size="25px" style="fill: white;">Greenish Yellow</text><rect x="420" y="120" width="200" height="50" style="fill: #e6d76b;"></rect><text x="420" y="140" font-size="25px" style="fill: black;">Hansa yellow</text><text x="420" y="165" font-size="25px" style="fill: white;">Hansa yellow</text><rect x="630" y="120" width="200" height="50" style="fill: #e6aa5a;"></rect><text x="630" y="140" font-size="25px" style="fill: black;">Indian yellow</text><text x="630" y="165" font-size="25px" style="fill: white;">Indian yellow</text><rect x="840" y="120" width="200" height="50" style="fill: #fffbce;"></rect><text x="840" y="140" font-size="25px" style="fill: black;">Lemon Chiffon</text><text x="840" y="165" font-size="25px" style="fill: white;">Lemon Chiffon</text><rect x="1050" y="120" width="200" height="50" style="fill: #ffff00;"></rect><text x="1050" y="140" font-size="25px" style="fill: black;">Lemon (Crayola)</text><text x="1050" y="165" font-size="25px" style="fill: white;">Lemon (Crayola)</text><rect x="1260" y="120" width="200" height="50" style="fill: #fff352;"></rect><text x="1260" y="140" font-size="25px" style="fill: black;">Lemon yellow</text><text x="1260" y="165" font-size="25px" style="fill: white;">Lemon yellow</text><rect x="1470" y="120" width="200" height="50" style="fill: #ffff9c;"></rect><text x="1470" y="140" font-size="25px" style="fill: black;">Lemon yellow (Crayola)</text><text x="1470" y="165" font-size="25px" style="fill: white;">Lemon yellow (Crayola)</text><rect x="0" y="180" width="200" height="50" style="fill: #f7fbd6;"></rect><text x="0" y="200" font-size="25px" style="fill: black;">Light goldenrod yellow</text><text x="0" y="225" font-size="25px" style="fill: white;">Light goldenrod yellow</text><rect x="210" y="180" width="200" height="50" style="fill: #ffffde;"></rect><text x="210" y="200" font-size="25px" style="fill: black;">Light Yellow</text><text x="210" y="225" font-size="25px" style="fill: white;">Light Yellow</text><rect x="420" y="180" width="200" height="50" style="fill: #d6e752;"></rect><text x="420" y="200" font-size="25px" style="fill: black;">Maximum green yellow</text><text x="420" y="225" font-size="25px" style="fill: white;">Maximum green yellow</text><rect x="630" y="180" width="200" height="50" style="fill: #f7fb3a;"></rect><text x="630" y="200" font-size="25px" style="fill: black;">Maximum Yellow</text><text x="630" y="225" font-size="25px" style="fill: white;">Maximum Yellow</text><rect x="840" y="180" width="200" height="50" style="fill: #efba4a;"></rect><text x="840" y="200" font-size="25px" style="fill: black;">Maximum yellow red</text><text x="840" y="225" font-size="25px" style="fill: white;">Maximum yellow red</text><rect x="1050" y="180" width="200" height="50" style="fill: #f7df7b;"></rect><text x="1050" y="200" font-size="25px" style="fill: black;">Mellow Yellow</text><text x="1050" y="225" font-size="25px" style="fill: white;">Mellow Yellow</text><rect x="1260" y="180" width="200" height="50" style="fill: #adbe63;"></rect><text x="1260" y="200" font-size="25px" style="fill: black;">Middle green yellow</text><text x="1260" y="225" font-size="25px" style="fill: white;">Middle green yellow</text><rect x="1470" y="180" width="200" height="50" style="fill: #ffeb00;"></rect><text x="1470" y="200" font-size="25px" style="fill: black;">Middle yellow</text><text x="1470" y="225" font-size="25px" style="fill: white;">Middle yellow</text><rect x="0" y="240" width="200" height="50" style="fill: #efb273;"></rect><text x="0" y="260" font-size="25px" style="fill: black;">Middle yellow red</text><text x="0" y="285" font-size="25px" style="fill: white;">Middle yellow red</text><rect x="210" y="240" width="200" height="50" style="fill: #ffc208;"></rect><text x="210" y="260" font-size="25px" style="fill: black;">Mikado yellow</text><text x="210" y="285" font-size="25px" style="fill: white;">Mikado yellow</text><rect x="420" y="240" width="200" height="50" style="fill: #e6fb8c;"></rect><text x="420" y="260" font-size="25px" style="fill: black;">Mindaro</text><text x="420" y="285" font-size="25px" style="fill: white;">Mindaro</text><rect x="630" y="240" width="200" height="50" style="fill: #f7df52;"></rect><text x="630" y="260" font-size="25px" style="fill: black;">Minion yellow</text><text x="630" y="285" font-size="25px" style="fill: white;">Minion yellow</text><rect x="840" y="240" width="200" height="50" style="fill: #f7db5a;"></rect><text x="840" y="260" font-size="25px" style="fill: black;">Naples yellow</text><text x="840" y="285" font-size="25px" style="fill: white;">Naples yellow</text><rect x="1050" y="240" width="200" height="50" style="fill: #848200;"></rect><text x="1050" y="260" font-size="25px" style="fill: black;">Olive</text><text x="1050" y="285" font-size="25px" style="fill: white;">Olive</text><rect x="1260" y="240" width="200" height="50" style="fill: #f7be21;"></rect><text x="1260" y="260" font-size="25px" style="fill: black;">Orange-yellow</text><text x="1260" y="285" font-size="25px" style="fill: white;">Orange-yellow</text><rect x="1470" y="240" width="200" height="50" style="fill: #f7d76b;"></rect><text x="1470" y="260" font-size="25px" style="fill: black;">Orange-yellow (Crayola)</text><text x="1470" y="285" font-size="25px" style="fill: white;">Orange-yellow (Crayola)</text><rect x="0" y="300" width="200" height="50" style="fill: #cee331;"></rect><text x="0" y="320" font-size="25px" style="fill: black;">Pear</text><text x="0" y="345" font-size="25px" style="fill: white;">Pear</text><rect x="210" y="300" width="200" height="50" style="fill: #ffef00;"></rect><text x="210" y="320" font-size="25px" style="fill: black;">Process Yellow</text><text x="210" y="345" font-size="25px" style="fill: white;">Process Yellow</text><rect x="420" y="300" width="200" height="50" style="fill: #f7db5a;"></rect><text x="420" y="320" font-size="25px" style="fill: black;">Royal Yellow</text><text x="420" y="345" font-size="25px" style="fill: white;">Royal Yellow</text><rect x="630" y="300" width="200" height="50" style="fill: #efd200;"></rect><text x="630" y="320" font-size="25px" style="fill: black;">Safety Yellow</text><text x="630" y="345" font-size="25px" style="fill: white;">Safety Yellow</text><rect x="840" y="300" width="200" height="50" style="fill: #ffd700;"></rect><text x="840" y="320" font-size="25px" style="fill: black;">School bus yellow</text><text x="840" y="345" font-size="25px" style="fill: white;">School bus yellow</text><rect x="1050" y="300" width="200" height="50" style="fill: #ffba00;"></rect><text x="1050" y="320" font-size="25px" style="fill: black;">Selective yellow</text><text x="1050" y="345" font-size="25px" style="fill: white;">Selective yellow</text><rect x="1260" y="300" width="200" height="50" style="fill: #f7db5a;"></rect><text x="1260" y="320" font-size="25px" style="fill: black;">Stil de grain yellow</text><text x="1260" y="345" font-size="25px" style="fill: white;">Stil de grain yellow</text><rect x="1470" y="300" width="200" height="50" style="fill: #efe700;"></rect><text x="1470" y="320" font-size="25px" style="fill: black;">Titanium yellow</text><text x="1470" y="345" font-size="25px" style="fill: white;">Titanium yellow</text><rect x="0" y="360" width="200" height="50" style="fill: #ffff63;"></rect><text x="0" y="380" font-size="25px" style="fill: black;">Unmellow Yellow</text><text x="0" y="405" font-size="25px" style="fill: white;">Unmellow Yellow</text><rect x="210" y="360" width="200" height="50" style="fill: #efef08;"></rect><text x="210" y="380" font-size="25px" style="fill: black;">Xanthic</text><text x="210" y="405" font-size="25px" style="fill: white;">Xanthic</text><rect x="420" y="360" width="200" height="50" style="fill: #ffff00;"></rect><text x="420" y="380" font-size="25px" style="fill: black;">Yellow</text><text x="420" y="405" font-size="25px" style="fill: white;">Yellow</text><rect x="630" y="360" width="200" height="50" style="fill: #ffe784;"></rect><text x="630" y="380" font-size="25px" style="fill: black;">Yellow (Crayola)</text><text x="630" y="405" font-size="25px" style="fill: white;">Yellow (Crayola)</text><rect x="840" y="360" width="200" height="50" style="fill: #9cce31;"></rect><text x="840" y="380" font-size="25px" style="fill: black;">Yellow-green</text><text x="840" y="405" font-size="25px" style="fill: white;">Yellow-green</text><rect x="1050" y="360" width="200" height="50" style="fill: #31b219;"></rect><text x="1050" y="380" font-size="25px" style="fill: black;">Yellow-green (Color Wheel)</text><text x="1050" y="405" font-size="25px" style="fill: white;">Yellow-green (Color Wheel)</text><rect x="1260" y="360" width="200" height="50" style="fill: #c5e384;"></rect><text x="1260" y="380" font-size="25px" style="fill: black;">Yellow-green (Crayola)</text><text x="1260" y="405" font-size="25px" style="fill: white;">Yellow-green (Crayola)</text><rect x="1470" y="360" width="200" height="50" style="fill: #efca00;"></rect><text x="1470" y="380" font-size="25px" style="fill: black;">Yellow (Munsell)</text><text x="1470" y="405" font-size="25px" style="fill: white;">Yellow (Munsell)</text><rect x="0" y="420" width="200" height="50" style="fill: #ffd200;"></rect><text x="0" y="440" font-size="25px" style="fill: black;">Yellow (NCS)</text><text x="0" y="465" font-size="25px" style="fill: white;">Yellow (NCS)</text><rect x="210" y="420" width="200" height="50" style="fill: #ffae42;"></rect><text x="210" y="440" font-size="25px" style="fill: black;">Yellow Orange</text><text x="210" y="465" font-size="25px" style="fill: white;">Yellow Orange</text><rect x="420" y="420" width="200" height="50" style="fill: #ff9608;"></rect><text x="420" y="440" font-size="25px" style="fill: black;">Yellow Orange (Color Wheel)</text><text x="420" y="465" font-size="25px" style="fill: white;">Yellow Orange (Color Wheel)</text><rect x="630" y="420" width="200" height="50" style="fill: #ffdf00;"></rect><text x="630" y="440" font-size="25px" style="fill: black;">Yellow (Pantone)</text><text x="630" y="465" font-size="25px" style="fill: white;">Yellow (Pantone)</text><rect x="840" y="420" width="200" height="50" style="fill: #ffef00;"></rect><text x="840" y="440" font-size="25px" style="fill: black;">Yellow (process)</text><text x="840" y="465" font-size="25px" style="fill: white;">Yellow (process)</text><rect x="1050" y="420" width="200" height="50" style="fill: #ffff00;"></rect><text x="1050" y="440" font-size="25px" style="fill: black;">Yellow (RGB) (X11 yellow)</text><text x="1050" y="465" font-size="25px" style="fill: white;">Yellow (RGB) (X11 yellow)</text><rect x="1260" y="420" width="200" height="50" style="fill: #ffff31;"></rect><text x="1260" y="440" font-size="25px" style="fill: black;">Yellow (RYB)</text><text x="1260" y="465" font-size="25px" style="fill: white;">Yellow (RYB)</text><rect x="1470" y="420" width="200" height="50" style="fill: #fff700;"></rect><text x="1470" y="440" font-size="25px" style="fill: black;">Yellow Sunshine</text><text x="1470" y="465" font-size="25px" style="fill: white;">Yellow Sunshine</text></svg>