<svg width="840px" height="3360px" xmlns="http://www.w3.org/2000/svg"><rect x="0" y="0" width="200" height="200" rx="20px" ry="20px" style="fill: #4a5521;"></rect><text x="0" y="40" font-size="20px" style="fill: black;">Army green</text><text x="0" y="60" font-size="20px" style="fill: white;">Army green</text><text x="0" y="80" font-size="20px" style="fill: black;">#4a5521</text><text x="0" y="100" font-size="20px" style="fill: white;">#4a5521</text><text x="0" y="120" font-size="20px" style="fill: black;">0x4aa4</text><text x="0" y="140" font-size="20px" style="fill: white;">0x4aa4</text><rect x="210" y="0" width="200" height="200" rx="20px" ry="20px" style="fill: #e6d76b;"></rect><text x="210" y="40" font-size="20px" style="fill: black;">Arylide yellow</text><text x="210" y="60" font-size="20px" style="fill: white;">Arylide yellow</text><text x="210" y="80" font-size="20px" style="fill: black;">#e6d76b</text><text x="210" y="100" font-size="20px" style="fill: white;">#e6d76b</text><text x="210" y="120" font-size="20px" style="fill: black;">0xe6ad</text><text x="210" y="140" font-size="20px" style="fill: white;">0xe6ad</text><rect x="420" y="0" width="200" height="200" rx="20px" ry="20px" style="fill: #ffaa21;"></rect><text x="420" y="40" font-size="20px" style="fill: black;">Bright yellow (Crayola)</text><text x="420" y="60" font-size="20px" style="fill: white;">Bright yellow (Crayola)</text><text x="420" y="80" font-size="20px" style="fill: black;">#ffaa21</text><text x="420" y="100" font-size="20px" style="fill: white;">#ffaa21</text><text x="420" y="120" font-size="20px" style="fill: black;">0xfd44</text><text x="420" y="140" font-size="20px" style="fill: white;">0xfd44</text><rect x="630" y="0" width="200" height="200" rx="20px" ry="20px" style="fill: #fff700;"></rect><text x="630" y="40" font-size="20px" style="fill: black;">Cadmium yellow</text><text x="630" y="60" font-size="20px" style="fill: white;">Cadmium yellow</text><text x="630" y="80" font-size="20px" style="fill: black;">#fff700</text><text x="630" y="100" font-size="20px" style="fill: white;">#fff700</text><text x="630" y="120" font-size="20px" style="fill: black;">0xffa0</text><text x="630" y="140" font-size="20px" style="fill: white;">0xffa0</text><rect x="0" y="210" width="200" height="200" rx="20px" ry="20px" style="fill: #ffff9c;"></rect><text x="0" y="250" font-size="20px" style="fill: black;">Canary Yellow</text><text x="0" y="270" font-size="20px" style="fill: white;">Canary Yellow</text><text x="0" y="290" font-size="20px" style="fill: black;">#ffff9c</text><text x="0" y="310" font-size="20px" style="fill: white;">#ffff9c</text><text x="0" y="330" font-size="20px" style="fill: black;">0xfff3</text><text x="0" y="350" font-size="20px" style="fill: white;">0xfff3</text><rect x="210" y="210" width="200" height="200" rx="20px" ry="20px" style="fill: #deff00;"></rect><text x="210" y="250" font-size="20px" style="fill: black;">Chartreuse (traditional)</text><text x="210" y="270" font-size="20px" style="fill: white;">Chartreuse (traditional)</text><text x="210" y="290" font-size="20px" style="fill: black;">#deff00</text><text x="210" y="310" font-size="20px" style="fill: white;">#deff00</text><text x="210" y="330" font-size="20px" style="fill: black;">0xdfe0</text><text x="210" y="350" font-size="20px" style="fill: white;">0xdfe0</text><rect x="420" y="210" width="200" height="200" rx="20px" ry="20px" style="fill: #ffb200;"></rect><text x="420" y="250" font-size="20px" style="fill: black;">Chinese yellow</text><text x="420" y="270" font-size="20px" style="fill: white;">Chinese yellow</text><text x="420" y="290" font-size="20px" style="fill: black;">#ffb200</text><text x="420" y="310" font-size="20px" style="fill: white;">#ffb200</text><text x="420" y="330" font-size="20px" style="fill: black;">0xfd80</text><text x="420" y="350" font-size="20px" style="fill: white;">0xfd80</text><rect x="630" y="210" width="200" height="200" rx="20px" ry="20px" style="fill: #ffa600;"></rect><text x="630" y="250" font-size="20px" style="fill: black;">Chrome yellow</text><text x="630" y="270" font-size="20px" style="fill: white;">Chrome yellow</text><text x="630" y="290" font-size="20px" style="fill: black;">#ffa600</text><text x="630" y="310" font-size="20px" style="fill: white;">#ffa600</text><text x="630" y="330" font-size="20px" style="fill: black;">0xfd20</text><text x="630" y="350" font-size="20px" style="fill: white;">0xfd20</text><rect x="0" y="420" width="200" height="200" rx="20px" ry="20px" style="fill: #ffffce;"></rect><text x="0" y="460" font-size="20px" style="fill: black;">Cream</text><text x="0" y="480" font-size="20px" style="fill: white;">Cream</text><text x="0" y="500" font-size="20px" style="fill: black;">#ffffce</text><text x="0" y="520" font-size="20px" style="fill: white;">#ffffce</text><text x="0" y="540" font-size="20px" style="fill: black;">0xfff9</text><text x="0" y="560" font-size="20px" style="fill: white;">0xfff9</text><rect x="210" y="420" width="200" height="200" rx="20px" ry="20px" style="fill: #ffd200;"></rect><text x="210" y="460" font-size="20px" style="fill: black;">Cyber Yellow</text><text x="210" y="480" font-size="20px" style="fill: white;">Cyber Yellow</text><text x="210" y="500" font-size="20px" style="fill: black;">#ffd200</text><text x="210" y="520" font-size="20px" style="fill: white;">#ffd200</text><text x="210" y="540" font-size="20px" style="fill: black;">0xfe80</text><text x="210" y="560" font-size="20px" style="fill: white;">0xfe80</text><rect x="420" y="420" width="200" height="200" rx="20px" ry="20px" style="fill: #deaa63;"></rect><text x="420" y="460" font-size="20px" style="fill: black;">Earth yellow</text><text x="420" y="480" font-size="20px" style="fill: white;">Earth yellow</text><text x="420" y="500" font-size="20px" style="fill: black;">#deaa63</text><text x="420" y="520" font-size="20px" style="fill: white;">#deaa63</text><text x="420" y="540" font-size="20px" style="fill: black;">0xdd4c</text><text x="420" y="560" font-size="20px" style="fill: white;">0xdd4c</text><rect x="630" y="420" width="200" height="200" rx="20px" ry="20px" style="fill: #4a5d52;"></rect><text x="630" y="460" font-size="20px" style="fill: black;">Feldgrau</text><text x="630" y="480" font-size="20px" style="fill: white;">Feldgrau</text><text x="630" y="500" font-size="20px" style="fill: black;">#4a5d52</text><text x="630" y="520" font-size="20px" style="fill: white;">#4a5d52</text><text x="630" y="540" font-size="20px" style="fill: black;">0x4aea</text><text x="630" y="560" font-size="20px" style="fill: white;">0x4aea</text><rect x="0" y="630" width="200" height="200" rx="20px" ry="20px" style="fill: #ffd700;"></rect><text x="0" y="670" font-size="20px" style="fill: black;">Gold (Golden)</text><text x="0" y="690" font-size="20px" style="fill: white;">Gold (Golden)</text><text x="0" y="710" font-size="20px" style="fill: black;">#ffd700</text><text x="0" y="730" font-size="20px" style="fill: white;">#ffd700</text><text x="0" y="750" font-size="20px" style="fill: black;">0xfea0</text><text x="0" y="770" font-size="20px" style="fill: white;">0xfea0</text><rect x="210" y="630" width="200" height="200" rx="20px" ry="20px" style="fill: #ffdf00;"></rect><text x="210" y="670" font-size="20px" style="fill: black;">Golden yellow</text><text x="210" y="690" font-size="20px" style="fill: white;">Golden yellow</text><text x="210" y="710" font-size="20px" style="fill: black;">#ffdf00</text><text x="210" y="730" font-size="20px" style="fill: white;">#ffdf00</text><text x="210" y="750" font-size="20px" style="fill: black;">0xfee0</text><text x="210" y="770" font-size="20px" style="fill: white;">0xfee0</text><rect x="420" y="630" width="200" height="200" rx="20px" ry="20px" style="fill: #dedf94;"></rect><text x="420" y="670" font-size="20px" style="fill: black;">Green earth</text><text x="420" y="690" font-size="20px" style="fill: white;">Green earth</text><text x="420" y="710" font-size="20px" style="fill: black;">#dedf94</text><text x="420" y="730" font-size="20px" style="fill: white;">#dedf94</text><text x="420" y="750" font-size="20px" style="fill: black;">0xdef2</text><text x="420" y="770" font-size="20px" style="fill: white;">0xdef2</text><rect x="630" y="630" width="200" height="200" rx="20px" ry="20px" style="fill: #adff31;"></rect><text x="630" y="670" font-size="20px" style="fill: black;">Green-yellow</text><text x="630" y="690" font-size="20px" style="fill: white;">Green-yellow</text><text x="630" y="710" font-size="20px" style="fill: black;">#adff31</text><text x="630" y="730" font-size="20px" style="fill: white;">#adff31</text><text x="630" y="750" font-size="20px" style="fill: black;">0xafe6</text><text x="630" y="770" font-size="20px" style="fill: white;">0xafe6</text><rect x="0" y="840" width="200" height="200" rx="20px" ry="20px" style="fill: #efe794;"></rect><text x="0" y="880" font-size="20px" style="fill: black;">Green-yellow (Crayola)</text><text x="0" y="900" font-size="20px" style="fill: white;">Green-yellow (Crayola)</text><text x="0" y="920" font-size="20px" style="fill: black;">#efe794</text><text x="0" y="940" font-size="20px" style="fill: white;">#efe794</text><text x="0" y="960" font-size="20px" style="fill: black;">0xef32</text><text x="0" y="980" font-size="20px" style="fill: white;">0xef32</text><rect x="210" y="840" width="200" height="200" rx="20px" ry="20px" style="fill: #efeb63;"></rect><text x="210" y="880" font-size="20px" style="fill: black;">Greenish Yellow</text><text x="210" y="900" font-size="20px" style="fill: white;">Greenish Yellow</text><text x="210" y="920" font-size="20px" style="fill: black;">#efeb63</text><text x="210" y="940" font-size="20px" style="fill: white;">#efeb63</text><text x="210" y="960" font-size="20px" style="fill: black;">0xef4c</text><text x="210" y="980" font-size="20px" style="fill: white;">0xef4c</text><rect x="420" y="840" width="200" height="200" rx="20px" ry="20px" style="fill: #e6d76b;"></rect><text x="420" y="880" font-size="20px" style="fill: black;">Hansa yellow</text><text x="420" y="900" font-size="20px" style="fill: white;">Hansa yellow</text><text x="420" y="920" font-size="20px" style="fill: black;">#e6d76b</text><text x="420" y="940" font-size="20px" style="fill: white;">#e6d76b</text><text x="420" y="960" font-size="20px" style="fill: black;">0xe6ad</text><text x="420" y="980" font-size="20px" style="fill: white;">0xe6ad</text><rect x="630" y="840" width="200" height="200" rx="20px" ry="20px" style="fill: #e6aa5a;"></rect><text x="630" y="880" font-size="20px" style="fill: black;">Indian yellow</text><text x="630" y="900" font-size="20px" style="fill: white;">Indian yellow</text><text x="630" y="920" font-size="20px" style="fill: black;">#e6aa5a</text><text x="630" y="940" font-size="20px" style="fill: white;">#e6aa5a</text><text x="630" y="960" font-size="20px" style="fill: black;">0xe54b</text><text x="630" y="980" font-size="20px" style="fill: white;">0xe54b</text><rect x="0" y="1050" width="200" height="200" rx="20px" ry="20px" style="fill: #fffbce;"></rect><text x="0" y="1090" font-size="20px" style="fill: black;">Lemon Chiffon</text><text x="0" y="1110" font-size="20px" style="fill: white;">Lemon Chiffon</text><text x="0" y="1130" font-size="20px" style="fill: black;">#fffbce</text><text x="0" y="1150" font-size="20px" style="fill: white;">#fffbce</text><text x="0" y="1170" font-size="20px" style="fill: black;">0xffd9</text><text x="0" y="1190" font-size="20px" style="fill: white;">0xffd9</text><rect x="210" y="1050" width="200" height="200" rx="20px" ry="20px" style="fill: #ffff00;"></rect><text x="210" y="1090" font-size="20px" style="fill: black;">Lemon (Crayola)</text><text x="210" y="1110" font-size="20px" style="fill: white;">Lemon (Crayola)</text><text x="210" y="1130" font-size="20px" style="fill: black;">#ffff00</text><text x="210" y="1150" font-size="20px" style="fill: white;">#ffff00</text><text x="210" y="1170" font-size="20px" style="fill: black;">0xffe0</text><text x="210" y="1190" font-size="20px" style="fill: white;">0xffe0</text><rect x="420" y="1050" width="200" height="200" rx="20px" ry="20px" style="fill: #fff352;"></rect><text x="420" y="1090" font-size="20px" style="fill: black;">Lemon yellow</text><text x="420" y="1110" font-size="20px" style="fill: white;">Lemon yellow</text><text x="420" y="1130" font-size="20px" style="fill: black;">#fff352</text><text x="420" y="1150" font-size="20px" style="fill: white;">#fff352</text><text x="420" y="1170" font-size="20px" style="fill: black;">0xff8a</text><text x="420" y="1190" font-size="20px" style="fill: white;">0xff8a</text><rect x="630" y="1050" width="200" height="200" rx="20px" ry="20px" style="fill: #ffff9c;"></rect><text x="630" y="1090" font-size="20px" style="fill: black;">Lemon yellow (Crayola)</text><text x="630" y="1110" font-size="20px" style="fill: white;">Lemon yellow (Crayola)</text><text x="630" y="1130" font-size="20px" style="fill: black;">#ffff9c</text><text x="630" y="1150" font-size="20px" style="fill: white;">#ffff9c</text><text x="630" y="1170" font-size="20px" style="fill: black;">0xfff3</text><text x="630" y="1190" font-size="20px" style="fill: white;">0xfff3</text><rect x="0" y="1260" width="200" height="200" rx="20px" ry="20px" style="fill: #f7fbd6;"></rect><text x="0" y="1300" font-size="20px" style="fill: black;">Light goldenrod yellow</text><text x="0" y="1320" font-size="20px" style="fill: white;">Light goldenrod yellow</text><text x="0" y="1340" font-size="20px" style="fill: black;">#f7fbd6</text><text x="0" y="1360" font-size="20px" style="fill: white;">#f7fbd6</text><text x="0" y="1380" font-size="20px" style="fill: black;">0xf7da</text><text x="0" y="1400" font-size="20px" style="fill: white;">0xf7da</text><rect x="210" y="1260" width="200" height="200" rx="20px" ry="20px" style="fill: #ffffde;"></rect><text x="210" y="1300" font-size="20px" style="fill: black;">Light Yellow</text><text x="210" y="1320" font-size="20px" style="fill: white;">Light Yellow</text><text x="210" y="1340" font-size="20px" style="fill: black;">#ffffde</text><text x="210" y="1360" font-size="20px" style="fill: white;">#ffffde</text><text x="210" y="1380" font-size="20px" style="fill: black;">0xfffb</text><text x="210" y="1400" font-size="20px" style="fill: white;">0xfffb</text><rect x="420" y="1260" width="200" height="200" rx="20px" ry="20px" style="fill: #d6e752;"></rect><text x="420" y="1300" font-size="20px" style="fill: black;">Maximum green yellow</text><text x="420" y="1320" font-size="20px" style="fill: white;">Maximum green yellow</text><text x="420" y="1340" font-size="20px" style="fill: black;">#d6e752</text><text x="420" y="1360" font-size="20px" style="fill: white;">#d6e752</text><text x="420" y="1380" font-size="20px" style="fill: black;">0xd72a</text><text x="420" y="1400" font-size="20px" style="fill: white;">0xd72a</text><rect x="630" y="1260" width="200" height="200" rx="20px" ry="20px" style="fill: #f7fb3a;"></rect><text x="630" y="1300" font-size="20px" style="fill: black;">Maximum Yellow</text><text x="630" y="1320" font-size="20px" style="fill: white;">Maximum Yellow</text><text x="630" y="1340" font-size="20px" style="fill: black;">#f7fb3a</text><text x="630" y="1360" font-size="20px" style="fill: white;">#f7fb3a</text><text x="630" y="1380" font-size="20px" style="fill: black;">0xf7c7</text><text x="630" y="1400" font-size="20px" style="fill: white;">0xf7c7</text><rect x="0" y="1470" width="200" height="200" rx="20px" ry="20px" style="fill: #efba4a;"></rect><text x="0" y="1510" font-size="20px" style="fill: black;">Maximum yellow red</text><text x="0" y="1530" font-size="20px" style="fill: white;">Maximum yellow red</text><text x="0" y="1550" font-size="20px" style="fill: black;">#efba4a</text><text x="0" y="1570" font-size="20px" style="fill: white;">#efba4a</text><text x="0" y="1590" font-size="20px" style="fill: black;">0xedc9</text><text x="0" y="1610" font-size="20px" style="fill: white;">0xedc9</text><rect x="210" y="1470" width="200" height="200" rx="20px" ry="20px" style="fill: #f7df7b;"></rect><text x="210" y="1510" font-size="20px" style="fill: black;">Mellow Yellow</text><text x="210" y="1530" font-size="20px" style="fill: white;">Mellow Yellow</text><text x="210" y="1550" font-size="20px" style="fill: black;">#f7df7b</text><text x="210" y="1570" font-size="20px" style="fill: white;">#f7df7b</text><text x="210" y="1590" font-size="20px" style="fill: black;">0xf6ef</text><text x="210" y="1610" font-size="20px" style="fill: white;">0xf6ef</text><rect x="420" y="1470" width="200" height="200" rx="20px" ry="20px" style="fill: #adbe63;"></rect><text x="420" y="1510" font-size="20px" style="fill: black;">Middle green yellow</text><text x="420" y="1530" font-size="20px" style="fill: white;">Middle green yellow</text><text x="420" y="1550" font-size="20px" style="fill: black;">#adbe63</text><text x="420" y="1570" font-size="20px" style="fill: white;">#adbe63</text><text x="420" y="1590" font-size="20px" style="fill: black;">0xadec</text><text x="420" y="1610" font-size="20px" style="fill: white;">0xadec</text><rect x="630" y="1470" width="200" height="200" rx="20px" ry="20px" style="fill: #ffeb00;"></rect><text x="630" y="1510" font-size="20px" style="fill: black;">Middle yellow</text><text x="630" y="1530" font-size="20px" style="fill: white;">Middle yellow</text><text x="630" y="1550" font-size="20px" style="fill: black;">#ffeb00</text><text x="630" y="1570" font-size="20px" style="fill: white;">#ffeb00</text><text x="630" y="1590" font-size="20px" style="fill: black;">0xff40</text><text x="630" y="1610" font-size="20px" style="fill: white;">0xff40</text><rect x="0" y="1680" width="200" height="200" rx="20px" ry="20px" style="fill: #efb273;"></rect><text x="0" y="1720" font-size="20px" style="fill: black;">Middle yellow red</text><text x="0" y="1740" font-size="20px" style="fill: white;">Middle yellow red</text><text x="0" y="1760" font-size="20px" style="fill: black;">#efb273</text><text x="0" y="1780" font-size="20px" style="fill: white;">#efb273</text><text x="0" y="1800" font-size="20px" style="fill: black;">0xed8e</text><text x="0" y="1820" font-size="20px" style="fill: white;">0xed8e</text><rect x="210" y="1680" width="200" height="200" rx="20px" ry="20px" style="fill: #ffc208;"></rect><text x="210" y="1720" font-size="20px" style="fill: black;">Mikado yellow</text><text x="210" y="1740" font-size="20px" style="fill: white;">Mikado yellow</text><text x="210" y="1760" font-size="20px" style="fill: black;">#ffc208</text><text x="210" y="1780" font-size="20px" style="fill: white;">#ffc208</text><text x="210" y="1800" font-size="20px" style="fill: black;">0xfe01</text><text x="210" y="1820" font-size="20px" style="fill: white;">0xfe01</text><rect x="420" y="1680" width="200" height="200" rx="20px" ry="20px" style="fill: #e6fb8c;"></rect><text x="420" y="1720" font-size="20px" style="fill: black;">Mindaro</text><text x="420" y="1740" font-size="20px" style="fill: white;">Mindaro</text><text x="420" y="1760" font-size="20px" style="fill: black;">#e6fb8c</text><text x="420" y="1780" font-size="20px" style="fill: white;">#e6fb8c</text><text x="420" y="1800" font-size="20px" style="fill: black;">0xe7d1</text><text x="420" y="1820" font-size="20px" style="fill: white;">0xe7d1</text><rect x="630" y="1680" width="200" height="200" rx="20px" ry="20px" style="fill: #f7df52;"></rect><text x="630" y="1720" font-size="20px" style="fill: black;">Minion yellow</text><text x="630" y="1740" font-size="20px" style="fill: white;">Minion yellow</text><text x="630" y="1760" font-size="20px" style="fill: black;">#f7df52</text><text x="630" y="1780" font-size="20px" style="fill: white;">#f7df52</text><text x="630" y="1800" font-size="20px" style="fill: black;">0xf6ea</text><text x="630" y="1820" font-size="20px" style="fill: white;">0xf6ea</text><rect x="0" y="1890" width="200" height="200" rx="20px" ry="20px" style="fill: #f7db5a;"></rect><text x="0" y="1930" font-size="20px" style="fill: black;">Naples yellow</text><text x="0" y="1950" font-size="20px" style="fill: white;">Naples yellow</text><text x="0" y="1970" font-size="20px" style="fill: black;">#f7db5a</text><text x="0" y="1990" font-size="20px" style="fill: white;">#f7db5a</text><text x="0" y="2010" font-size="20px" style="fill: black;">0xf6cb</text><text x="0" y="2030" font-size="20px" style="fill: white;">0xf6cb</text><rect x="210" y="1890" width="200" height="200" rx="20px" ry="20px" style="fill: #848200;"></rect><text x="210" y="1930" font-size="20px" style="fill: black;">Olive</text><text x="210" y="1950" font-size="20px" style="fill: white;">Olive</text><text x="210" y="1970" font-size="20px" style="fill: black;">#848200</text><text x="210" y="1990" font-size="20px" style="fill: white;">#848200</text><text x="210" y="2010" font-size="20px" style="fill: black;">0x8400</text><text x="210" y="2030" font-size="20px" style="fill: white;">0x8400</text><rect x="420" y="1890" width="200" height="200" rx="20px" ry="20px" style="fill: #f7be21;"></rect><text x="420" y="1930" font-size="20px" style="fill: black;">Orange-yellow</text><text x="420" y="1950" font-size="20px" style="fill: white;">Orange-yellow</text><text x="420" y="1970" font-size="20px" style="fill: black;">#f7be21</text><text x="420" y="1990" font-size="20px" style="fill: white;">#f7be21</text><text x="420" y="2010" font-size="20px" style="fill: black;">0xf5e4</text><text x="420" y="2030" font-size="20px" style="fill: white;">0xf5e4</text><rect x="630" y="1890" width="200" height="200" rx="20px" ry="20px" style="fill: #f7d76b;"></rect><text x="630" y="1930" font-size="20px" style="fill: black;">Orange-yellow (Crayola)</text><text x="630" y="1950" font-size="20px" style="fill: white;">Orange-yellow (Crayola)</text><text x="630" y="1970" font-size="20px" style="fill: black;">#f7d76b</text><text x="630" y="1990" font-size="20px" style="fill: white;">#f7d76b</text><text x="630" y="2010" font-size="20px" style="fill: black;">0xf6ad</text><text x="630" y="2030" font-size="20px" style="fill: white;">0xf6ad</text><rect x="0" y="2100" width="200" height="200" rx="20px" ry="20px" style="fill: #cee331;"></rect><text x="0" y="2140" font-size="20px" style="fill: black;">Pear</text><text x="0" y="2160" font-size="20px" style="fill: white;">Pear</text><text x="0" y="2180" font-size="20px" style="fill: black;">#cee331</text><text x="0" y="2200" font-size="20px" style="fill: white;">#cee331</text><text x="0" y="2220" font-size="20px" style="fill: black;">0xcf06</text><text x="0" y="2240" font-size="20px" style="fill: white;">0xcf06</text><rect x="210" y="2100" width="200" height="200" rx="20px" ry="20px" style="fill: #ffef00;"></rect><text x="210" y="2140" font-size="20px" style="fill: black;">Process Yellow</text><text x="210" y="2160" font-size="20px" style="fill: white;">Process Yellow</text><text x="210" y="2180" font-size="20px" style="fill: black;">#ffef00</text><text x="210" y="2200" font-size="20px" style="fill: white;">#ffef00</text><text x="210" y="2220" font-size="20px" style="fill: black;">0xff60</text><text x="210" y="2240" font-size="20px" style="fill: white;">0xff60</text><rect x="420" y="2100" width="200" height="200" rx="20px" ry="20px" style="fill: #f7db5a;"></rect><text x="420" y="2140" font-size="20px" style="fill: black;">Royal Yellow</text><text x="420" y="2160" font-size="20px" style="fill: white;">Royal Yellow</text><text x="420" y="2180" font-size="20px" style="fill: black;">#f7db5a</text><text x="420" y="2200" font-size="20px" style="fill: white;">#f7db5a</text><text x="420" y="2220" font-size="20px" style="fill: black;">0xf6cb</text><text x="420" y="2240" font-size="20px" style="fill: white;">0xf6cb</text><rect x="630" y="2100" width="200" height="200" rx="20px" ry="20px" style="fill: #efd200;"></rect><text x="630" y="2140" font-size="20px" style="fill: black;">Safety Yellow</text><text x="630" y="2160" font-size="20px" style="fill: white;">Safety Yellow</text><text x="630" y="2180" font-size="20px" style="fill: black;">#efd200</text><text x="630" y="2200" font-size="20px" style="fill: white;">#efd200</text><text x="630" y="2220" font-size="20px" style="fill: black;">0xee80</text><text x="630" y="2240" font-size="20px" style="fill: white;">0xee80</text><rect x="0" y="2310" width="200" height="200" rx="20px" ry="20px" style="fill: #ffd700;"></rect><text x="0" y="2350" font-size="20px" style="fill: black;">School bus yellow</text><text x="0" y="2370" font-size="20px" style="fill: white;">School bus yellow</text><text x="0" y="2390" font-size="20px" style="fill: black;">#ffd700</text><text x="0" y="2410" font-size="20px" style="fill: white;">#ffd700</text><text x="0" y="2430" font-size="20px" style="fill: black;">0xfea0</text><text x="0" y="2450" font-size="20px" style="fill: white;">0xfea0</text><rect x="210" y="2310" width="200" height="200" rx="20px" ry="20px" style="fill: #ffba00;"></rect><text x="210" y="2350" font-size="20px" style="fill: black;">Selective yellow</text><text x="210" y="2370" font-size="20px" style="fill: white;">Selective yellow</text><text x="210" y="2390" font-size="20px" style="fill: black;">#ffba00</text><text x="210" y="2410" font-size="20px" style="fill: white;">#ffba00</text><text x="210" y="2430" font-size="20px" style="fill: black;">0xfdc0</text><text x="210" y="2450" font-size="20px" style="fill: white;">0xfdc0</text><rect x="420" y="2310" width="200" height="200" rx="20px" ry="20px" style="fill: #f7db5a;"></rect><text x="420" y="2350" font-size="20px" style="fill: black;">Stil de grain yellow</text><text x="420" y="2370" font-size="20px" style="fill: white;">Stil de grain yellow</text><text x="420" y="2390" font-size="20px" style="fill: black;">#f7db5a</text><text x="420" y="2410" font-size="20px" style="fill: white;">#f7db5a</text><text x="420" y="2430" font-size="20px" style="fill: black;">0xf6cb</text><text x="420" y="2450" font-size="20px" style="fill: white;">0xf6cb</text><rect x="630" y="2310" width="200" height="200" rx="20px" ry="20px" style="fill: #efe700;"></rect><text x="630" y="2350" font-size="20px" style="fill: black;">Titanium yellow</text><text x="630" y="2370" font-size="20px" style="fill: white;">Titanium yellow</text><text x="630" y="2390" font-size="20px" style="fill: black;">#efe700</text><text x="630" y="2410" font-size="20px" style="fill: white;">#efe700</text><text x="630" y="2430" font-size="20px" style="fill: black;">0xef20</text><text x="630" y="2450" font-size="20px" style="fill: white;">0xef20</text><rect x="0" y="2520" width="200" height="200" rx="20px" ry="20px" style="fill: #ffff63;"></rect><text x="0" y="2560" font-size="20px" style="fill: black;">Unmellow Yellow</text><text x="0" y="2580" font-size="20px" style="fill: white;">Unmellow Yellow</text><text x="0" y="2600" font-size="20px" style="fill: black;">#ffff63</text><text x="0" y="2620" font-size="20px" style="fill: white;">#ffff63</text><text x="0" y="2640" font-size="20px" style="fill: black;">0xffec</text><text x="0" y="2660" font-size="20px" style="fill: white;">0xffec</text><rect x="210" y="2520" width="200" height="200" rx="20px" ry="20px" style="fill: #efef08;"></rect><text x="210" y="2560" font-size="20px" style="fill: black;">Xanthic</text><text x="210" y="2580" font-size="20px" style="fill: white;">Xanthic</text><text x="210" y="2600" font-size="20px" style="fill: black;">#efef08</text><text x="210" y="2620" font-size="20px" style="fill: white;">#efef08</text><text x="210" y="2640" font-size="20px" style="fill: black;">0xef61</text><text x="210" y="2660" font-size="20px" style="fill: white;">0xef61</text><rect x="420" y="2520" width="200" height="200" rx="20px" ry="20px" style="fill: #ffff00;"></rect><text x="420" y="2560" font-size="20px" style="fill: black;">Yellow</text><text x="420" y="2580" font-size="20px" style="fill: white;">Yellow</text><text x="420" y="2600" font-size="20px" style="fill: black;">#ffff00</text><text x="420" y="2620" font-size="20px" style="fill: white;">#ffff00</text><text x="420" y="2640" font-size="20px" style="fill: black;">0xffe0</text><text x="420" y="2660" font-size="20px" style="fill: white;">0xffe0</text><rect x="630" y="2520" width="200" height="200" rx="20px" ry="20px" style="fill: #ffe784;"></rect><text x="630" y="2560" font-size="20px" style="fill: black;">Yellow (Crayola)</text><text x="630" y="2580" font-size="20px" style="fill: white;">Yellow (Crayola)</text><text x="630" y="2600" font-size="20px" style="fill: black;">#ffe784</text><text x="630" y="2620" font-size="20px" style="fill: white;">#ffe784</text><text x="630" y="2640" font-size="20px" style="fill: black;">0xff30</text><text x="630" y="2660" font-size="20px" style="fill: white;">0xff30</text><rect x="0" y="2730" width="200" height="200" rx="20px" ry="20px" style="fill: #9cce31;"></rect><text x="0" y="2770" font-size="20px" style="fill: black;">Yellow-green</text><text x="0" y="2790" font-size="20px" style="fill: white;">Yellow-green</text><text x="0" y="2810" font-size="20px" style="fill: black;">#9cce31</text><text x="0" y="2830" font-size="20px" style="fill: white;">#9cce31</text><text x="0" y="2850" font-size="20px" style="fill: black;">0x9e66</text><text x="0" y="2870" font-size="20px" style="fill: white;">0x9e66</text><rect x="210" y="2730" width="200" height="200" rx="20px" ry="20px" style="fill: #31b219;"></rect><text x="210" y="2770" font-size="20px" style="fill: black;">Yellow-green (Color Wheel)</text><text x="210" y="2790" font-size="20px" style="fill: white;">Yellow-green (Color Wheel)</text><text x="210" y="2810" font-size="20px" style="fill: black;">#31b219</text><text x="210" y="2830" font-size="20px" style="fill: white;">#31b219</text><text x="210" y="2850" font-size="20px" style="fill: black;">0x3583</text><text x="210" y="2870" font-size="20px" style="fill: white;">0x3583</text><rect x="420" y="2730" width="200" height="200" rx="20px" ry="20px" style="fill: #c5e384;"></rect><text x="420" y="2770" font-size="20px" style="fill: black;">Yellow-green (Crayola)</text><text x="420" y="2790" font-size="20px" style="fill: white;">Yellow-green (Crayola)</text><text x="420" y="2810" font-size="20px" style="fill: black;">#c5e384</text><text x="420" y="2830" font-size="20px" style="fill: white;">#c5e384</text><text x="420" y="2850" font-size="20px" style="fill: black;">0xc710</text><text x="420" y="2870" font-size="20px" style="fill: white;">0xc710</text><rect x="630" y="2730" width="200" height="200" rx="20px" ry="20px" style="fill: #efca00;"></rect><text x="630" y="2770" font-size="20px" style="fill: black;">Yellow (Munsell)</text><text x="630" y="2790" font-size="20px" style="fill: white;">Yellow (Munsell)</text><text x="630" y="2810" font-size="20px" style="fill: black;">#efca00</text><text x="630" y="2830" font-size="20px" style="fill: white;">#efca00</text><text x="630" y="2850" font-size="20px" style="fill: black;">0xee40</text><text x="630" y="2870" font-size="20px" style="fill: white;">0xee40</text><rect x="0" y="2940" width="200" height="200" rx="20px" ry="20px" style="fill: #ffd200;"></rect><text x="0" y="2980" font-size="20px" style="fill: black;">Yellow (NCS)</text><text x="0" y="3000" font-size="20px" style="fill: white;">Yellow (NCS)</text><text x="0" y="3020" font-size="20px" style="fill: black;">#ffd200</text><text x="0" y="3040" font-size="20px" style="fill: white;">#ffd200</text><text x="0" y="3060" font-size="20px" style="fill: black;">0xfe80</text><text x="0" y="3080" font-size="20px" style="fill: white;">0xfe80</text><rect x="210" y="2940" width="200" height="200" rx="20px" ry="20px" style="fill: #ffae42;"></rect><text x="210" y="2980" font-size="20px" style="fill: black;">Yellow Orange</text><text x="210" y="3000" font-size="20px" style="fill: white;">Yellow Orange</text><text x="210" y="3020" font-size="20px" style="fill: black;">#ffae42</text><text x="210" y="3040" font-size="20px" style="fill: white;">#ffae42</text><text x="210" y="3060" font-size="20px" style="fill: black;">0xfd68</text><text x="210" y="3080" font-size="20px" style="fill: white;">0xfd68</text><rect x="420" y="2940" width="200" height="200" rx="20px" ry="20px" style="fill: #ff9608;"></rect><text x="420" y="2980" font-size="20px" style="fill: black;">Yellow Orange (Color Wheel)</text><text x="420" y="3000" font-size="20px" style="fill: white;">Yellow Orange (Color Wheel)</text><text x="420" y="3020" font-size="20px" style="fill: black;">#ff9608</text><text x="420" y="3040" font-size="20px" style="fill: white;">#ff9608</text><text x="420" y="3060" font-size="20px" style="fill: black;">0xfca1</text><text x="420" y="3080" font-size="20px" style="fill: white;">0xfca1</text><rect x="630" y="2940" width="200" height="200" rx="20px" ry="20px" style="fill: #ffdf00;"></rect><text x="630" y="2980" font-size="20px" style="fill: black;">Yellow (Pantone)</text><text x="630" y="3000" font-size="20px" style="fill: white;">Yellow (Pantone)</text><text x="630" y="3020" font-size="20px" style="fill: black;">#ffdf00</text><text x="630" y="3040" font-size="20px" style="fill: white;">#ffdf00</text><text x="630" y="3060" font-size="20px" style="fill: black;">0xfee0</text><text x="630" y="3080" font-size="20px" style="fill: white;">0xfee0</text><rect x="0" y="3150" width="200" height="200" rx="20px" ry="20px" style="fill: #ffef00;"></rect><text x="0" y="3190" font-size="20px" style="fill: black;">Yellow (process)</text><text x="0" y="3210" font-size="20px" style="fill: white;">Yellow (process)</text><text x="0" y="3230" font-size="20px" style="fill: black;">#ffef00</text><text x="0" y="3250" font-size="20px" style="fill: white;">#ffef00</text><text x="0" y="3270" font-size="20px" style="fill: black;">0xff60</text><text x="0" y="3290" font-size="20px" style="fill: white;">0xff60</text><rect x="210" y="3150" width="200" height="200" rx="20px" ry="20px" style="fill: #ffff00;"></rect><text x="210" y="3190" font-size="20px" style="fill: black;">Yellow (RGB) (X11 yellow)</text><text x="210" y="3210" font-size="20px" style="fill: white;">Yellow (RGB) (X11 yellow)</text><text x="210" y="3230" font-size="20px" style="fill: black;">#ffff00</text><text x="210" y="3250" font-size="20px" style="fill: white;">#ffff00</text><text x="210" y="3270" font-size="20px" style="fill: black;">0xffe0</text><text x="210" y="3290" font-size="20px" style="fill: white;">0xffe0</text><rect x="420" y="3150" width="200" height="200" rx="20px" ry="20px" style="fill: #ffff31;"></rect><text x="420" y="3190" font-size="20px" style="fill: black;">Yellow (RYB)</text><text x="420" y="3210" font-size="20px" style="fill: white;">Yellow (RYB)</text><text x="420" y="3230" font-size="20px" style="fill: black;">#ffff31</text><text x="420" y="3250" font-size="20px" style="fill: white;">#ffff31</text><text x="420" y="3270" font-size="20px" style="fill: black;">0xffe6</text><text x="420" y="3290" font-size="20px" style="fill: white;">0xffe6</text><rect x="630" y="3150" width="200" height="200" rx="20px" ry="20px" style="fill: #fff700;"></rect><text x="630" y="3190" font-size="20px" style="fill: black;">Yellow Sunshine</text><text x="630" y="3210" font-size="20px" style="fill: white;">Yellow Sunshine</text><text x="630" y="3230" font-size="20px" style="fill: black;">#fff700</text><text x="630" y="3250" font-size="20px" style="fill: white;">#fff700</text><text x="630" y="3270" font-size="20px" style="fill: black;">0xffa0</text><text x="630" y="3290" font-size="20px" style="fill: white;">0xffa0</text></svg>